0
SECTION
2
HEADER
9
$INSUNITS
70
4
9
$ACADVER
1
AC1014
9
$HANDSEED
5
FFFF
0
ENDSEC
0
SECTION
2
TABLES
0
TABLE
2
VPORT
5
8
100
AcDbSymbolTable
0
ENDTAB
0
TABLE
2
LTYPE
5
5
100
AcDbSymbolTable
0
LTYPE
5
14
100
AcDbSymbolTableRecord
100
AcDbLinetypeTableRecord
2
BYBLOCK
70
0
0
LTYPE
5
15
100
AcDbSymbolTableRecord
100
AcDbLinetypeTableRecord
2
BYLAYER
70
0
0
ENDTAB
0
TABLE
2
LAYER
5
2
100
AcDbSymbolTable
70
2
0
LAYER
5
50
100
AcDbSymbolTableRecord
100
AcDbLayerTableRecord
2
0
70
0
6
CONTINUOUS
0
ENDTAB
0
TABLE
2
STYLE
5
3
100
AcDbSymbolTable
70
1
0
STYLE
5
11
100
AcDbSymbolTableRecord
100
AcDbTextStyleTableRecord
2
STANDARD
70
0
0
ENDTAB
0
TABLE
2
VIEW
5
6
100
AcDbSymbolTable
70
0
0
ENDTAB
0
TABLE
2
UCS
5
7
100
AcDbSymbolTable
70
0
0
ENDTAB
0
TABLE
2
APPID
5
9
100
AcDbSymbolTable
70
2
0
APPID
5
12
100
AcDbSymbolTableRecord
100
AcDbRegAppTableRecord
2
ACAD
70
0
0
ENDTAB
0
TABLE
2
DIMSTYLE
5
A
100
AcDbSymbolTable
70
1
0
ENDTAB
0
TABLE
2
BLOCK_RECORD
5
1
100
AcDbSymbolTable
70
1
0
BLOCK_RECORD
5
1F
100
AcDbSymbolTableRecord
100
AcDbBlockTableRecord
2
*MODEL_SPACE
0
BLOCK_RECORD
5
1B
100
AcDbSymbolTableRecord
100
AcDbBlockTableRecord
2
*PAPER_SPACE
0
ENDTAB
0
ENDSEC
0
SECTION
2
BLOCKS
0
BLOCK
5
20
100
AcDbEntity
100
AcDbBlockBegin
2
*MODEL_SPACE
0
ENDBLK
5
21
100
AcDbEntity
100
AcDbBlockEnd
0
BLOCK
5
1C
100
AcDbEntity
100
AcDbBlockBegin
2
*PAPER_SPACE
0
ENDBLK
5
1D
100
AcDbEntity
100
AcDbBlockEnd
0
ENDSEC
0
SECTION
2
ENTITIES
0
LWPOLYLINE
5
100
100
AcDbEntity
8
0
100
AcDbPolyline
90
4
70
1
43
0.0
10
19.000000014901161
20
-1.0000000149011612
10
1.0000000149011612
20
-1.0000000149011612
10
1.0000000149011612
20
-19.000000014901161
10
19.000000014901161
20
-19.000000014901161
0
LWPOLYLINE
5
101
100
AcDbEntity
8
0
100
AcDbPolyline
90
4
70
1
43
0.0
10
38.000000014901161
20
-1.0000000149011612
10
20.000000014901165
20
-1.0000000149011612
10
20.000000014901165
20
-19.000000014901161
10
38.000000014901161
20
-19.000000014901161
0
LWPOLYLINE
5
102
100
AcDbEntity
8
0
100
AcDbPolyline
90
4
70
1
43
0.0
10
57.000000014901168
20
-1.0000000149011612
10
39.000000014901168
20
-1.0000000149011612
10
39.000000014901168
20
-19.000000014901161
10
57.000000014901168
20
-19.000000014901161
0
LWPOLYLINE
5
103
100
AcDbEntity
8
0
100
AcDbPolyline
90
4
70
1
43
0.0
10
76.000000014901175
20
-1.0000000149011612
10
58.000000014901175
20
-1.0000000149011612
10
58.000000014901175
20
-19.000000014901161
10
76.000000014901175
20
-19.000000014901161
0
LWPOLYLINE
5
104
100
AcDbEntity
8
0
100
AcDbPolyline
90
4
70
1
43
0.0
10
19.000000014901161
20
-20.000000014901165
10
1.0000000149011612
20
-20.000000014901165
10
1.0000000149011612
20
-38.000000014901161
10
19.000000014901161
20
-38.000000014901161
0
LWPOLYLINE
5
105
100
AcDbEntity
8
0
100
AcDbPolyline
90
4
70
1
43
0.0
10
38.000000014901161
20
-20.000000014901165
10
20.000000014901165
20
-20.000000014901165
10
20.000000014901165
20
-38.000000014901161
10
38.000000014901161
20
-38.000000014901161
0
LWPOLYLINE
5
106
100
AcDbEntity
8
0
100
AcDbPolyline
90
4
70
1
43
0.0
10
57.000000014901168
20
-20.000000014901165
10
39.000000014901168
20
-20.000000014901165
10
39.000000014901168
20
-38.000000014901161
10
57.000000014901168
20
-38.000000014901161
0
LWPOLYLINE
5
107
100
AcDbEntity
8
0
100
AcDbPolyline
90
4
70
1
43
0.0
10
76.000000014901175
20
-20.000000014901165
10
58.000000014901175
20
-20.000000014901165
10
58.000000014901175
20
-38.000000014901161
10
76.000000014901175
20
-38.000000014901161
0
LWPOLYLINE
5
108
100
AcDbEntity
8
0
100
AcDbPolyline
90
4
70
1
43
0.0
10
19.000000014901161
20
-39.000000014901168
10
1.0000000149011612
20
-39.000000014901168
10
1.0000000149011612
20
-57.000000014901168
10
19.000000014901161
20
-57.000000014901168
0
LWPOLYLINE
5
109
100
AcDbEntity
8
0
100
AcDbPolyline
90
4
70
1
43
0.0
10
38.000000014901161
20
-39.000000014901168
10
20.000000014901165
20
-39.000000014901168
10
20.000000014901165
20
-57.000000014901168
10
38.000000014901161
20
-57.000000014901168
0
LWPOLYLINE
5
110
100
AcDbEntity
8
0
100
AcDbPolyline
90
4
70
1
43
0.0
10
57.000000014901168
20
-39.000000014901168
10
39.000000014901168
20
-39.000000014901168
10
39.000000014901168
20
-57.000000014901168
10
57.000000014901168
20
-57.000000014901168
0
LWPOLYLINE
5
111
100
AcDbEntity
8
0
100
AcDbPolyline
90
4
70
1
43
0.0
10
76.000000014901175
20
-39.000000014901168
10
58.000000014901175
20
-39.000000014901168
10
58.000000014901175
20
-57.000000014901168
10
76.000000014901175
20
-57.000000014901168
0
LWPOLYLINE
5
112
100
AcDbEntity
8
0
100
AcDbPolyline
90
4
70
1
43
0.0
10
97.793228412219122
20
-49.07692717312667
10
80.406563539015977
20
-44.418184361281341
10
73.418449321247849
20
-70.498181671086229
10
90.805114194451136
20
-75.156924482931586
0
LWPOLYLINE
5
113
100
AcDbEntity
8
0
100
AcDbPolyline
90
4
70
1
43
0.0
10
91.771040020740116
20
-75.415743528034113
10
109.1577048939433
20
-80.074486339879485
10
116.14581911171142
20
-53.994489030074533
10
98.759154238508188
20
-49.335746218229204
0
LWPOLYLINE
5
114
100
AcDbEntity
8
0
100
AcDbPolyline
90
4
70
1
43
0.0
10
95.000001460313797
20
-6.4181843612813481
10
77.000001192092896
20
-6.4181843612813472
10
77.000001192092896
20
-24.418184361281348
10
95.000001460313797
20
-24.418184361281348
0
LWPOLYLINE
5
115
100
AcDbEntity
8
0
100
AcDbPolyline
90
4
70
1
43
0.0
10
95.000001605067936
20
-25.418184361281355
10
77.000001605067922
20
-25.418184361281355
10
77.000001605067922
20
-43.418184361281348
10
95.000001605067936
20
-43.418184361281348
0
LWPOLYLINE
5
116
100
AcDbEntity
8
0
100
AcDbPolyline
90
16
70
1
43
0.0
10
75.934173710495955
20
4.7184478546569153e-15
10
1.5000000000000004
20
0
42
0.41421356237309587
10
0
20
-1.5000000000000036
10
-3.6082248300317588e-15
20
-56.500000014901147
42
0.41421356237309498
10
1.5000000000000124
20
-58.000000014901161
10
73.777211470613409
20
-58.000000014901175
42
-0.49314543614258866
10
75.226100197416656
20
-59.888228629692065
10
72.581931503088953
20
-69.756399256529861
42
0.41421357190187391
10
73.642591662238416
20
-71.593516610754349
10
108.41592293569624
20
-80.91100264361728
42
0.41421356237308832
10
110.25304024278363
20
-79.850342471837465
10
117.09470785114502
20
-54.316891348934753
42
0.065543462815245521
10
117.1458191117114
20
-53.928662781280963
10
117.1458191117114
20
-12.140703315366938
42
0.33945425886336983
10
116.03404767936519
20
-10.691814575933339
10
76.322402278149724
20
-0.051111260566395478
42
0.065543462815242398
0
CIRCLE
5
117
100
AcDbEntity
8
0
100
AcDbCircle
10
19.500000290572643
20
-19.500000290572643
30
0
40
2.0000000298023224
0
CIRCLE
5
118
100
AcDbEntity
8
0
100
AcDbCircle
10
19.500000290572643
20
-38.500000573694706
30
0
40
2.0000000298023224
0
CIRCLE
5
119
100
AcDbEntity
8
0
100
AcDbCircle
10
78.000000044703498
20
-4.4181843314790248
30
0
40
2.0000000298023224
0
CIRCLE
5
120
100
AcDbEntity
8
0
100
AcDbCircle
10
92.50000137835741
20
-45.500000678002834
30
0
40
2.0000000298023224
0
CIRCLE
5
121
100
AcDbEntity
8
0
100
AcDbCircle
10
92.026228324018689
20
-72.531516162123339
30
0
40
2.0000000298023224
0
CIRCLE
5
122
100
AcDbEntity
8
0
100
AcDbCircle
10
114.1458191117114
20
-13.291693797335322
30
0
40
1.0000000149011612
0
CIRCLE
5
123
100
AcDbEntity
8
0
100
AcDbCircle
10
114.1458191117114
20
-49.317485923572015
30
0
40
1.0000000149011612
0
CIRCLE
5
124
100
AcDbEntity
8
0
100
AcDbCircle
10
99.000001460313797
20
-9.2333841889342878
30
0
40
1.0000000149011612
0
LINE
5
125
100
AcDbEntity
8
0
100
AcDbLine
10
79.241877836054627
20
-48.764850579582145
30
0
11
96.628542709257928
21
-53.423593391427488
31
0
0
LINE
5
126
100
AcDbEntity
8
0
100
AcDbLine
10
74.583135024209227
20
-66.151515452785375
30
0
11
91.969799897412585
21
-70.810258264630804
31
0
0
LINE
5
127
100
AcDbEntity
8
0
100
AcDbLine
10
97.594468535546852
20
-53.682412436529965
30
0
11
114.98113340875007
21
-58.341155248375351
31
0
0
LINE
5
128
100
AcDbEntity
8
0
100
AcDbLine
10
92.935725723701466
20
-71.069077309733274
30
0
11
110.32239059690465
21
-75.727820121578659
31
0
0
ENDSEC
0
SECTION
2
OBJECTS
0
DICTIONARY
5
C
100
AcDbDictionary
3
ACAD_GROUP
350
D
3
ACAD_MLINESTYLE
350
17
0
DICTIONARY
5
D
100
AcDbDictionary
0
DICTIONARY
5
1A
330
C
100
AcDbDictionary
0
DICTIONARY
5
17
100
AcDbDictionary
0
ENDSEC
0
EOF
