M48
;DRILL file {KiCad 4.0.7} date 06/17/18 20:51:47
;FORMAT={-:-/ absolute / metric / decimal}
FMAT,2
METRIC,TZ
T1C1.200
T2C1.702
T3C3.988
%
G90
G05
M71
T1
X177.Y-101.14
X177.Y-102.14
X184.Y-101.14
X184.Y-102.14
T2
X74.84Y-70.
X74.84Y-89.
X74.92Y-108.
X85.Y-70.
X85.Y-89.
X85.08Y-108.
X93.84Y-89.
X93.92Y-70.
X94.Y-108.
X104.Y-89.
X104.08Y-70.
X104.16Y-108.
X112.84Y-89.
X113.Y-70.
X113.Y-108.
X123.Y-89.
X123.16Y-70.
X123.16Y-108.
X131.84Y-89.
X131.92Y-70.
X132.Y-108.
X142.Y-89.
X142.08Y-70.
X142.16Y-108.
X150.693Y-118.37
X150.92Y-75.5
X150.92Y-94.5
X160.507Y-121.
X161.08Y-75.5
X161.08Y-94.5
X169.Y-123.4
X178.814Y-126.03
T3
X79.92Y-70.
X79.92Y-89.
X80.Y-108.
X98.92Y-89.
X99.Y-70.
X99.08Y-108.
X117.92Y-89.
X118.08Y-70.
X118.08Y-108.
X136.92Y-89.
X137.Y-70.
X137.08Y-108.
X155.6Y-119.685
X156.Y-75.5
X156.Y-94.5
X173.907Y-124.715
T0
M30
