M48
;DRILL file {KiCad 4.0.7} date 06/17/18 20:51:47
;FORMAT={-:-/ absolute / metric / decimal}
FMAT,2
METRIC,TZ
T1C0.381
T2C0.400
T3C0.800
T4C1.000
T5C1.100
T6C1.500
%
G90
G05
M71
T2
X130.937Y-92.329
X131.445Y-94.488
X132.715Y-97.79
X133.858Y-96.75
X135.89Y-96.012
X139.7Y-95.758
X165.608Y-107.696
X173.101Y-106.299
X175.895Y-114.808
X177.165Y-107.061
X178.435Y-114.681
X184.15Y-94.615
T3
X134.5Y-98.5
X139.5Y-98.5
X148.682Y-128.434
X158.496Y-131.064
X167.005Y-95.25
X167.005Y-105.41
X170.815Y-95.25
X170.815Y-105.41
X173.736Y-85.852
X173.736Y-96.012
X174.625Y-78.105
X177.292Y-85.852
X177.292Y-96.012
X184.785Y-78.105
X184.785Y-83.82
X184.785Y-91.44
T4
X168.275Y-81.28
X168.275Y-83.82
X168.275Y-86.36
X168.275Y-88.9
X168.275Y-91.44
X170.815Y-108.585
X173.355Y-108.585
X175.895Y-108.585
X178.435Y-108.585
X180.975Y-81.28
X180.975Y-83.82
X180.975Y-86.36
X180.975Y-88.9
X180.975Y-91.44
T5
X164.502Y-123.098
X167.132Y-113.284
T1
X174.381Y-100.14G85X173.619Y-100.14
G05
X174.381Y-103.14G85X173.619Y-103.14
G05
X175.881Y-99.14G85X175.119Y-99.14
G05
X175.881Y-104.14G85X175.119Y-104.14
G05
X179.881Y-99.14G85X179.119Y-99.14
G05
X179.881Y-104.14G85X179.119Y-104.14
G05
X182.881Y-99.14G85X182.119Y-99.14
G05
X182.881Y-104.14G85X182.119Y-104.14
G05
T6
X76.92Y-66.G85X76.11Y-67.46
G05
X76.92Y-85.G85X76.11Y-86.46
G05
X77.Y-104.G85X76.19Y-105.46
G05
X77.42Y-64.921G85X77.46Y-65.499
G05
X77.42Y-83.921G85X77.46Y-84.499
G05
X77.5Y-102.921G85X77.54Y-103.499
G05
X82.46Y-64.921G85X82.42Y-65.499
G05
X82.46Y-83.921G85X82.42Y-84.499
G05
X82.54Y-102.921G85X82.5Y-103.499
G05
X83.11Y-66.G85X83.92Y-67.46
G05
X83.11Y-85.G85X83.92Y-86.46
G05
X83.19Y-104.G85X84.Y-105.46
G05
X95.92Y-85.G85X95.11Y-86.46
G05
X96.Y-66.G85X95.19Y-67.46
G05
X96.08Y-104.G85X95.27Y-105.46
G05
X96.42Y-83.921G85X96.46Y-84.499
G05
X96.5Y-64.921G85X96.54Y-65.499
G05
X96.58Y-102.921G85X96.62Y-103.499
G05
X101.46Y-83.921G85X101.42Y-84.499
G05
X101.54Y-64.921G85X101.5Y-65.499
G05
X101.62Y-102.921G85X101.58Y-103.499
G05
X102.11Y-85.G85X102.92Y-86.46
G05
X102.19Y-66.G85X103.Y-67.46
G05
X102.27Y-104.G85X103.08Y-105.46
G05
X114.92Y-85.G85X114.11Y-86.46
G05
X115.08Y-66.G85X114.27Y-67.46
G05
X115.08Y-104.G85X114.27Y-105.46
G05
X115.42Y-83.921G85X115.46Y-84.499
G05
X115.58Y-64.921G85X115.62Y-65.499
G05
X115.58Y-102.921G85X115.62Y-103.499
G05
X120.46Y-83.921G85X120.42Y-84.499
G05
X120.62Y-64.921G85X120.58Y-65.499
G05
X120.62Y-102.921G85X120.58Y-103.499
G05
X121.11Y-85.G85X121.92Y-86.46
G05
X121.27Y-66.G85X122.08Y-67.46
G05
X121.27Y-104.G85X122.08Y-105.46
G05
X133.92Y-85.G85X133.11Y-86.46
G05
X134.Y-66.G85X133.19Y-67.46
G05
X134.08Y-104.G85X133.27Y-105.46
G05
X134.42Y-83.921G85X134.46Y-84.499
G05
X134.5Y-64.921G85X134.54Y-65.499
G05
X134.58Y-102.921G85X134.62Y-103.499
G05
X139.46Y-83.921G85X139.42Y-84.499
G05
X139.54Y-64.921G85X139.5Y-65.499
G05
X139.62Y-102.921G85X139.58Y-103.499
G05
X140.11Y-85.G85X140.92Y-86.46
G05
X140.19Y-66.G85X141.Y-67.46
G05
X140.27Y-104.G85X141.08Y-105.46
G05
X153.Y-71.5G85X152.19Y-72.96
G05
X153.Y-90.5G85X152.19Y-91.96
G05
X153.738Y-115.045G85X152.577Y-116.245
G05
X153.5Y-70.421G85X153.54Y-70.999
G05
X153.5Y-89.421G85X153.54Y-89.999
G05
X154.5Y-114.132G85X154.388Y-114.701
G05
X158.54Y-70.421G85X158.5Y-70.999
G05
X158.54Y-89.421G85X158.5Y-89.999
G05
X159.368Y-115.436G85X159.18Y-115.985
G05
X159.19Y-71.5G85X160.Y-72.96
G05
X159.19Y-90.5G85X160.Y-91.96
G05
X159.717Y-116.647G85X160.121Y-118.267
G05
X172.045Y-120.075G85X170.884Y-121.275
G05
X172.807Y-119.162G85X172.695Y-119.731
G05
X177.675Y-120.466G85X177.487Y-121.015
G05
X178.024Y-121.676G85X178.428Y-123.297
G05
T0
M30
