G04 #@! TF.FileFunction,Soldermask,Top*
%FSLAX46Y46*%
G04 Gerber Fmt 4.6, Leading zero omitted, Abs format (unit mm)*
G04 Created by KiCad (PCBNEW 4.0.7) date 06/17/18 20:50:59*
%MOMM*%
%LPD*%
G01*
G04 APERTURE LIST*
%ADD10C,0.100000*%
%ADD11C,2.000000*%
%ADD12C,2.600000*%
%ADD13R,2.100000X2.100000*%
%ADD14O,2.100000X2.100000*%
%ADD15R,1.670000X1.370000*%
%ADD16R,2.400000X3.400000*%
%ADD17R,8.900000X2.400000*%
%ADD18R,1.400000X1.400000*%
%ADD19R,4.400000X1.400000*%
%ADD20R,1.300000X1.200000*%
%ADD21O,2.000000X2.000000*%
%ADD22C,2.000000*%
%ADD23R,2.000000X2.000000*%
%ADD24C,2.900000*%
%ADD25C,4.387810*%
%ADD26C,2.101810*%
%ADD27O,1.924000X1.162000*%
%ADD28C,2.100000*%
G04 APERTURE END LIST*
D10*
D11*
X134500000Y-98500000D03*
X139500000Y-98500000D03*
D10*
G36*
X165421638Y-124689974D02*
X162910231Y-124017045D01*
X163583160Y-121505638D01*
X166094567Y-122178567D01*
X165421638Y-124689974D01*
X165421638Y-124689974D01*
G37*
D12*
X167132000Y-113284000D02*
X167132000Y-113284000D01*
D13*
X168275000Y-81280000D03*
D14*
X168275000Y-83820000D03*
X168275000Y-86360000D03*
X168275000Y-88900000D03*
X168275000Y-91440000D03*
D15*
X133350000Y-92075000D03*
X133350000Y-93345000D03*
X133350000Y-94615000D03*
D13*
X180975000Y-91440000D03*
D14*
X180975000Y-88900000D03*
X180975000Y-86360000D03*
X180975000Y-83820000D03*
X180975000Y-81280000D03*
D15*
X136525000Y-92075000D03*
X136525000Y-93345000D03*
X136525000Y-94615000D03*
X170815000Y-113040000D03*
X170815000Y-111760000D03*
X173355000Y-113040000D03*
X173355000Y-111760000D03*
X175895000Y-113040000D03*
X175895000Y-111760000D03*
X139700000Y-92075000D03*
X139700000Y-93345000D03*
X139700000Y-94615000D03*
X178435000Y-113040000D03*
X178435000Y-111760000D03*
D13*
X170815000Y-108585000D03*
D14*
X173355000Y-108585000D03*
X175895000Y-108585000D03*
X178435000Y-108585000D03*
D16*
X149000000Y-112500000D03*
X155000000Y-111000000D03*
X155000000Y-100500000D03*
D17*
X156750000Y-110000000D03*
X147250000Y-110000000D03*
X156750000Y-103000000D03*
D18*
X152000000Y-102500000D03*
X152000000Y-110500000D03*
D16*
X149000000Y-100500000D03*
D19*
X159000000Y-107500000D03*
X145000000Y-105500000D03*
D17*
X147250000Y-103000000D03*
D20*
X165592000Y-111186000D03*
X165592000Y-109286000D03*
X163592000Y-110236000D03*
D11*
X174625000Y-78105000D03*
D21*
X184785000Y-78105000D03*
D11*
X173736000Y-85852000D03*
D21*
X173736000Y-96012000D03*
D11*
X177292000Y-85852000D03*
D21*
X177292000Y-96012000D03*
D11*
X167005000Y-105410000D03*
D21*
X167005000Y-95250000D03*
D11*
X170815000Y-95250000D03*
D21*
X170815000Y-105410000D03*
D11*
X158496000Y-131064000D03*
D22*
X148682194Y-128434399D02*
X148682194Y-128434399D01*
D23*
X184785000Y-83820000D03*
D21*
X184785000Y-91440000D03*
D24*
X77420276Y-64920672D02*
X77459724Y-65499328D01*
X83110184Y-65999693D02*
X83919816Y-67460307D01*
D25*
X79920000Y-70000000D03*
D26*
X74840000Y-70000000D03*
X85000000Y-70000000D03*
D24*
X76920453Y-66000046D02*
X76109547Y-67459954D01*
X82459724Y-64920672D02*
X82420276Y-65499328D01*
X77420276Y-83920672D02*
X77459724Y-84499328D01*
X83110184Y-84999693D02*
X83919816Y-86460307D01*
D25*
X79920000Y-89000000D03*
D26*
X74840000Y-89000000D03*
X85000000Y-89000000D03*
D24*
X76920453Y-85000046D02*
X76109547Y-86459954D01*
X82459724Y-83920672D02*
X82420276Y-84499328D01*
X77500276Y-102920672D02*
X77539724Y-103499328D01*
X83190184Y-103999693D02*
X83999816Y-105460307D01*
D25*
X80000000Y-108000000D03*
D26*
X74920000Y-108000000D03*
X85080000Y-108000000D03*
D24*
X77000453Y-104000046D02*
X76189547Y-105459954D01*
X82539724Y-102920672D02*
X82500276Y-103499328D01*
X96500276Y-64920672D02*
X96539724Y-65499328D01*
X102190184Y-65999693D02*
X102999816Y-67460307D01*
D25*
X99000000Y-70000000D03*
D26*
X93920000Y-70000000D03*
X104080000Y-70000000D03*
D24*
X96000453Y-66000046D02*
X95189547Y-67459954D01*
X101539724Y-64920672D02*
X101500276Y-65499328D01*
X96420276Y-83920672D02*
X96459724Y-84499328D01*
X102110184Y-84999693D02*
X102919816Y-86460307D01*
D25*
X98920000Y-89000000D03*
D26*
X93840000Y-89000000D03*
X104000000Y-89000000D03*
D24*
X95920453Y-85000046D02*
X95109547Y-86459954D01*
X101459724Y-83920672D02*
X101420276Y-84499328D01*
X96580276Y-102920672D02*
X96619724Y-103499328D01*
X102270184Y-103999693D02*
X103079816Y-105460307D01*
D25*
X99080000Y-108000000D03*
D26*
X94000000Y-108000000D03*
X104160000Y-108000000D03*
D24*
X96080453Y-104000046D02*
X95269547Y-105459954D01*
X101619724Y-102920672D02*
X101580276Y-103499328D01*
X115580276Y-64920672D02*
X115619724Y-65499328D01*
X121270184Y-65999693D02*
X122079816Y-67460307D01*
D25*
X118080000Y-70000000D03*
D26*
X113000000Y-70000000D03*
X123160000Y-70000000D03*
D24*
X115080453Y-66000046D02*
X114269547Y-67459954D01*
X120619724Y-64920672D02*
X120580276Y-65499328D01*
X115420276Y-83920672D02*
X115459724Y-84499328D01*
X121110184Y-84999693D02*
X121919816Y-86460307D01*
D25*
X117920000Y-89000000D03*
D26*
X112840000Y-89000000D03*
X123000000Y-89000000D03*
D24*
X114920453Y-85000046D02*
X114109547Y-86459954D01*
X120459724Y-83920672D02*
X120420276Y-84499328D01*
X115580276Y-102920672D02*
X115619724Y-103499328D01*
X121270184Y-103999693D02*
X122079816Y-105460307D01*
D25*
X118080000Y-108000000D03*
D26*
X113000000Y-108000000D03*
X123160000Y-108000000D03*
D24*
X115080453Y-104000046D02*
X114269547Y-105459954D01*
X120619724Y-102920672D02*
X120580276Y-103499328D01*
X134500276Y-64920672D02*
X134539724Y-65499328D01*
X140190184Y-65999693D02*
X140999816Y-67460307D01*
D25*
X137000000Y-70000000D03*
D26*
X131920000Y-70000000D03*
X142080000Y-70000000D03*
D24*
X134000453Y-66000046D02*
X133189547Y-67459954D01*
X139539724Y-64920672D02*
X139500276Y-65499328D01*
X134420276Y-83920672D02*
X134459724Y-84499328D01*
X140110184Y-84999693D02*
X140919816Y-86460307D01*
D25*
X136920000Y-89000000D03*
D26*
X131840000Y-89000000D03*
X142000000Y-89000000D03*
D24*
X133920453Y-85000046D02*
X133109547Y-86459954D01*
X139459724Y-83920672D02*
X139420276Y-84499328D01*
X134580276Y-102920672D02*
X134619724Y-103499328D01*
X140270184Y-103999693D02*
X141079816Y-105460307D01*
D25*
X137080000Y-108000000D03*
D26*
X132000000Y-108000000D03*
X142160000Y-108000000D03*
D24*
X134080453Y-104000046D02*
X133269547Y-105459954D01*
X139619724Y-102920672D02*
X139580276Y-103499328D01*
X153500276Y-70420672D02*
X153539724Y-70999328D01*
X159190184Y-71499693D02*
X159999816Y-72960307D01*
D25*
X156000000Y-75500000D03*
D26*
X150920000Y-75500000D03*
X161080000Y-75500000D03*
D24*
X153000453Y-71500046D02*
X152189547Y-72959954D01*
X158539724Y-70420672D02*
X158500276Y-70999328D01*
X153500276Y-89420672D02*
X153539724Y-89999328D01*
X159190184Y-90499693D02*
X159999816Y-91960307D01*
D25*
X156000000Y-94500000D03*
D26*
X150920000Y-94500000D03*
X161080000Y-94500000D03*
D24*
X153000453Y-90500046D02*
X152189547Y-91959954D01*
X158539724Y-89420672D02*
X158500276Y-89999328D01*
X154500078Y-114131968D02*
X154388416Y-114701118D01*
X159716837Y-116646879D02*
X160120847Y-118267273D01*
D25*
X155600000Y-119685199D03*
D26*
X150693097Y-118370398D03*
X160506903Y-121000000D03*
D24*
X153737925Y-115045201D02*
X152576797Y-116245485D01*
X159367812Y-115436273D02*
X159179940Y-115985003D01*
X172806981Y-119161570D02*
X172695319Y-119730720D01*
X178023740Y-121676481D02*
X178427750Y-123296875D01*
D25*
X173906903Y-124714801D03*
D26*
X169000000Y-123400000D03*
X178813806Y-126029602D03*
D24*
X172044828Y-120074803D02*
X170883700Y-121275087D01*
X177674715Y-120465875D02*
X177486843Y-121014605D01*
D10*
G36*
X128902306Y-102116852D02*
X128357834Y-102661324D01*
X127367884Y-101671374D01*
X127912356Y-101126902D01*
X128902306Y-102116852D01*
X128902306Y-102116852D01*
G37*
G36*
X129361926Y-101657232D02*
X128817454Y-102201704D01*
X127827504Y-101211754D01*
X128371976Y-100667282D01*
X129361926Y-101657232D01*
X129361926Y-101657232D01*
G37*
G36*
X129821545Y-101197613D02*
X129277073Y-101742085D01*
X128287123Y-100752135D01*
X128831595Y-100207663D01*
X129821545Y-101197613D01*
X129821545Y-101197613D01*
G37*
G36*
X130281164Y-100737993D02*
X129736692Y-101282465D01*
X128746742Y-100292515D01*
X129291214Y-99748043D01*
X130281164Y-100737993D01*
X130281164Y-100737993D01*
G37*
G36*
X130740784Y-100278374D02*
X130196312Y-100822846D01*
X129206362Y-99832896D01*
X129750834Y-99288424D01*
X130740784Y-100278374D01*
X130740784Y-100278374D01*
G37*
G36*
X131200403Y-99818755D02*
X130655931Y-100363227D01*
X129665981Y-99373277D01*
X130210453Y-98828805D01*
X131200403Y-99818755D01*
X131200403Y-99818755D01*
G37*
G36*
X131660023Y-99359135D02*
X131115551Y-99903607D01*
X130125601Y-98913657D01*
X130670073Y-98369185D01*
X131660023Y-99359135D01*
X131660023Y-99359135D01*
G37*
G36*
X131115551Y-97096393D02*
X131660023Y-97640865D01*
X130670073Y-98630815D01*
X130125601Y-98086343D01*
X131115551Y-97096393D01*
X131115551Y-97096393D01*
G37*
G36*
X130655931Y-96636773D02*
X131200403Y-97181245D01*
X130210453Y-98171195D01*
X129665981Y-97626723D01*
X130655931Y-96636773D01*
X130655931Y-96636773D01*
G37*
G36*
X130196312Y-96177154D02*
X130740784Y-96721626D01*
X129750834Y-97711576D01*
X129206362Y-97167104D01*
X130196312Y-96177154D01*
X130196312Y-96177154D01*
G37*
G36*
X129736692Y-95717535D02*
X130281164Y-96262007D01*
X129291214Y-97251957D01*
X128746742Y-96707485D01*
X129736692Y-95717535D01*
X129736692Y-95717535D01*
G37*
G36*
X129277073Y-95257915D02*
X129821545Y-95802387D01*
X128831595Y-96792337D01*
X128287123Y-96247865D01*
X129277073Y-95257915D01*
X129277073Y-95257915D01*
G37*
G36*
X128817454Y-94798296D02*
X129361926Y-95342768D01*
X128371976Y-96332718D01*
X127827504Y-95788246D01*
X128817454Y-94798296D01*
X128817454Y-94798296D01*
G37*
G36*
X128357834Y-94338676D02*
X128902306Y-94883148D01*
X127912356Y-95873098D01*
X127367884Y-95328626D01*
X128357834Y-94338676D01*
X128357834Y-94338676D01*
G37*
G36*
X127629514Y-95328626D02*
X127085042Y-95873098D01*
X126095092Y-94883148D01*
X126639564Y-94338676D01*
X127629514Y-95328626D01*
X127629514Y-95328626D01*
G37*
G36*
X127169894Y-95788246D02*
X126625422Y-96332718D01*
X125635472Y-95342768D01*
X126179944Y-94798296D01*
X127169894Y-95788246D01*
X127169894Y-95788246D01*
G37*
G36*
X126710275Y-96247865D02*
X126165803Y-96792337D01*
X125175853Y-95802387D01*
X125720325Y-95257915D01*
X126710275Y-96247865D01*
X126710275Y-96247865D01*
G37*
G36*
X126250656Y-96707485D02*
X125706184Y-97251957D01*
X124716234Y-96262007D01*
X125260706Y-95717535D01*
X126250656Y-96707485D01*
X126250656Y-96707485D01*
G37*
G36*
X125791036Y-97167104D02*
X125246564Y-97711576D01*
X124256614Y-96721626D01*
X124801086Y-96177154D01*
X125791036Y-97167104D01*
X125791036Y-97167104D01*
G37*
G36*
X125331417Y-97626723D02*
X124786945Y-98171195D01*
X123796995Y-97181245D01*
X124341467Y-96636773D01*
X125331417Y-97626723D01*
X125331417Y-97626723D01*
G37*
G36*
X124871797Y-98086343D02*
X124327325Y-98630815D01*
X123337375Y-97640865D01*
X123881847Y-97096393D01*
X124871797Y-98086343D01*
X124871797Y-98086343D01*
G37*
G36*
X124327325Y-98369185D02*
X124871797Y-98913657D01*
X123881847Y-99903607D01*
X123337375Y-99359135D01*
X124327325Y-98369185D01*
X124327325Y-98369185D01*
G37*
G36*
X124786945Y-98828805D02*
X125331417Y-99373277D01*
X124341467Y-100363227D01*
X123796995Y-99818755D01*
X124786945Y-98828805D01*
X124786945Y-98828805D01*
G37*
G36*
X125246564Y-99288424D02*
X125791036Y-99832896D01*
X124801086Y-100822846D01*
X124256614Y-100278374D01*
X125246564Y-99288424D01*
X125246564Y-99288424D01*
G37*
G36*
X125706184Y-99748043D02*
X126250656Y-100292515D01*
X125260706Y-101282465D01*
X124716234Y-100737993D01*
X125706184Y-99748043D01*
X125706184Y-99748043D01*
G37*
G36*
X126165803Y-100207663D02*
X126710275Y-100752135D01*
X125720325Y-101742085D01*
X125175853Y-101197613D01*
X126165803Y-100207663D01*
X126165803Y-100207663D01*
G37*
G36*
X126625422Y-100667282D02*
X127169894Y-101211754D01*
X126179944Y-102201704D01*
X125635472Y-101657232D01*
X126625422Y-100667282D01*
X126625422Y-100667282D01*
G37*
G36*
X127085042Y-101126902D02*
X127629514Y-101671374D01*
X126639564Y-102661324D01*
X126095092Y-102116852D01*
X127085042Y-101126902D01*
X127085042Y-101126902D01*
G37*
G36*
X128532843Y-96246097D02*
X127498699Y-97280241D01*
X126464555Y-96246097D01*
X127498699Y-95211953D01*
X128532843Y-96246097D01*
X128532843Y-96246097D01*
G37*
G36*
X127781542Y-96997398D02*
X126747398Y-98031542D01*
X125713254Y-96997398D01*
X126747398Y-95963254D01*
X127781542Y-96997398D01*
X127781542Y-96997398D01*
G37*
G36*
X127030241Y-97748699D02*
X125996097Y-98782843D01*
X124961953Y-97748699D01*
X125996097Y-96714555D01*
X127030241Y-97748699D01*
X127030241Y-97748699D01*
G37*
G36*
X126278940Y-98500000D02*
X125244796Y-99534144D01*
X124210652Y-98500000D01*
X125244796Y-97465856D01*
X126278940Y-98500000D01*
X126278940Y-98500000D01*
G37*
G36*
X129284144Y-96997398D02*
X128250000Y-98031542D01*
X127215856Y-96997398D01*
X128250000Y-95963254D01*
X129284144Y-96997398D01*
X129284144Y-96997398D01*
G37*
G36*
X128532843Y-97748699D02*
X127498699Y-98782843D01*
X126464555Y-97748699D01*
X127498699Y-96714555D01*
X128532843Y-97748699D01*
X128532843Y-97748699D01*
G37*
G36*
X127781542Y-98500000D02*
X126747398Y-99534144D01*
X125713254Y-98500000D01*
X126747398Y-97465856D01*
X127781542Y-98500000D01*
X127781542Y-98500000D01*
G37*
G36*
X127030241Y-99251301D02*
X125996097Y-100285445D01*
X124961953Y-99251301D01*
X125996097Y-98217157D01*
X127030241Y-99251301D01*
X127030241Y-99251301D01*
G37*
G36*
X130035445Y-97748699D02*
X129001301Y-98782843D01*
X127967157Y-97748699D01*
X129001301Y-96714555D01*
X130035445Y-97748699D01*
X130035445Y-97748699D01*
G37*
G36*
X129284144Y-98500000D02*
X128250000Y-99534144D01*
X127215856Y-98500000D01*
X128250000Y-97465856D01*
X129284144Y-98500000D01*
X129284144Y-98500000D01*
G37*
G36*
X128532843Y-99251301D02*
X127498699Y-100285445D01*
X126464555Y-99251301D01*
X127498699Y-98217157D01*
X128532843Y-99251301D01*
X128532843Y-99251301D01*
G37*
G36*
X127781542Y-100002602D02*
X126747398Y-101036746D01*
X125713254Y-100002602D01*
X126747398Y-98968458D01*
X127781542Y-100002602D01*
X127781542Y-100002602D01*
G37*
G36*
X130786746Y-98500000D02*
X129752602Y-99534144D01*
X128718458Y-98500000D01*
X129752602Y-97465856D01*
X130786746Y-98500000D01*
X130786746Y-98500000D01*
G37*
G36*
X130035445Y-99251301D02*
X129001301Y-100285445D01*
X127967157Y-99251301D01*
X129001301Y-98217157D01*
X130035445Y-99251301D01*
X130035445Y-99251301D01*
G37*
G36*
X129284144Y-100002602D02*
X128250000Y-101036746D01*
X127215856Y-100002602D01*
X128250000Y-98968458D01*
X129284144Y-100002602D01*
X129284144Y-100002602D01*
G37*
G36*
X128532843Y-100753903D02*
X127498699Y-101788047D01*
X126464555Y-100753903D01*
X127498699Y-99719759D01*
X128532843Y-100753903D01*
X128532843Y-100753903D01*
G37*
D27*
X182500000Y-104140000D03*
X179500000Y-104140000D03*
X175500000Y-104140000D03*
X174000000Y-100140000D03*
X182500000Y-99140000D03*
X179500000Y-99140000D03*
X175500000Y-99140000D03*
X174000000Y-103140000D03*
D28*
X184000000Y-101140000D03*
X177000000Y-101140000D03*
X184000000Y-102140000D03*
X177000000Y-102140000D03*
M02*
