G04 #@! TF.FileFunction,Profile,NP*
%FSLAX46Y46*%
G04 Gerber Fmt 4.6, Leading zero omitted, Abs format (unit mm)*
G04 Created by KiCad (PCBNEW 4.0.7) date 06/17/18 20:50:59*
%MOMM*%
%LPD*%
G01*
G04 APERTURE LIST*
%ADD10C,0.100000*%
G04 APERTURE END LIST*
D10*
X164026228Y-132531516D02*
G75*
G03X164026228Y-132531516I-2000000J0D01*
G01*
X143642591Y-131593516D02*
G75*
G02X142581932Y-129756399I388229J1448888D01*
G01*
X71497382Y-117999998D02*
G75*
G02X70000000Y-116500000I2618J1499998D01*
G01*
X143642592Y-131593517D02*
X178415923Y-140911003D01*
X91500000Y-98500001D02*
G75*
G03X91500000Y-98500001I-2000000J0D01*
G01*
X164500001Y-105500001D02*
G75*
G03X164500001Y-105500001I-2000000J0D01*
G01*
X170000001Y-69233384D02*
G75*
G03X170000001Y-69233384I-1000000J0D01*
G01*
X150000000Y-64418184D02*
G75*
G03X150000000Y-64418184I-2000000J0D01*
G01*
X186034048Y-70691815D02*
X146322402Y-60051111D01*
X145226100Y-119888229D02*
X142581932Y-129756399D01*
X185145819Y-109317486D02*
G75*
G03X185145819Y-109317486I-1000000J0D01*
G01*
X145934173Y-60000000D02*
G75*
G02X146322402Y-60051111I1J-1500000D01*
G01*
X180252361Y-139852871D02*
G75*
G02X178415923Y-140911003I-1448209J390757D01*
G01*
X70000000Y-61500000D02*
G75*
G02X71500000Y-60000000I1500000J0D01*
G01*
X185145819Y-73291694D02*
G75*
G03X185145819Y-73291694I-1000000J0D01*
G01*
X91500000Y-79500000D02*
G75*
G03X91500000Y-79500000I-2000000J0D01*
G01*
X187145819Y-113928663D02*
X187145819Y-72140703D01*
X71500000Y-118000000D02*
X143777211Y-118000000D01*
X187145819Y-113928662D02*
G75*
G02X187094708Y-114316891I-1500000J-1D01*
G01*
X143777211Y-118000000D02*
G75*
G02X145226100Y-119888229I0J-1500000D01*
G01*
X145934174Y-60000000D02*
X71500000Y-60000000D01*
X186036576Y-70692494D02*
G75*
G02X187145819Y-72140703I-390757J-1448209D01*
G01*
X180253040Y-139850342D02*
X187094708Y-114316891D01*
X70000000Y-61500000D02*
X70000000Y-116500000D01*
M02*
