G04 #@! TF.FileFunction,Copper,L2,Bot,Signal*
%FSLAX46Y46*%
G04 Gerber Fmt 4.6, Leading zero omitted, Abs format (unit mm)*
G04 Created by KiCad (PCBNEW 4.0.7) date 06/17/18 20:50:59*
%MOMM*%
%LPD*%
G01*
G04 APERTURE LIST*
%ADD10C,0.100000*%
%ADD11C,1.600000*%
%ADD12C,2.200000*%
%ADD13R,1.700000X1.700000*%
%ADD14O,1.700000X1.700000*%
%ADD15R,1.270000X0.970000*%
%ADD16O,1.600000X1.600000*%
%ADD17C,1.600000*%
%ADD18R,1.600000X1.600000*%
%ADD19C,2.500000*%
%ADD20C,3.987810*%
%ADD21C,1.701810*%
%ADD22O,1.524000X0.762000*%
%ADD23C,1.700000*%
%ADD24C,0.600000*%
%ADD25C,0.500000*%
%ADD26C,0.250000*%
%ADD27C,0.254000*%
G04 APERTURE END LIST*
D10*
D11*
X134500000Y-98500000D03*
X139500000Y-98500000D03*
D10*
G36*
X165280216Y-124445025D02*
X163155180Y-123875623D01*
X163724582Y-121750587D01*
X165849618Y-122319989D01*
X165280216Y-124445025D01*
X165280216Y-124445025D01*
G37*
D12*
X167132000Y-113284000D02*
X167132000Y-113284000D01*
D13*
X168275000Y-81280000D03*
D14*
X168275000Y-83820000D03*
X168275000Y-86360000D03*
X168275000Y-88900000D03*
X168275000Y-91440000D03*
D13*
X180975000Y-91440000D03*
D14*
X180975000Y-88900000D03*
X180975000Y-86360000D03*
X180975000Y-83820000D03*
X180975000Y-81280000D03*
D13*
X170815000Y-108585000D03*
D14*
X173355000Y-108585000D03*
X175895000Y-108585000D03*
X178435000Y-108585000D03*
D15*
X178435000Y-113035000D03*
X178435000Y-111755000D03*
X175895000Y-113035000D03*
X175895000Y-111755000D03*
X173355000Y-113035000D03*
X173355000Y-111755000D03*
X170815000Y-113035000D03*
X170815000Y-111755000D03*
D10*
G36*
X164715736Y-133341441D02*
X165110176Y-131869370D01*
X179599064Y-135751655D01*
X179204624Y-137223726D01*
X164715736Y-133341441D01*
X164715736Y-133341441D01*
G37*
G36*
X164058336Y-135794893D02*
X164452776Y-134322822D01*
X178941664Y-138205107D01*
X178547224Y-139677178D01*
X164058336Y-135794893D01*
X164058336Y-135794893D01*
G37*
D11*
X174625000Y-78105000D03*
D16*
X184785000Y-78105000D03*
D11*
X173736000Y-85852000D03*
D16*
X173736000Y-96012000D03*
D11*
X177292000Y-85852000D03*
D16*
X177292000Y-96012000D03*
D11*
X167005000Y-105410000D03*
D16*
X167005000Y-95250000D03*
D11*
X170815000Y-95250000D03*
D16*
X170815000Y-105410000D03*
D11*
X158496000Y-131064000D03*
D17*
X148682194Y-128434399D02*
X148682194Y-128434399D01*
D18*
X184785000Y-83820000D03*
D16*
X184785000Y-91440000D03*
D19*
X77420276Y-64920672D02*
X77459724Y-65499328D01*
X83110184Y-65999693D02*
X83919816Y-67460307D01*
D20*
X79920000Y-70000000D03*
D21*
X74840000Y-70000000D03*
X85000000Y-70000000D03*
D19*
X76920453Y-66000046D02*
X76109547Y-67459954D01*
X82459724Y-64920672D02*
X82420276Y-65499328D01*
X77420276Y-83920672D02*
X77459724Y-84499328D01*
X83110184Y-84999693D02*
X83919816Y-86460307D01*
D20*
X79920000Y-89000000D03*
D21*
X74840000Y-89000000D03*
X85000000Y-89000000D03*
D19*
X76920453Y-85000046D02*
X76109547Y-86459954D01*
X82459724Y-83920672D02*
X82420276Y-84499328D01*
X77500276Y-102920672D02*
X77539724Y-103499328D01*
X83190184Y-103999693D02*
X83999816Y-105460307D01*
D20*
X80000000Y-108000000D03*
D21*
X74920000Y-108000000D03*
X85080000Y-108000000D03*
D19*
X77000453Y-104000046D02*
X76189547Y-105459954D01*
X82539724Y-102920672D02*
X82500276Y-103499328D01*
X96500276Y-64920672D02*
X96539724Y-65499328D01*
X102190184Y-65999693D02*
X102999816Y-67460307D01*
D20*
X99000000Y-70000000D03*
D21*
X93920000Y-70000000D03*
X104080000Y-70000000D03*
D19*
X96000453Y-66000046D02*
X95189547Y-67459954D01*
X101539724Y-64920672D02*
X101500276Y-65499328D01*
X96420276Y-83920672D02*
X96459724Y-84499328D01*
X102110184Y-84999693D02*
X102919816Y-86460307D01*
D20*
X98920000Y-89000000D03*
D21*
X93840000Y-89000000D03*
X104000000Y-89000000D03*
D19*
X95920453Y-85000046D02*
X95109547Y-86459954D01*
X101459724Y-83920672D02*
X101420276Y-84499328D01*
X96580276Y-102920672D02*
X96619724Y-103499328D01*
X102270184Y-103999693D02*
X103079816Y-105460307D01*
D20*
X99080000Y-108000000D03*
D21*
X94000000Y-108000000D03*
X104160000Y-108000000D03*
D19*
X96080453Y-104000046D02*
X95269547Y-105459954D01*
X101619724Y-102920672D02*
X101580276Y-103499328D01*
X115580276Y-64920672D02*
X115619724Y-65499328D01*
X121270184Y-65999693D02*
X122079816Y-67460307D01*
D20*
X118080000Y-70000000D03*
D21*
X113000000Y-70000000D03*
X123160000Y-70000000D03*
D19*
X115080453Y-66000046D02*
X114269547Y-67459954D01*
X120619724Y-64920672D02*
X120580276Y-65499328D01*
X115420276Y-83920672D02*
X115459724Y-84499328D01*
X121110184Y-84999693D02*
X121919816Y-86460307D01*
D20*
X117920000Y-89000000D03*
D21*
X112840000Y-89000000D03*
X123000000Y-89000000D03*
D19*
X114920453Y-85000046D02*
X114109547Y-86459954D01*
X120459724Y-83920672D02*
X120420276Y-84499328D01*
X115580276Y-102920672D02*
X115619724Y-103499328D01*
X121270184Y-103999693D02*
X122079816Y-105460307D01*
D20*
X118080000Y-108000000D03*
D21*
X113000000Y-108000000D03*
X123160000Y-108000000D03*
D19*
X115080453Y-104000046D02*
X114269547Y-105459954D01*
X120619724Y-102920672D02*
X120580276Y-103499328D01*
X134500276Y-64920672D02*
X134539724Y-65499328D01*
X140190184Y-65999693D02*
X140999816Y-67460307D01*
D20*
X137000000Y-70000000D03*
D21*
X131920000Y-70000000D03*
X142080000Y-70000000D03*
D19*
X134000453Y-66000046D02*
X133189547Y-67459954D01*
X139539724Y-64920672D02*
X139500276Y-65499328D01*
X134420276Y-83920672D02*
X134459724Y-84499328D01*
X140110184Y-84999693D02*
X140919816Y-86460307D01*
D20*
X136920000Y-89000000D03*
D21*
X131840000Y-89000000D03*
X142000000Y-89000000D03*
D19*
X133920453Y-85000046D02*
X133109547Y-86459954D01*
X139459724Y-83920672D02*
X139420276Y-84499328D01*
X134580276Y-102920672D02*
X134619724Y-103499328D01*
X140270184Y-103999693D02*
X141079816Y-105460307D01*
D20*
X137080000Y-108000000D03*
D21*
X132000000Y-108000000D03*
X142160000Y-108000000D03*
D19*
X134080453Y-104000046D02*
X133269547Y-105459954D01*
X139619724Y-102920672D02*
X139580276Y-103499328D01*
X153500276Y-70420672D02*
X153539724Y-70999328D01*
X159190184Y-71499693D02*
X159999816Y-72960307D01*
D20*
X156000000Y-75500000D03*
D21*
X150920000Y-75500000D03*
X161080000Y-75500000D03*
D19*
X153000453Y-71500046D02*
X152189547Y-72959954D01*
X158539724Y-70420672D02*
X158500276Y-70999328D01*
X153500276Y-89420672D02*
X153539724Y-89999328D01*
X159190184Y-90499693D02*
X159999816Y-91960307D01*
D20*
X156000000Y-94500000D03*
D21*
X150920000Y-94500000D03*
X161080000Y-94500000D03*
D19*
X153000453Y-90500046D02*
X152189547Y-91959954D01*
X158539724Y-89420672D02*
X158500276Y-89999328D01*
X154500078Y-114131968D02*
X154388416Y-114701118D01*
X159716837Y-116646879D02*
X160120847Y-118267273D01*
D20*
X155600000Y-119685199D03*
D21*
X150693097Y-118370398D03*
X160506903Y-121000000D03*
D19*
X153737925Y-115045201D02*
X152576797Y-116245485D01*
X159367812Y-115436273D02*
X159179940Y-115985003D01*
X172806981Y-119161570D02*
X172695319Y-119730720D01*
X178023740Y-121676481D02*
X178427750Y-123296875D01*
D20*
X173906903Y-124714801D03*
D21*
X169000000Y-123400000D03*
X178813806Y-126029602D03*
D19*
X172044828Y-120074803D02*
X170883700Y-121275087D01*
X177674715Y-120465875D02*
X177486843Y-121014605D01*
D22*
X182500000Y-104140000D03*
X179500000Y-104140000D03*
X175500000Y-104140000D03*
X174000000Y-100140000D03*
X182500000Y-99140000D03*
X179500000Y-99140000D03*
X175500000Y-99140000D03*
X174000000Y-103140000D03*
D23*
X184000000Y-101140000D03*
X177000000Y-101140000D03*
X184000000Y-102140000D03*
X177000000Y-102140000D03*
D24*
X178435000Y-114681000D03*
X165608000Y-107696000D03*
X139700000Y-95758000D03*
X135890000Y-96012000D03*
X131445000Y-94488000D03*
X175895000Y-114808000D03*
X130937000Y-92329000D03*
X177165000Y-107061000D03*
X132715000Y-97790000D03*
X184150000Y-94615000D03*
X173101000Y-106299000D03*
X133858000Y-96749989D03*
D25*
X135890000Y-96012000D02*
X139446000Y-96012000D01*
X139446000Y-96012000D02*
X139700000Y-95758000D01*
X170815000Y-113035000D02*
X170965000Y-113035000D01*
X170965000Y-113035000D02*
X177580779Y-119650779D01*
X177580779Y-119650779D02*
X177580779Y-120740240D01*
X178435000Y-114681000D02*
X178435000Y-119886019D01*
X178435000Y-119886019D02*
X177580779Y-120740240D01*
X170815000Y-113035000D02*
X170815000Y-114020000D01*
X167377924Y-117457076D02*
X161307109Y-117457076D01*
X170815000Y-114020000D02*
X167377924Y-117457076D01*
X161307109Y-117457076D02*
X159918842Y-117457076D01*
X157226000Y-78994000D02*
X159595000Y-76625000D01*
X159595000Y-76625000D02*
X159595000Y-72230000D01*
X152908000Y-78994000D02*
X157226000Y-78994000D01*
X147162213Y-84739787D02*
X152908000Y-78994000D01*
X140515000Y-85730000D02*
X141505213Y-84739787D01*
X141505213Y-84739787D02*
X147162213Y-84739787D01*
X164973000Y-77163000D02*
X164973000Y-80518000D01*
X164973000Y-80518000D02*
X168275000Y-83820000D01*
X158520000Y-70710000D02*
X164973000Y-77163000D01*
X175006000Y-97663000D02*
X174000000Y-98669000D01*
X174000000Y-98669000D02*
X174000000Y-100140000D01*
X179197000Y-97663000D02*
X175006000Y-97663000D01*
X183985001Y-92874999D02*
X179197000Y-97663000D01*
X184785000Y-91440000D02*
X183985001Y-92239999D01*
X183985001Y-92239999D02*
X183985001Y-92874999D01*
X167116000Y-103140000D02*
X165608000Y-104648000D01*
X165608000Y-104648000D02*
X165608000Y-107696000D01*
X174000000Y-103140000D02*
X167116000Y-103140000D01*
X170815000Y-95250000D02*
X170815000Y-97336000D01*
X170815000Y-97336000D02*
X173619000Y-100140000D01*
X173619000Y-100140000D02*
X174000000Y-100140000D01*
X170815000Y-95250000D02*
X171614999Y-94450001D01*
X171614999Y-87159999D02*
X169124999Y-84669999D01*
X169124999Y-84669999D02*
X168275000Y-83820000D01*
X171614999Y-94450001D02*
X171614999Y-87159999D01*
X165608000Y-107696000D02*
X159273876Y-114030124D01*
X159273876Y-114030124D02*
X159273876Y-115710638D01*
X129794000Y-62611000D02*
X136921000Y-62611000D01*
X136921000Y-62611000D02*
X139520000Y-65210000D01*
X126665213Y-65739787D02*
X129794000Y-62611000D01*
X121675000Y-66730000D02*
X122665213Y-65739787D01*
X122665213Y-65739787D02*
X126665213Y-65739787D01*
X140595000Y-66730000D02*
X140595000Y-85650000D01*
X140595000Y-85650000D02*
X140515000Y-85730000D01*
X134500000Y-98500000D02*
X139210000Y-103210000D01*
X139210000Y-103210000D02*
X139600000Y-103210000D01*
X135890000Y-96012000D02*
X134366000Y-94488000D01*
X134366000Y-94488000D02*
X131445000Y-94488000D01*
X151511000Y-122936000D02*
X151511000Y-125605593D01*
X151511000Y-125605593D02*
X148682194Y-128434399D01*
X175006000Y-128397000D02*
X177123867Y-126279133D01*
X177123867Y-126279133D02*
X177123867Y-123588556D01*
X177123867Y-123588556D02*
X178225745Y-122486678D01*
X163195000Y-128397000D02*
X175006000Y-128397000D01*
X157734000Y-122936000D02*
X163195000Y-128397000D01*
X155966181Y-122936000D02*
X157734000Y-122936000D01*
X151511000Y-122936000D02*
X155966181Y-122936000D01*
X155966181Y-122936000D02*
X158816964Y-120085217D01*
X158816964Y-120085217D02*
X158816964Y-118558954D01*
X158816964Y-118558954D02*
X159918842Y-117457076D01*
X144526000Y-115951000D02*
X151511000Y-122936000D01*
X140462000Y-115951000D02*
X144526000Y-115951000D01*
X136809982Y-112298982D02*
X140462000Y-115951000D01*
X136809982Y-111887000D02*
X140675000Y-108021982D01*
X136809982Y-111887000D02*
X136809982Y-112298982D01*
X136555982Y-112141000D02*
X136809982Y-111887000D01*
X131191000Y-112141000D02*
X136555982Y-112141000D01*
X140675000Y-108021982D02*
X140675000Y-106739654D01*
X140675000Y-106739654D02*
X140675000Y-104730000D01*
X123780000Y-104730000D02*
X131191000Y-112141000D01*
X121675000Y-104730000D02*
X123780000Y-104730000D01*
X118999000Y-112268000D02*
X121675000Y-109592000D01*
X121675000Y-109592000D02*
X121675000Y-104730000D01*
X112141000Y-112268000D02*
X118999000Y-112268000D01*
X106106991Y-106233991D02*
X112141000Y-112268000D01*
X102675000Y-104730000D02*
X104178991Y-106233991D01*
X104178991Y-106233991D02*
X106106991Y-106233991D01*
X92202000Y-111887000D02*
X98809982Y-111887000D01*
X98809982Y-111887000D02*
X102675000Y-108021982D01*
X102675000Y-108021982D02*
X102675000Y-106739654D01*
X102675000Y-106739654D02*
X102675000Y-104730000D01*
X86548991Y-106233991D02*
X92202000Y-111887000D01*
X83595000Y-104730000D02*
X85098991Y-106233991D01*
X85098991Y-106233991D02*
X86548991Y-106233991D01*
X120440000Y-84210000D02*
X121675000Y-82975000D01*
X121675000Y-82975000D02*
X121675000Y-66730000D01*
X120600000Y-103210000D02*
X120600000Y-84370000D01*
X120600000Y-84370000D02*
X120440000Y-84210000D01*
X102515000Y-85730000D02*
X102515000Y-104570000D01*
X102515000Y-104570000D02*
X102675000Y-104730000D01*
X102515000Y-85730000D02*
X102515000Y-66810000D01*
X102515000Y-66810000D02*
X102595000Y-66730000D01*
X82440000Y-84210000D02*
X82440000Y-103130000D01*
X82440000Y-103130000D02*
X82520000Y-103210000D01*
X82440000Y-65210000D02*
X82440000Y-84210000D01*
X174143000Y-114808000D02*
X175895000Y-114808000D01*
X173355000Y-113035000D02*
X173355000Y-114020000D01*
X173355000Y-114020000D02*
X174143000Y-114808000D01*
X182500000Y-104140000D02*
X182500000Y-125729000D01*
X182500000Y-125729000D02*
X180049074Y-128179926D01*
X180049074Y-128179926D02*
X180049074Y-138339926D01*
X180049074Y-138339926D02*
X179197000Y-139192000D01*
X179197000Y-139192000D02*
X171500000Y-137000000D01*
D26*
X167005000Y-95250000D02*
X170053000Y-92202000D01*
X170053000Y-92202000D02*
X170053000Y-88138000D01*
X170053000Y-88138000D02*
X168275000Y-86360000D01*
X149098000Y-86106000D02*
X162941000Y-86106000D01*
X162941000Y-86106000D02*
X168275000Y-91440000D01*
X143174999Y-92029001D02*
X149098000Y-86106000D01*
X130937000Y-92329000D02*
X131236999Y-92029001D01*
X131236999Y-92029001D02*
X143174999Y-92029001D01*
X177165000Y-112650000D02*
X177165000Y-107061000D01*
X175895000Y-113035000D02*
X176780000Y-113035000D01*
X176780000Y-113035000D02*
X177165000Y-112650000D01*
X174879000Y-101981000D02*
X175500000Y-102602000D01*
X175500000Y-102602000D02*
X175500000Y-104140000D01*
X142875000Y-101981000D02*
X174879000Y-101981000D01*
X141097000Y-100203000D02*
X142875000Y-101981000D01*
X138430000Y-100203000D02*
X141097000Y-100203000D01*
X135601999Y-97374999D02*
X138430000Y-100203000D01*
X132715000Y-97790000D02*
X133130001Y-97374999D01*
X133130001Y-97374999D02*
X135601999Y-97374999D01*
X180975000Y-88900000D02*
X173863000Y-96012000D01*
X173863000Y-96012000D02*
X173736000Y-96012000D01*
X181412990Y-97352010D02*
X183850001Y-94914999D01*
X181412990Y-125800010D02*
X181412990Y-97352010D01*
X177673000Y-129540000D02*
X181412990Y-125800010D01*
X174371000Y-129540000D02*
X177673000Y-129540000D01*
X171450000Y-132461000D02*
X174371000Y-129540000D01*
X183850001Y-94914999D02*
X184150000Y-94615000D01*
X158496000Y-131064000D02*
X161163000Y-129667000D01*
X171450000Y-132461000D02*
X172157400Y-134546548D01*
X161163000Y-129667000D02*
X171450000Y-132461000D01*
X133858000Y-96749989D02*
X140945989Y-96749989D01*
X140945989Y-96749989D02*
X145415000Y-101219000D01*
X145415000Y-101219000D02*
X174879000Y-101219000D01*
X174879000Y-101219000D02*
X176958000Y-99140000D01*
X176958000Y-99140000D02*
X179500000Y-99140000D01*
X178435000Y-113035000D02*
X179320000Y-113035000D01*
X179320000Y-113035000D02*
X180512000Y-111843000D01*
X180512000Y-111843000D02*
X180512000Y-106246000D01*
X180512000Y-106246000D02*
X179500000Y-105234000D01*
X178435000Y-106299000D02*
X179500000Y-105234000D01*
X179500000Y-105234000D02*
X179500000Y-104140000D01*
X173101000Y-106299000D02*
X178435000Y-106299000D01*
X180975000Y-83820000D02*
X182150001Y-84995001D01*
X182150001Y-84995001D02*
X182150001Y-92550001D01*
X182150001Y-92550001D02*
X178688002Y-96012000D01*
X178688002Y-96012000D02*
X178423370Y-96012000D01*
X178423370Y-96012000D02*
X177292000Y-96012000D01*
X170815000Y-111755000D02*
X170815000Y-111020000D01*
X170815000Y-111020000D02*
X170815000Y-108585000D01*
X173355000Y-111755000D02*
X173355000Y-111020000D01*
X173355000Y-111020000D02*
X173355000Y-108585000D01*
X175895000Y-111755000D02*
X175895000Y-108585000D01*
X178435000Y-111755000D02*
X178435000Y-108585000D01*
D27*
G36*
X146188482Y-60724391D02*
X185793525Y-71336531D01*
X186134899Y-71505620D01*
X186340707Y-71741126D01*
X186455554Y-72081405D01*
X186460819Y-72162824D01*
X186460819Y-113883763D01*
X186421428Y-114182971D01*
X183385000Y-125515073D01*
X183385000Y-110796716D01*
X183500997Y-110874223D01*
X184145819Y-111002486D01*
X184790641Y-110874223D01*
X185337294Y-110508961D01*
X185702556Y-109962308D01*
X185830819Y-109317486D01*
X185702556Y-108672664D01*
X185337294Y-108126011D01*
X184790641Y-107760749D01*
X184145819Y-107632486D01*
X183500997Y-107760749D01*
X183385000Y-107838256D01*
X183385000Y-105019979D01*
X183626789Y-104858420D01*
X183847031Y-104528806D01*
X183924369Y-104140000D01*
X183847031Y-103751194D01*
X183762573Y-103624794D01*
X184294089Y-103625257D01*
X184840086Y-103399656D01*
X185258188Y-102982283D01*
X185484742Y-102436681D01*
X185485257Y-101845911D01*
X185400246Y-101640169D01*
X185484742Y-101436681D01*
X185485257Y-100845911D01*
X185259656Y-100299914D01*
X184842283Y-99881812D01*
X184296681Y-99655258D01*
X183762849Y-99654793D01*
X183847031Y-99528806D01*
X183924369Y-99140000D01*
X183847031Y-98751194D01*
X183626789Y-98421580D01*
X183297175Y-98201338D01*
X182908369Y-98124000D01*
X182172990Y-98124000D01*
X182172990Y-97666812D01*
X184289680Y-95550122D01*
X184335167Y-95550162D01*
X184678943Y-95408117D01*
X184942192Y-95145327D01*
X185084838Y-94801799D01*
X185085162Y-94429833D01*
X184943117Y-94086057D01*
X184680327Y-93822808D01*
X184336799Y-93680162D01*
X183964833Y-93679838D01*
X183621057Y-93821883D01*
X183357808Y-94084673D01*
X183215162Y-94428201D01*
X183215121Y-94475077D01*
X180875589Y-96814609D01*
X180710842Y-97061171D01*
X180652990Y-97352010D01*
X180652990Y-98460792D01*
X180626789Y-98421580D01*
X180297175Y-98201338D01*
X179908369Y-98124000D01*
X179091631Y-98124000D01*
X178702825Y-98201338D01*
X178435440Y-98380000D01*
X176958000Y-98380000D01*
X176667161Y-98437852D01*
X176646767Y-98451479D01*
X176626789Y-98421580D01*
X176297175Y-98201338D01*
X175908369Y-98124000D01*
X175091631Y-98124000D01*
X174702825Y-98201338D01*
X174373211Y-98421580D01*
X174152969Y-98751194D01*
X174075631Y-99140000D01*
X174127000Y-99398250D01*
X174127000Y-100013000D01*
X174147000Y-100013000D01*
X174147000Y-100267000D01*
X174127000Y-100267000D01*
X174127000Y-100287000D01*
X173873000Y-100287000D01*
X173873000Y-100267000D01*
X172771210Y-100267000D01*
X172643247Y-100423127D01*
X172660642Y-100459000D01*
X145729802Y-100459000D01*
X145127675Y-99856873D01*
X172643247Y-99856873D01*
X172771210Y-100013000D01*
X173873000Y-100013000D01*
X173873000Y-99124000D01*
X173492000Y-99124000D01*
X173112861Y-99249939D01*
X172810777Y-99511382D01*
X172643247Y-99856873D01*
X145127675Y-99856873D01*
X141483390Y-96212588D01*
X141236828Y-96047841D01*
X140945989Y-95989989D01*
X134420463Y-95989989D01*
X134388327Y-95957797D01*
X134044799Y-95815151D01*
X133672833Y-95814827D01*
X133329057Y-95956872D01*
X133065808Y-96219662D01*
X132923162Y-96563190D01*
X132923081Y-96656158D01*
X132839162Y-96672851D01*
X132592600Y-96837598D01*
X132575320Y-96854878D01*
X132529833Y-96854838D01*
X132186057Y-96996883D01*
X131922808Y-97259673D01*
X131780162Y-97603201D01*
X131779838Y-97975167D01*
X131921883Y-98318943D01*
X132184673Y-98582192D01*
X132528201Y-98724838D01*
X132900167Y-98725162D01*
X133070745Y-98654681D01*
X133080222Y-98853454D01*
X133246136Y-99254005D01*
X133492255Y-99328139D01*
X134320395Y-98500000D01*
X134306253Y-98485858D01*
X134485858Y-98306253D01*
X134500000Y-98320395D01*
X134514143Y-98306253D01*
X134693748Y-98485858D01*
X134679605Y-98500000D01*
X135507745Y-99328139D01*
X135753864Y-99254005D01*
X135926344Y-98774146D01*
X137892599Y-100740401D01*
X138139160Y-100905148D01*
X138430000Y-100963000D01*
X140782198Y-100963000D01*
X142337599Y-102518401D01*
X142584161Y-102683148D01*
X142875000Y-102741000D01*
X172699434Y-102741000D01*
X172643247Y-102856873D01*
X172771210Y-103013000D01*
X173873000Y-103013000D01*
X173873000Y-102993000D01*
X174127000Y-102993000D01*
X174127000Y-103013000D01*
X174147000Y-103013000D01*
X174147000Y-103267000D01*
X174127000Y-103267000D01*
X174127000Y-103881750D01*
X174075631Y-104140000D01*
X174152969Y-104528806D01*
X174373211Y-104858420D01*
X174702825Y-105078662D01*
X175091631Y-105156000D01*
X175908369Y-105156000D01*
X176297175Y-105078662D01*
X176626789Y-104858420D01*
X176847031Y-104528806D01*
X176924369Y-104140000D01*
X176847031Y-103751194D01*
X176762573Y-103624794D01*
X177294089Y-103625257D01*
X177840086Y-103399656D01*
X178258188Y-102982283D01*
X178484742Y-102436681D01*
X178485257Y-101845911D01*
X178400246Y-101640169D01*
X178484742Y-101436681D01*
X178485257Y-100845911D01*
X178259656Y-100299914D01*
X177860439Y-99900000D01*
X178435440Y-99900000D01*
X178702825Y-100078662D01*
X179091631Y-100156000D01*
X179908369Y-100156000D01*
X180297175Y-100078662D01*
X180626789Y-99858420D01*
X180652990Y-99819208D01*
X180652990Y-103460792D01*
X180626789Y-103421580D01*
X180297175Y-103201338D01*
X179908369Y-103124000D01*
X179091631Y-103124000D01*
X178702825Y-103201338D01*
X178373211Y-103421580D01*
X178152969Y-103751194D01*
X178075631Y-104140000D01*
X178152969Y-104528806D01*
X178373211Y-104858420D01*
X178629518Y-105029680D01*
X178120198Y-105539000D01*
X173663463Y-105539000D01*
X173631327Y-105506808D01*
X173287799Y-105364162D01*
X172915833Y-105363838D01*
X172572057Y-105505883D01*
X172308808Y-105768673D01*
X172166162Y-106112201D01*
X172165838Y-106484167D01*
X172307883Y-106827943D01*
X172570673Y-107091192D01*
X172791673Y-107182960D01*
X172786715Y-107183946D01*
X172304946Y-107505853D01*
X172277150Y-107547452D01*
X172268162Y-107499683D01*
X172129090Y-107283559D01*
X171916890Y-107138569D01*
X171665000Y-107087560D01*
X169965000Y-107087560D01*
X169729683Y-107131838D01*
X169513559Y-107270910D01*
X169368569Y-107483110D01*
X169317560Y-107735000D01*
X169317560Y-109435000D01*
X169361838Y-109670317D01*
X169500910Y-109886441D01*
X169713110Y-110031431D01*
X169965000Y-110082440D01*
X170055000Y-110082440D01*
X170055000Y-110646080D01*
X169944683Y-110666838D01*
X169728559Y-110805910D01*
X169583569Y-111018110D01*
X169532560Y-111270000D01*
X169532560Y-112240000D01*
X169560213Y-112386963D01*
X169545000Y-112423690D01*
X169545000Y-112749250D01*
X169703750Y-112908000D01*
X170688000Y-112908000D01*
X170688000Y-112888000D01*
X170942000Y-112888000D01*
X170942000Y-112908000D01*
X170962000Y-112908000D01*
X170962000Y-113162000D01*
X170942000Y-113162000D01*
X170942000Y-113996250D01*
X171100750Y-114155000D01*
X171576309Y-114155000D01*
X171809698Y-114058327D01*
X171988327Y-113879699D01*
X172085000Y-113646310D01*
X172085000Y-113586113D01*
X172116838Y-113755317D01*
X172255910Y-113971441D01*
X172468110Y-114116431D01*
X172490065Y-114120877D01*
X172517096Y-114256767D01*
X172537367Y-114358675D01*
X172672903Y-114561520D01*
X172729210Y-114645790D01*
X173517208Y-115433787D01*
X173517210Y-115433790D01*
X173766250Y-115600192D01*
X173804325Y-115625633D01*
X174143000Y-115693001D01*
X174143005Y-115693000D01*
X175588178Y-115693000D01*
X175708201Y-115742838D01*
X176080167Y-115743162D01*
X176423943Y-115601117D01*
X176687192Y-115338327D01*
X176829838Y-114994799D01*
X176830162Y-114622833D01*
X176688117Y-114279057D01*
X176569311Y-114160043D01*
X176765317Y-114123162D01*
X176981441Y-113984090D01*
X177126431Y-113771890D01*
X177143267Y-113688754D01*
X177179729Y-113664390D01*
X177196838Y-113755317D01*
X177335910Y-113971441D01*
X177548110Y-114116431D01*
X177800000Y-114167440D01*
X179070000Y-114167440D01*
X179305317Y-114123162D01*
X179521441Y-113984090D01*
X179666431Y-113771890D01*
X179683267Y-113688754D01*
X179857401Y-113572401D01*
X180652990Y-112776812D01*
X180652990Y-125485208D01*
X180299879Y-125838319D01*
X180299969Y-125735334D01*
X180074230Y-125189004D01*
X179656603Y-124770647D01*
X179595090Y-124745105D01*
X179978101Y-124376582D01*
X180273273Y-123701101D01*
X180287481Y-122964080D01*
X180085477Y-122153883D01*
X178541015Y-122538960D01*
X178816816Y-122356442D01*
X178936868Y-122178487D01*
X180024028Y-121907428D01*
X179822024Y-121097231D01*
X179525242Y-120564116D01*
X179548021Y-120220766D01*
X179311625Y-119522540D01*
X178826024Y-118967929D01*
X178666996Y-118863189D01*
X178352515Y-118878259D01*
X178039573Y-119792289D01*
X177986341Y-119791852D01*
X177730484Y-119975322D01*
X177721192Y-119938054D01*
X178112209Y-118795984D01*
X177872956Y-118591329D01*
X177683104Y-118576620D01*
X176959479Y-118717221D01*
X176344742Y-119124038D01*
X175932482Y-119735138D01*
X175838546Y-120009503D01*
X176756947Y-120323942D01*
X176551148Y-120521956D01*
X175756271Y-120249809D01*
X175662335Y-120524173D01*
X175613537Y-121259714D01*
X175849933Y-121957940D01*
X176271157Y-122439025D01*
X176366013Y-122819473D01*
X177062599Y-122645795D01*
X177049349Y-122684496D01*
X177254268Y-122859782D01*
X176427462Y-123065928D01*
X176629466Y-123876125D01*
X176988022Y-124520206D01*
X177565763Y-124978045D01*
X177719982Y-125021963D01*
X177554851Y-125186805D01*
X177328159Y-125732740D01*
X177327643Y-126323870D01*
X177553382Y-126870200D01*
X177971009Y-127288557D01*
X178516944Y-127515249D01*
X178622857Y-127515341D01*
X177358198Y-128780000D01*
X174371000Y-128780000D01*
X174080161Y-128837852D01*
X173833599Y-129002599D01*
X171224090Y-131612108D01*
X161362203Y-128933571D01*
X161228284Y-128924335D01*
X161094832Y-128910064D01*
X161080879Y-128914170D01*
X161066369Y-128913169D01*
X160939136Y-128955876D01*
X160810354Y-128993768D01*
X159237011Y-129817900D01*
X158782691Y-129629250D01*
X158211813Y-129628752D01*
X157684200Y-129846757D01*
X157280176Y-130250077D01*
X157061250Y-130777309D01*
X157060752Y-131348187D01*
X157278757Y-131875800D01*
X157682077Y-132279824D01*
X158209309Y-132498750D01*
X158780187Y-132499248D01*
X159307800Y-132281243D01*
X159411627Y-132177597D01*
X159341228Y-132531516D01*
X159545611Y-133559021D01*
X160127646Y-134430098D01*
X160998723Y-135012133D01*
X162026228Y-135216516D01*
X163053733Y-135012133D01*
X163716448Y-134569321D01*
X163432957Y-135627323D01*
X163414822Y-135866082D01*
X163493218Y-136110836D01*
X163596376Y-136230953D01*
X143885054Y-130949320D01*
X143542849Y-130780563D01*
X143336631Y-130545417D01*
X143236098Y-130249255D01*
X143261052Y-129868523D01*
X143307653Y-129694602D01*
X148476004Y-129694602D01*
X148659088Y-129869223D01*
X149209930Y-129768846D01*
X149680429Y-129465312D01*
X149936332Y-129131796D01*
X149875968Y-128885750D01*
X148771997Y-128589942D01*
X148476004Y-129694602D01*
X143307653Y-129694602D01*
X143651515Y-128411294D01*
X147247380Y-128411294D01*
X147302241Y-128828078D01*
X147557938Y-129326196D01*
X147984792Y-129688546D01*
X148230658Y-129628862D01*
X148526651Y-128524202D01*
X147856355Y-128344596D01*
X148837737Y-128344596D01*
X149941708Y-128640405D01*
X150117008Y-128457504D01*
X150062147Y-128040720D01*
X149806450Y-127542602D01*
X149379596Y-127180252D01*
X149133730Y-127239936D01*
X148837737Y-128344596D01*
X147856355Y-128344596D01*
X147422680Y-128228393D01*
X147247380Y-128411294D01*
X143651515Y-128411294D01*
X143832191Y-127737002D01*
X147428056Y-127737002D01*
X147488420Y-127983048D01*
X148592391Y-128278856D01*
X148888384Y-127174196D01*
X148705300Y-126999575D01*
X148154458Y-127099952D01*
X147683959Y-127403486D01*
X147428056Y-127737002D01*
X143832191Y-127737002D01*
X144502485Y-125235428D01*
X171277543Y-125235428D01*
X171676927Y-126202010D01*
X172415804Y-126942178D01*
X173381687Y-127343248D01*
X174427530Y-127344161D01*
X175394112Y-126944777D01*
X176134280Y-126205900D01*
X176535350Y-125240017D01*
X176536263Y-124194174D01*
X176136879Y-123227592D01*
X175398002Y-122487424D01*
X174432119Y-122086354D01*
X173386276Y-122085441D01*
X172419694Y-122484825D01*
X171679526Y-123223702D01*
X171278456Y-124189585D01*
X171277543Y-125235428D01*
X144502485Y-125235428D01*
X144847769Y-123946812D01*
X162511666Y-123946812D01*
X162590062Y-124191566D01*
X162757505Y-124386537D01*
X162987610Y-124501002D01*
X165112646Y-125070404D01*
X165351405Y-125088539D01*
X165596159Y-125010143D01*
X165791130Y-124842700D01*
X165905595Y-124612595D01*
X166151660Y-123694268D01*
X167513837Y-123694268D01*
X167739576Y-124240598D01*
X168157203Y-124658955D01*
X168703138Y-124885647D01*
X169294268Y-124886163D01*
X169840598Y-124660424D01*
X170258955Y-124242797D01*
X170485647Y-123696862D01*
X170486144Y-123126933D01*
X170877903Y-123198127D01*
X171596783Y-123042700D01*
X172201462Y-122624001D01*
X173248649Y-121541499D01*
X173738464Y-121337107D01*
X174257172Y-120815677D01*
X174536852Y-120135438D01*
X174664922Y-119482660D01*
X174662996Y-118747172D01*
X174379758Y-118068406D01*
X173858328Y-117549699D01*
X173178089Y-117270019D01*
X172442601Y-117271944D01*
X171763836Y-117555183D01*
X171245128Y-118076613D01*
X171078122Y-118482806D01*
X170727066Y-118725889D01*
X169491838Y-120002773D01*
X169093417Y-120621002D01*
X168961910Y-121344640D01*
X169085046Y-121914168D01*
X168705732Y-121913837D01*
X168159402Y-122139576D01*
X167741045Y-122557203D01*
X167514353Y-123103138D01*
X167513837Y-123694268D01*
X166151660Y-123694268D01*
X166474997Y-122487559D01*
X166493132Y-122248800D01*
X166414736Y-122004046D01*
X166247293Y-121809075D01*
X166017188Y-121694610D01*
X163892152Y-121125208D01*
X163653393Y-121107073D01*
X163408639Y-121185469D01*
X163213668Y-121352912D01*
X163099203Y-121583017D01*
X162529801Y-123708053D01*
X162511666Y-123946812D01*
X144847769Y-123946812D01*
X145850164Y-120205826D01*
X152970640Y-120205826D01*
X153370024Y-121172408D01*
X154108901Y-121912576D01*
X155074784Y-122313646D01*
X156120627Y-122314559D01*
X157087209Y-121915175D01*
X157827377Y-121176298D01*
X158228447Y-120210415D01*
X158229360Y-119164572D01*
X157829976Y-118197990D01*
X157091099Y-117457822D01*
X156125216Y-117056752D01*
X155079373Y-117055839D01*
X154112791Y-117455223D01*
X153372623Y-118194100D01*
X152971553Y-119159983D01*
X152970640Y-120205826D01*
X145850164Y-120205826D01*
X145887759Y-120065520D01*
X145890714Y-120020430D01*
X145905240Y-119977639D01*
X145956351Y-119589410D01*
X145949049Y-119478006D01*
X145949049Y-119366363D01*
X145834868Y-118792338D01*
X145781984Y-118664666D01*
X149206934Y-118664666D01*
X149432673Y-119210996D01*
X149850300Y-119629353D01*
X150396235Y-119856045D01*
X150987365Y-119856561D01*
X151533695Y-119630822D01*
X151952052Y-119213195D01*
X152178744Y-118667260D01*
X152179241Y-118097331D01*
X152571000Y-118168525D01*
X153289880Y-118013098D01*
X153894559Y-117594399D01*
X154941746Y-116511897D01*
X155431561Y-116307505D01*
X155508549Y-116230112D01*
X157306634Y-116230112D01*
X157543030Y-116928338D01*
X157964254Y-117409423D01*
X158059110Y-117789871D01*
X158755696Y-117616193D01*
X158742446Y-117654894D01*
X158947365Y-117830180D01*
X158120559Y-118036326D01*
X158322563Y-118846523D01*
X158681119Y-119490604D01*
X159258860Y-119948443D01*
X159413079Y-119992361D01*
X159247948Y-120157203D01*
X159021256Y-120703138D01*
X159020740Y-121294268D01*
X159246479Y-121840598D01*
X159664106Y-122258955D01*
X160210041Y-122485647D01*
X160801171Y-122486163D01*
X161347501Y-122260424D01*
X161765858Y-121842797D01*
X161992550Y-121296862D01*
X161993066Y-120705732D01*
X161767327Y-120159402D01*
X161349700Y-119741045D01*
X161288187Y-119715503D01*
X161671198Y-119346980D01*
X161966370Y-118671499D01*
X161980578Y-117934478D01*
X161778574Y-117124281D01*
X160234112Y-117509358D01*
X160509913Y-117326840D01*
X160629965Y-117148885D01*
X161717125Y-116877826D01*
X161515121Y-116067629D01*
X161218339Y-115534514D01*
X161241118Y-115191164D01*
X161004722Y-114492938D01*
X160519121Y-113938327D01*
X160360093Y-113833587D01*
X160045612Y-113848657D01*
X159732670Y-114762687D01*
X159679438Y-114762250D01*
X159423581Y-114945720D01*
X159414289Y-114908452D01*
X159805306Y-113766382D01*
X159566053Y-113561727D01*
X159376201Y-113547018D01*
X158652576Y-113687619D01*
X158037839Y-114094436D01*
X157625579Y-114705536D01*
X157531643Y-114979901D01*
X158450044Y-115294340D01*
X158244245Y-115492354D01*
X157449368Y-115220207D01*
X157355432Y-115494571D01*
X157306634Y-116230112D01*
X155508549Y-116230112D01*
X155950269Y-115786075D01*
X156229949Y-115105836D01*
X156358019Y-114453058D01*
X156356093Y-113717570D01*
X156283363Y-113543275D01*
X165403042Y-113543275D01*
X165620638Y-114184315D01*
X166066984Y-114693288D01*
X166674131Y-114992709D01*
X167349644Y-115036993D01*
X167990684Y-114819397D01*
X168499657Y-114373051D01*
X168799078Y-113765904D01*
X168816674Y-113700238D01*
X168841551Y-113320750D01*
X169545000Y-113320750D01*
X169545000Y-113646310D01*
X169641673Y-113879699D01*
X169820302Y-114058327D01*
X170053691Y-114155000D01*
X170529250Y-114155000D01*
X170688000Y-113996250D01*
X170688000Y-113162000D01*
X169703750Y-113162000D01*
X169545000Y-113320750D01*
X168841551Y-113320750D01*
X168860958Y-113024724D01*
X168643362Y-112383685D01*
X168197016Y-111874711D01*
X167589869Y-111575291D01*
X166914356Y-111531007D01*
X166273316Y-111748602D01*
X165764343Y-112194949D01*
X165464922Y-112802095D01*
X165447326Y-112867762D01*
X165403042Y-113543275D01*
X156283363Y-113543275D01*
X156072855Y-113038804D01*
X155551425Y-112520097D01*
X154871186Y-112240417D01*
X154135698Y-112242342D01*
X153456933Y-112525581D01*
X152938225Y-113047011D01*
X152771219Y-113453204D01*
X152420163Y-113696287D01*
X151184935Y-114973171D01*
X150786514Y-115591400D01*
X150655007Y-116315038D01*
X150778143Y-116884566D01*
X150398829Y-116884235D01*
X149852499Y-117109974D01*
X149434142Y-117527601D01*
X149207450Y-118073536D01*
X149206934Y-118664666D01*
X145781984Y-118664666D01*
X145732587Y-118545410D01*
X145407428Y-118058774D01*
X145283131Y-117934478D01*
X145218437Y-117869783D01*
X144731802Y-117544624D01*
X144608337Y-117493484D01*
X144484873Y-117442343D01*
X143910848Y-117328162D01*
X143843381Y-117328162D01*
X143777211Y-117315000D01*
X71565463Y-117315000D01*
X71191956Y-117240027D01*
X70932208Y-117065813D01*
X70758730Y-116805200D01*
X70685000Y-116432837D01*
X70685000Y-108294268D01*
X73433837Y-108294268D01*
X73659576Y-108840598D01*
X74077203Y-109258955D01*
X74623138Y-109485647D01*
X75214268Y-109486163D01*
X75760598Y-109260424D01*
X76178955Y-108842797D01*
X76312731Y-108520627D01*
X77370640Y-108520627D01*
X77770024Y-109487209D01*
X78508901Y-110227377D01*
X79474784Y-110628447D01*
X80520627Y-110629360D01*
X81487209Y-110229976D01*
X82227377Y-109491099D01*
X82628447Y-108525216D01*
X82629360Y-107479373D01*
X82229976Y-106512791D01*
X81491099Y-105772623D01*
X80525216Y-105371553D01*
X79479373Y-105370640D01*
X78512791Y-105770024D01*
X77772623Y-106508901D01*
X77371553Y-107474784D01*
X77370640Y-108520627D01*
X76312731Y-108520627D01*
X76405647Y-108296862D01*
X76406163Y-107705732D01*
X76260658Y-107353582D01*
X76681667Y-107318968D01*
X77335825Y-106982777D01*
X77811532Y-106421842D01*
X78542862Y-105105197D01*
X78963091Y-104780992D01*
X79329167Y-104143078D01*
X79412397Y-103497826D01*
X80611003Y-103497826D01*
X80754240Y-104220933D01*
X81163295Y-104834183D01*
X81694680Y-105189855D01*
X81884771Y-105532789D01*
X82512670Y-105184739D01*
X82509888Y-105225552D01*
X82753192Y-105341828D01*
X82007913Y-105754943D01*
X82412729Y-106485250D01*
X82925767Y-107014583D01*
X83602320Y-107307292D01*
X83757714Y-107309721D01*
X83594353Y-107703138D01*
X83593837Y-108294268D01*
X83819576Y-108840598D01*
X84237203Y-109258955D01*
X84783138Y-109485647D01*
X85374268Y-109486163D01*
X85920598Y-109260424D01*
X86338955Y-108842797D01*
X86565647Y-108296862D01*
X86565649Y-108294268D01*
X92513837Y-108294268D01*
X92739576Y-108840598D01*
X93157203Y-109258955D01*
X93703138Y-109485647D01*
X94294268Y-109486163D01*
X94840598Y-109260424D01*
X95258955Y-108842797D01*
X95392731Y-108520627D01*
X96450640Y-108520627D01*
X96850024Y-109487209D01*
X97588901Y-110227377D01*
X98554784Y-110628447D01*
X99600627Y-110629360D01*
X100567209Y-110229976D01*
X101307377Y-109491099D01*
X101708447Y-108525216D01*
X101709360Y-107479373D01*
X101309976Y-106512791D01*
X100571099Y-105772623D01*
X99605216Y-105371553D01*
X98559373Y-105370640D01*
X97592791Y-105770024D01*
X96852623Y-106508901D01*
X96451553Y-107474784D01*
X96450640Y-108520627D01*
X95392731Y-108520627D01*
X95485647Y-108296862D01*
X95486163Y-107705732D01*
X95340658Y-107353582D01*
X95761667Y-107318968D01*
X96415825Y-106982777D01*
X96891532Y-106421842D01*
X97622862Y-105105197D01*
X98043091Y-104780992D01*
X98409167Y-104143078D01*
X98492397Y-103497826D01*
X99691003Y-103497826D01*
X99834240Y-104220933D01*
X100243295Y-104834183D01*
X100774680Y-105189855D01*
X100964771Y-105532789D01*
X101592670Y-105184739D01*
X101589888Y-105225552D01*
X101833192Y-105341828D01*
X101087913Y-105754943D01*
X101492729Y-106485250D01*
X102005767Y-107014583D01*
X102682320Y-107307292D01*
X102837714Y-107309721D01*
X102674353Y-107703138D01*
X102673837Y-108294268D01*
X102899576Y-108840598D01*
X103317203Y-109258955D01*
X103863138Y-109485647D01*
X104454268Y-109486163D01*
X105000598Y-109260424D01*
X105418955Y-108842797D01*
X105645647Y-108296862D01*
X105645649Y-108294268D01*
X111513837Y-108294268D01*
X111739576Y-108840598D01*
X112157203Y-109258955D01*
X112703138Y-109485647D01*
X113294268Y-109486163D01*
X113840598Y-109260424D01*
X114258955Y-108842797D01*
X114392731Y-108520627D01*
X115450640Y-108520627D01*
X115850024Y-109487209D01*
X116588901Y-110227377D01*
X117554784Y-110628447D01*
X118600627Y-110629360D01*
X119567209Y-110229976D01*
X120307377Y-109491099D01*
X120708447Y-108525216D01*
X120709360Y-107479373D01*
X120309976Y-106512791D01*
X119571099Y-105772623D01*
X118605216Y-105371553D01*
X117559373Y-105370640D01*
X116592791Y-105770024D01*
X115852623Y-106508901D01*
X115451553Y-107474784D01*
X115450640Y-108520627D01*
X114392731Y-108520627D01*
X114485647Y-108296862D01*
X114486163Y-107705732D01*
X114340658Y-107353582D01*
X114761667Y-107318968D01*
X115415825Y-106982777D01*
X115891532Y-106421842D01*
X116622862Y-105105197D01*
X117043091Y-104780992D01*
X117409167Y-104143078D01*
X117492397Y-103497826D01*
X118691003Y-103497826D01*
X118834240Y-104220933D01*
X119243295Y-104834183D01*
X119774680Y-105189855D01*
X119964771Y-105532789D01*
X120592670Y-105184739D01*
X120589888Y-105225552D01*
X120833192Y-105341828D01*
X120087913Y-105754943D01*
X120492729Y-106485250D01*
X121005767Y-107014583D01*
X121682320Y-107307292D01*
X121837714Y-107309721D01*
X121674353Y-107703138D01*
X121673837Y-108294268D01*
X121899576Y-108840598D01*
X122317203Y-109258955D01*
X122863138Y-109485647D01*
X123454268Y-109486163D01*
X124000598Y-109260424D01*
X124418955Y-108842797D01*
X124645647Y-108296862D01*
X124645649Y-108294268D01*
X130513837Y-108294268D01*
X130739576Y-108840598D01*
X131157203Y-109258955D01*
X131703138Y-109485647D01*
X132294268Y-109486163D01*
X132840598Y-109260424D01*
X133258955Y-108842797D01*
X133392731Y-108520627D01*
X134450640Y-108520627D01*
X134850024Y-109487209D01*
X135588901Y-110227377D01*
X136554784Y-110628447D01*
X137600627Y-110629360D01*
X138567209Y-110229976D01*
X139307377Y-109491099D01*
X139708447Y-108525216D01*
X139709360Y-107479373D01*
X139309976Y-106512791D01*
X138571099Y-105772623D01*
X137605216Y-105371553D01*
X136559373Y-105370640D01*
X135592791Y-105770024D01*
X134852623Y-106508901D01*
X134451553Y-107474784D01*
X134450640Y-108520627D01*
X133392731Y-108520627D01*
X133485647Y-108296862D01*
X133486163Y-107705732D01*
X133340658Y-107353582D01*
X133761667Y-107318968D01*
X134415825Y-106982777D01*
X134891532Y-106421842D01*
X135622862Y-105105197D01*
X136043091Y-104780992D01*
X136409167Y-104143078D01*
X136492397Y-103497826D01*
X137691003Y-103497826D01*
X137834240Y-104220933D01*
X138243295Y-104834183D01*
X138774680Y-105189855D01*
X138964771Y-105532789D01*
X139592670Y-105184739D01*
X139589888Y-105225552D01*
X139833192Y-105341828D01*
X139087913Y-105754943D01*
X139492729Y-106485250D01*
X140005767Y-107014583D01*
X140682320Y-107307292D01*
X140837714Y-107309721D01*
X140674353Y-107703138D01*
X140673837Y-108294268D01*
X140899576Y-108840598D01*
X141317203Y-109258955D01*
X141863138Y-109485647D01*
X142454268Y-109486163D01*
X143000598Y-109260424D01*
X143418955Y-108842797D01*
X143645647Y-108296862D01*
X143646163Y-107705732D01*
X143420424Y-107159402D01*
X143002797Y-106741045D01*
X142577703Y-106564530D01*
X142856789Y-106101964D01*
X142947874Y-105500001D01*
X159815001Y-105500001D01*
X160019384Y-106527506D01*
X160601419Y-107398583D01*
X161472496Y-107980618D01*
X162500001Y-108185001D01*
X163527506Y-107980618D01*
X164398583Y-107398583D01*
X164980618Y-106527506D01*
X165146375Y-105694187D01*
X165569752Y-105694187D01*
X165787757Y-106221800D01*
X166191077Y-106625824D01*
X166718309Y-106844750D01*
X167289187Y-106845248D01*
X167816800Y-106627243D01*
X168220824Y-106223923D01*
X168439750Y-105696691D01*
X168440024Y-105381887D01*
X169380000Y-105381887D01*
X169380000Y-105438113D01*
X169489233Y-105987264D01*
X169800302Y-106452811D01*
X170265849Y-106763880D01*
X170815000Y-106873113D01*
X171364151Y-106763880D01*
X171829698Y-106452811D01*
X172140767Y-105987264D01*
X172250000Y-105438113D01*
X172250000Y-105381887D01*
X172140767Y-104832736D01*
X171829698Y-104367189D01*
X171364151Y-104056120D01*
X170815000Y-103946887D01*
X170265849Y-104056120D01*
X169800302Y-104367189D01*
X169489233Y-104832736D01*
X169380000Y-105381887D01*
X168440024Y-105381887D01*
X168440248Y-105125813D01*
X168222243Y-104598200D01*
X167818923Y-104194176D01*
X167291691Y-103975250D01*
X166720813Y-103974752D01*
X166193200Y-104192757D01*
X165789176Y-104596077D01*
X165570250Y-105123309D01*
X165569752Y-105694187D01*
X165146375Y-105694187D01*
X165185001Y-105500001D01*
X164980618Y-104472496D01*
X164398583Y-103601419D01*
X164131751Y-103423127D01*
X172643247Y-103423127D01*
X172810777Y-103768618D01*
X173112861Y-104030061D01*
X173492000Y-104156000D01*
X173873000Y-104156000D01*
X173873000Y-103267000D01*
X172771210Y-103267000D01*
X172643247Y-103423127D01*
X164131751Y-103423127D01*
X163527506Y-103019384D01*
X162500001Y-102815001D01*
X161472496Y-103019384D01*
X160601419Y-103601419D01*
X160019384Y-104472496D01*
X159815001Y-105500001D01*
X142947874Y-105500001D01*
X142967076Y-105373103D01*
X142790045Y-104657518D01*
X142385229Y-103927211D01*
X140993058Y-104698904D01*
X141212223Y-104451221D01*
X141282126Y-104248258D01*
X142262087Y-103705057D01*
X141857271Y-102974750D01*
X141432623Y-102536615D01*
X141365760Y-102199067D01*
X140956705Y-101585817D01*
X140344107Y-101175786D01*
X140163389Y-101115774D01*
X139863524Y-101211724D01*
X139797813Y-102175604D01*
X139746282Y-102188960D01*
X139546627Y-102432400D01*
X139528007Y-102398808D01*
X139610112Y-101194448D01*
X139326043Y-101058690D01*
X139138852Y-101093620D01*
X138476274Y-101416718D01*
X137987777Y-101968779D01*
X137747728Y-102665757D01*
X137728003Y-102955085D01*
X138696493Y-103021110D01*
X138548956Y-103265642D01*
X137710727Y-103208497D01*
X137691003Y-103497826D01*
X136492397Y-103497826D01*
X136503258Y-103413631D01*
X136458012Y-102749948D01*
X136265793Y-102040020D01*
X135816528Y-101457691D01*
X135178613Y-101091615D01*
X134449166Y-100997524D01*
X133739238Y-101189743D01*
X133156909Y-101639008D01*
X132790833Y-102276923D01*
X132734649Y-102712496D01*
X132458467Y-103038158D01*
X131595812Y-104591234D01*
X131370976Y-105291516D01*
X131431242Y-106024533D01*
X131686742Y-106521683D01*
X131159402Y-106739576D01*
X130741045Y-107157203D01*
X130514353Y-107703138D01*
X130513837Y-108294268D01*
X124645649Y-108294268D01*
X124646163Y-107705732D01*
X124420424Y-107159402D01*
X124002797Y-106741045D01*
X123577703Y-106564530D01*
X123856789Y-106101964D01*
X123967076Y-105373103D01*
X123790045Y-104657518D01*
X123385229Y-103927211D01*
X121993058Y-104698904D01*
X122212223Y-104451221D01*
X122282126Y-104248258D01*
X123262087Y-103705057D01*
X122857271Y-102974750D01*
X122432623Y-102536615D01*
X122365760Y-102199067D01*
X121956705Y-101585817D01*
X121344107Y-101175786D01*
X121163389Y-101115774D01*
X120863524Y-101211724D01*
X120797813Y-102175604D01*
X120746282Y-102188960D01*
X120546627Y-102432400D01*
X120528007Y-102398808D01*
X120610112Y-101194448D01*
X120326043Y-101058690D01*
X120138852Y-101093620D01*
X119476274Y-101416718D01*
X118987777Y-101968779D01*
X118747728Y-102665757D01*
X118728003Y-102955085D01*
X119696493Y-103021110D01*
X119548956Y-103265642D01*
X118710727Y-103208497D01*
X118691003Y-103497826D01*
X117492397Y-103497826D01*
X117503258Y-103413631D01*
X117458012Y-102749948D01*
X117265793Y-102040020D01*
X116816528Y-101457691D01*
X116178613Y-101091615D01*
X115449166Y-100997524D01*
X114739238Y-101189743D01*
X114156909Y-101639008D01*
X113790833Y-102276923D01*
X113734649Y-102712496D01*
X113458467Y-103038158D01*
X112595812Y-104591234D01*
X112370976Y-105291516D01*
X112431242Y-106024533D01*
X112686742Y-106521683D01*
X112159402Y-106739576D01*
X111741045Y-107157203D01*
X111514353Y-107703138D01*
X111513837Y-108294268D01*
X105645649Y-108294268D01*
X105646163Y-107705732D01*
X105420424Y-107159402D01*
X105002797Y-106741045D01*
X104577703Y-106564530D01*
X104856789Y-106101964D01*
X104967076Y-105373103D01*
X104790045Y-104657518D01*
X104385229Y-103927211D01*
X102993058Y-104698904D01*
X103212223Y-104451221D01*
X103282126Y-104248258D01*
X104262087Y-103705057D01*
X103857271Y-102974750D01*
X103432623Y-102536615D01*
X103365760Y-102199067D01*
X102956705Y-101585817D01*
X102344107Y-101175786D01*
X102163389Y-101115774D01*
X101863524Y-101211724D01*
X101797813Y-102175604D01*
X101746282Y-102188960D01*
X101546627Y-102432400D01*
X101528007Y-102398808D01*
X101610112Y-101194448D01*
X101326043Y-101058690D01*
X101138852Y-101093620D01*
X100476274Y-101416718D01*
X99987777Y-101968779D01*
X99747728Y-102665757D01*
X99728003Y-102955085D01*
X100696493Y-103021110D01*
X100548956Y-103265642D01*
X99710727Y-103208497D01*
X99691003Y-103497826D01*
X98492397Y-103497826D01*
X98503258Y-103413631D01*
X98458012Y-102749948D01*
X98265793Y-102040020D01*
X97816528Y-101457691D01*
X97178613Y-101091615D01*
X96449166Y-100997524D01*
X95739238Y-101189743D01*
X95156909Y-101639008D01*
X94790833Y-102276923D01*
X94734649Y-102712496D01*
X94458467Y-103038158D01*
X93595812Y-104591234D01*
X93370976Y-105291516D01*
X93431242Y-106024533D01*
X93686742Y-106521683D01*
X93159402Y-106739576D01*
X92741045Y-107157203D01*
X92514353Y-107703138D01*
X92513837Y-108294268D01*
X86565649Y-108294268D01*
X86566163Y-107705732D01*
X86340424Y-107159402D01*
X85922797Y-106741045D01*
X85497703Y-106564530D01*
X85776789Y-106101964D01*
X85887076Y-105373103D01*
X85710045Y-104657518D01*
X85305229Y-103927211D01*
X83913058Y-104698904D01*
X84132223Y-104451221D01*
X84202126Y-104248258D01*
X85182087Y-103705057D01*
X84777271Y-102974750D01*
X84352623Y-102536615D01*
X84285760Y-102199067D01*
X83876705Y-101585817D01*
X83264107Y-101175786D01*
X83083389Y-101115774D01*
X82783524Y-101211724D01*
X82717813Y-102175604D01*
X82666282Y-102188960D01*
X82466627Y-102432400D01*
X82448007Y-102398808D01*
X82530112Y-101194448D01*
X82246043Y-101058690D01*
X82058852Y-101093620D01*
X81396274Y-101416718D01*
X80907777Y-101968779D01*
X80667728Y-102665757D01*
X80648003Y-102955085D01*
X81616493Y-103021110D01*
X81468956Y-103265642D01*
X80630727Y-103208497D01*
X80611003Y-103497826D01*
X79412397Y-103497826D01*
X79423258Y-103413631D01*
X79378012Y-102749948D01*
X79185793Y-102040020D01*
X78736528Y-101457691D01*
X78098613Y-101091615D01*
X77369166Y-100997524D01*
X76659238Y-101189743D01*
X76076909Y-101639008D01*
X75710833Y-102276923D01*
X75654649Y-102712496D01*
X75378467Y-103038158D01*
X74515812Y-104591234D01*
X74290976Y-105291516D01*
X74351242Y-106024533D01*
X74606742Y-106521683D01*
X74079402Y-106739576D01*
X73661045Y-107157203D01*
X73434353Y-107703138D01*
X73433837Y-108294268D01*
X70685000Y-108294268D01*
X70685000Y-98500001D01*
X86815000Y-98500001D01*
X87019383Y-99527506D01*
X87601418Y-100398583D01*
X88472495Y-100980618D01*
X89500000Y-101185001D01*
X90527505Y-100980618D01*
X91398582Y-100398583D01*
X91980617Y-99527506D01*
X91984547Y-99507745D01*
X133671861Y-99507745D01*
X133745995Y-99753864D01*
X134283223Y-99946965D01*
X134853454Y-99919778D01*
X135254005Y-99753864D01*
X135328139Y-99507745D01*
X134500000Y-98679605D01*
X133671861Y-99507745D01*
X91984547Y-99507745D01*
X92185000Y-98500001D01*
X91980617Y-97472496D01*
X91398582Y-96601419D01*
X90527505Y-96019384D01*
X89500000Y-95815001D01*
X88472495Y-96019384D01*
X87601418Y-96601419D01*
X87019383Y-97472496D01*
X86815000Y-98500001D01*
X70685000Y-98500001D01*
X70685000Y-94794268D01*
X149433837Y-94794268D01*
X149659576Y-95340598D01*
X150077203Y-95758955D01*
X150623138Y-95985647D01*
X151214268Y-95986163D01*
X151760598Y-95760424D01*
X152178955Y-95342797D01*
X152312731Y-95020627D01*
X153370640Y-95020627D01*
X153770024Y-95987209D01*
X154508901Y-96727377D01*
X155474784Y-97128447D01*
X156520627Y-97129360D01*
X157487209Y-96729976D01*
X158227377Y-95991099D01*
X158628447Y-95025216D01*
X158629360Y-93979373D01*
X158229976Y-93012791D01*
X157491099Y-92272623D01*
X156525216Y-91871553D01*
X155479373Y-91870640D01*
X154512791Y-92270024D01*
X153772623Y-93008901D01*
X153371553Y-93974784D01*
X153370640Y-95020627D01*
X152312731Y-95020627D01*
X152405647Y-94796862D01*
X152406163Y-94205732D01*
X152260658Y-93853582D01*
X152681667Y-93818968D01*
X153335825Y-93482777D01*
X153811532Y-92921842D01*
X154542862Y-91605197D01*
X154963091Y-91280992D01*
X155329167Y-90643078D01*
X155412397Y-89997826D01*
X156611003Y-89997826D01*
X156754240Y-90720933D01*
X157163295Y-91334183D01*
X157694680Y-91689855D01*
X157884771Y-92032789D01*
X158512670Y-91684739D01*
X158509888Y-91725552D01*
X158753192Y-91841828D01*
X158007913Y-92254943D01*
X158412729Y-92985250D01*
X158925767Y-93514583D01*
X159602320Y-93807292D01*
X159757714Y-93809721D01*
X159594353Y-94203138D01*
X159593837Y-94794268D01*
X159819576Y-95340598D01*
X160237203Y-95758955D01*
X160783138Y-95985647D01*
X161374268Y-95986163D01*
X161920598Y-95760424D01*
X162338955Y-95342797D01*
X162565647Y-94796862D01*
X162566163Y-94205732D01*
X162340424Y-93659402D01*
X161922797Y-93241045D01*
X161497703Y-93064530D01*
X161776789Y-92601964D01*
X161887076Y-91873103D01*
X161710045Y-91157518D01*
X161305229Y-90427211D01*
X159913058Y-91198904D01*
X160132223Y-90951221D01*
X160202126Y-90748258D01*
X161182087Y-90205057D01*
X160777271Y-89474750D01*
X160352623Y-89036615D01*
X160285760Y-88699067D01*
X159876705Y-88085817D01*
X159264107Y-87675786D01*
X159083389Y-87615774D01*
X158783524Y-87711724D01*
X158717813Y-88675604D01*
X158666282Y-88688960D01*
X158466627Y-88932400D01*
X158448007Y-88898808D01*
X158530112Y-87694448D01*
X158246043Y-87558690D01*
X158058852Y-87593620D01*
X157396274Y-87916718D01*
X156907777Y-88468779D01*
X156667728Y-89165757D01*
X156648003Y-89455085D01*
X157616493Y-89521110D01*
X157468956Y-89765642D01*
X156630727Y-89708497D01*
X156611003Y-89997826D01*
X155412397Y-89997826D01*
X155423258Y-89913631D01*
X155378012Y-89249948D01*
X155185793Y-88540020D01*
X154736528Y-87957691D01*
X154098613Y-87591615D01*
X153369166Y-87497524D01*
X152659238Y-87689743D01*
X152076909Y-88139008D01*
X151710833Y-88776923D01*
X151654649Y-89212496D01*
X151378467Y-89538158D01*
X150515812Y-91091234D01*
X150290976Y-91791516D01*
X150351242Y-92524533D01*
X150606742Y-93021683D01*
X150079402Y-93239576D01*
X149661045Y-93657203D01*
X149434353Y-94203138D01*
X149433837Y-94794268D01*
X70685000Y-94794268D01*
X70685000Y-92514167D01*
X130001838Y-92514167D01*
X130143883Y-92857943D01*
X130406673Y-93121192D01*
X130750201Y-93263838D01*
X131122167Y-93264162D01*
X131465943Y-93122117D01*
X131729192Y-92859327D01*
X131758394Y-92789001D01*
X143174999Y-92789001D01*
X143465838Y-92731149D01*
X143712400Y-92566402D01*
X149412802Y-86866000D01*
X162626198Y-86866000D01*
X166833790Y-91073592D01*
X166760907Y-91440000D01*
X166873946Y-92008285D01*
X167195853Y-92490054D01*
X167677622Y-92811961D01*
X168245907Y-92925000D01*
X168255198Y-92925000D01*
X167328886Y-93851312D01*
X167005000Y-93786887D01*
X166455849Y-93896120D01*
X165990302Y-94207189D01*
X165679233Y-94672736D01*
X165570000Y-95221887D01*
X165570000Y-95278113D01*
X165679233Y-95827264D01*
X165990302Y-96292811D01*
X166455849Y-96603880D01*
X167005000Y-96713113D01*
X167554151Y-96603880D01*
X168019698Y-96292811D01*
X168043128Y-96257745D01*
X169986861Y-96257745D01*
X170060995Y-96503864D01*
X170598223Y-96696965D01*
X171168454Y-96669778D01*
X171569005Y-96503864D01*
X171643139Y-96257745D01*
X170815000Y-95429605D01*
X169986861Y-96257745D01*
X168043128Y-96257745D01*
X168330767Y-95827264D01*
X168440000Y-95278113D01*
X168440000Y-95221887D01*
X168402473Y-95033223D01*
X169368035Y-95033223D01*
X169395222Y-95603454D01*
X169561136Y-96004005D01*
X169807255Y-96078139D01*
X170635395Y-95250000D01*
X170994605Y-95250000D01*
X171822745Y-96078139D01*
X172068864Y-96004005D01*
X172076095Y-95983887D01*
X172301000Y-95983887D01*
X172301000Y-96040113D01*
X172410233Y-96589264D01*
X172721302Y-97054811D01*
X173186849Y-97365880D01*
X173736000Y-97475113D01*
X174285151Y-97365880D01*
X174750698Y-97054811D01*
X175061767Y-96589264D01*
X175171000Y-96040113D01*
X175171000Y-95983887D01*
X175136974Y-95812828D01*
X179477560Y-91472242D01*
X179477560Y-92290000D01*
X179521838Y-92525317D01*
X179660910Y-92741441D01*
X179873110Y-92886431D01*
X180125000Y-92937440D01*
X180687760Y-92937440D01*
X178446613Y-95178587D01*
X178306698Y-94969189D01*
X177841151Y-94658120D01*
X177292000Y-94548887D01*
X176742849Y-94658120D01*
X176277302Y-94969189D01*
X175966233Y-95434736D01*
X175857000Y-95983887D01*
X175857000Y-96040113D01*
X175966233Y-96589264D01*
X176277302Y-97054811D01*
X176742849Y-97365880D01*
X177292000Y-97475113D01*
X177841151Y-97365880D01*
X178306698Y-97054811D01*
X178495667Y-96772000D01*
X178688002Y-96772000D01*
X178978841Y-96714148D01*
X179225403Y-96549401D01*
X182687402Y-93087402D01*
X182852149Y-92840840D01*
X182910001Y-92550001D01*
X182910001Y-91789041D01*
X183393086Y-91789041D01*
X183632611Y-92295134D01*
X184047577Y-92671041D01*
X184435961Y-92831904D01*
X184658000Y-92709915D01*
X184658000Y-91567000D01*
X184912000Y-91567000D01*
X184912000Y-92709915D01*
X185134039Y-92831904D01*
X185522423Y-92671041D01*
X185937389Y-92295134D01*
X186176914Y-91789041D01*
X186055629Y-91567000D01*
X184912000Y-91567000D01*
X184658000Y-91567000D01*
X183514371Y-91567000D01*
X183393086Y-91789041D01*
X182910001Y-91789041D01*
X182910001Y-91090959D01*
X183393086Y-91090959D01*
X183514371Y-91313000D01*
X184658000Y-91313000D01*
X184658000Y-90170085D01*
X184912000Y-90170085D01*
X184912000Y-91313000D01*
X186055629Y-91313000D01*
X186176914Y-91090959D01*
X185937389Y-90584866D01*
X185522423Y-90208959D01*
X185134039Y-90048096D01*
X184912000Y-90170085D01*
X184658000Y-90170085D01*
X184435961Y-90048096D01*
X184047577Y-90208959D01*
X183632611Y-90584866D01*
X183393086Y-91090959D01*
X182910001Y-91090959D01*
X182910001Y-84995001D01*
X182886131Y-84875000D01*
X182852149Y-84704161D01*
X182687402Y-84457600D01*
X182416210Y-84186408D01*
X182489093Y-83820000D01*
X182376054Y-83251715D01*
X182221228Y-83020000D01*
X183337560Y-83020000D01*
X183337560Y-84620000D01*
X183381838Y-84855317D01*
X183520910Y-85071441D01*
X183733110Y-85216431D01*
X183985000Y-85267440D01*
X185585000Y-85267440D01*
X185820317Y-85223162D01*
X186036441Y-85084090D01*
X186181431Y-84871890D01*
X186232440Y-84620000D01*
X186232440Y-83020000D01*
X186188162Y-82784683D01*
X186049090Y-82568559D01*
X185836890Y-82423569D01*
X185585000Y-82372560D01*
X183985000Y-82372560D01*
X183749683Y-82416838D01*
X183533559Y-82555910D01*
X183388569Y-82768110D01*
X183337560Y-83020000D01*
X182221228Y-83020000D01*
X182054147Y-82769946D01*
X181724974Y-82550000D01*
X182054147Y-82330054D01*
X182376054Y-81848285D01*
X182489093Y-81280000D01*
X182376054Y-80711715D01*
X182054147Y-80229946D01*
X181572378Y-79908039D01*
X181004093Y-79795000D01*
X180945907Y-79795000D01*
X180377622Y-79908039D01*
X179895853Y-80229946D01*
X179573946Y-80711715D01*
X179460907Y-81280000D01*
X179573946Y-81848285D01*
X179895853Y-82330054D01*
X180225026Y-82550000D01*
X179895853Y-82769946D01*
X179573946Y-83251715D01*
X179460907Y-83820000D01*
X179573946Y-84388285D01*
X179895853Y-84870054D01*
X180225026Y-85090000D01*
X179895853Y-85309946D01*
X179573946Y-85791715D01*
X179460907Y-86360000D01*
X179573946Y-86928285D01*
X179895853Y-87410054D01*
X180225026Y-87630000D01*
X179895853Y-87849946D01*
X179573946Y-88331715D01*
X179460907Y-88900000D01*
X179533790Y-89266408D01*
X174165815Y-94634383D01*
X173736000Y-94548887D01*
X173186849Y-94658120D01*
X172721302Y-94969189D01*
X172410233Y-95434736D01*
X172301000Y-95983887D01*
X172076095Y-95983887D01*
X172261965Y-95466777D01*
X172234778Y-94896546D01*
X172068864Y-94495995D01*
X171822745Y-94421861D01*
X170994605Y-95250000D01*
X170635395Y-95250000D01*
X169807255Y-94421861D01*
X169561136Y-94495995D01*
X169368035Y-95033223D01*
X168402473Y-95033223D01*
X168384904Y-94944898D01*
X169087547Y-94242255D01*
X169986861Y-94242255D01*
X170815000Y-95070395D01*
X171643139Y-94242255D01*
X171569005Y-93996136D01*
X171031777Y-93803035D01*
X170461546Y-93830222D01*
X170060995Y-93996136D01*
X169986861Y-94242255D01*
X169087547Y-94242255D01*
X170590401Y-92739401D01*
X170755148Y-92492839D01*
X170813000Y-92202000D01*
X170813000Y-88138000D01*
X170755148Y-87847161D01*
X170590401Y-87600599D01*
X169716210Y-86726408D01*
X169789093Y-86360000D01*
X169744574Y-86136187D01*
X172300752Y-86136187D01*
X172518757Y-86663800D01*
X172922077Y-87067824D01*
X173449309Y-87286750D01*
X174020187Y-87287248D01*
X174547800Y-87069243D01*
X174951824Y-86665923D01*
X175170750Y-86138691D01*
X175170752Y-86136187D01*
X175856752Y-86136187D01*
X176074757Y-86663800D01*
X176478077Y-87067824D01*
X177005309Y-87286750D01*
X177576187Y-87287248D01*
X178103800Y-87069243D01*
X178507824Y-86665923D01*
X178726750Y-86138691D01*
X178727248Y-85567813D01*
X178509243Y-85040200D01*
X178105923Y-84636176D01*
X177578691Y-84417250D01*
X177007813Y-84416752D01*
X176480200Y-84634757D01*
X176076176Y-85038077D01*
X175857250Y-85565309D01*
X175856752Y-86136187D01*
X175170752Y-86136187D01*
X175171248Y-85567813D01*
X174953243Y-85040200D01*
X174549923Y-84636176D01*
X174022691Y-84417250D01*
X173451813Y-84416752D01*
X172924200Y-84634757D01*
X172520176Y-85038077D01*
X172301250Y-85565309D01*
X172300752Y-86136187D01*
X169744574Y-86136187D01*
X169676054Y-85791715D01*
X169354147Y-85309946D01*
X169013447Y-85082298D01*
X169156358Y-85015183D01*
X169546645Y-84586924D01*
X169716476Y-84176890D01*
X169595155Y-83947000D01*
X168402000Y-83947000D01*
X168402000Y-83967000D01*
X168148000Y-83967000D01*
X168148000Y-83947000D01*
X166954845Y-83947000D01*
X166833524Y-84176890D01*
X167003355Y-84586924D01*
X167393642Y-85015183D01*
X167536553Y-85082298D01*
X167195853Y-85309946D01*
X166873946Y-85791715D01*
X166760907Y-86360000D01*
X166873946Y-86928285D01*
X167195853Y-87410054D01*
X167525026Y-87630000D01*
X167195853Y-87849946D01*
X166873946Y-88331715D01*
X166769019Y-88859217D01*
X163478401Y-85568599D01*
X163231839Y-85403852D01*
X162941000Y-85346000D01*
X149098000Y-85346000D01*
X148807160Y-85403852D01*
X148560599Y-85568599D01*
X142860197Y-91269001D01*
X138312761Y-91269001D01*
X138407209Y-91229976D01*
X139147377Y-90491099D01*
X139548447Y-89525216D01*
X139549360Y-88479373D01*
X139149976Y-87512791D01*
X138411099Y-86772623D01*
X137445216Y-86371553D01*
X136399373Y-86370640D01*
X135432791Y-86770024D01*
X134692623Y-87508901D01*
X134291553Y-88474784D01*
X134290640Y-89520627D01*
X134690024Y-90487209D01*
X135428901Y-91227377D01*
X135529143Y-91269001D01*
X131236999Y-91269001D01*
X130946160Y-91326853D01*
X130845787Y-91393920D01*
X130751833Y-91393838D01*
X130408057Y-91535883D01*
X130144808Y-91798673D01*
X130002162Y-92142201D01*
X130001838Y-92514167D01*
X70685000Y-92514167D01*
X70685000Y-89294268D01*
X73353837Y-89294268D01*
X73579576Y-89840598D01*
X73997203Y-90258955D01*
X74543138Y-90485647D01*
X75134268Y-90486163D01*
X75680598Y-90260424D01*
X76098955Y-89842797D01*
X76232731Y-89520627D01*
X77290640Y-89520627D01*
X77690024Y-90487209D01*
X78428901Y-91227377D01*
X79394784Y-91628447D01*
X80440627Y-91629360D01*
X81407209Y-91229976D01*
X82147377Y-90491099D01*
X82548447Y-89525216D01*
X82549360Y-88479373D01*
X82149976Y-87512791D01*
X81411099Y-86772623D01*
X80445216Y-86371553D01*
X79399373Y-86370640D01*
X78432791Y-86770024D01*
X77692623Y-87508901D01*
X77291553Y-88474784D01*
X77290640Y-89520627D01*
X76232731Y-89520627D01*
X76325647Y-89296862D01*
X76326163Y-88705732D01*
X76180658Y-88353582D01*
X76601667Y-88318968D01*
X77255825Y-87982777D01*
X77731532Y-87421842D01*
X78462862Y-86105197D01*
X78883091Y-85780992D01*
X79249167Y-85143078D01*
X79332397Y-84497826D01*
X80531003Y-84497826D01*
X80674240Y-85220933D01*
X81083295Y-85834183D01*
X81614680Y-86189855D01*
X81804771Y-86532789D01*
X82432670Y-86184739D01*
X82429888Y-86225552D01*
X82673192Y-86341828D01*
X81927913Y-86754943D01*
X82332729Y-87485250D01*
X82845767Y-88014583D01*
X83522320Y-88307292D01*
X83677714Y-88309721D01*
X83514353Y-88703138D01*
X83513837Y-89294268D01*
X83739576Y-89840598D01*
X84157203Y-90258955D01*
X84703138Y-90485647D01*
X85294268Y-90486163D01*
X85840598Y-90260424D01*
X86258955Y-89842797D01*
X86485647Y-89296862D01*
X86485649Y-89294268D01*
X92353837Y-89294268D01*
X92579576Y-89840598D01*
X92997203Y-90258955D01*
X93543138Y-90485647D01*
X94134268Y-90486163D01*
X94680598Y-90260424D01*
X95098955Y-89842797D01*
X95232731Y-89520627D01*
X96290640Y-89520627D01*
X96690024Y-90487209D01*
X97428901Y-91227377D01*
X98394784Y-91628447D01*
X99440627Y-91629360D01*
X100407209Y-91229976D01*
X101147377Y-90491099D01*
X101548447Y-89525216D01*
X101549360Y-88479373D01*
X101149976Y-87512791D01*
X100411099Y-86772623D01*
X99445216Y-86371553D01*
X98399373Y-86370640D01*
X97432791Y-86770024D01*
X96692623Y-87508901D01*
X96291553Y-88474784D01*
X96290640Y-89520627D01*
X95232731Y-89520627D01*
X95325647Y-89296862D01*
X95326163Y-88705732D01*
X95180658Y-88353582D01*
X95601667Y-88318968D01*
X96255825Y-87982777D01*
X96731532Y-87421842D01*
X97462862Y-86105197D01*
X97883091Y-85780992D01*
X98249167Y-85143078D01*
X98332397Y-84497826D01*
X99531003Y-84497826D01*
X99674240Y-85220933D01*
X100083295Y-85834183D01*
X100614680Y-86189855D01*
X100804771Y-86532789D01*
X101432670Y-86184739D01*
X101429888Y-86225552D01*
X101673192Y-86341828D01*
X100927913Y-86754943D01*
X101332729Y-87485250D01*
X101845767Y-88014583D01*
X102522320Y-88307292D01*
X102677714Y-88309721D01*
X102514353Y-88703138D01*
X102513837Y-89294268D01*
X102739576Y-89840598D01*
X103157203Y-90258955D01*
X103703138Y-90485647D01*
X104294268Y-90486163D01*
X104840598Y-90260424D01*
X105258955Y-89842797D01*
X105485647Y-89296862D01*
X105485649Y-89294268D01*
X111353837Y-89294268D01*
X111579576Y-89840598D01*
X111997203Y-90258955D01*
X112543138Y-90485647D01*
X113134268Y-90486163D01*
X113680598Y-90260424D01*
X114098955Y-89842797D01*
X114232731Y-89520627D01*
X115290640Y-89520627D01*
X115690024Y-90487209D01*
X116428901Y-91227377D01*
X117394784Y-91628447D01*
X118440627Y-91629360D01*
X119407209Y-91229976D01*
X120147377Y-90491099D01*
X120548447Y-89525216D01*
X120549360Y-88479373D01*
X120149976Y-87512791D01*
X119411099Y-86772623D01*
X118445216Y-86371553D01*
X117399373Y-86370640D01*
X116432791Y-86770024D01*
X115692623Y-87508901D01*
X115291553Y-88474784D01*
X115290640Y-89520627D01*
X114232731Y-89520627D01*
X114325647Y-89296862D01*
X114326163Y-88705732D01*
X114180658Y-88353582D01*
X114601667Y-88318968D01*
X115255825Y-87982777D01*
X115731532Y-87421842D01*
X116462862Y-86105197D01*
X116883091Y-85780992D01*
X117249167Y-85143078D01*
X117332397Y-84497826D01*
X118531003Y-84497826D01*
X118674240Y-85220933D01*
X119083295Y-85834183D01*
X119614680Y-86189855D01*
X119804771Y-86532789D01*
X120432670Y-86184739D01*
X120429888Y-86225552D01*
X120673192Y-86341828D01*
X119927913Y-86754943D01*
X120332729Y-87485250D01*
X120845767Y-88014583D01*
X121522320Y-88307292D01*
X121677714Y-88309721D01*
X121514353Y-88703138D01*
X121513837Y-89294268D01*
X121739576Y-89840598D01*
X122157203Y-90258955D01*
X122703138Y-90485647D01*
X123294268Y-90486163D01*
X123840598Y-90260424D01*
X124258955Y-89842797D01*
X124485647Y-89296862D01*
X124485649Y-89294268D01*
X130353837Y-89294268D01*
X130579576Y-89840598D01*
X130997203Y-90258955D01*
X131543138Y-90485647D01*
X132134268Y-90486163D01*
X132680598Y-90260424D01*
X133098955Y-89842797D01*
X133325647Y-89296862D01*
X133326163Y-88705732D01*
X133180658Y-88353582D01*
X133601667Y-88318968D01*
X134255825Y-87982777D01*
X134731532Y-87421842D01*
X135462862Y-86105197D01*
X135883091Y-85780992D01*
X136249167Y-85143078D01*
X136332397Y-84497826D01*
X137531003Y-84497826D01*
X137674240Y-85220933D01*
X138083295Y-85834183D01*
X138614680Y-86189855D01*
X138804771Y-86532789D01*
X139432670Y-86184739D01*
X139429888Y-86225552D01*
X139673192Y-86341828D01*
X138927913Y-86754943D01*
X139332729Y-87485250D01*
X139845767Y-88014583D01*
X140522320Y-88307292D01*
X140677714Y-88309721D01*
X140514353Y-88703138D01*
X140513837Y-89294268D01*
X140739576Y-89840598D01*
X141157203Y-90258955D01*
X141703138Y-90485647D01*
X142294268Y-90486163D01*
X142840598Y-90260424D01*
X143258955Y-89842797D01*
X143485647Y-89296862D01*
X143486163Y-88705732D01*
X143260424Y-88159402D01*
X142842797Y-87741045D01*
X142417703Y-87564530D01*
X142696789Y-87101964D01*
X142807076Y-86373103D01*
X142630045Y-85657518D01*
X142225229Y-84927211D01*
X140833058Y-85698904D01*
X141052223Y-85451221D01*
X141122126Y-85248258D01*
X142102087Y-84705057D01*
X141697271Y-83974750D01*
X141272623Y-83536615D01*
X141205760Y-83199067D01*
X140796705Y-82585817D01*
X140184107Y-82175786D01*
X140003389Y-82115774D01*
X139703524Y-82211724D01*
X139637813Y-83175604D01*
X139586282Y-83188960D01*
X139386627Y-83432400D01*
X139368007Y-83398808D01*
X139450112Y-82194448D01*
X139166043Y-82058690D01*
X138978852Y-82093620D01*
X138316274Y-82416718D01*
X137827777Y-82968779D01*
X137587728Y-83665757D01*
X137568003Y-83955085D01*
X138536493Y-84021110D01*
X138388956Y-84265642D01*
X137550727Y-84208497D01*
X137531003Y-84497826D01*
X136332397Y-84497826D01*
X136343258Y-84413631D01*
X136298012Y-83749948D01*
X136105793Y-83040020D01*
X135656528Y-82457691D01*
X135018613Y-82091615D01*
X134289166Y-81997524D01*
X133579238Y-82189743D01*
X132996909Y-82639008D01*
X132630833Y-83276923D01*
X132574649Y-83712496D01*
X132298467Y-84038158D01*
X131435812Y-85591234D01*
X131210976Y-86291516D01*
X131271242Y-87024533D01*
X131526742Y-87521683D01*
X130999402Y-87739576D01*
X130581045Y-88157203D01*
X130354353Y-88703138D01*
X130353837Y-89294268D01*
X124485649Y-89294268D01*
X124486163Y-88705732D01*
X124260424Y-88159402D01*
X123842797Y-87741045D01*
X123417703Y-87564530D01*
X123696789Y-87101964D01*
X123807076Y-86373103D01*
X123630045Y-85657518D01*
X123225229Y-84927211D01*
X121833058Y-85698904D01*
X122052223Y-85451221D01*
X122122126Y-85248258D01*
X123102087Y-84705057D01*
X122697271Y-83974750D01*
X122272623Y-83536615D01*
X122205760Y-83199067D01*
X121796705Y-82585817D01*
X121184107Y-82175786D01*
X121003389Y-82115774D01*
X120703524Y-82211724D01*
X120637813Y-83175604D01*
X120586282Y-83188960D01*
X120386627Y-83432400D01*
X120368007Y-83398808D01*
X120450112Y-82194448D01*
X120166043Y-82058690D01*
X119978852Y-82093620D01*
X119316274Y-82416718D01*
X118827777Y-82968779D01*
X118587728Y-83665757D01*
X118568003Y-83955085D01*
X119536493Y-84021110D01*
X119388956Y-84265642D01*
X118550727Y-84208497D01*
X118531003Y-84497826D01*
X117332397Y-84497826D01*
X117343258Y-84413631D01*
X117298012Y-83749948D01*
X117105793Y-83040020D01*
X116656528Y-82457691D01*
X116018613Y-82091615D01*
X115289166Y-81997524D01*
X114579238Y-82189743D01*
X113996909Y-82639008D01*
X113630833Y-83276923D01*
X113574649Y-83712496D01*
X113298467Y-84038158D01*
X112435812Y-85591234D01*
X112210976Y-86291516D01*
X112271242Y-87024533D01*
X112526742Y-87521683D01*
X111999402Y-87739576D01*
X111581045Y-88157203D01*
X111354353Y-88703138D01*
X111353837Y-89294268D01*
X105485649Y-89294268D01*
X105486163Y-88705732D01*
X105260424Y-88159402D01*
X104842797Y-87741045D01*
X104417703Y-87564530D01*
X104696789Y-87101964D01*
X104807076Y-86373103D01*
X104630045Y-85657518D01*
X104225229Y-84927211D01*
X102833058Y-85698904D01*
X103052223Y-85451221D01*
X103122126Y-85248258D01*
X104102087Y-84705057D01*
X103697271Y-83974750D01*
X103272623Y-83536615D01*
X103205760Y-83199067D01*
X102796705Y-82585817D01*
X102184107Y-82175786D01*
X102003389Y-82115774D01*
X101703524Y-82211724D01*
X101637813Y-83175604D01*
X101586282Y-83188960D01*
X101386627Y-83432400D01*
X101368007Y-83398808D01*
X101450112Y-82194448D01*
X101166043Y-82058690D01*
X100978852Y-82093620D01*
X100316274Y-82416718D01*
X99827777Y-82968779D01*
X99587728Y-83665757D01*
X99568003Y-83955085D01*
X100536493Y-84021110D01*
X100388956Y-84265642D01*
X99550727Y-84208497D01*
X99531003Y-84497826D01*
X98332397Y-84497826D01*
X98343258Y-84413631D01*
X98298012Y-83749948D01*
X98105793Y-83040020D01*
X97656528Y-82457691D01*
X97018613Y-82091615D01*
X96289166Y-81997524D01*
X95579238Y-82189743D01*
X94996909Y-82639008D01*
X94630833Y-83276923D01*
X94574649Y-83712496D01*
X94298467Y-84038158D01*
X93435812Y-85591234D01*
X93210976Y-86291516D01*
X93271242Y-87024533D01*
X93526742Y-87521683D01*
X92999402Y-87739576D01*
X92581045Y-88157203D01*
X92354353Y-88703138D01*
X92353837Y-89294268D01*
X86485649Y-89294268D01*
X86486163Y-88705732D01*
X86260424Y-88159402D01*
X85842797Y-87741045D01*
X85417703Y-87564530D01*
X85696789Y-87101964D01*
X85807076Y-86373103D01*
X85630045Y-85657518D01*
X85225229Y-84927211D01*
X83833058Y-85698904D01*
X84052223Y-85451221D01*
X84122126Y-85248258D01*
X85102087Y-84705057D01*
X84697271Y-83974750D01*
X84272623Y-83536615D01*
X84205760Y-83199067D01*
X83796705Y-82585817D01*
X83184107Y-82175786D01*
X83003389Y-82115774D01*
X82703524Y-82211724D01*
X82637813Y-83175604D01*
X82586282Y-83188960D01*
X82386627Y-83432400D01*
X82368007Y-83398808D01*
X82450112Y-82194448D01*
X82166043Y-82058690D01*
X81978852Y-82093620D01*
X81316274Y-82416718D01*
X80827777Y-82968779D01*
X80587728Y-83665757D01*
X80568003Y-83955085D01*
X81536493Y-84021110D01*
X81388956Y-84265642D01*
X80550727Y-84208497D01*
X80531003Y-84497826D01*
X79332397Y-84497826D01*
X79343258Y-84413631D01*
X79298012Y-83749948D01*
X79105793Y-83040020D01*
X78656528Y-82457691D01*
X78018613Y-82091615D01*
X77289166Y-81997524D01*
X76579238Y-82189743D01*
X75996909Y-82639008D01*
X75630833Y-83276923D01*
X75574649Y-83712496D01*
X75298467Y-84038158D01*
X74435812Y-85591234D01*
X74210976Y-86291516D01*
X74271242Y-87024533D01*
X74526742Y-87521683D01*
X73999402Y-87739576D01*
X73581045Y-88157203D01*
X73354353Y-88703138D01*
X73353837Y-89294268D01*
X70685000Y-89294268D01*
X70685000Y-79500000D01*
X86815000Y-79500000D01*
X87019383Y-80527505D01*
X87601418Y-81398582D01*
X88472495Y-81980617D01*
X89500000Y-82185000D01*
X90527505Y-81980617D01*
X91398582Y-81398582D01*
X91980617Y-80527505D01*
X92000011Y-80430000D01*
X166777560Y-80430000D01*
X166777560Y-82130000D01*
X166821838Y-82365317D01*
X166960910Y-82581441D01*
X167173110Y-82726431D01*
X167281107Y-82748301D01*
X167003355Y-83053076D01*
X166833524Y-83463110D01*
X166954845Y-83693000D01*
X168148000Y-83693000D01*
X168148000Y-83673000D01*
X168402000Y-83673000D01*
X168402000Y-83693000D01*
X169595155Y-83693000D01*
X169716476Y-83463110D01*
X169546645Y-83053076D01*
X169270499Y-82750063D01*
X169360317Y-82733162D01*
X169576441Y-82594090D01*
X169721431Y-82381890D01*
X169772440Y-82130000D01*
X169772440Y-80430000D01*
X169728162Y-80194683D01*
X169589090Y-79978559D01*
X169376890Y-79833569D01*
X169125000Y-79782560D01*
X167425000Y-79782560D01*
X167189683Y-79826838D01*
X166973559Y-79965910D01*
X166828569Y-80178110D01*
X166777560Y-80430000D01*
X92000011Y-80430000D01*
X92185000Y-79500000D01*
X91980617Y-78472495D01*
X91924953Y-78389187D01*
X173189752Y-78389187D01*
X173407757Y-78916800D01*
X173811077Y-79320824D01*
X174338309Y-79539750D01*
X174909187Y-79540248D01*
X175436800Y-79322243D01*
X175840824Y-78918923D01*
X176059750Y-78391691D01*
X176060000Y-78105000D01*
X183321887Y-78105000D01*
X183431120Y-78654151D01*
X183742189Y-79119698D01*
X184207736Y-79430767D01*
X184756887Y-79540000D01*
X184813113Y-79540000D01*
X185362264Y-79430767D01*
X185827811Y-79119698D01*
X186138880Y-78654151D01*
X186248113Y-78105000D01*
X186138880Y-77555849D01*
X185827811Y-77090302D01*
X185362264Y-76779233D01*
X184813113Y-76670000D01*
X184756887Y-76670000D01*
X184207736Y-76779233D01*
X183742189Y-77090302D01*
X183431120Y-77555849D01*
X183321887Y-78105000D01*
X176060000Y-78105000D01*
X176060248Y-77820813D01*
X175842243Y-77293200D01*
X175438923Y-76889176D01*
X174911691Y-76670250D01*
X174340813Y-76669752D01*
X173813200Y-76887757D01*
X173409176Y-77291077D01*
X173190250Y-77818309D01*
X173189752Y-78389187D01*
X91924953Y-78389187D01*
X91398582Y-77601418D01*
X90527505Y-77019383D01*
X89500000Y-76815000D01*
X88472495Y-77019383D01*
X87601418Y-77601418D01*
X87019383Y-78472495D01*
X86815000Y-79500000D01*
X70685000Y-79500000D01*
X70685000Y-75794268D01*
X149433837Y-75794268D01*
X149659576Y-76340598D01*
X150077203Y-76758955D01*
X150623138Y-76985647D01*
X151214268Y-76986163D01*
X151760598Y-76760424D01*
X152178955Y-76342797D01*
X152312731Y-76020627D01*
X153370640Y-76020627D01*
X153770024Y-76987209D01*
X154508901Y-77727377D01*
X155474784Y-78128447D01*
X156520627Y-78129360D01*
X157487209Y-77729976D01*
X158227377Y-76991099D01*
X158628447Y-76025216D01*
X158629360Y-74979373D01*
X158229976Y-74012791D01*
X157491099Y-73272623D01*
X156525216Y-72871553D01*
X155479373Y-72870640D01*
X154512791Y-73270024D01*
X153772623Y-74008901D01*
X153371553Y-74974784D01*
X153370640Y-76020627D01*
X152312731Y-76020627D01*
X152405647Y-75796862D01*
X152406163Y-75205732D01*
X152260658Y-74853582D01*
X152681667Y-74818968D01*
X153335825Y-74482777D01*
X153811532Y-73921842D01*
X154542862Y-72605197D01*
X154963091Y-72280992D01*
X155329167Y-71643078D01*
X155412397Y-70997826D01*
X156611003Y-70997826D01*
X156754240Y-71720933D01*
X157163295Y-72334183D01*
X157694680Y-72689855D01*
X157884771Y-73032789D01*
X158512670Y-72684739D01*
X158509888Y-72725552D01*
X158753192Y-72841828D01*
X158007913Y-73254943D01*
X158412729Y-73985250D01*
X158925767Y-74514583D01*
X159602320Y-74807292D01*
X159757714Y-74809721D01*
X159594353Y-75203138D01*
X159593837Y-75794268D01*
X159819576Y-76340598D01*
X160237203Y-76758955D01*
X160783138Y-76985647D01*
X161374268Y-76986163D01*
X161920598Y-76760424D01*
X162338955Y-76342797D01*
X162565647Y-75796862D01*
X162566163Y-75205732D01*
X162340424Y-74659402D01*
X161922797Y-74241045D01*
X161497703Y-74064530D01*
X161776789Y-73601964D01*
X161823737Y-73291694D01*
X182460819Y-73291694D01*
X182589082Y-73936516D01*
X182954344Y-74483169D01*
X183500997Y-74848431D01*
X184145819Y-74976694D01*
X184790641Y-74848431D01*
X185337294Y-74483169D01*
X185702556Y-73936516D01*
X185830819Y-73291694D01*
X185702556Y-72646872D01*
X185337294Y-72100219D01*
X184790641Y-71734957D01*
X184145819Y-71606694D01*
X183500997Y-71734957D01*
X182954344Y-72100219D01*
X182589082Y-72646872D01*
X182460819Y-73291694D01*
X161823737Y-73291694D01*
X161887076Y-72873103D01*
X161710045Y-72157518D01*
X161305229Y-71427211D01*
X159913058Y-72198904D01*
X160132223Y-71951221D01*
X160202126Y-71748258D01*
X161182087Y-71205057D01*
X160777271Y-70474750D01*
X160352623Y-70036615D01*
X160285760Y-69699067D01*
X159975137Y-69233384D01*
X167315001Y-69233384D01*
X167443264Y-69878206D01*
X167808526Y-70424859D01*
X168355179Y-70790121D01*
X169000001Y-70918384D01*
X169644823Y-70790121D01*
X170191476Y-70424859D01*
X170556738Y-69878206D01*
X170685001Y-69233384D01*
X170556738Y-68588562D01*
X170191476Y-68041909D01*
X169644823Y-67676647D01*
X169000001Y-67548384D01*
X168355179Y-67676647D01*
X167808526Y-68041909D01*
X167443264Y-68588562D01*
X167315001Y-69233384D01*
X159975137Y-69233384D01*
X159876705Y-69085817D01*
X159264107Y-68675786D01*
X159083389Y-68615774D01*
X158783524Y-68711724D01*
X158717813Y-69675604D01*
X158666282Y-69688960D01*
X158466627Y-69932400D01*
X158448007Y-69898808D01*
X158530112Y-68694448D01*
X158246043Y-68558690D01*
X158058852Y-68593620D01*
X157396274Y-68916718D01*
X156907777Y-69468779D01*
X156667728Y-70165757D01*
X156648003Y-70455085D01*
X157616493Y-70521110D01*
X157468956Y-70765642D01*
X156630727Y-70708497D01*
X156611003Y-70997826D01*
X155412397Y-70997826D01*
X155423258Y-70913631D01*
X155378012Y-70249948D01*
X155185793Y-69540020D01*
X154736528Y-68957691D01*
X154098613Y-68591615D01*
X153369166Y-68497524D01*
X152659238Y-68689743D01*
X152076909Y-69139008D01*
X151710833Y-69776923D01*
X151654649Y-70212496D01*
X151378467Y-70538158D01*
X150515812Y-72091234D01*
X150290976Y-72791516D01*
X150351242Y-73524533D01*
X150606742Y-74021683D01*
X150079402Y-74239576D01*
X149661045Y-74657203D01*
X149434353Y-75203138D01*
X149433837Y-75794268D01*
X70685000Y-75794268D01*
X70685000Y-70294268D01*
X73353837Y-70294268D01*
X73579576Y-70840598D01*
X73997203Y-71258955D01*
X74543138Y-71485647D01*
X75134268Y-71486163D01*
X75680598Y-71260424D01*
X76098955Y-70842797D01*
X76232731Y-70520627D01*
X77290640Y-70520627D01*
X77690024Y-71487209D01*
X78428901Y-72227377D01*
X79394784Y-72628447D01*
X80440627Y-72629360D01*
X81407209Y-72229976D01*
X82147377Y-71491099D01*
X82548447Y-70525216D01*
X82549360Y-69479373D01*
X82149976Y-68512791D01*
X81411099Y-67772623D01*
X80445216Y-67371553D01*
X79399373Y-67370640D01*
X78432791Y-67770024D01*
X77692623Y-68508901D01*
X77291553Y-69474784D01*
X77290640Y-70520627D01*
X76232731Y-70520627D01*
X76325647Y-70296862D01*
X76326163Y-69705732D01*
X76180658Y-69353582D01*
X76601667Y-69318968D01*
X77255825Y-68982777D01*
X77731532Y-68421842D01*
X78462862Y-67105197D01*
X78883091Y-66780992D01*
X79249167Y-66143078D01*
X79332397Y-65497826D01*
X80531003Y-65497826D01*
X80674240Y-66220933D01*
X81083295Y-66834183D01*
X81614680Y-67189855D01*
X81804771Y-67532789D01*
X82432670Y-67184739D01*
X82429888Y-67225552D01*
X82673192Y-67341828D01*
X81927913Y-67754943D01*
X82332729Y-68485250D01*
X82845767Y-69014583D01*
X83522320Y-69307292D01*
X83677714Y-69309721D01*
X83514353Y-69703138D01*
X83513837Y-70294268D01*
X83739576Y-70840598D01*
X84157203Y-71258955D01*
X84703138Y-71485647D01*
X85294268Y-71486163D01*
X85840598Y-71260424D01*
X86258955Y-70842797D01*
X86485647Y-70296862D01*
X86485649Y-70294268D01*
X92433837Y-70294268D01*
X92659576Y-70840598D01*
X93077203Y-71258955D01*
X93623138Y-71485647D01*
X94214268Y-71486163D01*
X94760598Y-71260424D01*
X95178955Y-70842797D01*
X95312731Y-70520627D01*
X96370640Y-70520627D01*
X96770024Y-71487209D01*
X97508901Y-72227377D01*
X98474784Y-72628447D01*
X99520627Y-72629360D01*
X100487209Y-72229976D01*
X101227377Y-71491099D01*
X101628447Y-70525216D01*
X101629360Y-69479373D01*
X101229976Y-68512791D01*
X100491099Y-67772623D01*
X99525216Y-67371553D01*
X98479373Y-67370640D01*
X97512791Y-67770024D01*
X96772623Y-68508901D01*
X96371553Y-69474784D01*
X96370640Y-70520627D01*
X95312731Y-70520627D01*
X95405647Y-70296862D01*
X95406163Y-69705732D01*
X95260658Y-69353582D01*
X95681667Y-69318968D01*
X96335825Y-68982777D01*
X96811532Y-68421842D01*
X97542862Y-67105197D01*
X97963091Y-66780992D01*
X98329167Y-66143078D01*
X98412397Y-65497826D01*
X99611003Y-65497826D01*
X99754240Y-66220933D01*
X100163295Y-66834183D01*
X100694680Y-67189855D01*
X100884771Y-67532789D01*
X101512670Y-67184739D01*
X101509888Y-67225552D01*
X101753192Y-67341828D01*
X101007913Y-67754943D01*
X101412729Y-68485250D01*
X101925767Y-69014583D01*
X102602320Y-69307292D01*
X102757714Y-69309721D01*
X102594353Y-69703138D01*
X102593837Y-70294268D01*
X102819576Y-70840598D01*
X103237203Y-71258955D01*
X103783138Y-71485647D01*
X104374268Y-71486163D01*
X104920598Y-71260424D01*
X105338955Y-70842797D01*
X105565647Y-70296862D01*
X105565649Y-70294268D01*
X111513837Y-70294268D01*
X111739576Y-70840598D01*
X112157203Y-71258955D01*
X112703138Y-71485647D01*
X113294268Y-71486163D01*
X113840598Y-71260424D01*
X114258955Y-70842797D01*
X114392731Y-70520627D01*
X115450640Y-70520627D01*
X115850024Y-71487209D01*
X116588901Y-72227377D01*
X117554784Y-72628447D01*
X118600627Y-72629360D01*
X119567209Y-72229976D01*
X120307377Y-71491099D01*
X120708447Y-70525216D01*
X120709360Y-69479373D01*
X120309976Y-68512791D01*
X119571099Y-67772623D01*
X118605216Y-67371553D01*
X117559373Y-67370640D01*
X116592791Y-67770024D01*
X115852623Y-68508901D01*
X115451553Y-69474784D01*
X115450640Y-70520627D01*
X114392731Y-70520627D01*
X114485647Y-70296862D01*
X114486163Y-69705732D01*
X114340658Y-69353582D01*
X114761667Y-69318968D01*
X115415825Y-68982777D01*
X115891532Y-68421842D01*
X116622862Y-67105197D01*
X117043091Y-66780992D01*
X117409167Y-66143078D01*
X117492397Y-65497826D01*
X118691003Y-65497826D01*
X118834240Y-66220933D01*
X119243295Y-66834183D01*
X119774680Y-67189855D01*
X119964771Y-67532789D01*
X120592670Y-67184739D01*
X120589888Y-67225552D01*
X120833192Y-67341828D01*
X120087913Y-67754943D01*
X120492729Y-68485250D01*
X121005767Y-69014583D01*
X121682320Y-69307292D01*
X121837714Y-69309721D01*
X121674353Y-69703138D01*
X121673837Y-70294268D01*
X121899576Y-70840598D01*
X122317203Y-71258955D01*
X122863138Y-71485647D01*
X123454268Y-71486163D01*
X124000598Y-71260424D01*
X124418955Y-70842797D01*
X124645647Y-70296862D01*
X124645649Y-70294268D01*
X130433837Y-70294268D01*
X130659576Y-70840598D01*
X131077203Y-71258955D01*
X131623138Y-71485647D01*
X132214268Y-71486163D01*
X132760598Y-71260424D01*
X133178955Y-70842797D01*
X133312731Y-70520627D01*
X134370640Y-70520627D01*
X134770024Y-71487209D01*
X135508901Y-72227377D01*
X136474784Y-72628447D01*
X137520627Y-72629360D01*
X138487209Y-72229976D01*
X139227377Y-71491099D01*
X139628447Y-70525216D01*
X139629360Y-69479373D01*
X139229976Y-68512791D01*
X138491099Y-67772623D01*
X137525216Y-67371553D01*
X136479373Y-67370640D01*
X135512791Y-67770024D01*
X134772623Y-68508901D01*
X134371553Y-69474784D01*
X134370640Y-70520627D01*
X133312731Y-70520627D01*
X133405647Y-70296862D01*
X133406163Y-69705732D01*
X133260658Y-69353582D01*
X133681667Y-69318968D01*
X134335825Y-68982777D01*
X134811532Y-68421842D01*
X135542862Y-67105197D01*
X135963091Y-66780992D01*
X136329167Y-66143078D01*
X136412397Y-65497826D01*
X137611003Y-65497826D01*
X137754240Y-66220933D01*
X138163295Y-66834183D01*
X138694680Y-67189855D01*
X138884771Y-67532789D01*
X139512670Y-67184739D01*
X139509888Y-67225552D01*
X139753192Y-67341828D01*
X139007913Y-67754943D01*
X139412729Y-68485250D01*
X139925767Y-69014583D01*
X140602320Y-69307292D01*
X140757714Y-69309721D01*
X140594353Y-69703138D01*
X140593837Y-70294268D01*
X140819576Y-70840598D01*
X141237203Y-71258955D01*
X141783138Y-71485647D01*
X142374268Y-71486163D01*
X142920598Y-71260424D01*
X143338955Y-70842797D01*
X143565647Y-70296862D01*
X143566163Y-69705732D01*
X143340424Y-69159402D01*
X142922797Y-68741045D01*
X142497703Y-68564530D01*
X142776789Y-68101964D01*
X142887076Y-67373103D01*
X142710045Y-66657518D01*
X142305229Y-65927211D01*
X140913058Y-66698904D01*
X141132223Y-66451221D01*
X141202126Y-66248258D01*
X142182087Y-65705057D01*
X141777271Y-64974750D01*
X141352623Y-64536615D01*
X141329164Y-64418184D01*
X145315000Y-64418184D01*
X145519383Y-65445689D01*
X146101418Y-66316766D01*
X146972495Y-66898801D01*
X148000000Y-67103184D01*
X149027505Y-66898801D01*
X149898582Y-66316766D01*
X150480617Y-65445689D01*
X150685000Y-64418184D01*
X150480617Y-63390679D01*
X149898582Y-62519602D01*
X149027505Y-61937567D01*
X148000000Y-61733184D01*
X146972495Y-61937567D01*
X146101418Y-62519602D01*
X145519383Y-63390679D01*
X145315000Y-64418184D01*
X141329164Y-64418184D01*
X141285760Y-64199067D01*
X140876705Y-63585817D01*
X140264107Y-63175786D01*
X140083389Y-63115774D01*
X139783524Y-63211724D01*
X139717813Y-64175604D01*
X139666282Y-64188960D01*
X139466627Y-64432400D01*
X139448007Y-64398808D01*
X139530112Y-63194448D01*
X139246043Y-63058690D01*
X139058852Y-63093620D01*
X138396274Y-63416718D01*
X137907777Y-63968779D01*
X137667728Y-64665757D01*
X137648003Y-64955085D01*
X138616493Y-65021110D01*
X138468956Y-65265642D01*
X137630727Y-65208497D01*
X137611003Y-65497826D01*
X136412397Y-65497826D01*
X136423258Y-65413631D01*
X136378012Y-64749948D01*
X136185793Y-64040020D01*
X135736528Y-63457691D01*
X135098613Y-63091615D01*
X134369166Y-62997524D01*
X133659238Y-63189743D01*
X133076909Y-63639008D01*
X132710833Y-64276923D01*
X132654649Y-64712496D01*
X132378467Y-65038158D01*
X131515812Y-66591234D01*
X131290976Y-67291516D01*
X131351242Y-68024533D01*
X131606742Y-68521683D01*
X131079402Y-68739576D01*
X130661045Y-69157203D01*
X130434353Y-69703138D01*
X130433837Y-70294268D01*
X124645649Y-70294268D01*
X124646163Y-69705732D01*
X124420424Y-69159402D01*
X124002797Y-68741045D01*
X123577703Y-68564530D01*
X123856789Y-68101964D01*
X123967076Y-67373103D01*
X123790045Y-66657518D01*
X123385229Y-65927211D01*
X121993058Y-66698904D01*
X122212223Y-66451221D01*
X122282126Y-66248258D01*
X123262087Y-65705057D01*
X122857271Y-64974750D01*
X122432623Y-64536615D01*
X122365760Y-64199067D01*
X121956705Y-63585817D01*
X121344107Y-63175786D01*
X121163389Y-63115774D01*
X120863524Y-63211724D01*
X120797813Y-64175604D01*
X120746282Y-64188960D01*
X120546627Y-64432400D01*
X120528007Y-64398808D01*
X120610112Y-63194448D01*
X120326043Y-63058690D01*
X120138852Y-63093620D01*
X119476274Y-63416718D01*
X118987777Y-63968779D01*
X118747728Y-64665757D01*
X118728003Y-64955085D01*
X119696493Y-65021110D01*
X119548956Y-65265642D01*
X118710727Y-65208497D01*
X118691003Y-65497826D01*
X117492397Y-65497826D01*
X117503258Y-65413631D01*
X117458012Y-64749948D01*
X117265793Y-64040020D01*
X116816528Y-63457691D01*
X116178613Y-63091615D01*
X115449166Y-62997524D01*
X114739238Y-63189743D01*
X114156909Y-63639008D01*
X113790833Y-64276923D01*
X113734649Y-64712496D01*
X113458467Y-65038158D01*
X112595812Y-66591234D01*
X112370976Y-67291516D01*
X112431242Y-68024533D01*
X112686742Y-68521683D01*
X112159402Y-68739576D01*
X111741045Y-69157203D01*
X111514353Y-69703138D01*
X111513837Y-70294268D01*
X105565649Y-70294268D01*
X105566163Y-69705732D01*
X105340424Y-69159402D01*
X104922797Y-68741045D01*
X104497703Y-68564530D01*
X104776789Y-68101964D01*
X104887076Y-67373103D01*
X104710045Y-66657518D01*
X104305229Y-65927211D01*
X102913058Y-66698904D01*
X103132223Y-66451221D01*
X103202126Y-66248258D01*
X104182087Y-65705057D01*
X103777271Y-64974750D01*
X103352623Y-64536615D01*
X103285760Y-64199067D01*
X102876705Y-63585817D01*
X102264107Y-63175786D01*
X102083389Y-63115774D01*
X101783524Y-63211724D01*
X101717813Y-64175604D01*
X101666282Y-64188960D01*
X101466627Y-64432400D01*
X101448007Y-64398808D01*
X101530112Y-63194448D01*
X101246043Y-63058690D01*
X101058852Y-63093620D01*
X100396274Y-63416718D01*
X99907777Y-63968779D01*
X99667728Y-64665757D01*
X99648003Y-64955085D01*
X100616493Y-65021110D01*
X100468956Y-65265642D01*
X99630727Y-65208497D01*
X99611003Y-65497826D01*
X98412397Y-65497826D01*
X98423258Y-65413631D01*
X98378012Y-64749948D01*
X98185793Y-64040020D01*
X97736528Y-63457691D01*
X97098613Y-63091615D01*
X96369166Y-62997524D01*
X95659238Y-63189743D01*
X95076909Y-63639008D01*
X94710833Y-64276923D01*
X94654649Y-64712496D01*
X94378467Y-65038158D01*
X93515812Y-66591234D01*
X93290976Y-67291516D01*
X93351242Y-68024533D01*
X93606742Y-68521683D01*
X93079402Y-68739576D01*
X92661045Y-69157203D01*
X92434353Y-69703138D01*
X92433837Y-70294268D01*
X86485649Y-70294268D01*
X86486163Y-69705732D01*
X86260424Y-69159402D01*
X85842797Y-68741045D01*
X85417703Y-68564530D01*
X85696789Y-68101964D01*
X85807076Y-67373103D01*
X85630045Y-66657518D01*
X85225229Y-65927211D01*
X83833058Y-66698904D01*
X84052223Y-66451221D01*
X84122126Y-66248258D01*
X85102087Y-65705057D01*
X84697271Y-64974750D01*
X84272623Y-64536615D01*
X84205760Y-64199067D01*
X83796705Y-63585817D01*
X83184107Y-63175786D01*
X83003389Y-63115774D01*
X82703524Y-63211724D01*
X82637813Y-64175604D01*
X82586282Y-64188960D01*
X82386627Y-64432400D01*
X82368007Y-64398808D01*
X82450112Y-63194448D01*
X82166043Y-63058690D01*
X81978852Y-63093620D01*
X81316274Y-63416718D01*
X80827777Y-63968779D01*
X80587728Y-64665757D01*
X80568003Y-64955085D01*
X81536493Y-65021110D01*
X81388956Y-65265642D01*
X80550727Y-65208497D01*
X80531003Y-65497826D01*
X79332397Y-65497826D01*
X79343258Y-65413631D01*
X79298012Y-64749948D01*
X79105793Y-64040020D01*
X78656528Y-63457691D01*
X78018613Y-63091615D01*
X77289166Y-62997524D01*
X76579238Y-63189743D01*
X75996909Y-63639008D01*
X75630833Y-64276923D01*
X75574649Y-64712496D01*
X75298467Y-65038158D01*
X74435812Y-66591234D01*
X74210976Y-67291516D01*
X74271242Y-68024533D01*
X74526742Y-68521683D01*
X73999402Y-68739576D01*
X73581045Y-69157203D01*
X73354353Y-69703138D01*
X73353837Y-70294268D01*
X70685000Y-70294268D01*
X70685000Y-61567467D01*
X70759437Y-61193250D01*
X70933197Y-60933198D01*
X71193250Y-60759437D01*
X71567467Y-60685000D01*
X145889274Y-60685000D01*
X146188482Y-60724391D01*
X146188482Y-60724391D01*
G37*
X146188482Y-60724391D02*
X185793525Y-71336531D01*
X186134899Y-71505620D01*
X186340707Y-71741126D01*
X186455554Y-72081405D01*
X186460819Y-72162824D01*
X186460819Y-113883763D01*
X186421428Y-114182971D01*
X183385000Y-125515073D01*
X183385000Y-110796716D01*
X183500997Y-110874223D01*
X184145819Y-111002486D01*
X184790641Y-110874223D01*
X185337294Y-110508961D01*
X185702556Y-109962308D01*
X185830819Y-109317486D01*
X185702556Y-108672664D01*
X185337294Y-108126011D01*
X184790641Y-107760749D01*
X184145819Y-107632486D01*
X183500997Y-107760749D01*
X183385000Y-107838256D01*
X183385000Y-105019979D01*
X183626789Y-104858420D01*
X183847031Y-104528806D01*
X183924369Y-104140000D01*
X183847031Y-103751194D01*
X183762573Y-103624794D01*
X184294089Y-103625257D01*
X184840086Y-103399656D01*
X185258188Y-102982283D01*
X185484742Y-102436681D01*
X185485257Y-101845911D01*
X185400246Y-101640169D01*
X185484742Y-101436681D01*
X185485257Y-100845911D01*
X185259656Y-100299914D01*
X184842283Y-99881812D01*
X184296681Y-99655258D01*
X183762849Y-99654793D01*
X183847031Y-99528806D01*
X183924369Y-99140000D01*
X183847031Y-98751194D01*
X183626789Y-98421580D01*
X183297175Y-98201338D01*
X182908369Y-98124000D01*
X182172990Y-98124000D01*
X182172990Y-97666812D01*
X184289680Y-95550122D01*
X184335167Y-95550162D01*
X184678943Y-95408117D01*
X184942192Y-95145327D01*
X185084838Y-94801799D01*
X185085162Y-94429833D01*
X184943117Y-94086057D01*
X184680327Y-93822808D01*
X184336799Y-93680162D01*
X183964833Y-93679838D01*
X183621057Y-93821883D01*
X183357808Y-94084673D01*
X183215162Y-94428201D01*
X183215121Y-94475077D01*
X180875589Y-96814609D01*
X180710842Y-97061171D01*
X180652990Y-97352010D01*
X180652990Y-98460792D01*
X180626789Y-98421580D01*
X180297175Y-98201338D01*
X179908369Y-98124000D01*
X179091631Y-98124000D01*
X178702825Y-98201338D01*
X178435440Y-98380000D01*
X176958000Y-98380000D01*
X176667161Y-98437852D01*
X176646767Y-98451479D01*
X176626789Y-98421580D01*
X176297175Y-98201338D01*
X175908369Y-98124000D01*
X175091631Y-98124000D01*
X174702825Y-98201338D01*
X174373211Y-98421580D01*
X174152969Y-98751194D01*
X174075631Y-99140000D01*
X174127000Y-99398250D01*
X174127000Y-100013000D01*
X174147000Y-100013000D01*
X174147000Y-100267000D01*
X174127000Y-100267000D01*
X174127000Y-100287000D01*
X173873000Y-100287000D01*
X173873000Y-100267000D01*
X172771210Y-100267000D01*
X172643247Y-100423127D01*
X172660642Y-100459000D01*
X145729802Y-100459000D01*
X145127675Y-99856873D01*
X172643247Y-99856873D01*
X172771210Y-100013000D01*
X173873000Y-100013000D01*
X173873000Y-99124000D01*
X173492000Y-99124000D01*
X173112861Y-99249939D01*
X172810777Y-99511382D01*
X172643247Y-99856873D01*
X145127675Y-99856873D01*
X141483390Y-96212588D01*
X141236828Y-96047841D01*
X140945989Y-95989989D01*
X134420463Y-95989989D01*
X134388327Y-95957797D01*
X134044799Y-95815151D01*
X133672833Y-95814827D01*
X133329057Y-95956872D01*
X133065808Y-96219662D01*
X132923162Y-96563190D01*
X132923081Y-96656158D01*
X132839162Y-96672851D01*
X132592600Y-96837598D01*
X132575320Y-96854878D01*
X132529833Y-96854838D01*
X132186057Y-96996883D01*
X131922808Y-97259673D01*
X131780162Y-97603201D01*
X131779838Y-97975167D01*
X131921883Y-98318943D01*
X132184673Y-98582192D01*
X132528201Y-98724838D01*
X132900167Y-98725162D01*
X133070745Y-98654681D01*
X133080222Y-98853454D01*
X133246136Y-99254005D01*
X133492255Y-99328139D01*
X134320395Y-98500000D01*
X134306253Y-98485858D01*
X134485858Y-98306253D01*
X134500000Y-98320395D01*
X134514143Y-98306253D01*
X134693748Y-98485858D01*
X134679605Y-98500000D01*
X135507745Y-99328139D01*
X135753864Y-99254005D01*
X135926344Y-98774146D01*
X137892599Y-100740401D01*
X138139160Y-100905148D01*
X138430000Y-100963000D01*
X140782198Y-100963000D01*
X142337599Y-102518401D01*
X142584161Y-102683148D01*
X142875000Y-102741000D01*
X172699434Y-102741000D01*
X172643247Y-102856873D01*
X172771210Y-103013000D01*
X173873000Y-103013000D01*
X173873000Y-102993000D01*
X174127000Y-102993000D01*
X174127000Y-103013000D01*
X174147000Y-103013000D01*
X174147000Y-103267000D01*
X174127000Y-103267000D01*
X174127000Y-103881750D01*
X174075631Y-104140000D01*
X174152969Y-104528806D01*
X174373211Y-104858420D01*
X174702825Y-105078662D01*
X175091631Y-105156000D01*
X175908369Y-105156000D01*
X176297175Y-105078662D01*
X176626789Y-104858420D01*
X176847031Y-104528806D01*
X176924369Y-104140000D01*
X176847031Y-103751194D01*
X176762573Y-103624794D01*
X177294089Y-103625257D01*
X177840086Y-103399656D01*
X178258188Y-102982283D01*
X178484742Y-102436681D01*
X178485257Y-101845911D01*
X178400246Y-101640169D01*
X178484742Y-101436681D01*
X178485257Y-100845911D01*
X178259656Y-100299914D01*
X177860439Y-99900000D01*
X178435440Y-99900000D01*
X178702825Y-100078662D01*
X179091631Y-100156000D01*
X179908369Y-100156000D01*
X180297175Y-100078662D01*
X180626789Y-99858420D01*
X180652990Y-99819208D01*
X180652990Y-103460792D01*
X180626789Y-103421580D01*
X180297175Y-103201338D01*
X179908369Y-103124000D01*
X179091631Y-103124000D01*
X178702825Y-103201338D01*
X178373211Y-103421580D01*
X178152969Y-103751194D01*
X178075631Y-104140000D01*
X178152969Y-104528806D01*
X178373211Y-104858420D01*
X178629518Y-105029680D01*
X178120198Y-105539000D01*
X173663463Y-105539000D01*
X173631327Y-105506808D01*
X173287799Y-105364162D01*
X172915833Y-105363838D01*
X172572057Y-105505883D01*
X172308808Y-105768673D01*
X172166162Y-106112201D01*
X172165838Y-106484167D01*
X172307883Y-106827943D01*
X172570673Y-107091192D01*
X172791673Y-107182960D01*
X172786715Y-107183946D01*
X172304946Y-107505853D01*
X172277150Y-107547452D01*
X172268162Y-107499683D01*
X172129090Y-107283559D01*
X171916890Y-107138569D01*
X171665000Y-107087560D01*
X169965000Y-107087560D01*
X169729683Y-107131838D01*
X169513559Y-107270910D01*
X169368569Y-107483110D01*
X169317560Y-107735000D01*
X169317560Y-109435000D01*
X169361838Y-109670317D01*
X169500910Y-109886441D01*
X169713110Y-110031431D01*
X169965000Y-110082440D01*
X170055000Y-110082440D01*
X170055000Y-110646080D01*
X169944683Y-110666838D01*
X169728559Y-110805910D01*
X169583569Y-111018110D01*
X169532560Y-111270000D01*
X169532560Y-112240000D01*
X169560213Y-112386963D01*
X169545000Y-112423690D01*
X169545000Y-112749250D01*
X169703750Y-112908000D01*
X170688000Y-112908000D01*
X170688000Y-112888000D01*
X170942000Y-112888000D01*
X170942000Y-112908000D01*
X170962000Y-112908000D01*
X170962000Y-113162000D01*
X170942000Y-113162000D01*
X170942000Y-113996250D01*
X171100750Y-114155000D01*
X171576309Y-114155000D01*
X171809698Y-114058327D01*
X171988327Y-113879699D01*
X172085000Y-113646310D01*
X172085000Y-113586113D01*
X172116838Y-113755317D01*
X172255910Y-113971441D01*
X172468110Y-114116431D01*
X172490065Y-114120877D01*
X172517096Y-114256767D01*
X172537367Y-114358675D01*
X172672903Y-114561520D01*
X172729210Y-114645790D01*
X173517208Y-115433787D01*
X173517210Y-115433790D01*
X173766250Y-115600192D01*
X173804325Y-115625633D01*
X174143000Y-115693001D01*
X174143005Y-115693000D01*
X175588178Y-115693000D01*
X175708201Y-115742838D01*
X176080167Y-115743162D01*
X176423943Y-115601117D01*
X176687192Y-115338327D01*
X176829838Y-114994799D01*
X176830162Y-114622833D01*
X176688117Y-114279057D01*
X176569311Y-114160043D01*
X176765317Y-114123162D01*
X176981441Y-113984090D01*
X177126431Y-113771890D01*
X177143267Y-113688754D01*
X177179729Y-113664390D01*
X177196838Y-113755317D01*
X177335910Y-113971441D01*
X177548110Y-114116431D01*
X177800000Y-114167440D01*
X179070000Y-114167440D01*
X179305317Y-114123162D01*
X179521441Y-113984090D01*
X179666431Y-113771890D01*
X179683267Y-113688754D01*
X179857401Y-113572401D01*
X180652990Y-112776812D01*
X180652990Y-125485208D01*
X180299879Y-125838319D01*
X180299969Y-125735334D01*
X180074230Y-125189004D01*
X179656603Y-124770647D01*
X179595090Y-124745105D01*
X179978101Y-124376582D01*
X180273273Y-123701101D01*
X180287481Y-122964080D01*
X180085477Y-122153883D01*
X178541015Y-122538960D01*
X178816816Y-122356442D01*
X178936868Y-122178487D01*
X180024028Y-121907428D01*
X179822024Y-121097231D01*
X179525242Y-120564116D01*
X179548021Y-120220766D01*
X179311625Y-119522540D01*
X178826024Y-118967929D01*
X178666996Y-118863189D01*
X178352515Y-118878259D01*
X178039573Y-119792289D01*
X177986341Y-119791852D01*
X177730484Y-119975322D01*
X177721192Y-119938054D01*
X178112209Y-118795984D01*
X177872956Y-118591329D01*
X177683104Y-118576620D01*
X176959479Y-118717221D01*
X176344742Y-119124038D01*
X175932482Y-119735138D01*
X175838546Y-120009503D01*
X176756947Y-120323942D01*
X176551148Y-120521956D01*
X175756271Y-120249809D01*
X175662335Y-120524173D01*
X175613537Y-121259714D01*
X175849933Y-121957940D01*
X176271157Y-122439025D01*
X176366013Y-122819473D01*
X177062599Y-122645795D01*
X177049349Y-122684496D01*
X177254268Y-122859782D01*
X176427462Y-123065928D01*
X176629466Y-123876125D01*
X176988022Y-124520206D01*
X177565763Y-124978045D01*
X177719982Y-125021963D01*
X177554851Y-125186805D01*
X177328159Y-125732740D01*
X177327643Y-126323870D01*
X177553382Y-126870200D01*
X177971009Y-127288557D01*
X178516944Y-127515249D01*
X178622857Y-127515341D01*
X177358198Y-128780000D01*
X174371000Y-128780000D01*
X174080161Y-128837852D01*
X173833599Y-129002599D01*
X171224090Y-131612108D01*
X161362203Y-128933571D01*
X161228284Y-128924335D01*
X161094832Y-128910064D01*
X161080879Y-128914170D01*
X161066369Y-128913169D01*
X160939136Y-128955876D01*
X160810354Y-128993768D01*
X159237011Y-129817900D01*
X158782691Y-129629250D01*
X158211813Y-129628752D01*
X157684200Y-129846757D01*
X157280176Y-130250077D01*
X157061250Y-130777309D01*
X157060752Y-131348187D01*
X157278757Y-131875800D01*
X157682077Y-132279824D01*
X158209309Y-132498750D01*
X158780187Y-132499248D01*
X159307800Y-132281243D01*
X159411627Y-132177597D01*
X159341228Y-132531516D01*
X159545611Y-133559021D01*
X160127646Y-134430098D01*
X160998723Y-135012133D01*
X162026228Y-135216516D01*
X163053733Y-135012133D01*
X163716448Y-134569321D01*
X163432957Y-135627323D01*
X163414822Y-135866082D01*
X163493218Y-136110836D01*
X163596376Y-136230953D01*
X143885054Y-130949320D01*
X143542849Y-130780563D01*
X143336631Y-130545417D01*
X143236098Y-130249255D01*
X143261052Y-129868523D01*
X143307653Y-129694602D01*
X148476004Y-129694602D01*
X148659088Y-129869223D01*
X149209930Y-129768846D01*
X149680429Y-129465312D01*
X149936332Y-129131796D01*
X149875968Y-128885750D01*
X148771997Y-128589942D01*
X148476004Y-129694602D01*
X143307653Y-129694602D01*
X143651515Y-128411294D01*
X147247380Y-128411294D01*
X147302241Y-128828078D01*
X147557938Y-129326196D01*
X147984792Y-129688546D01*
X148230658Y-129628862D01*
X148526651Y-128524202D01*
X147856355Y-128344596D01*
X148837737Y-128344596D01*
X149941708Y-128640405D01*
X150117008Y-128457504D01*
X150062147Y-128040720D01*
X149806450Y-127542602D01*
X149379596Y-127180252D01*
X149133730Y-127239936D01*
X148837737Y-128344596D01*
X147856355Y-128344596D01*
X147422680Y-128228393D01*
X147247380Y-128411294D01*
X143651515Y-128411294D01*
X143832191Y-127737002D01*
X147428056Y-127737002D01*
X147488420Y-127983048D01*
X148592391Y-128278856D01*
X148888384Y-127174196D01*
X148705300Y-126999575D01*
X148154458Y-127099952D01*
X147683959Y-127403486D01*
X147428056Y-127737002D01*
X143832191Y-127737002D01*
X144502485Y-125235428D01*
X171277543Y-125235428D01*
X171676927Y-126202010D01*
X172415804Y-126942178D01*
X173381687Y-127343248D01*
X174427530Y-127344161D01*
X175394112Y-126944777D01*
X176134280Y-126205900D01*
X176535350Y-125240017D01*
X176536263Y-124194174D01*
X176136879Y-123227592D01*
X175398002Y-122487424D01*
X174432119Y-122086354D01*
X173386276Y-122085441D01*
X172419694Y-122484825D01*
X171679526Y-123223702D01*
X171278456Y-124189585D01*
X171277543Y-125235428D01*
X144502485Y-125235428D01*
X144847769Y-123946812D01*
X162511666Y-123946812D01*
X162590062Y-124191566D01*
X162757505Y-124386537D01*
X162987610Y-124501002D01*
X165112646Y-125070404D01*
X165351405Y-125088539D01*
X165596159Y-125010143D01*
X165791130Y-124842700D01*
X165905595Y-124612595D01*
X166151660Y-123694268D01*
X167513837Y-123694268D01*
X167739576Y-124240598D01*
X168157203Y-124658955D01*
X168703138Y-124885647D01*
X169294268Y-124886163D01*
X169840598Y-124660424D01*
X170258955Y-124242797D01*
X170485647Y-123696862D01*
X170486144Y-123126933D01*
X170877903Y-123198127D01*
X171596783Y-123042700D01*
X172201462Y-122624001D01*
X173248649Y-121541499D01*
X173738464Y-121337107D01*
X174257172Y-120815677D01*
X174536852Y-120135438D01*
X174664922Y-119482660D01*
X174662996Y-118747172D01*
X174379758Y-118068406D01*
X173858328Y-117549699D01*
X173178089Y-117270019D01*
X172442601Y-117271944D01*
X171763836Y-117555183D01*
X171245128Y-118076613D01*
X171078122Y-118482806D01*
X170727066Y-118725889D01*
X169491838Y-120002773D01*
X169093417Y-120621002D01*
X168961910Y-121344640D01*
X169085046Y-121914168D01*
X168705732Y-121913837D01*
X168159402Y-122139576D01*
X167741045Y-122557203D01*
X167514353Y-123103138D01*
X167513837Y-123694268D01*
X166151660Y-123694268D01*
X166474997Y-122487559D01*
X166493132Y-122248800D01*
X166414736Y-122004046D01*
X166247293Y-121809075D01*
X166017188Y-121694610D01*
X163892152Y-121125208D01*
X163653393Y-121107073D01*
X163408639Y-121185469D01*
X163213668Y-121352912D01*
X163099203Y-121583017D01*
X162529801Y-123708053D01*
X162511666Y-123946812D01*
X144847769Y-123946812D01*
X145850164Y-120205826D01*
X152970640Y-120205826D01*
X153370024Y-121172408D01*
X154108901Y-121912576D01*
X155074784Y-122313646D01*
X156120627Y-122314559D01*
X157087209Y-121915175D01*
X157827377Y-121176298D01*
X158228447Y-120210415D01*
X158229360Y-119164572D01*
X157829976Y-118197990D01*
X157091099Y-117457822D01*
X156125216Y-117056752D01*
X155079373Y-117055839D01*
X154112791Y-117455223D01*
X153372623Y-118194100D01*
X152971553Y-119159983D01*
X152970640Y-120205826D01*
X145850164Y-120205826D01*
X145887759Y-120065520D01*
X145890714Y-120020430D01*
X145905240Y-119977639D01*
X145956351Y-119589410D01*
X145949049Y-119478006D01*
X145949049Y-119366363D01*
X145834868Y-118792338D01*
X145781984Y-118664666D01*
X149206934Y-118664666D01*
X149432673Y-119210996D01*
X149850300Y-119629353D01*
X150396235Y-119856045D01*
X150987365Y-119856561D01*
X151533695Y-119630822D01*
X151952052Y-119213195D01*
X152178744Y-118667260D01*
X152179241Y-118097331D01*
X152571000Y-118168525D01*
X153289880Y-118013098D01*
X153894559Y-117594399D01*
X154941746Y-116511897D01*
X155431561Y-116307505D01*
X155508549Y-116230112D01*
X157306634Y-116230112D01*
X157543030Y-116928338D01*
X157964254Y-117409423D01*
X158059110Y-117789871D01*
X158755696Y-117616193D01*
X158742446Y-117654894D01*
X158947365Y-117830180D01*
X158120559Y-118036326D01*
X158322563Y-118846523D01*
X158681119Y-119490604D01*
X159258860Y-119948443D01*
X159413079Y-119992361D01*
X159247948Y-120157203D01*
X159021256Y-120703138D01*
X159020740Y-121294268D01*
X159246479Y-121840598D01*
X159664106Y-122258955D01*
X160210041Y-122485647D01*
X160801171Y-122486163D01*
X161347501Y-122260424D01*
X161765858Y-121842797D01*
X161992550Y-121296862D01*
X161993066Y-120705732D01*
X161767327Y-120159402D01*
X161349700Y-119741045D01*
X161288187Y-119715503D01*
X161671198Y-119346980D01*
X161966370Y-118671499D01*
X161980578Y-117934478D01*
X161778574Y-117124281D01*
X160234112Y-117509358D01*
X160509913Y-117326840D01*
X160629965Y-117148885D01*
X161717125Y-116877826D01*
X161515121Y-116067629D01*
X161218339Y-115534514D01*
X161241118Y-115191164D01*
X161004722Y-114492938D01*
X160519121Y-113938327D01*
X160360093Y-113833587D01*
X160045612Y-113848657D01*
X159732670Y-114762687D01*
X159679438Y-114762250D01*
X159423581Y-114945720D01*
X159414289Y-114908452D01*
X159805306Y-113766382D01*
X159566053Y-113561727D01*
X159376201Y-113547018D01*
X158652576Y-113687619D01*
X158037839Y-114094436D01*
X157625579Y-114705536D01*
X157531643Y-114979901D01*
X158450044Y-115294340D01*
X158244245Y-115492354D01*
X157449368Y-115220207D01*
X157355432Y-115494571D01*
X157306634Y-116230112D01*
X155508549Y-116230112D01*
X155950269Y-115786075D01*
X156229949Y-115105836D01*
X156358019Y-114453058D01*
X156356093Y-113717570D01*
X156283363Y-113543275D01*
X165403042Y-113543275D01*
X165620638Y-114184315D01*
X166066984Y-114693288D01*
X166674131Y-114992709D01*
X167349644Y-115036993D01*
X167990684Y-114819397D01*
X168499657Y-114373051D01*
X168799078Y-113765904D01*
X168816674Y-113700238D01*
X168841551Y-113320750D01*
X169545000Y-113320750D01*
X169545000Y-113646310D01*
X169641673Y-113879699D01*
X169820302Y-114058327D01*
X170053691Y-114155000D01*
X170529250Y-114155000D01*
X170688000Y-113996250D01*
X170688000Y-113162000D01*
X169703750Y-113162000D01*
X169545000Y-113320750D01*
X168841551Y-113320750D01*
X168860958Y-113024724D01*
X168643362Y-112383685D01*
X168197016Y-111874711D01*
X167589869Y-111575291D01*
X166914356Y-111531007D01*
X166273316Y-111748602D01*
X165764343Y-112194949D01*
X165464922Y-112802095D01*
X165447326Y-112867762D01*
X165403042Y-113543275D01*
X156283363Y-113543275D01*
X156072855Y-113038804D01*
X155551425Y-112520097D01*
X154871186Y-112240417D01*
X154135698Y-112242342D01*
X153456933Y-112525581D01*
X152938225Y-113047011D01*
X152771219Y-113453204D01*
X152420163Y-113696287D01*
X151184935Y-114973171D01*
X150786514Y-115591400D01*
X150655007Y-116315038D01*
X150778143Y-116884566D01*
X150398829Y-116884235D01*
X149852499Y-117109974D01*
X149434142Y-117527601D01*
X149207450Y-118073536D01*
X149206934Y-118664666D01*
X145781984Y-118664666D01*
X145732587Y-118545410D01*
X145407428Y-118058774D01*
X145283131Y-117934478D01*
X145218437Y-117869783D01*
X144731802Y-117544624D01*
X144608337Y-117493484D01*
X144484873Y-117442343D01*
X143910848Y-117328162D01*
X143843381Y-117328162D01*
X143777211Y-117315000D01*
X71565463Y-117315000D01*
X71191956Y-117240027D01*
X70932208Y-117065813D01*
X70758730Y-116805200D01*
X70685000Y-116432837D01*
X70685000Y-108294268D01*
X73433837Y-108294268D01*
X73659576Y-108840598D01*
X74077203Y-109258955D01*
X74623138Y-109485647D01*
X75214268Y-109486163D01*
X75760598Y-109260424D01*
X76178955Y-108842797D01*
X76312731Y-108520627D01*
X77370640Y-108520627D01*
X77770024Y-109487209D01*
X78508901Y-110227377D01*
X79474784Y-110628447D01*
X80520627Y-110629360D01*
X81487209Y-110229976D01*
X82227377Y-109491099D01*
X82628447Y-108525216D01*
X82629360Y-107479373D01*
X82229976Y-106512791D01*
X81491099Y-105772623D01*
X80525216Y-105371553D01*
X79479373Y-105370640D01*
X78512791Y-105770024D01*
X77772623Y-106508901D01*
X77371553Y-107474784D01*
X77370640Y-108520627D01*
X76312731Y-108520627D01*
X76405647Y-108296862D01*
X76406163Y-107705732D01*
X76260658Y-107353582D01*
X76681667Y-107318968D01*
X77335825Y-106982777D01*
X77811532Y-106421842D01*
X78542862Y-105105197D01*
X78963091Y-104780992D01*
X79329167Y-104143078D01*
X79412397Y-103497826D01*
X80611003Y-103497826D01*
X80754240Y-104220933D01*
X81163295Y-104834183D01*
X81694680Y-105189855D01*
X81884771Y-105532789D01*
X82512670Y-105184739D01*
X82509888Y-105225552D01*
X82753192Y-105341828D01*
X82007913Y-105754943D01*
X82412729Y-106485250D01*
X82925767Y-107014583D01*
X83602320Y-107307292D01*
X83757714Y-107309721D01*
X83594353Y-107703138D01*
X83593837Y-108294268D01*
X83819576Y-108840598D01*
X84237203Y-109258955D01*
X84783138Y-109485647D01*
X85374268Y-109486163D01*
X85920598Y-109260424D01*
X86338955Y-108842797D01*
X86565647Y-108296862D01*
X86565649Y-108294268D01*
X92513837Y-108294268D01*
X92739576Y-108840598D01*
X93157203Y-109258955D01*
X93703138Y-109485647D01*
X94294268Y-109486163D01*
X94840598Y-109260424D01*
X95258955Y-108842797D01*
X95392731Y-108520627D01*
X96450640Y-108520627D01*
X96850024Y-109487209D01*
X97588901Y-110227377D01*
X98554784Y-110628447D01*
X99600627Y-110629360D01*
X100567209Y-110229976D01*
X101307377Y-109491099D01*
X101708447Y-108525216D01*
X101709360Y-107479373D01*
X101309976Y-106512791D01*
X100571099Y-105772623D01*
X99605216Y-105371553D01*
X98559373Y-105370640D01*
X97592791Y-105770024D01*
X96852623Y-106508901D01*
X96451553Y-107474784D01*
X96450640Y-108520627D01*
X95392731Y-108520627D01*
X95485647Y-108296862D01*
X95486163Y-107705732D01*
X95340658Y-107353582D01*
X95761667Y-107318968D01*
X96415825Y-106982777D01*
X96891532Y-106421842D01*
X97622862Y-105105197D01*
X98043091Y-104780992D01*
X98409167Y-104143078D01*
X98492397Y-103497826D01*
X99691003Y-103497826D01*
X99834240Y-104220933D01*
X100243295Y-104834183D01*
X100774680Y-105189855D01*
X100964771Y-105532789D01*
X101592670Y-105184739D01*
X101589888Y-105225552D01*
X101833192Y-105341828D01*
X101087913Y-105754943D01*
X101492729Y-106485250D01*
X102005767Y-107014583D01*
X102682320Y-107307292D01*
X102837714Y-107309721D01*
X102674353Y-107703138D01*
X102673837Y-108294268D01*
X102899576Y-108840598D01*
X103317203Y-109258955D01*
X103863138Y-109485647D01*
X104454268Y-109486163D01*
X105000598Y-109260424D01*
X105418955Y-108842797D01*
X105645647Y-108296862D01*
X105645649Y-108294268D01*
X111513837Y-108294268D01*
X111739576Y-108840598D01*
X112157203Y-109258955D01*
X112703138Y-109485647D01*
X113294268Y-109486163D01*
X113840598Y-109260424D01*
X114258955Y-108842797D01*
X114392731Y-108520627D01*
X115450640Y-108520627D01*
X115850024Y-109487209D01*
X116588901Y-110227377D01*
X117554784Y-110628447D01*
X118600627Y-110629360D01*
X119567209Y-110229976D01*
X120307377Y-109491099D01*
X120708447Y-108525216D01*
X120709360Y-107479373D01*
X120309976Y-106512791D01*
X119571099Y-105772623D01*
X118605216Y-105371553D01*
X117559373Y-105370640D01*
X116592791Y-105770024D01*
X115852623Y-106508901D01*
X115451553Y-107474784D01*
X115450640Y-108520627D01*
X114392731Y-108520627D01*
X114485647Y-108296862D01*
X114486163Y-107705732D01*
X114340658Y-107353582D01*
X114761667Y-107318968D01*
X115415825Y-106982777D01*
X115891532Y-106421842D01*
X116622862Y-105105197D01*
X117043091Y-104780992D01*
X117409167Y-104143078D01*
X117492397Y-103497826D01*
X118691003Y-103497826D01*
X118834240Y-104220933D01*
X119243295Y-104834183D01*
X119774680Y-105189855D01*
X119964771Y-105532789D01*
X120592670Y-105184739D01*
X120589888Y-105225552D01*
X120833192Y-105341828D01*
X120087913Y-105754943D01*
X120492729Y-106485250D01*
X121005767Y-107014583D01*
X121682320Y-107307292D01*
X121837714Y-107309721D01*
X121674353Y-107703138D01*
X121673837Y-108294268D01*
X121899576Y-108840598D01*
X122317203Y-109258955D01*
X122863138Y-109485647D01*
X123454268Y-109486163D01*
X124000598Y-109260424D01*
X124418955Y-108842797D01*
X124645647Y-108296862D01*
X124645649Y-108294268D01*
X130513837Y-108294268D01*
X130739576Y-108840598D01*
X131157203Y-109258955D01*
X131703138Y-109485647D01*
X132294268Y-109486163D01*
X132840598Y-109260424D01*
X133258955Y-108842797D01*
X133392731Y-108520627D01*
X134450640Y-108520627D01*
X134850024Y-109487209D01*
X135588901Y-110227377D01*
X136554784Y-110628447D01*
X137600627Y-110629360D01*
X138567209Y-110229976D01*
X139307377Y-109491099D01*
X139708447Y-108525216D01*
X139709360Y-107479373D01*
X139309976Y-106512791D01*
X138571099Y-105772623D01*
X137605216Y-105371553D01*
X136559373Y-105370640D01*
X135592791Y-105770024D01*
X134852623Y-106508901D01*
X134451553Y-107474784D01*
X134450640Y-108520627D01*
X133392731Y-108520627D01*
X133485647Y-108296862D01*
X133486163Y-107705732D01*
X133340658Y-107353582D01*
X133761667Y-107318968D01*
X134415825Y-106982777D01*
X134891532Y-106421842D01*
X135622862Y-105105197D01*
X136043091Y-104780992D01*
X136409167Y-104143078D01*
X136492397Y-103497826D01*
X137691003Y-103497826D01*
X137834240Y-104220933D01*
X138243295Y-104834183D01*
X138774680Y-105189855D01*
X138964771Y-105532789D01*
X139592670Y-105184739D01*
X139589888Y-105225552D01*
X139833192Y-105341828D01*
X139087913Y-105754943D01*
X139492729Y-106485250D01*
X140005767Y-107014583D01*
X140682320Y-107307292D01*
X140837714Y-107309721D01*
X140674353Y-107703138D01*
X140673837Y-108294268D01*
X140899576Y-108840598D01*
X141317203Y-109258955D01*
X141863138Y-109485647D01*
X142454268Y-109486163D01*
X143000598Y-109260424D01*
X143418955Y-108842797D01*
X143645647Y-108296862D01*
X143646163Y-107705732D01*
X143420424Y-107159402D01*
X143002797Y-106741045D01*
X142577703Y-106564530D01*
X142856789Y-106101964D01*
X142947874Y-105500001D01*
X159815001Y-105500001D01*
X160019384Y-106527506D01*
X160601419Y-107398583D01*
X161472496Y-107980618D01*
X162500001Y-108185001D01*
X163527506Y-107980618D01*
X164398583Y-107398583D01*
X164980618Y-106527506D01*
X165146375Y-105694187D01*
X165569752Y-105694187D01*
X165787757Y-106221800D01*
X166191077Y-106625824D01*
X166718309Y-106844750D01*
X167289187Y-106845248D01*
X167816800Y-106627243D01*
X168220824Y-106223923D01*
X168439750Y-105696691D01*
X168440024Y-105381887D01*
X169380000Y-105381887D01*
X169380000Y-105438113D01*
X169489233Y-105987264D01*
X169800302Y-106452811D01*
X170265849Y-106763880D01*
X170815000Y-106873113D01*
X171364151Y-106763880D01*
X171829698Y-106452811D01*
X172140767Y-105987264D01*
X172250000Y-105438113D01*
X172250000Y-105381887D01*
X172140767Y-104832736D01*
X171829698Y-104367189D01*
X171364151Y-104056120D01*
X170815000Y-103946887D01*
X170265849Y-104056120D01*
X169800302Y-104367189D01*
X169489233Y-104832736D01*
X169380000Y-105381887D01*
X168440024Y-105381887D01*
X168440248Y-105125813D01*
X168222243Y-104598200D01*
X167818923Y-104194176D01*
X167291691Y-103975250D01*
X166720813Y-103974752D01*
X166193200Y-104192757D01*
X165789176Y-104596077D01*
X165570250Y-105123309D01*
X165569752Y-105694187D01*
X165146375Y-105694187D01*
X165185001Y-105500001D01*
X164980618Y-104472496D01*
X164398583Y-103601419D01*
X164131751Y-103423127D01*
X172643247Y-103423127D01*
X172810777Y-103768618D01*
X173112861Y-104030061D01*
X173492000Y-104156000D01*
X173873000Y-104156000D01*
X173873000Y-103267000D01*
X172771210Y-103267000D01*
X172643247Y-103423127D01*
X164131751Y-103423127D01*
X163527506Y-103019384D01*
X162500001Y-102815001D01*
X161472496Y-103019384D01*
X160601419Y-103601419D01*
X160019384Y-104472496D01*
X159815001Y-105500001D01*
X142947874Y-105500001D01*
X142967076Y-105373103D01*
X142790045Y-104657518D01*
X142385229Y-103927211D01*
X140993058Y-104698904D01*
X141212223Y-104451221D01*
X141282126Y-104248258D01*
X142262087Y-103705057D01*
X141857271Y-102974750D01*
X141432623Y-102536615D01*
X141365760Y-102199067D01*
X140956705Y-101585817D01*
X140344107Y-101175786D01*
X140163389Y-101115774D01*
X139863524Y-101211724D01*
X139797813Y-102175604D01*
X139746282Y-102188960D01*
X139546627Y-102432400D01*
X139528007Y-102398808D01*
X139610112Y-101194448D01*
X139326043Y-101058690D01*
X139138852Y-101093620D01*
X138476274Y-101416718D01*
X137987777Y-101968779D01*
X137747728Y-102665757D01*
X137728003Y-102955085D01*
X138696493Y-103021110D01*
X138548956Y-103265642D01*
X137710727Y-103208497D01*
X137691003Y-103497826D01*
X136492397Y-103497826D01*
X136503258Y-103413631D01*
X136458012Y-102749948D01*
X136265793Y-102040020D01*
X135816528Y-101457691D01*
X135178613Y-101091615D01*
X134449166Y-100997524D01*
X133739238Y-101189743D01*
X133156909Y-101639008D01*
X132790833Y-102276923D01*
X132734649Y-102712496D01*
X132458467Y-103038158D01*
X131595812Y-104591234D01*
X131370976Y-105291516D01*
X131431242Y-106024533D01*
X131686742Y-106521683D01*
X131159402Y-106739576D01*
X130741045Y-107157203D01*
X130514353Y-107703138D01*
X130513837Y-108294268D01*
X124645649Y-108294268D01*
X124646163Y-107705732D01*
X124420424Y-107159402D01*
X124002797Y-106741045D01*
X123577703Y-106564530D01*
X123856789Y-106101964D01*
X123967076Y-105373103D01*
X123790045Y-104657518D01*
X123385229Y-103927211D01*
X121993058Y-104698904D01*
X122212223Y-104451221D01*
X122282126Y-104248258D01*
X123262087Y-103705057D01*
X122857271Y-102974750D01*
X122432623Y-102536615D01*
X122365760Y-102199067D01*
X121956705Y-101585817D01*
X121344107Y-101175786D01*
X121163389Y-101115774D01*
X120863524Y-101211724D01*
X120797813Y-102175604D01*
X120746282Y-102188960D01*
X120546627Y-102432400D01*
X120528007Y-102398808D01*
X120610112Y-101194448D01*
X120326043Y-101058690D01*
X120138852Y-101093620D01*
X119476274Y-101416718D01*
X118987777Y-101968779D01*
X118747728Y-102665757D01*
X118728003Y-102955085D01*
X119696493Y-103021110D01*
X119548956Y-103265642D01*
X118710727Y-103208497D01*
X118691003Y-103497826D01*
X117492397Y-103497826D01*
X117503258Y-103413631D01*
X117458012Y-102749948D01*
X117265793Y-102040020D01*
X116816528Y-101457691D01*
X116178613Y-101091615D01*
X115449166Y-100997524D01*
X114739238Y-101189743D01*
X114156909Y-101639008D01*
X113790833Y-102276923D01*
X113734649Y-102712496D01*
X113458467Y-103038158D01*
X112595812Y-104591234D01*
X112370976Y-105291516D01*
X112431242Y-106024533D01*
X112686742Y-106521683D01*
X112159402Y-106739576D01*
X111741045Y-107157203D01*
X111514353Y-107703138D01*
X111513837Y-108294268D01*
X105645649Y-108294268D01*
X105646163Y-107705732D01*
X105420424Y-107159402D01*
X105002797Y-106741045D01*
X104577703Y-106564530D01*
X104856789Y-106101964D01*
X104967076Y-105373103D01*
X104790045Y-104657518D01*
X104385229Y-103927211D01*
X102993058Y-104698904D01*
X103212223Y-104451221D01*
X103282126Y-104248258D01*
X104262087Y-103705057D01*
X103857271Y-102974750D01*
X103432623Y-102536615D01*
X103365760Y-102199067D01*
X102956705Y-101585817D01*
X102344107Y-101175786D01*
X102163389Y-101115774D01*
X101863524Y-101211724D01*
X101797813Y-102175604D01*
X101746282Y-102188960D01*
X101546627Y-102432400D01*
X101528007Y-102398808D01*
X101610112Y-101194448D01*
X101326043Y-101058690D01*
X101138852Y-101093620D01*
X100476274Y-101416718D01*
X99987777Y-101968779D01*
X99747728Y-102665757D01*
X99728003Y-102955085D01*
X100696493Y-103021110D01*
X100548956Y-103265642D01*
X99710727Y-103208497D01*
X99691003Y-103497826D01*
X98492397Y-103497826D01*
X98503258Y-103413631D01*
X98458012Y-102749948D01*
X98265793Y-102040020D01*
X97816528Y-101457691D01*
X97178613Y-101091615D01*
X96449166Y-100997524D01*
X95739238Y-101189743D01*
X95156909Y-101639008D01*
X94790833Y-102276923D01*
X94734649Y-102712496D01*
X94458467Y-103038158D01*
X93595812Y-104591234D01*
X93370976Y-105291516D01*
X93431242Y-106024533D01*
X93686742Y-106521683D01*
X93159402Y-106739576D01*
X92741045Y-107157203D01*
X92514353Y-107703138D01*
X92513837Y-108294268D01*
X86565649Y-108294268D01*
X86566163Y-107705732D01*
X86340424Y-107159402D01*
X85922797Y-106741045D01*
X85497703Y-106564530D01*
X85776789Y-106101964D01*
X85887076Y-105373103D01*
X85710045Y-104657518D01*
X85305229Y-103927211D01*
X83913058Y-104698904D01*
X84132223Y-104451221D01*
X84202126Y-104248258D01*
X85182087Y-103705057D01*
X84777271Y-102974750D01*
X84352623Y-102536615D01*
X84285760Y-102199067D01*
X83876705Y-101585817D01*
X83264107Y-101175786D01*
X83083389Y-101115774D01*
X82783524Y-101211724D01*
X82717813Y-102175604D01*
X82666282Y-102188960D01*
X82466627Y-102432400D01*
X82448007Y-102398808D01*
X82530112Y-101194448D01*
X82246043Y-101058690D01*
X82058852Y-101093620D01*
X81396274Y-101416718D01*
X80907777Y-101968779D01*
X80667728Y-102665757D01*
X80648003Y-102955085D01*
X81616493Y-103021110D01*
X81468956Y-103265642D01*
X80630727Y-103208497D01*
X80611003Y-103497826D01*
X79412397Y-103497826D01*
X79423258Y-103413631D01*
X79378012Y-102749948D01*
X79185793Y-102040020D01*
X78736528Y-101457691D01*
X78098613Y-101091615D01*
X77369166Y-100997524D01*
X76659238Y-101189743D01*
X76076909Y-101639008D01*
X75710833Y-102276923D01*
X75654649Y-102712496D01*
X75378467Y-103038158D01*
X74515812Y-104591234D01*
X74290976Y-105291516D01*
X74351242Y-106024533D01*
X74606742Y-106521683D01*
X74079402Y-106739576D01*
X73661045Y-107157203D01*
X73434353Y-107703138D01*
X73433837Y-108294268D01*
X70685000Y-108294268D01*
X70685000Y-98500001D01*
X86815000Y-98500001D01*
X87019383Y-99527506D01*
X87601418Y-100398583D01*
X88472495Y-100980618D01*
X89500000Y-101185001D01*
X90527505Y-100980618D01*
X91398582Y-100398583D01*
X91980617Y-99527506D01*
X91984547Y-99507745D01*
X133671861Y-99507745D01*
X133745995Y-99753864D01*
X134283223Y-99946965D01*
X134853454Y-99919778D01*
X135254005Y-99753864D01*
X135328139Y-99507745D01*
X134500000Y-98679605D01*
X133671861Y-99507745D01*
X91984547Y-99507745D01*
X92185000Y-98500001D01*
X91980617Y-97472496D01*
X91398582Y-96601419D01*
X90527505Y-96019384D01*
X89500000Y-95815001D01*
X88472495Y-96019384D01*
X87601418Y-96601419D01*
X87019383Y-97472496D01*
X86815000Y-98500001D01*
X70685000Y-98500001D01*
X70685000Y-94794268D01*
X149433837Y-94794268D01*
X149659576Y-95340598D01*
X150077203Y-95758955D01*
X150623138Y-95985647D01*
X151214268Y-95986163D01*
X151760598Y-95760424D01*
X152178955Y-95342797D01*
X152312731Y-95020627D01*
X153370640Y-95020627D01*
X153770024Y-95987209D01*
X154508901Y-96727377D01*
X155474784Y-97128447D01*
X156520627Y-97129360D01*
X157487209Y-96729976D01*
X158227377Y-95991099D01*
X158628447Y-95025216D01*
X158629360Y-93979373D01*
X158229976Y-93012791D01*
X157491099Y-92272623D01*
X156525216Y-91871553D01*
X155479373Y-91870640D01*
X154512791Y-92270024D01*
X153772623Y-93008901D01*
X153371553Y-93974784D01*
X153370640Y-95020627D01*
X152312731Y-95020627D01*
X152405647Y-94796862D01*
X152406163Y-94205732D01*
X152260658Y-93853582D01*
X152681667Y-93818968D01*
X153335825Y-93482777D01*
X153811532Y-92921842D01*
X154542862Y-91605197D01*
X154963091Y-91280992D01*
X155329167Y-90643078D01*
X155412397Y-89997826D01*
X156611003Y-89997826D01*
X156754240Y-90720933D01*
X157163295Y-91334183D01*
X157694680Y-91689855D01*
X157884771Y-92032789D01*
X158512670Y-91684739D01*
X158509888Y-91725552D01*
X158753192Y-91841828D01*
X158007913Y-92254943D01*
X158412729Y-92985250D01*
X158925767Y-93514583D01*
X159602320Y-93807292D01*
X159757714Y-93809721D01*
X159594353Y-94203138D01*
X159593837Y-94794268D01*
X159819576Y-95340598D01*
X160237203Y-95758955D01*
X160783138Y-95985647D01*
X161374268Y-95986163D01*
X161920598Y-95760424D01*
X162338955Y-95342797D01*
X162565647Y-94796862D01*
X162566163Y-94205732D01*
X162340424Y-93659402D01*
X161922797Y-93241045D01*
X161497703Y-93064530D01*
X161776789Y-92601964D01*
X161887076Y-91873103D01*
X161710045Y-91157518D01*
X161305229Y-90427211D01*
X159913058Y-91198904D01*
X160132223Y-90951221D01*
X160202126Y-90748258D01*
X161182087Y-90205057D01*
X160777271Y-89474750D01*
X160352623Y-89036615D01*
X160285760Y-88699067D01*
X159876705Y-88085817D01*
X159264107Y-87675786D01*
X159083389Y-87615774D01*
X158783524Y-87711724D01*
X158717813Y-88675604D01*
X158666282Y-88688960D01*
X158466627Y-88932400D01*
X158448007Y-88898808D01*
X158530112Y-87694448D01*
X158246043Y-87558690D01*
X158058852Y-87593620D01*
X157396274Y-87916718D01*
X156907777Y-88468779D01*
X156667728Y-89165757D01*
X156648003Y-89455085D01*
X157616493Y-89521110D01*
X157468956Y-89765642D01*
X156630727Y-89708497D01*
X156611003Y-89997826D01*
X155412397Y-89997826D01*
X155423258Y-89913631D01*
X155378012Y-89249948D01*
X155185793Y-88540020D01*
X154736528Y-87957691D01*
X154098613Y-87591615D01*
X153369166Y-87497524D01*
X152659238Y-87689743D01*
X152076909Y-88139008D01*
X151710833Y-88776923D01*
X151654649Y-89212496D01*
X151378467Y-89538158D01*
X150515812Y-91091234D01*
X150290976Y-91791516D01*
X150351242Y-92524533D01*
X150606742Y-93021683D01*
X150079402Y-93239576D01*
X149661045Y-93657203D01*
X149434353Y-94203138D01*
X149433837Y-94794268D01*
X70685000Y-94794268D01*
X70685000Y-92514167D01*
X130001838Y-92514167D01*
X130143883Y-92857943D01*
X130406673Y-93121192D01*
X130750201Y-93263838D01*
X131122167Y-93264162D01*
X131465943Y-93122117D01*
X131729192Y-92859327D01*
X131758394Y-92789001D01*
X143174999Y-92789001D01*
X143465838Y-92731149D01*
X143712400Y-92566402D01*
X149412802Y-86866000D01*
X162626198Y-86866000D01*
X166833790Y-91073592D01*
X166760907Y-91440000D01*
X166873946Y-92008285D01*
X167195853Y-92490054D01*
X167677622Y-92811961D01*
X168245907Y-92925000D01*
X168255198Y-92925000D01*
X167328886Y-93851312D01*
X167005000Y-93786887D01*
X166455849Y-93896120D01*
X165990302Y-94207189D01*
X165679233Y-94672736D01*
X165570000Y-95221887D01*
X165570000Y-95278113D01*
X165679233Y-95827264D01*
X165990302Y-96292811D01*
X166455849Y-96603880D01*
X167005000Y-96713113D01*
X167554151Y-96603880D01*
X168019698Y-96292811D01*
X168043128Y-96257745D01*
X169986861Y-96257745D01*
X170060995Y-96503864D01*
X170598223Y-96696965D01*
X171168454Y-96669778D01*
X171569005Y-96503864D01*
X171643139Y-96257745D01*
X170815000Y-95429605D01*
X169986861Y-96257745D01*
X168043128Y-96257745D01*
X168330767Y-95827264D01*
X168440000Y-95278113D01*
X168440000Y-95221887D01*
X168402473Y-95033223D01*
X169368035Y-95033223D01*
X169395222Y-95603454D01*
X169561136Y-96004005D01*
X169807255Y-96078139D01*
X170635395Y-95250000D01*
X170994605Y-95250000D01*
X171822745Y-96078139D01*
X172068864Y-96004005D01*
X172076095Y-95983887D01*
X172301000Y-95983887D01*
X172301000Y-96040113D01*
X172410233Y-96589264D01*
X172721302Y-97054811D01*
X173186849Y-97365880D01*
X173736000Y-97475113D01*
X174285151Y-97365880D01*
X174750698Y-97054811D01*
X175061767Y-96589264D01*
X175171000Y-96040113D01*
X175171000Y-95983887D01*
X175136974Y-95812828D01*
X179477560Y-91472242D01*
X179477560Y-92290000D01*
X179521838Y-92525317D01*
X179660910Y-92741441D01*
X179873110Y-92886431D01*
X180125000Y-92937440D01*
X180687760Y-92937440D01*
X178446613Y-95178587D01*
X178306698Y-94969189D01*
X177841151Y-94658120D01*
X177292000Y-94548887D01*
X176742849Y-94658120D01*
X176277302Y-94969189D01*
X175966233Y-95434736D01*
X175857000Y-95983887D01*
X175857000Y-96040113D01*
X175966233Y-96589264D01*
X176277302Y-97054811D01*
X176742849Y-97365880D01*
X177292000Y-97475113D01*
X177841151Y-97365880D01*
X178306698Y-97054811D01*
X178495667Y-96772000D01*
X178688002Y-96772000D01*
X178978841Y-96714148D01*
X179225403Y-96549401D01*
X182687402Y-93087402D01*
X182852149Y-92840840D01*
X182910001Y-92550001D01*
X182910001Y-91789041D01*
X183393086Y-91789041D01*
X183632611Y-92295134D01*
X184047577Y-92671041D01*
X184435961Y-92831904D01*
X184658000Y-92709915D01*
X184658000Y-91567000D01*
X184912000Y-91567000D01*
X184912000Y-92709915D01*
X185134039Y-92831904D01*
X185522423Y-92671041D01*
X185937389Y-92295134D01*
X186176914Y-91789041D01*
X186055629Y-91567000D01*
X184912000Y-91567000D01*
X184658000Y-91567000D01*
X183514371Y-91567000D01*
X183393086Y-91789041D01*
X182910001Y-91789041D01*
X182910001Y-91090959D01*
X183393086Y-91090959D01*
X183514371Y-91313000D01*
X184658000Y-91313000D01*
X184658000Y-90170085D01*
X184912000Y-90170085D01*
X184912000Y-91313000D01*
X186055629Y-91313000D01*
X186176914Y-91090959D01*
X185937389Y-90584866D01*
X185522423Y-90208959D01*
X185134039Y-90048096D01*
X184912000Y-90170085D01*
X184658000Y-90170085D01*
X184435961Y-90048096D01*
X184047577Y-90208959D01*
X183632611Y-90584866D01*
X183393086Y-91090959D01*
X182910001Y-91090959D01*
X182910001Y-84995001D01*
X182886131Y-84875000D01*
X182852149Y-84704161D01*
X182687402Y-84457600D01*
X182416210Y-84186408D01*
X182489093Y-83820000D01*
X182376054Y-83251715D01*
X182221228Y-83020000D01*
X183337560Y-83020000D01*
X183337560Y-84620000D01*
X183381838Y-84855317D01*
X183520910Y-85071441D01*
X183733110Y-85216431D01*
X183985000Y-85267440D01*
X185585000Y-85267440D01*
X185820317Y-85223162D01*
X186036441Y-85084090D01*
X186181431Y-84871890D01*
X186232440Y-84620000D01*
X186232440Y-83020000D01*
X186188162Y-82784683D01*
X186049090Y-82568559D01*
X185836890Y-82423569D01*
X185585000Y-82372560D01*
X183985000Y-82372560D01*
X183749683Y-82416838D01*
X183533559Y-82555910D01*
X183388569Y-82768110D01*
X183337560Y-83020000D01*
X182221228Y-83020000D01*
X182054147Y-82769946D01*
X181724974Y-82550000D01*
X182054147Y-82330054D01*
X182376054Y-81848285D01*
X182489093Y-81280000D01*
X182376054Y-80711715D01*
X182054147Y-80229946D01*
X181572378Y-79908039D01*
X181004093Y-79795000D01*
X180945907Y-79795000D01*
X180377622Y-79908039D01*
X179895853Y-80229946D01*
X179573946Y-80711715D01*
X179460907Y-81280000D01*
X179573946Y-81848285D01*
X179895853Y-82330054D01*
X180225026Y-82550000D01*
X179895853Y-82769946D01*
X179573946Y-83251715D01*
X179460907Y-83820000D01*
X179573946Y-84388285D01*
X179895853Y-84870054D01*
X180225026Y-85090000D01*
X179895853Y-85309946D01*
X179573946Y-85791715D01*
X179460907Y-86360000D01*
X179573946Y-86928285D01*
X179895853Y-87410054D01*
X180225026Y-87630000D01*
X179895853Y-87849946D01*
X179573946Y-88331715D01*
X179460907Y-88900000D01*
X179533790Y-89266408D01*
X174165815Y-94634383D01*
X173736000Y-94548887D01*
X173186849Y-94658120D01*
X172721302Y-94969189D01*
X172410233Y-95434736D01*
X172301000Y-95983887D01*
X172076095Y-95983887D01*
X172261965Y-95466777D01*
X172234778Y-94896546D01*
X172068864Y-94495995D01*
X171822745Y-94421861D01*
X170994605Y-95250000D01*
X170635395Y-95250000D01*
X169807255Y-94421861D01*
X169561136Y-94495995D01*
X169368035Y-95033223D01*
X168402473Y-95033223D01*
X168384904Y-94944898D01*
X169087547Y-94242255D01*
X169986861Y-94242255D01*
X170815000Y-95070395D01*
X171643139Y-94242255D01*
X171569005Y-93996136D01*
X171031777Y-93803035D01*
X170461546Y-93830222D01*
X170060995Y-93996136D01*
X169986861Y-94242255D01*
X169087547Y-94242255D01*
X170590401Y-92739401D01*
X170755148Y-92492839D01*
X170813000Y-92202000D01*
X170813000Y-88138000D01*
X170755148Y-87847161D01*
X170590401Y-87600599D01*
X169716210Y-86726408D01*
X169789093Y-86360000D01*
X169744574Y-86136187D01*
X172300752Y-86136187D01*
X172518757Y-86663800D01*
X172922077Y-87067824D01*
X173449309Y-87286750D01*
X174020187Y-87287248D01*
X174547800Y-87069243D01*
X174951824Y-86665923D01*
X175170750Y-86138691D01*
X175170752Y-86136187D01*
X175856752Y-86136187D01*
X176074757Y-86663800D01*
X176478077Y-87067824D01*
X177005309Y-87286750D01*
X177576187Y-87287248D01*
X178103800Y-87069243D01*
X178507824Y-86665923D01*
X178726750Y-86138691D01*
X178727248Y-85567813D01*
X178509243Y-85040200D01*
X178105923Y-84636176D01*
X177578691Y-84417250D01*
X177007813Y-84416752D01*
X176480200Y-84634757D01*
X176076176Y-85038077D01*
X175857250Y-85565309D01*
X175856752Y-86136187D01*
X175170752Y-86136187D01*
X175171248Y-85567813D01*
X174953243Y-85040200D01*
X174549923Y-84636176D01*
X174022691Y-84417250D01*
X173451813Y-84416752D01*
X172924200Y-84634757D01*
X172520176Y-85038077D01*
X172301250Y-85565309D01*
X172300752Y-86136187D01*
X169744574Y-86136187D01*
X169676054Y-85791715D01*
X169354147Y-85309946D01*
X169013447Y-85082298D01*
X169156358Y-85015183D01*
X169546645Y-84586924D01*
X169716476Y-84176890D01*
X169595155Y-83947000D01*
X168402000Y-83947000D01*
X168402000Y-83967000D01*
X168148000Y-83967000D01*
X168148000Y-83947000D01*
X166954845Y-83947000D01*
X166833524Y-84176890D01*
X167003355Y-84586924D01*
X167393642Y-85015183D01*
X167536553Y-85082298D01*
X167195853Y-85309946D01*
X166873946Y-85791715D01*
X166760907Y-86360000D01*
X166873946Y-86928285D01*
X167195853Y-87410054D01*
X167525026Y-87630000D01*
X167195853Y-87849946D01*
X166873946Y-88331715D01*
X166769019Y-88859217D01*
X163478401Y-85568599D01*
X163231839Y-85403852D01*
X162941000Y-85346000D01*
X149098000Y-85346000D01*
X148807160Y-85403852D01*
X148560599Y-85568599D01*
X142860197Y-91269001D01*
X138312761Y-91269001D01*
X138407209Y-91229976D01*
X139147377Y-90491099D01*
X139548447Y-89525216D01*
X139549360Y-88479373D01*
X139149976Y-87512791D01*
X138411099Y-86772623D01*
X137445216Y-86371553D01*
X136399373Y-86370640D01*
X135432791Y-86770024D01*
X134692623Y-87508901D01*
X134291553Y-88474784D01*
X134290640Y-89520627D01*
X134690024Y-90487209D01*
X135428901Y-91227377D01*
X135529143Y-91269001D01*
X131236999Y-91269001D01*
X130946160Y-91326853D01*
X130845787Y-91393920D01*
X130751833Y-91393838D01*
X130408057Y-91535883D01*
X130144808Y-91798673D01*
X130002162Y-92142201D01*
X130001838Y-92514167D01*
X70685000Y-92514167D01*
X70685000Y-89294268D01*
X73353837Y-89294268D01*
X73579576Y-89840598D01*
X73997203Y-90258955D01*
X74543138Y-90485647D01*
X75134268Y-90486163D01*
X75680598Y-90260424D01*
X76098955Y-89842797D01*
X76232731Y-89520627D01*
X77290640Y-89520627D01*
X77690024Y-90487209D01*
X78428901Y-91227377D01*
X79394784Y-91628447D01*
X80440627Y-91629360D01*
X81407209Y-91229976D01*
X82147377Y-90491099D01*
X82548447Y-89525216D01*
X82549360Y-88479373D01*
X82149976Y-87512791D01*
X81411099Y-86772623D01*
X80445216Y-86371553D01*
X79399373Y-86370640D01*
X78432791Y-86770024D01*
X77692623Y-87508901D01*
X77291553Y-88474784D01*
X77290640Y-89520627D01*
X76232731Y-89520627D01*
X76325647Y-89296862D01*
X76326163Y-88705732D01*
X76180658Y-88353582D01*
X76601667Y-88318968D01*
X77255825Y-87982777D01*
X77731532Y-87421842D01*
X78462862Y-86105197D01*
X78883091Y-85780992D01*
X79249167Y-85143078D01*
X79332397Y-84497826D01*
X80531003Y-84497826D01*
X80674240Y-85220933D01*
X81083295Y-85834183D01*
X81614680Y-86189855D01*
X81804771Y-86532789D01*
X82432670Y-86184739D01*
X82429888Y-86225552D01*
X82673192Y-86341828D01*
X81927913Y-86754943D01*
X82332729Y-87485250D01*
X82845767Y-88014583D01*
X83522320Y-88307292D01*
X83677714Y-88309721D01*
X83514353Y-88703138D01*
X83513837Y-89294268D01*
X83739576Y-89840598D01*
X84157203Y-90258955D01*
X84703138Y-90485647D01*
X85294268Y-90486163D01*
X85840598Y-90260424D01*
X86258955Y-89842797D01*
X86485647Y-89296862D01*
X86485649Y-89294268D01*
X92353837Y-89294268D01*
X92579576Y-89840598D01*
X92997203Y-90258955D01*
X93543138Y-90485647D01*
X94134268Y-90486163D01*
X94680598Y-90260424D01*
X95098955Y-89842797D01*
X95232731Y-89520627D01*
X96290640Y-89520627D01*
X96690024Y-90487209D01*
X97428901Y-91227377D01*
X98394784Y-91628447D01*
X99440627Y-91629360D01*
X100407209Y-91229976D01*
X101147377Y-90491099D01*
X101548447Y-89525216D01*
X101549360Y-88479373D01*
X101149976Y-87512791D01*
X100411099Y-86772623D01*
X99445216Y-86371553D01*
X98399373Y-86370640D01*
X97432791Y-86770024D01*
X96692623Y-87508901D01*
X96291553Y-88474784D01*
X96290640Y-89520627D01*
X95232731Y-89520627D01*
X95325647Y-89296862D01*
X95326163Y-88705732D01*
X95180658Y-88353582D01*
X95601667Y-88318968D01*
X96255825Y-87982777D01*
X96731532Y-87421842D01*
X97462862Y-86105197D01*
X97883091Y-85780992D01*
X98249167Y-85143078D01*
X98332397Y-84497826D01*
X99531003Y-84497826D01*
X99674240Y-85220933D01*
X100083295Y-85834183D01*
X100614680Y-86189855D01*
X100804771Y-86532789D01*
X101432670Y-86184739D01*
X101429888Y-86225552D01*
X101673192Y-86341828D01*
X100927913Y-86754943D01*
X101332729Y-87485250D01*
X101845767Y-88014583D01*
X102522320Y-88307292D01*
X102677714Y-88309721D01*
X102514353Y-88703138D01*
X102513837Y-89294268D01*
X102739576Y-89840598D01*
X103157203Y-90258955D01*
X103703138Y-90485647D01*
X104294268Y-90486163D01*
X104840598Y-90260424D01*
X105258955Y-89842797D01*
X105485647Y-89296862D01*
X105485649Y-89294268D01*
X111353837Y-89294268D01*
X111579576Y-89840598D01*
X111997203Y-90258955D01*
X112543138Y-90485647D01*
X113134268Y-90486163D01*
X113680598Y-90260424D01*
X114098955Y-89842797D01*
X114232731Y-89520627D01*
X115290640Y-89520627D01*
X115690024Y-90487209D01*
X116428901Y-91227377D01*
X117394784Y-91628447D01*
X118440627Y-91629360D01*
X119407209Y-91229976D01*
X120147377Y-90491099D01*
X120548447Y-89525216D01*
X120549360Y-88479373D01*
X120149976Y-87512791D01*
X119411099Y-86772623D01*
X118445216Y-86371553D01*
X117399373Y-86370640D01*
X116432791Y-86770024D01*
X115692623Y-87508901D01*
X115291553Y-88474784D01*
X115290640Y-89520627D01*
X114232731Y-89520627D01*
X114325647Y-89296862D01*
X114326163Y-88705732D01*
X114180658Y-88353582D01*
X114601667Y-88318968D01*
X115255825Y-87982777D01*
X115731532Y-87421842D01*
X116462862Y-86105197D01*
X116883091Y-85780992D01*
X117249167Y-85143078D01*
X117332397Y-84497826D01*
X118531003Y-84497826D01*
X118674240Y-85220933D01*
X119083295Y-85834183D01*
X119614680Y-86189855D01*
X119804771Y-86532789D01*
X120432670Y-86184739D01*
X120429888Y-86225552D01*
X120673192Y-86341828D01*
X119927913Y-86754943D01*
X120332729Y-87485250D01*
X120845767Y-88014583D01*
X121522320Y-88307292D01*
X121677714Y-88309721D01*
X121514353Y-88703138D01*
X121513837Y-89294268D01*
X121739576Y-89840598D01*
X122157203Y-90258955D01*
X122703138Y-90485647D01*
X123294268Y-90486163D01*
X123840598Y-90260424D01*
X124258955Y-89842797D01*
X124485647Y-89296862D01*
X124485649Y-89294268D01*
X130353837Y-89294268D01*
X130579576Y-89840598D01*
X130997203Y-90258955D01*
X131543138Y-90485647D01*
X132134268Y-90486163D01*
X132680598Y-90260424D01*
X133098955Y-89842797D01*
X133325647Y-89296862D01*
X133326163Y-88705732D01*
X133180658Y-88353582D01*
X133601667Y-88318968D01*
X134255825Y-87982777D01*
X134731532Y-87421842D01*
X135462862Y-86105197D01*
X135883091Y-85780992D01*
X136249167Y-85143078D01*
X136332397Y-84497826D01*
X137531003Y-84497826D01*
X137674240Y-85220933D01*
X138083295Y-85834183D01*
X138614680Y-86189855D01*
X138804771Y-86532789D01*
X139432670Y-86184739D01*
X139429888Y-86225552D01*
X139673192Y-86341828D01*
X138927913Y-86754943D01*
X139332729Y-87485250D01*
X139845767Y-88014583D01*
X140522320Y-88307292D01*
X140677714Y-88309721D01*
X140514353Y-88703138D01*
X140513837Y-89294268D01*
X140739576Y-89840598D01*
X141157203Y-90258955D01*
X141703138Y-90485647D01*
X142294268Y-90486163D01*
X142840598Y-90260424D01*
X143258955Y-89842797D01*
X143485647Y-89296862D01*
X143486163Y-88705732D01*
X143260424Y-88159402D01*
X142842797Y-87741045D01*
X142417703Y-87564530D01*
X142696789Y-87101964D01*
X142807076Y-86373103D01*
X142630045Y-85657518D01*
X142225229Y-84927211D01*
X140833058Y-85698904D01*
X141052223Y-85451221D01*
X141122126Y-85248258D01*
X142102087Y-84705057D01*
X141697271Y-83974750D01*
X141272623Y-83536615D01*
X141205760Y-83199067D01*
X140796705Y-82585817D01*
X140184107Y-82175786D01*
X140003389Y-82115774D01*
X139703524Y-82211724D01*
X139637813Y-83175604D01*
X139586282Y-83188960D01*
X139386627Y-83432400D01*
X139368007Y-83398808D01*
X139450112Y-82194448D01*
X139166043Y-82058690D01*
X138978852Y-82093620D01*
X138316274Y-82416718D01*
X137827777Y-82968779D01*
X137587728Y-83665757D01*
X137568003Y-83955085D01*
X138536493Y-84021110D01*
X138388956Y-84265642D01*
X137550727Y-84208497D01*
X137531003Y-84497826D01*
X136332397Y-84497826D01*
X136343258Y-84413631D01*
X136298012Y-83749948D01*
X136105793Y-83040020D01*
X135656528Y-82457691D01*
X135018613Y-82091615D01*
X134289166Y-81997524D01*
X133579238Y-82189743D01*
X132996909Y-82639008D01*
X132630833Y-83276923D01*
X132574649Y-83712496D01*
X132298467Y-84038158D01*
X131435812Y-85591234D01*
X131210976Y-86291516D01*
X131271242Y-87024533D01*
X131526742Y-87521683D01*
X130999402Y-87739576D01*
X130581045Y-88157203D01*
X130354353Y-88703138D01*
X130353837Y-89294268D01*
X124485649Y-89294268D01*
X124486163Y-88705732D01*
X124260424Y-88159402D01*
X123842797Y-87741045D01*
X123417703Y-87564530D01*
X123696789Y-87101964D01*
X123807076Y-86373103D01*
X123630045Y-85657518D01*
X123225229Y-84927211D01*
X121833058Y-85698904D01*
X122052223Y-85451221D01*
X122122126Y-85248258D01*
X123102087Y-84705057D01*
X122697271Y-83974750D01*
X122272623Y-83536615D01*
X122205760Y-83199067D01*
X121796705Y-82585817D01*
X121184107Y-82175786D01*
X121003389Y-82115774D01*
X120703524Y-82211724D01*
X120637813Y-83175604D01*
X120586282Y-83188960D01*
X120386627Y-83432400D01*
X120368007Y-83398808D01*
X120450112Y-82194448D01*
X120166043Y-82058690D01*
X119978852Y-82093620D01*
X119316274Y-82416718D01*
X118827777Y-82968779D01*
X118587728Y-83665757D01*
X118568003Y-83955085D01*
X119536493Y-84021110D01*
X119388956Y-84265642D01*
X118550727Y-84208497D01*
X118531003Y-84497826D01*
X117332397Y-84497826D01*
X117343258Y-84413631D01*
X117298012Y-83749948D01*
X117105793Y-83040020D01*
X116656528Y-82457691D01*
X116018613Y-82091615D01*
X115289166Y-81997524D01*
X114579238Y-82189743D01*
X113996909Y-82639008D01*
X113630833Y-83276923D01*
X113574649Y-83712496D01*
X113298467Y-84038158D01*
X112435812Y-85591234D01*
X112210976Y-86291516D01*
X112271242Y-87024533D01*
X112526742Y-87521683D01*
X111999402Y-87739576D01*
X111581045Y-88157203D01*
X111354353Y-88703138D01*
X111353837Y-89294268D01*
X105485649Y-89294268D01*
X105486163Y-88705732D01*
X105260424Y-88159402D01*
X104842797Y-87741045D01*
X104417703Y-87564530D01*
X104696789Y-87101964D01*
X104807076Y-86373103D01*
X104630045Y-85657518D01*
X104225229Y-84927211D01*
X102833058Y-85698904D01*
X103052223Y-85451221D01*
X103122126Y-85248258D01*
X104102087Y-84705057D01*
X103697271Y-83974750D01*
X103272623Y-83536615D01*
X103205760Y-83199067D01*
X102796705Y-82585817D01*
X102184107Y-82175786D01*
X102003389Y-82115774D01*
X101703524Y-82211724D01*
X101637813Y-83175604D01*
X101586282Y-83188960D01*
X101386627Y-83432400D01*
X101368007Y-83398808D01*
X101450112Y-82194448D01*
X101166043Y-82058690D01*
X100978852Y-82093620D01*
X100316274Y-82416718D01*
X99827777Y-82968779D01*
X99587728Y-83665757D01*
X99568003Y-83955085D01*
X100536493Y-84021110D01*
X100388956Y-84265642D01*
X99550727Y-84208497D01*
X99531003Y-84497826D01*
X98332397Y-84497826D01*
X98343258Y-84413631D01*
X98298012Y-83749948D01*
X98105793Y-83040020D01*
X97656528Y-82457691D01*
X97018613Y-82091615D01*
X96289166Y-81997524D01*
X95579238Y-82189743D01*
X94996909Y-82639008D01*
X94630833Y-83276923D01*
X94574649Y-83712496D01*
X94298467Y-84038158D01*
X93435812Y-85591234D01*
X93210976Y-86291516D01*
X93271242Y-87024533D01*
X93526742Y-87521683D01*
X92999402Y-87739576D01*
X92581045Y-88157203D01*
X92354353Y-88703138D01*
X92353837Y-89294268D01*
X86485649Y-89294268D01*
X86486163Y-88705732D01*
X86260424Y-88159402D01*
X85842797Y-87741045D01*
X85417703Y-87564530D01*
X85696789Y-87101964D01*
X85807076Y-86373103D01*
X85630045Y-85657518D01*
X85225229Y-84927211D01*
X83833058Y-85698904D01*
X84052223Y-85451221D01*
X84122126Y-85248258D01*
X85102087Y-84705057D01*
X84697271Y-83974750D01*
X84272623Y-83536615D01*
X84205760Y-83199067D01*
X83796705Y-82585817D01*
X83184107Y-82175786D01*
X83003389Y-82115774D01*
X82703524Y-82211724D01*
X82637813Y-83175604D01*
X82586282Y-83188960D01*
X82386627Y-83432400D01*
X82368007Y-83398808D01*
X82450112Y-82194448D01*
X82166043Y-82058690D01*
X81978852Y-82093620D01*
X81316274Y-82416718D01*
X80827777Y-82968779D01*
X80587728Y-83665757D01*
X80568003Y-83955085D01*
X81536493Y-84021110D01*
X81388956Y-84265642D01*
X80550727Y-84208497D01*
X80531003Y-84497826D01*
X79332397Y-84497826D01*
X79343258Y-84413631D01*
X79298012Y-83749948D01*
X79105793Y-83040020D01*
X78656528Y-82457691D01*
X78018613Y-82091615D01*
X77289166Y-81997524D01*
X76579238Y-82189743D01*
X75996909Y-82639008D01*
X75630833Y-83276923D01*
X75574649Y-83712496D01*
X75298467Y-84038158D01*
X74435812Y-85591234D01*
X74210976Y-86291516D01*
X74271242Y-87024533D01*
X74526742Y-87521683D01*
X73999402Y-87739576D01*
X73581045Y-88157203D01*
X73354353Y-88703138D01*
X73353837Y-89294268D01*
X70685000Y-89294268D01*
X70685000Y-79500000D01*
X86815000Y-79500000D01*
X87019383Y-80527505D01*
X87601418Y-81398582D01*
X88472495Y-81980617D01*
X89500000Y-82185000D01*
X90527505Y-81980617D01*
X91398582Y-81398582D01*
X91980617Y-80527505D01*
X92000011Y-80430000D01*
X166777560Y-80430000D01*
X166777560Y-82130000D01*
X166821838Y-82365317D01*
X166960910Y-82581441D01*
X167173110Y-82726431D01*
X167281107Y-82748301D01*
X167003355Y-83053076D01*
X166833524Y-83463110D01*
X166954845Y-83693000D01*
X168148000Y-83693000D01*
X168148000Y-83673000D01*
X168402000Y-83673000D01*
X168402000Y-83693000D01*
X169595155Y-83693000D01*
X169716476Y-83463110D01*
X169546645Y-83053076D01*
X169270499Y-82750063D01*
X169360317Y-82733162D01*
X169576441Y-82594090D01*
X169721431Y-82381890D01*
X169772440Y-82130000D01*
X169772440Y-80430000D01*
X169728162Y-80194683D01*
X169589090Y-79978559D01*
X169376890Y-79833569D01*
X169125000Y-79782560D01*
X167425000Y-79782560D01*
X167189683Y-79826838D01*
X166973559Y-79965910D01*
X166828569Y-80178110D01*
X166777560Y-80430000D01*
X92000011Y-80430000D01*
X92185000Y-79500000D01*
X91980617Y-78472495D01*
X91924953Y-78389187D01*
X173189752Y-78389187D01*
X173407757Y-78916800D01*
X173811077Y-79320824D01*
X174338309Y-79539750D01*
X174909187Y-79540248D01*
X175436800Y-79322243D01*
X175840824Y-78918923D01*
X176059750Y-78391691D01*
X176060000Y-78105000D01*
X183321887Y-78105000D01*
X183431120Y-78654151D01*
X183742189Y-79119698D01*
X184207736Y-79430767D01*
X184756887Y-79540000D01*
X184813113Y-79540000D01*
X185362264Y-79430767D01*
X185827811Y-79119698D01*
X186138880Y-78654151D01*
X186248113Y-78105000D01*
X186138880Y-77555849D01*
X185827811Y-77090302D01*
X185362264Y-76779233D01*
X184813113Y-76670000D01*
X184756887Y-76670000D01*
X184207736Y-76779233D01*
X183742189Y-77090302D01*
X183431120Y-77555849D01*
X183321887Y-78105000D01*
X176060000Y-78105000D01*
X176060248Y-77820813D01*
X175842243Y-77293200D01*
X175438923Y-76889176D01*
X174911691Y-76670250D01*
X174340813Y-76669752D01*
X173813200Y-76887757D01*
X173409176Y-77291077D01*
X173190250Y-77818309D01*
X173189752Y-78389187D01*
X91924953Y-78389187D01*
X91398582Y-77601418D01*
X90527505Y-77019383D01*
X89500000Y-76815000D01*
X88472495Y-77019383D01*
X87601418Y-77601418D01*
X87019383Y-78472495D01*
X86815000Y-79500000D01*
X70685000Y-79500000D01*
X70685000Y-75794268D01*
X149433837Y-75794268D01*
X149659576Y-76340598D01*
X150077203Y-76758955D01*
X150623138Y-76985647D01*
X151214268Y-76986163D01*
X151760598Y-76760424D01*
X152178955Y-76342797D01*
X152312731Y-76020627D01*
X153370640Y-76020627D01*
X153770024Y-76987209D01*
X154508901Y-77727377D01*
X155474784Y-78128447D01*
X156520627Y-78129360D01*
X157487209Y-77729976D01*
X158227377Y-76991099D01*
X158628447Y-76025216D01*
X158629360Y-74979373D01*
X158229976Y-74012791D01*
X157491099Y-73272623D01*
X156525216Y-72871553D01*
X155479373Y-72870640D01*
X154512791Y-73270024D01*
X153772623Y-74008901D01*
X153371553Y-74974784D01*
X153370640Y-76020627D01*
X152312731Y-76020627D01*
X152405647Y-75796862D01*
X152406163Y-75205732D01*
X152260658Y-74853582D01*
X152681667Y-74818968D01*
X153335825Y-74482777D01*
X153811532Y-73921842D01*
X154542862Y-72605197D01*
X154963091Y-72280992D01*
X155329167Y-71643078D01*
X155412397Y-70997826D01*
X156611003Y-70997826D01*
X156754240Y-71720933D01*
X157163295Y-72334183D01*
X157694680Y-72689855D01*
X157884771Y-73032789D01*
X158512670Y-72684739D01*
X158509888Y-72725552D01*
X158753192Y-72841828D01*
X158007913Y-73254943D01*
X158412729Y-73985250D01*
X158925767Y-74514583D01*
X159602320Y-74807292D01*
X159757714Y-74809721D01*
X159594353Y-75203138D01*
X159593837Y-75794268D01*
X159819576Y-76340598D01*
X160237203Y-76758955D01*
X160783138Y-76985647D01*
X161374268Y-76986163D01*
X161920598Y-76760424D01*
X162338955Y-76342797D01*
X162565647Y-75796862D01*
X162566163Y-75205732D01*
X162340424Y-74659402D01*
X161922797Y-74241045D01*
X161497703Y-74064530D01*
X161776789Y-73601964D01*
X161823737Y-73291694D01*
X182460819Y-73291694D01*
X182589082Y-73936516D01*
X182954344Y-74483169D01*
X183500997Y-74848431D01*
X184145819Y-74976694D01*
X184790641Y-74848431D01*
X185337294Y-74483169D01*
X185702556Y-73936516D01*
X185830819Y-73291694D01*
X185702556Y-72646872D01*
X185337294Y-72100219D01*
X184790641Y-71734957D01*
X184145819Y-71606694D01*
X183500997Y-71734957D01*
X182954344Y-72100219D01*
X182589082Y-72646872D01*
X182460819Y-73291694D01*
X161823737Y-73291694D01*
X161887076Y-72873103D01*
X161710045Y-72157518D01*
X161305229Y-71427211D01*
X159913058Y-72198904D01*
X160132223Y-71951221D01*
X160202126Y-71748258D01*
X161182087Y-71205057D01*
X160777271Y-70474750D01*
X160352623Y-70036615D01*
X160285760Y-69699067D01*
X159975137Y-69233384D01*
X167315001Y-69233384D01*
X167443264Y-69878206D01*
X167808526Y-70424859D01*
X168355179Y-70790121D01*
X169000001Y-70918384D01*
X169644823Y-70790121D01*
X170191476Y-70424859D01*
X170556738Y-69878206D01*
X170685001Y-69233384D01*
X170556738Y-68588562D01*
X170191476Y-68041909D01*
X169644823Y-67676647D01*
X169000001Y-67548384D01*
X168355179Y-67676647D01*
X167808526Y-68041909D01*
X167443264Y-68588562D01*
X167315001Y-69233384D01*
X159975137Y-69233384D01*
X159876705Y-69085817D01*
X159264107Y-68675786D01*
X159083389Y-68615774D01*
X158783524Y-68711724D01*
X158717813Y-69675604D01*
X158666282Y-69688960D01*
X158466627Y-69932400D01*
X158448007Y-69898808D01*
X158530112Y-68694448D01*
X158246043Y-68558690D01*
X158058852Y-68593620D01*
X157396274Y-68916718D01*
X156907777Y-69468779D01*
X156667728Y-70165757D01*
X156648003Y-70455085D01*
X157616493Y-70521110D01*
X157468956Y-70765642D01*
X156630727Y-70708497D01*
X156611003Y-70997826D01*
X155412397Y-70997826D01*
X155423258Y-70913631D01*
X155378012Y-70249948D01*
X155185793Y-69540020D01*
X154736528Y-68957691D01*
X154098613Y-68591615D01*
X153369166Y-68497524D01*
X152659238Y-68689743D01*
X152076909Y-69139008D01*
X151710833Y-69776923D01*
X151654649Y-70212496D01*
X151378467Y-70538158D01*
X150515812Y-72091234D01*
X150290976Y-72791516D01*
X150351242Y-73524533D01*
X150606742Y-74021683D01*
X150079402Y-74239576D01*
X149661045Y-74657203D01*
X149434353Y-75203138D01*
X149433837Y-75794268D01*
X70685000Y-75794268D01*
X70685000Y-70294268D01*
X73353837Y-70294268D01*
X73579576Y-70840598D01*
X73997203Y-71258955D01*
X74543138Y-71485647D01*
X75134268Y-71486163D01*
X75680598Y-71260424D01*
X76098955Y-70842797D01*
X76232731Y-70520627D01*
X77290640Y-70520627D01*
X77690024Y-71487209D01*
X78428901Y-72227377D01*
X79394784Y-72628447D01*
X80440627Y-72629360D01*
X81407209Y-72229976D01*
X82147377Y-71491099D01*
X82548447Y-70525216D01*
X82549360Y-69479373D01*
X82149976Y-68512791D01*
X81411099Y-67772623D01*
X80445216Y-67371553D01*
X79399373Y-67370640D01*
X78432791Y-67770024D01*
X77692623Y-68508901D01*
X77291553Y-69474784D01*
X77290640Y-70520627D01*
X76232731Y-70520627D01*
X76325647Y-70296862D01*
X76326163Y-69705732D01*
X76180658Y-69353582D01*
X76601667Y-69318968D01*
X77255825Y-68982777D01*
X77731532Y-68421842D01*
X78462862Y-67105197D01*
X78883091Y-66780992D01*
X79249167Y-66143078D01*
X79332397Y-65497826D01*
X80531003Y-65497826D01*
X80674240Y-66220933D01*
X81083295Y-66834183D01*
X81614680Y-67189855D01*
X81804771Y-67532789D01*
X82432670Y-67184739D01*
X82429888Y-67225552D01*
X82673192Y-67341828D01*
X81927913Y-67754943D01*
X82332729Y-68485250D01*
X82845767Y-69014583D01*
X83522320Y-69307292D01*
X83677714Y-69309721D01*
X83514353Y-69703138D01*
X83513837Y-70294268D01*
X83739576Y-70840598D01*
X84157203Y-71258955D01*
X84703138Y-71485647D01*
X85294268Y-71486163D01*
X85840598Y-71260424D01*
X86258955Y-70842797D01*
X86485647Y-70296862D01*
X86485649Y-70294268D01*
X92433837Y-70294268D01*
X92659576Y-70840598D01*
X93077203Y-71258955D01*
X93623138Y-71485647D01*
X94214268Y-71486163D01*
X94760598Y-71260424D01*
X95178955Y-70842797D01*
X95312731Y-70520627D01*
X96370640Y-70520627D01*
X96770024Y-71487209D01*
X97508901Y-72227377D01*
X98474784Y-72628447D01*
X99520627Y-72629360D01*
X100487209Y-72229976D01*
X101227377Y-71491099D01*
X101628447Y-70525216D01*
X101629360Y-69479373D01*
X101229976Y-68512791D01*
X100491099Y-67772623D01*
X99525216Y-67371553D01*
X98479373Y-67370640D01*
X97512791Y-67770024D01*
X96772623Y-68508901D01*
X96371553Y-69474784D01*
X96370640Y-70520627D01*
X95312731Y-70520627D01*
X95405647Y-70296862D01*
X95406163Y-69705732D01*
X95260658Y-69353582D01*
X95681667Y-69318968D01*
X96335825Y-68982777D01*
X96811532Y-68421842D01*
X97542862Y-67105197D01*
X97963091Y-66780992D01*
X98329167Y-66143078D01*
X98412397Y-65497826D01*
X99611003Y-65497826D01*
X99754240Y-66220933D01*
X100163295Y-66834183D01*
X100694680Y-67189855D01*
X100884771Y-67532789D01*
X101512670Y-67184739D01*
X101509888Y-67225552D01*
X101753192Y-67341828D01*
X101007913Y-67754943D01*
X101412729Y-68485250D01*
X101925767Y-69014583D01*
X102602320Y-69307292D01*
X102757714Y-69309721D01*
X102594353Y-69703138D01*
X102593837Y-70294268D01*
X102819576Y-70840598D01*
X103237203Y-71258955D01*
X103783138Y-71485647D01*
X104374268Y-71486163D01*
X104920598Y-71260424D01*
X105338955Y-70842797D01*
X105565647Y-70296862D01*
X105565649Y-70294268D01*
X111513837Y-70294268D01*
X111739576Y-70840598D01*
X112157203Y-71258955D01*
X112703138Y-71485647D01*
X113294268Y-71486163D01*
X113840598Y-71260424D01*
X114258955Y-70842797D01*
X114392731Y-70520627D01*
X115450640Y-70520627D01*
X115850024Y-71487209D01*
X116588901Y-72227377D01*
X117554784Y-72628447D01*
X118600627Y-72629360D01*
X119567209Y-72229976D01*
X120307377Y-71491099D01*
X120708447Y-70525216D01*
X120709360Y-69479373D01*
X120309976Y-68512791D01*
X119571099Y-67772623D01*
X118605216Y-67371553D01*
X117559373Y-67370640D01*
X116592791Y-67770024D01*
X115852623Y-68508901D01*
X115451553Y-69474784D01*
X115450640Y-70520627D01*
X114392731Y-70520627D01*
X114485647Y-70296862D01*
X114486163Y-69705732D01*
X114340658Y-69353582D01*
X114761667Y-69318968D01*
X115415825Y-68982777D01*
X115891532Y-68421842D01*
X116622862Y-67105197D01*
X117043091Y-66780992D01*
X117409167Y-66143078D01*
X117492397Y-65497826D01*
X118691003Y-65497826D01*
X118834240Y-66220933D01*
X119243295Y-66834183D01*
X119774680Y-67189855D01*
X119964771Y-67532789D01*
X120592670Y-67184739D01*
X120589888Y-67225552D01*
X120833192Y-67341828D01*
X120087913Y-67754943D01*
X120492729Y-68485250D01*
X121005767Y-69014583D01*
X121682320Y-69307292D01*
X121837714Y-69309721D01*
X121674353Y-69703138D01*
X121673837Y-70294268D01*
X121899576Y-70840598D01*
X122317203Y-71258955D01*
X122863138Y-71485647D01*
X123454268Y-71486163D01*
X124000598Y-71260424D01*
X124418955Y-70842797D01*
X124645647Y-70296862D01*
X124645649Y-70294268D01*
X130433837Y-70294268D01*
X130659576Y-70840598D01*
X131077203Y-71258955D01*
X131623138Y-71485647D01*
X132214268Y-71486163D01*
X132760598Y-71260424D01*
X133178955Y-70842797D01*
X133312731Y-70520627D01*
X134370640Y-70520627D01*
X134770024Y-71487209D01*
X135508901Y-72227377D01*
X136474784Y-72628447D01*
X137520627Y-72629360D01*
X138487209Y-72229976D01*
X139227377Y-71491099D01*
X139628447Y-70525216D01*
X139629360Y-69479373D01*
X139229976Y-68512791D01*
X138491099Y-67772623D01*
X137525216Y-67371553D01*
X136479373Y-67370640D01*
X135512791Y-67770024D01*
X134772623Y-68508901D01*
X134371553Y-69474784D01*
X134370640Y-70520627D01*
X133312731Y-70520627D01*
X133405647Y-70296862D01*
X133406163Y-69705732D01*
X133260658Y-69353582D01*
X133681667Y-69318968D01*
X134335825Y-68982777D01*
X134811532Y-68421842D01*
X135542862Y-67105197D01*
X135963091Y-66780992D01*
X136329167Y-66143078D01*
X136412397Y-65497826D01*
X137611003Y-65497826D01*
X137754240Y-66220933D01*
X138163295Y-66834183D01*
X138694680Y-67189855D01*
X138884771Y-67532789D01*
X139512670Y-67184739D01*
X139509888Y-67225552D01*
X139753192Y-67341828D01*
X139007913Y-67754943D01*
X139412729Y-68485250D01*
X139925767Y-69014583D01*
X140602320Y-69307292D01*
X140757714Y-69309721D01*
X140594353Y-69703138D01*
X140593837Y-70294268D01*
X140819576Y-70840598D01*
X141237203Y-71258955D01*
X141783138Y-71485647D01*
X142374268Y-71486163D01*
X142920598Y-71260424D01*
X143338955Y-70842797D01*
X143565647Y-70296862D01*
X143566163Y-69705732D01*
X143340424Y-69159402D01*
X142922797Y-68741045D01*
X142497703Y-68564530D01*
X142776789Y-68101964D01*
X142887076Y-67373103D01*
X142710045Y-66657518D01*
X142305229Y-65927211D01*
X140913058Y-66698904D01*
X141132223Y-66451221D01*
X141202126Y-66248258D01*
X142182087Y-65705057D01*
X141777271Y-64974750D01*
X141352623Y-64536615D01*
X141329164Y-64418184D01*
X145315000Y-64418184D01*
X145519383Y-65445689D01*
X146101418Y-66316766D01*
X146972495Y-66898801D01*
X148000000Y-67103184D01*
X149027505Y-66898801D01*
X149898582Y-66316766D01*
X150480617Y-65445689D01*
X150685000Y-64418184D01*
X150480617Y-63390679D01*
X149898582Y-62519602D01*
X149027505Y-61937567D01*
X148000000Y-61733184D01*
X146972495Y-61937567D01*
X146101418Y-62519602D01*
X145519383Y-63390679D01*
X145315000Y-64418184D01*
X141329164Y-64418184D01*
X141285760Y-64199067D01*
X140876705Y-63585817D01*
X140264107Y-63175786D01*
X140083389Y-63115774D01*
X139783524Y-63211724D01*
X139717813Y-64175604D01*
X139666282Y-64188960D01*
X139466627Y-64432400D01*
X139448007Y-64398808D01*
X139530112Y-63194448D01*
X139246043Y-63058690D01*
X139058852Y-63093620D01*
X138396274Y-63416718D01*
X137907777Y-63968779D01*
X137667728Y-64665757D01*
X137648003Y-64955085D01*
X138616493Y-65021110D01*
X138468956Y-65265642D01*
X137630727Y-65208497D01*
X137611003Y-65497826D01*
X136412397Y-65497826D01*
X136423258Y-65413631D01*
X136378012Y-64749948D01*
X136185793Y-64040020D01*
X135736528Y-63457691D01*
X135098613Y-63091615D01*
X134369166Y-62997524D01*
X133659238Y-63189743D01*
X133076909Y-63639008D01*
X132710833Y-64276923D01*
X132654649Y-64712496D01*
X132378467Y-65038158D01*
X131515812Y-66591234D01*
X131290976Y-67291516D01*
X131351242Y-68024533D01*
X131606742Y-68521683D01*
X131079402Y-68739576D01*
X130661045Y-69157203D01*
X130434353Y-69703138D01*
X130433837Y-70294268D01*
X124645649Y-70294268D01*
X124646163Y-69705732D01*
X124420424Y-69159402D01*
X124002797Y-68741045D01*
X123577703Y-68564530D01*
X123856789Y-68101964D01*
X123967076Y-67373103D01*
X123790045Y-66657518D01*
X123385229Y-65927211D01*
X121993058Y-66698904D01*
X122212223Y-66451221D01*
X122282126Y-66248258D01*
X123262087Y-65705057D01*
X122857271Y-64974750D01*
X122432623Y-64536615D01*
X122365760Y-64199067D01*
X121956705Y-63585817D01*
X121344107Y-63175786D01*
X121163389Y-63115774D01*
X120863524Y-63211724D01*
X120797813Y-64175604D01*
X120746282Y-64188960D01*
X120546627Y-64432400D01*
X120528007Y-64398808D01*
X120610112Y-63194448D01*
X120326043Y-63058690D01*
X120138852Y-63093620D01*
X119476274Y-63416718D01*
X118987777Y-63968779D01*
X118747728Y-64665757D01*
X118728003Y-64955085D01*
X119696493Y-65021110D01*
X119548956Y-65265642D01*
X118710727Y-65208497D01*
X118691003Y-65497826D01*
X117492397Y-65497826D01*
X117503258Y-65413631D01*
X117458012Y-64749948D01*
X117265793Y-64040020D01*
X116816528Y-63457691D01*
X116178613Y-63091615D01*
X115449166Y-62997524D01*
X114739238Y-63189743D01*
X114156909Y-63639008D01*
X113790833Y-64276923D01*
X113734649Y-64712496D01*
X113458467Y-65038158D01*
X112595812Y-66591234D01*
X112370976Y-67291516D01*
X112431242Y-68024533D01*
X112686742Y-68521683D01*
X112159402Y-68739576D01*
X111741045Y-69157203D01*
X111514353Y-69703138D01*
X111513837Y-70294268D01*
X105565649Y-70294268D01*
X105566163Y-69705732D01*
X105340424Y-69159402D01*
X104922797Y-68741045D01*
X104497703Y-68564530D01*
X104776789Y-68101964D01*
X104887076Y-67373103D01*
X104710045Y-66657518D01*
X104305229Y-65927211D01*
X102913058Y-66698904D01*
X103132223Y-66451221D01*
X103202126Y-66248258D01*
X104182087Y-65705057D01*
X103777271Y-64974750D01*
X103352623Y-64536615D01*
X103285760Y-64199067D01*
X102876705Y-63585817D01*
X102264107Y-63175786D01*
X102083389Y-63115774D01*
X101783524Y-63211724D01*
X101717813Y-64175604D01*
X101666282Y-64188960D01*
X101466627Y-64432400D01*
X101448007Y-64398808D01*
X101530112Y-63194448D01*
X101246043Y-63058690D01*
X101058852Y-63093620D01*
X100396274Y-63416718D01*
X99907777Y-63968779D01*
X99667728Y-64665757D01*
X99648003Y-64955085D01*
X100616493Y-65021110D01*
X100468956Y-65265642D01*
X99630727Y-65208497D01*
X99611003Y-65497826D01*
X98412397Y-65497826D01*
X98423258Y-65413631D01*
X98378012Y-64749948D01*
X98185793Y-64040020D01*
X97736528Y-63457691D01*
X97098613Y-63091615D01*
X96369166Y-62997524D01*
X95659238Y-63189743D01*
X95076909Y-63639008D01*
X94710833Y-64276923D01*
X94654649Y-64712496D01*
X94378467Y-65038158D01*
X93515812Y-66591234D01*
X93290976Y-67291516D01*
X93351242Y-68024533D01*
X93606742Y-68521683D01*
X93079402Y-68739576D01*
X92661045Y-69157203D01*
X92434353Y-69703138D01*
X92433837Y-70294268D01*
X86485649Y-70294268D01*
X86486163Y-69705732D01*
X86260424Y-69159402D01*
X85842797Y-68741045D01*
X85417703Y-68564530D01*
X85696789Y-68101964D01*
X85807076Y-67373103D01*
X85630045Y-66657518D01*
X85225229Y-65927211D01*
X83833058Y-66698904D01*
X84052223Y-66451221D01*
X84122126Y-66248258D01*
X85102087Y-65705057D01*
X84697271Y-64974750D01*
X84272623Y-64536615D01*
X84205760Y-64199067D01*
X83796705Y-63585817D01*
X83184107Y-63175786D01*
X83003389Y-63115774D01*
X82703524Y-63211724D01*
X82637813Y-64175604D01*
X82586282Y-64188960D01*
X82386627Y-64432400D01*
X82368007Y-64398808D01*
X82450112Y-63194448D01*
X82166043Y-63058690D01*
X81978852Y-63093620D01*
X81316274Y-63416718D01*
X80827777Y-63968779D01*
X80587728Y-64665757D01*
X80568003Y-64955085D01*
X81536493Y-65021110D01*
X81388956Y-65265642D01*
X80550727Y-65208497D01*
X80531003Y-65497826D01*
X79332397Y-65497826D01*
X79343258Y-65413631D01*
X79298012Y-64749948D01*
X79105793Y-64040020D01*
X78656528Y-63457691D01*
X78018613Y-63091615D01*
X77289166Y-62997524D01*
X76579238Y-63189743D01*
X75996909Y-63639008D01*
X75630833Y-64276923D01*
X75574649Y-64712496D01*
X75298467Y-65038158D01*
X74435812Y-66591234D01*
X74210976Y-67291516D01*
X74271242Y-68024533D01*
X74526742Y-68521683D01*
X73999402Y-68739576D01*
X73581045Y-69157203D01*
X73354353Y-69703138D01*
X73353837Y-70294268D01*
X70685000Y-70294268D01*
X70685000Y-61567467D01*
X70759437Y-61193250D01*
X70933197Y-60933198D01*
X71193250Y-60759437D01*
X71567467Y-60685000D01*
X145889274Y-60685000D01*
X146188482Y-60724391D01*
M02*
