G04 #@! TF.FileFunction,Soldermask,Bot*
%FSLAX46Y46*%
G04 Gerber Fmt 4.6, Leading zero omitted, Abs format (unit mm)*
G04 Created by KiCad (PCBNEW 4.0.7) date 06/17/18 20:50:59*
%MOMM*%
%LPD*%
G01*
G04 APERTURE LIST*
%ADD10C,0.100000*%
%ADD11C,2.000000*%
%ADD12C,2.600000*%
%ADD13R,2.100000X2.100000*%
%ADD14O,2.100000X2.100000*%
%ADD15R,1.670000X1.370000*%
%ADD16O,2.000000X2.000000*%
%ADD17C,2.000000*%
%ADD18R,2.000000X2.000000*%
%ADD19C,2.900000*%
%ADD20C,4.387810*%
%ADD21C,2.101810*%
%ADD22O,1.924000X1.162000*%
%ADD23C,2.100000*%
G04 APERTURE END LIST*
D10*
D11*
X134500000Y-98500000D03*
X139500000Y-98500000D03*
D10*
G36*
X165421638Y-124689974D02*
X162910231Y-124017045D01*
X163583160Y-121505638D01*
X166094567Y-122178567D01*
X165421638Y-124689974D01*
X165421638Y-124689974D01*
G37*
D12*
X167132000Y-113284000D02*
X167132000Y-113284000D01*
D13*
X168275000Y-81280000D03*
D14*
X168275000Y-83820000D03*
X168275000Y-86360000D03*
X168275000Y-88900000D03*
X168275000Y-91440000D03*
D13*
X180975000Y-91440000D03*
D14*
X180975000Y-88900000D03*
X180975000Y-86360000D03*
X180975000Y-83820000D03*
X180975000Y-81280000D03*
D13*
X170815000Y-108585000D03*
D14*
X173355000Y-108585000D03*
X175895000Y-108585000D03*
X178435000Y-108585000D03*
D15*
X178435000Y-113035000D03*
X178435000Y-111755000D03*
X175895000Y-113035000D03*
X175895000Y-111755000D03*
X173355000Y-113035000D03*
X173355000Y-111755000D03*
X170815000Y-113035000D03*
X170815000Y-111755000D03*
D10*
G36*
X164470787Y-133482862D02*
X164968755Y-131624421D01*
X179844013Y-135610234D01*
X179346045Y-137468675D01*
X164470787Y-133482862D01*
X164470787Y-133482862D01*
G37*
G36*
X163813387Y-135936314D02*
X164311355Y-134077873D01*
X179186613Y-138063686D01*
X178688645Y-139922127D01*
X163813387Y-135936314D01*
X163813387Y-135936314D01*
G37*
D11*
X174625000Y-78105000D03*
D16*
X184785000Y-78105000D03*
D11*
X173736000Y-85852000D03*
D16*
X173736000Y-96012000D03*
D11*
X177292000Y-85852000D03*
D16*
X177292000Y-96012000D03*
D11*
X167005000Y-105410000D03*
D16*
X167005000Y-95250000D03*
D11*
X170815000Y-95250000D03*
D16*
X170815000Y-105410000D03*
D11*
X158496000Y-131064000D03*
D17*
X148682194Y-128434399D02*
X148682194Y-128434399D01*
D18*
X184785000Y-83820000D03*
D16*
X184785000Y-91440000D03*
D19*
X77420276Y-64920672D02*
X77459724Y-65499328D01*
X83110184Y-65999693D02*
X83919816Y-67460307D01*
D20*
X79920000Y-70000000D03*
D21*
X74840000Y-70000000D03*
X85000000Y-70000000D03*
D19*
X76920453Y-66000046D02*
X76109547Y-67459954D01*
X82459724Y-64920672D02*
X82420276Y-65499328D01*
X77420276Y-83920672D02*
X77459724Y-84499328D01*
X83110184Y-84999693D02*
X83919816Y-86460307D01*
D20*
X79920000Y-89000000D03*
D21*
X74840000Y-89000000D03*
X85000000Y-89000000D03*
D19*
X76920453Y-85000046D02*
X76109547Y-86459954D01*
X82459724Y-83920672D02*
X82420276Y-84499328D01*
X77500276Y-102920672D02*
X77539724Y-103499328D01*
X83190184Y-103999693D02*
X83999816Y-105460307D01*
D20*
X80000000Y-108000000D03*
D21*
X74920000Y-108000000D03*
X85080000Y-108000000D03*
D19*
X77000453Y-104000046D02*
X76189547Y-105459954D01*
X82539724Y-102920672D02*
X82500276Y-103499328D01*
X96500276Y-64920672D02*
X96539724Y-65499328D01*
X102190184Y-65999693D02*
X102999816Y-67460307D01*
D20*
X99000000Y-70000000D03*
D21*
X93920000Y-70000000D03*
X104080000Y-70000000D03*
D19*
X96000453Y-66000046D02*
X95189547Y-67459954D01*
X101539724Y-64920672D02*
X101500276Y-65499328D01*
X96420276Y-83920672D02*
X96459724Y-84499328D01*
X102110184Y-84999693D02*
X102919816Y-86460307D01*
D20*
X98920000Y-89000000D03*
D21*
X93840000Y-89000000D03*
X104000000Y-89000000D03*
D19*
X95920453Y-85000046D02*
X95109547Y-86459954D01*
X101459724Y-83920672D02*
X101420276Y-84499328D01*
X96580276Y-102920672D02*
X96619724Y-103499328D01*
X102270184Y-103999693D02*
X103079816Y-105460307D01*
D20*
X99080000Y-108000000D03*
D21*
X94000000Y-108000000D03*
X104160000Y-108000000D03*
D19*
X96080453Y-104000046D02*
X95269547Y-105459954D01*
X101619724Y-102920672D02*
X101580276Y-103499328D01*
X115580276Y-64920672D02*
X115619724Y-65499328D01*
X121270184Y-65999693D02*
X122079816Y-67460307D01*
D20*
X118080000Y-70000000D03*
D21*
X113000000Y-70000000D03*
X123160000Y-70000000D03*
D19*
X115080453Y-66000046D02*
X114269547Y-67459954D01*
X120619724Y-64920672D02*
X120580276Y-65499328D01*
X115420276Y-83920672D02*
X115459724Y-84499328D01*
X121110184Y-84999693D02*
X121919816Y-86460307D01*
D20*
X117920000Y-89000000D03*
D21*
X112840000Y-89000000D03*
X123000000Y-89000000D03*
D19*
X114920453Y-85000046D02*
X114109547Y-86459954D01*
X120459724Y-83920672D02*
X120420276Y-84499328D01*
X115580276Y-102920672D02*
X115619724Y-103499328D01*
X121270184Y-103999693D02*
X122079816Y-105460307D01*
D20*
X118080000Y-108000000D03*
D21*
X113000000Y-108000000D03*
X123160000Y-108000000D03*
D19*
X115080453Y-104000046D02*
X114269547Y-105459954D01*
X120619724Y-102920672D02*
X120580276Y-103499328D01*
X134500276Y-64920672D02*
X134539724Y-65499328D01*
X140190184Y-65999693D02*
X140999816Y-67460307D01*
D20*
X137000000Y-70000000D03*
D21*
X131920000Y-70000000D03*
X142080000Y-70000000D03*
D19*
X134000453Y-66000046D02*
X133189547Y-67459954D01*
X139539724Y-64920672D02*
X139500276Y-65499328D01*
X134420276Y-83920672D02*
X134459724Y-84499328D01*
X140110184Y-84999693D02*
X140919816Y-86460307D01*
D20*
X136920000Y-89000000D03*
D21*
X131840000Y-89000000D03*
X142000000Y-89000000D03*
D19*
X133920453Y-85000046D02*
X133109547Y-86459954D01*
X139459724Y-83920672D02*
X139420276Y-84499328D01*
X134580276Y-102920672D02*
X134619724Y-103499328D01*
X140270184Y-103999693D02*
X141079816Y-105460307D01*
D20*
X137080000Y-108000000D03*
D21*
X132000000Y-108000000D03*
X142160000Y-108000000D03*
D19*
X134080453Y-104000046D02*
X133269547Y-105459954D01*
X139619724Y-102920672D02*
X139580276Y-103499328D01*
X153500276Y-70420672D02*
X153539724Y-70999328D01*
X159190184Y-71499693D02*
X159999816Y-72960307D01*
D20*
X156000000Y-75500000D03*
D21*
X150920000Y-75500000D03*
X161080000Y-75500000D03*
D19*
X153000453Y-71500046D02*
X152189547Y-72959954D01*
X158539724Y-70420672D02*
X158500276Y-70999328D01*
X153500276Y-89420672D02*
X153539724Y-89999328D01*
X159190184Y-90499693D02*
X159999816Y-91960307D01*
D20*
X156000000Y-94500000D03*
D21*
X150920000Y-94500000D03*
X161080000Y-94500000D03*
D19*
X153000453Y-90500046D02*
X152189547Y-91959954D01*
X158539724Y-89420672D02*
X158500276Y-89999328D01*
X154500078Y-114131968D02*
X154388416Y-114701118D01*
X159716837Y-116646879D02*
X160120847Y-118267273D01*
D20*
X155600000Y-119685199D03*
D21*
X150693097Y-118370398D03*
X160506903Y-121000000D03*
D19*
X153737925Y-115045201D02*
X152576797Y-116245485D01*
X159367812Y-115436273D02*
X159179940Y-115985003D01*
X172806981Y-119161570D02*
X172695319Y-119730720D01*
X178023740Y-121676481D02*
X178427750Y-123296875D01*
D20*
X173906903Y-124714801D03*
D21*
X169000000Y-123400000D03*
X178813806Y-126029602D03*
D19*
X172044828Y-120074803D02*
X170883700Y-121275087D01*
X177674715Y-120465875D02*
X177486843Y-121014605D01*
D22*
X182500000Y-104140000D03*
X179500000Y-104140000D03*
X175500000Y-104140000D03*
X174000000Y-100140000D03*
X182500000Y-99140000D03*
X179500000Y-99140000D03*
X175500000Y-99140000D03*
X174000000Y-103140000D03*
D23*
X184000000Y-101140000D03*
X177000000Y-101140000D03*
X184000000Y-102140000D03*
X177000000Y-102140000D03*
M02*
