G04 #@! TF.FileFunction,Copper,L1,Top,Signal*
%FSLAX46Y46*%
G04 Gerber Fmt 4.6, Leading zero omitted, Abs format (unit mm)*
G04 Created by KiCad (PCBNEW 4.0.7) date 06/17/18 20:50:59*
%MOMM*%
%LPD*%
G01*
G04 APERTURE LIST*
%ADD10C,0.100000*%
%ADD11C,1.600000*%
%ADD12C,2.200000*%
%ADD13R,1.700000X1.700000*%
%ADD14O,1.700000X1.700000*%
%ADD15R,1.270000X0.970000*%
%ADD16R,2.000000X3.000000*%
%ADD17R,8.500000X2.000000*%
%ADD18R,1.000000X1.000000*%
%ADD19R,4.000000X1.000000*%
%ADD20R,0.900000X0.800000*%
%ADD21O,1.600000X1.600000*%
%ADD22C,1.600000*%
%ADD23R,1.600000X1.600000*%
%ADD24C,2.500000*%
%ADD25C,3.987810*%
%ADD26C,1.701810*%
%ADD27O,1.524000X0.762000*%
%ADD28C,1.700000*%
%ADD29C,0.600000*%
%ADD30C,0.500000*%
%ADD31C,0.250000*%
%ADD32C,0.254000*%
G04 APERTURE END LIST*
D10*
D11*
X134500000Y-98500000D03*
X139500000Y-98500000D03*
D10*
G36*
X165280216Y-124445025D02*
X163155180Y-123875623D01*
X163724582Y-121750587D01*
X165849618Y-122319989D01*
X165280216Y-124445025D01*
X165280216Y-124445025D01*
G37*
D12*
X167132000Y-113284000D02*
X167132000Y-113284000D01*
D13*
X168275000Y-81280000D03*
D14*
X168275000Y-83820000D03*
X168275000Y-86360000D03*
X168275000Y-88900000D03*
X168275000Y-91440000D03*
D15*
X133350000Y-92075000D03*
X133350000Y-93345000D03*
X133350000Y-94615000D03*
D13*
X180975000Y-91440000D03*
D14*
X180975000Y-88900000D03*
X180975000Y-86360000D03*
X180975000Y-83820000D03*
X180975000Y-81280000D03*
D15*
X136525000Y-92075000D03*
X136525000Y-93345000D03*
X136525000Y-94615000D03*
X170815000Y-113040000D03*
X170815000Y-111760000D03*
X173355000Y-113040000D03*
X173355000Y-111760000D03*
X175895000Y-113040000D03*
X175895000Y-111760000D03*
X139700000Y-92075000D03*
X139700000Y-93345000D03*
X139700000Y-94615000D03*
X178435000Y-113040000D03*
X178435000Y-111760000D03*
D13*
X170815000Y-108585000D03*
D14*
X173355000Y-108585000D03*
X175895000Y-108585000D03*
X178435000Y-108585000D03*
D16*
X149000000Y-112500000D03*
X155000000Y-111000000D03*
X155000000Y-100500000D03*
D17*
X156750000Y-110000000D03*
X147250000Y-110000000D03*
X156750000Y-103000000D03*
D18*
X152000000Y-102500000D03*
X152000000Y-110500000D03*
D16*
X149000000Y-100500000D03*
D19*
X159000000Y-107500000D03*
X145000000Y-105500000D03*
D17*
X147250000Y-103000000D03*
D20*
X165592000Y-111186000D03*
X165592000Y-109286000D03*
X163592000Y-110236000D03*
D11*
X174625000Y-78105000D03*
D21*
X184785000Y-78105000D03*
D11*
X173736000Y-85852000D03*
D21*
X173736000Y-96012000D03*
D11*
X177292000Y-85852000D03*
D21*
X177292000Y-96012000D03*
D11*
X167005000Y-105410000D03*
D21*
X167005000Y-95250000D03*
D11*
X170815000Y-95250000D03*
D21*
X170815000Y-105410000D03*
D11*
X158496000Y-131064000D03*
D22*
X148682194Y-128434399D02*
X148682194Y-128434399D01*
D23*
X184785000Y-83820000D03*
D21*
X184785000Y-91440000D03*
D24*
X77420276Y-64920672D02*
X77459724Y-65499328D01*
X83110184Y-65999693D02*
X83919816Y-67460307D01*
D25*
X79920000Y-70000000D03*
D26*
X74840000Y-70000000D03*
X85000000Y-70000000D03*
D24*
X76920453Y-66000046D02*
X76109547Y-67459954D01*
X82459724Y-64920672D02*
X82420276Y-65499328D01*
X77420276Y-83920672D02*
X77459724Y-84499328D01*
X83110184Y-84999693D02*
X83919816Y-86460307D01*
D25*
X79920000Y-89000000D03*
D26*
X74840000Y-89000000D03*
X85000000Y-89000000D03*
D24*
X76920453Y-85000046D02*
X76109547Y-86459954D01*
X82459724Y-83920672D02*
X82420276Y-84499328D01*
X77500276Y-102920672D02*
X77539724Y-103499328D01*
X83190184Y-103999693D02*
X83999816Y-105460307D01*
D25*
X80000000Y-108000000D03*
D26*
X74920000Y-108000000D03*
X85080000Y-108000000D03*
D24*
X77000453Y-104000046D02*
X76189547Y-105459954D01*
X82539724Y-102920672D02*
X82500276Y-103499328D01*
X96500276Y-64920672D02*
X96539724Y-65499328D01*
X102190184Y-65999693D02*
X102999816Y-67460307D01*
D25*
X99000000Y-70000000D03*
D26*
X93920000Y-70000000D03*
X104080000Y-70000000D03*
D24*
X96000453Y-66000046D02*
X95189547Y-67459954D01*
X101539724Y-64920672D02*
X101500276Y-65499328D01*
X96420276Y-83920672D02*
X96459724Y-84499328D01*
X102110184Y-84999693D02*
X102919816Y-86460307D01*
D25*
X98920000Y-89000000D03*
D26*
X93840000Y-89000000D03*
X104000000Y-89000000D03*
D24*
X95920453Y-85000046D02*
X95109547Y-86459954D01*
X101459724Y-83920672D02*
X101420276Y-84499328D01*
X96580276Y-102920672D02*
X96619724Y-103499328D01*
X102270184Y-103999693D02*
X103079816Y-105460307D01*
D25*
X99080000Y-108000000D03*
D26*
X94000000Y-108000000D03*
X104160000Y-108000000D03*
D24*
X96080453Y-104000046D02*
X95269547Y-105459954D01*
X101619724Y-102920672D02*
X101580276Y-103499328D01*
X115580276Y-64920672D02*
X115619724Y-65499328D01*
X121270184Y-65999693D02*
X122079816Y-67460307D01*
D25*
X118080000Y-70000000D03*
D26*
X113000000Y-70000000D03*
X123160000Y-70000000D03*
D24*
X115080453Y-66000046D02*
X114269547Y-67459954D01*
X120619724Y-64920672D02*
X120580276Y-65499328D01*
X115420276Y-83920672D02*
X115459724Y-84499328D01*
X121110184Y-84999693D02*
X121919816Y-86460307D01*
D25*
X117920000Y-89000000D03*
D26*
X112840000Y-89000000D03*
X123000000Y-89000000D03*
D24*
X114920453Y-85000046D02*
X114109547Y-86459954D01*
X120459724Y-83920672D02*
X120420276Y-84499328D01*
X115580276Y-102920672D02*
X115619724Y-103499328D01*
X121270184Y-103999693D02*
X122079816Y-105460307D01*
D25*
X118080000Y-108000000D03*
D26*
X113000000Y-108000000D03*
X123160000Y-108000000D03*
D24*
X115080453Y-104000046D02*
X114269547Y-105459954D01*
X120619724Y-102920672D02*
X120580276Y-103499328D01*
X134500276Y-64920672D02*
X134539724Y-65499328D01*
X140190184Y-65999693D02*
X140999816Y-67460307D01*
D25*
X137000000Y-70000000D03*
D26*
X131920000Y-70000000D03*
X142080000Y-70000000D03*
D24*
X134000453Y-66000046D02*
X133189547Y-67459954D01*
X139539724Y-64920672D02*
X139500276Y-65499328D01*
X134420276Y-83920672D02*
X134459724Y-84499328D01*
X140110184Y-84999693D02*
X140919816Y-86460307D01*
D25*
X136920000Y-89000000D03*
D26*
X131840000Y-89000000D03*
X142000000Y-89000000D03*
D24*
X133920453Y-85000046D02*
X133109547Y-86459954D01*
X139459724Y-83920672D02*
X139420276Y-84499328D01*
X134580276Y-102920672D02*
X134619724Y-103499328D01*
X140270184Y-103999693D02*
X141079816Y-105460307D01*
D25*
X137080000Y-108000000D03*
D26*
X132000000Y-108000000D03*
X142160000Y-108000000D03*
D24*
X134080453Y-104000046D02*
X133269547Y-105459954D01*
X139619724Y-102920672D02*
X139580276Y-103499328D01*
X153500276Y-70420672D02*
X153539724Y-70999328D01*
X159190184Y-71499693D02*
X159999816Y-72960307D01*
D25*
X156000000Y-75500000D03*
D26*
X150920000Y-75500000D03*
X161080000Y-75500000D03*
D24*
X153000453Y-71500046D02*
X152189547Y-72959954D01*
X158539724Y-70420672D02*
X158500276Y-70999328D01*
X153500276Y-89420672D02*
X153539724Y-89999328D01*
X159190184Y-90499693D02*
X159999816Y-91960307D01*
D25*
X156000000Y-94500000D03*
D26*
X150920000Y-94500000D03*
X161080000Y-94500000D03*
D24*
X153000453Y-90500046D02*
X152189547Y-91959954D01*
X158539724Y-89420672D02*
X158500276Y-89999328D01*
X154500078Y-114131968D02*
X154388416Y-114701118D01*
X159716837Y-116646879D02*
X160120847Y-118267273D01*
D25*
X155600000Y-119685199D03*
D26*
X150693097Y-118370398D03*
X160506903Y-121000000D03*
D24*
X153737925Y-115045201D02*
X152576797Y-116245485D01*
X159367812Y-115436273D02*
X159179940Y-115985003D01*
X172806981Y-119161570D02*
X172695319Y-119730720D01*
X178023740Y-121676481D02*
X178427750Y-123296875D01*
D25*
X173906903Y-124714801D03*
D26*
X169000000Y-123400000D03*
X178813806Y-126029602D03*
D24*
X172044828Y-120074803D02*
X170883700Y-121275087D01*
X177674715Y-120465875D02*
X177486843Y-121014605D01*
D10*
G36*
X128619463Y-102116852D02*
X128357834Y-102378481D01*
X127650727Y-101671374D01*
X127912356Y-101409745D01*
X128619463Y-102116852D01*
X128619463Y-102116852D01*
G37*
G36*
X129079083Y-101657232D02*
X128817454Y-101918861D01*
X128110347Y-101211754D01*
X128371976Y-100950125D01*
X129079083Y-101657232D01*
X129079083Y-101657232D01*
G37*
G36*
X129538702Y-101197613D02*
X129277073Y-101459242D01*
X128569966Y-100752135D01*
X128831595Y-100490506D01*
X129538702Y-101197613D01*
X129538702Y-101197613D01*
G37*
G36*
X129998321Y-100737993D02*
X129736692Y-100999622D01*
X129029585Y-100292515D01*
X129291214Y-100030886D01*
X129998321Y-100737993D01*
X129998321Y-100737993D01*
G37*
G36*
X130457941Y-100278374D02*
X130196312Y-100540003D01*
X129489205Y-99832896D01*
X129750834Y-99571267D01*
X130457941Y-100278374D01*
X130457941Y-100278374D01*
G37*
G36*
X130917560Y-99818755D02*
X130655931Y-100080384D01*
X129948824Y-99373277D01*
X130210453Y-99111648D01*
X130917560Y-99818755D01*
X130917560Y-99818755D01*
G37*
G36*
X131377180Y-99359135D02*
X131115551Y-99620764D01*
X130408444Y-98913657D01*
X130670073Y-98652028D01*
X131377180Y-99359135D01*
X131377180Y-99359135D01*
G37*
G36*
X131115551Y-97379236D02*
X131377180Y-97640865D01*
X130670073Y-98347972D01*
X130408444Y-98086343D01*
X131115551Y-97379236D01*
X131115551Y-97379236D01*
G37*
G36*
X130655931Y-96919616D02*
X130917560Y-97181245D01*
X130210453Y-97888352D01*
X129948824Y-97626723D01*
X130655931Y-96919616D01*
X130655931Y-96919616D01*
G37*
G36*
X130196312Y-96459997D02*
X130457941Y-96721626D01*
X129750834Y-97428733D01*
X129489205Y-97167104D01*
X130196312Y-96459997D01*
X130196312Y-96459997D01*
G37*
G36*
X129736692Y-96000378D02*
X129998321Y-96262007D01*
X129291214Y-96969114D01*
X129029585Y-96707485D01*
X129736692Y-96000378D01*
X129736692Y-96000378D01*
G37*
G36*
X129277073Y-95540758D02*
X129538702Y-95802387D01*
X128831595Y-96509494D01*
X128569966Y-96247865D01*
X129277073Y-95540758D01*
X129277073Y-95540758D01*
G37*
G36*
X128817454Y-95081139D02*
X129079083Y-95342768D01*
X128371976Y-96049875D01*
X128110347Y-95788246D01*
X128817454Y-95081139D01*
X128817454Y-95081139D01*
G37*
G36*
X128357834Y-94621519D02*
X128619463Y-94883148D01*
X127912356Y-95590255D01*
X127650727Y-95328626D01*
X128357834Y-94621519D01*
X128357834Y-94621519D01*
G37*
G36*
X127346671Y-95328626D02*
X127085042Y-95590255D01*
X126377935Y-94883148D01*
X126639564Y-94621519D01*
X127346671Y-95328626D01*
X127346671Y-95328626D01*
G37*
G36*
X126887051Y-95788246D02*
X126625422Y-96049875D01*
X125918315Y-95342768D01*
X126179944Y-95081139D01*
X126887051Y-95788246D01*
X126887051Y-95788246D01*
G37*
G36*
X126427432Y-96247865D02*
X126165803Y-96509494D01*
X125458696Y-95802387D01*
X125720325Y-95540758D01*
X126427432Y-96247865D01*
X126427432Y-96247865D01*
G37*
G36*
X125967813Y-96707485D02*
X125706184Y-96969114D01*
X124999077Y-96262007D01*
X125260706Y-96000378D01*
X125967813Y-96707485D01*
X125967813Y-96707485D01*
G37*
G36*
X125508193Y-97167104D02*
X125246564Y-97428733D01*
X124539457Y-96721626D01*
X124801086Y-96459997D01*
X125508193Y-97167104D01*
X125508193Y-97167104D01*
G37*
G36*
X125048574Y-97626723D02*
X124786945Y-97888352D01*
X124079838Y-97181245D01*
X124341467Y-96919616D01*
X125048574Y-97626723D01*
X125048574Y-97626723D01*
G37*
G36*
X124588954Y-98086343D02*
X124327325Y-98347972D01*
X123620218Y-97640865D01*
X123881847Y-97379236D01*
X124588954Y-98086343D01*
X124588954Y-98086343D01*
G37*
G36*
X124327325Y-98652028D02*
X124588954Y-98913657D01*
X123881847Y-99620764D01*
X123620218Y-99359135D01*
X124327325Y-98652028D01*
X124327325Y-98652028D01*
G37*
G36*
X124786945Y-99111648D02*
X125048574Y-99373277D01*
X124341467Y-100080384D01*
X124079838Y-99818755D01*
X124786945Y-99111648D01*
X124786945Y-99111648D01*
G37*
G36*
X125246564Y-99571267D02*
X125508193Y-99832896D01*
X124801086Y-100540003D01*
X124539457Y-100278374D01*
X125246564Y-99571267D01*
X125246564Y-99571267D01*
G37*
G36*
X125706184Y-100030886D02*
X125967813Y-100292515D01*
X125260706Y-100999622D01*
X124999077Y-100737993D01*
X125706184Y-100030886D01*
X125706184Y-100030886D01*
G37*
G36*
X126165803Y-100490506D02*
X126427432Y-100752135D01*
X125720325Y-101459242D01*
X125458696Y-101197613D01*
X126165803Y-100490506D01*
X126165803Y-100490506D01*
G37*
G36*
X126625422Y-100950125D02*
X126887051Y-101211754D01*
X126179944Y-101918861D01*
X125918315Y-101657232D01*
X126625422Y-100950125D01*
X126625422Y-100950125D01*
G37*
G36*
X127085042Y-101409745D02*
X127346671Y-101671374D01*
X126639564Y-102378481D01*
X126377935Y-102116852D01*
X127085042Y-101409745D01*
X127085042Y-101409745D01*
G37*
G36*
X128250000Y-96246097D02*
X127498699Y-96997398D01*
X126747398Y-96246097D01*
X127498699Y-95494796D01*
X128250000Y-96246097D01*
X128250000Y-96246097D01*
G37*
G36*
X127498699Y-96997398D02*
X126747398Y-97748699D01*
X125996097Y-96997398D01*
X126747398Y-96246097D01*
X127498699Y-96997398D01*
X127498699Y-96997398D01*
G37*
G36*
X126747398Y-97748699D02*
X125996097Y-98500000D01*
X125244796Y-97748699D01*
X125996097Y-96997398D01*
X126747398Y-97748699D01*
X126747398Y-97748699D01*
G37*
G36*
X125996097Y-98500000D02*
X125244796Y-99251301D01*
X124493495Y-98500000D01*
X125244796Y-97748699D01*
X125996097Y-98500000D01*
X125996097Y-98500000D01*
G37*
G36*
X129001301Y-96997398D02*
X128250000Y-97748699D01*
X127498699Y-96997398D01*
X128250000Y-96246097D01*
X129001301Y-96997398D01*
X129001301Y-96997398D01*
G37*
G36*
X128250000Y-97748699D02*
X127498699Y-98500000D01*
X126747398Y-97748699D01*
X127498699Y-96997398D01*
X128250000Y-97748699D01*
X128250000Y-97748699D01*
G37*
G36*
X127498699Y-98500000D02*
X126747398Y-99251301D01*
X125996097Y-98500000D01*
X126747398Y-97748699D01*
X127498699Y-98500000D01*
X127498699Y-98500000D01*
G37*
G36*
X126747398Y-99251301D02*
X125996097Y-100002602D01*
X125244796Y-99251301D01*
X125996097Y-98500000D01*
X126747398Y-99251301D01*
X126747398Y-99251301D01*
G37*
G36*
X129752602Y-97748699D02*
X129001301Y-98500000D01*
X128250000Y-97748699D01*
X129001301Y-96997398D01*
X129752602Y-97748699D01*
X129752602Y-97748699D01*
G37*
G36*
X129001301Y-98500000D02*
X128250000Y-99251301D01*
X127498699Y-98500000D01*
X128250000Y-97748699D01*
X129001301Y-98500000D01*
X129001301Y-98500000D01*
G37*
G36*
X128250000Y-99251301D02*
X127498699Y-100002602D01*
X126747398Y-99251301D01*
X127498699Y-98500000D01*
X128250000Y-99251301D01*
X128250000Y-99251301D01*
G37*
G36*
X127498699Y-100002602D02*
X126747398Y-100753903D01*
X125996097Y-100002602D01*
X126747398Y-99251301D01*
X127498699Y-100002602D01*
X127498699Y-100002602D01*
G37*
G36*
X130503903Y-98500000D02*
X129752602Y-99251301D01*
X129001301Y-98500000D01*
X129752602Y-97748699D01*
X130503903Y-98500000D01*
X130503903Y-98500000D01*
G37*
G36*
X129752602Y-99251301D02*
X129001301Y-100002602D01*
X128250000Y-99251301D01*
X129001301Y-98500000D01*
X129752602Y-99251301D01*
X129752602Y-99251301D01*
G37*
G36*
X129001301Y-100002602D02*
X128250000Y-100753903D01*
X127498699Y-100002602D01*
X128250000Y-99251301D01*
X129001301Y-100002602D01*
X129001301Y-100002602D01*
G37*
G36*
X128250000Y-100753903D02*
X127498699Y-101505204D01*
X126747398Y-100753903D01*
X127498699Y-100002602D01*
X128250000Y-100753903D01*
X128250000Y-100753903D01*
G37*
D27*
X182500000Y-104140000D03*
X179500000Y-104140000D03*
X175500000Y-104140000D03*
X174000000Y-100140000D03*
X182500000Y-99140000D03*
X179500000Y-99140000D03*
X175500000Y-99140000D03*
X174000000Y-103140000D03*
D28*
X184000000Y-101140000D03*
X177000000Y-101140000D03*
X184000000Y-102140000D03*
X177000000Y-102140000D03*
D29*
X178435000Y-114681000D03*
X165608000Y-107696000D03*
X139700000Y-95758000D03*
X135890000Y-96012000D03*
X131445000Y-94488000D03*
X175895000Y-114808000D03*
X130937000Y-92329000D03*
X177165000Y-107061000D03*
X132715000Y-97790000D03*
X184150000Y-94615000D03*
X173101000Y-106299000D03*
X133858000Y-96749989D03*
D30*
X178435000Y-113040000D02*
X178435000Y-114681000D01*
X158520000Y-89710000D02*
X158520000Y-73305000D01*
X158520000Y-73305000D02*
X159595000Y-72230000D01*
X134500000Y-98500000D02*
X135299999Y-97700001D01*
X135299999Y-97700001D02*
X137757999Y-97700001D01*
X137757999Y-97700001D02*
X139700000Y-95758000D01*
X165592000Y-109286000D02*
X165592000Y-107712000D01*
X165592000Y-107712000D02*
X165608000Y-107696000D01*
D31*
X130433192Y-99596016D02*
X130857455Y-100020279D01*
X130857455Y-100020279D02*
X131399731Y-100020279D01*
X131399731Y-100020279D02*
X131450226Y-100070774D01*
D30*
X132929226Y-100070774D02*
X131450226Y-100070774D01*
X132929226Y-100070774D02*
X133700001Y-99299999D01*
X133700001Y-99299999D02*
X134500000Y-98500000D01*
X139700000Y-94615000D02*
X139700000Y-95758000D01*
X136525000Y-94615000D02*
X136525000Y-95377000D01*
X136525000Y-95377000D02*
X135890000Y-96012000D01*
X133350000Y-94615000D02*
X131572000Y-94615000D01*
X131572000Y-94615000D02*
X131445000Y-94488000D01*
X174000000Y-100140000D02*
X174000000Y-103140000D01*
X175895000Y-113040000D02*
X175895000Y-114808000D01*
X181229000Y-113665000D02*
X181229000Y-106292000D01*
X175895000Y-114808000D02*
X176784000Y-115697000D01*
X181229000Y-106292000D02*
X182500000Y-105021000D01*
X176784000Y-115697000D02*
X179197000Y-115697000D01*
X179197000Y-115697000D02*
X181229000Y-113665000D01*
X182500000Y-105021000D02*
X182500000Y-104140000D01*
X140299999Y-97700001D02*
X142875000Y-97700001D01*
X142875000Y-97700001D02*
X160173499Y-97700001D01*
X139700000Y-92075000D02*
X140835000Y-92075000D01*
X140835000Y-92075000D02*
X142875000Y-94115000D01*
X142875000Y-94115000D02*
X142875000Y-97700001D01*
X164274500Y-93599000D02*
X177466000Y-93599000D01*
X177466000Y-93599000D02*
X179625000Y-91440000D01*
X179625000Y-91440000D02*
X180975000Y-91440000D01*
X163131500Y-94742000D02*
X164274500Y-93599000D01*
X160173499Y-97700001D02*
X163131500Y-94742000D01*
X139500000Y-98500000D02*
X140299999Y-97700001D01*
D31*
X129973573Y-100055635D02*
X130397836Y-100479898D01*
X130397836Y-100479898D02*
X130451898Y-100479898D01*
X130451898Y-100479898D02*
X130937000Y-100965000D01*
D30*
X134132096Y-100965000D02*
X130937000Y-100965000D01*
X139500000Y-98500000D02*
X136597096Y-98500000D01*
X136597096Y-98500000D02*
X134132096Y-100965000D01*
X136525000Y-92075000D02*
X139700000Y-92075000D01*
X133350000Y-92075000D02*
X136525000Y-92075000D01*
X182500000Y-94616000D02*
X180975000Y-93091000D01*
X180975000Y-93091000D02*
X180975000Y-91440000D01*
X182500000Y-99140000D02*
X182500000Y-94616000D01*
X177292000Y-85852000D02*
X177292000Y-80772000D01*
X177292000Y-80772000D02*
X174625000Y-78105000D01*
X177292000Y-85852000D02*
X177292000Y-89107000D01*
X177292000Y-89107000D02*
X179625000Y-91440000D01*
X173736000Y-85852000D02*
X177292000Y-85852000D01*
X182500000Y-104140000D02*
X182500000Y-99140000D01*
X180975000Y-81280000D02*
X182275001Y-82580001D01*
X182275001Y-82580001D02*
X182402001Y-82580001D01*
X182402001Y-82580001D02*
X182753000Y-82931000D01*
X182753000Y-82931000D02*
X182753000Y-86487000D01*
X182753000Y-86487000D02*
X183261000Y-86995000D01*
X185928000Y-100330000D02*
X185928000Y-103505000D01*
X183261000Y-86995000D02*
X183261000Y-92202000D01*
X182372000Y-107061000D02*
X182372000Y-115316000D01*
X183261000Y-92202000D02*
X185293000Y-94234000D01*
X185928000Y-103505000D02*
X182372000Y-107061000D01*
X185293000Y-94234000D02*
X185293000Y-99695000D01*
X170506205Y-117094000D02*
X164502399Y-123097806D01*
X185293000Y-99695000D02*
X185928000Y-100330000D01*
X182372000Y-115316000D02*
X180594000Y-117094000D01*
X180594000Y-117094000D02*
X170506205Y-117094000D01*
X163533544Y-122128951D02*
X164502399Y-123097806D01*
X147500000Y-105500000D02*
X150549999Y-108549999D01*
X150549999Y-108549999D02*
X161360001Y-108549999D01*
X161360001Y-108549999D02*
X162691999Y-109881997D01*
X162691999Y-109881997D02*
X162691999Y-121287406D01*
X145000000Y-105500000D02*
X147500000Y-105500000D01*
X162691999Y-121287406D02*
X163533544Y-122128951D01*
D31*
X163592000Y-109842000D02*
X163592000Y-110236000D01*
X161250000Y-107500000D02*
X163592000Y-109842000D01*
X159000000Y-107500000D02*
X161250000Y-107500000D01*
X165354000Y-113284000D02*
X163592000Y-111522000D01*
X163592000Y-111522000D02*
X163592000Y-110236000D01*
X167132000Y-113284000D02*
X165354000Y-113284000D01*
X128135095Y-95105887D02*
X130911982Y-92329000D01*
X130911982Y-92329000D02*
X130937000Y-92329000D01*
X184785000Y-78105000D02*
X182880000Y-76200000D01*
X182880000Y-76200000D02*
X173990000Y-76200000D01*
X173990000Y-76200000D02*
X171958000Y-78232000D01*
X171958000Y-78232000D02*
X171958000Y-87757000D01*
X171958000Y-87757000D02*
X168275000Y-91440000D01*
X184785000Y-78105000D02*
X184785000Y-83820000D01*
X133350000Y-93345000D02*
X130815222Y-93345000D01*
X130815222Y-93345000D02*
X128594715Y-95565507D01*
X177165000Y-107061000D02*
X177165000Y-105424000D01*
X177165000Y-105424000D02*
X175881000Y-104140000D01*
X175881000Y-104140000D02*
X175500000Y-104140000D01*
X174625000Y-112655000D02*
X174625000Y-105646000D01*
X174625000Y-105646000D02*
X175500000Y-104771000D01*
X175500000Y-104771000D02*
X175500000Y-104140000D01*
X173355000Y-113040000D02*
X174240000Y-113040000D01*
X174240000Y-113040000D02*
X174625000Y-112655000D01*
X131347416Y-97409000D02*
X132334000Y-97409000D01*
X132334000Y-97409000D02*
X132715000Y-97790000D01*
X130892812Y-97863604D02*
X131347416Y-97409000D01*
X175500000Y-99140000D02*
X175500000Y-104140000D01*
X173736000Y-96012000D02*
X175500000Y-97776000D01*
X175500000Y-97776000D02*
X175500000Y-99140000D01*
X181824999Y-87209999D02*
X180975000Y-86360000D01*
X182685989Y-88070989D02*
X181824999Y-87209999D01*
X182685989Y-93150989D02*
X182685989Y-88070989D01*
X184150000Y-94615000D02*
X182685989Y-93150989D01*
X172085000Y-112655000D02*
X172085000Y-107315000D01*
X172085000Y-107315000D02*
X173101000Y-106299000D01*
X170815000Y-113040000D02*
X171700000Y-113040000D01*
X171700000Y-113040000D02*
X172085000Y-112655000D01*
X133433736Y-96749989D02*
X133858000Y-96749989D01*
X130433192Y-97403984D02*
X131087187Y-96749989D01*
X131087187Y-96749989D02*
X133433736Y-96749989D01*
X177292000Y-96012000D02*
X179500000Y-98220000D01*
X179500000Y-98220000D02*
X179500000Y-99140000D01*
X179500000Y-99140000D02*
X179500000Y-104140000D01*
X134874000Y-94107000D02*
X135636000Y-93345000D01*
X135636000Y-93345000D02*
X136525000Y-93345000D01*
X134874000Y-94996000D02*
X134874000Y-94107000D01*
X129054334Y-96025126D02*
X129478597Y-95600863D01*
X129478597Y-95600863D02*
X134269137Y-95600863D01*
X134269137Y-95600863D02*
X134874000Y-94996000D01*
X170815000Y-111760000D02*
X170815000Y-111025000D01*
X170815000Y-111025000D02*
X170815000Y-108585000D01*
X173355000Y-111760000D02*
X173355000Y-108585000D01*
X175895000Y-111760000D02*
X175895000Y-108585000D01*
X138815000Y-93345000D02*
X139700000Y-93345000D01*
X136534998Y-96637002D02*
X138176000Y-94996000D01*
X135589998Y-96637002D02*
X136534998Y-96637002D01*
X138176000Y-94996000D02*
X138176000Y-93984000D01*
X135013479Y-96060483D02*
X135589998Y-96637002D01*
X129938216Y-96060483D02*
X135013479Y-96060483D01*
X129513953Y-96484746D02*
X129938216Y-96060483D01*
X138176000Y-93984000D02*
X138815000Y-93345000D01*
X178435000Y-111760000D02*
X178435000Y-111025000D01*
X178435000Y-111025000D02*
X178435000Y-108585000D01*
X165592000Y-111186000D02*
X165642000Y-111186000D01*
X165642000Y-111186000D02*
X167005000Y-109823000D01*
X167005000Y-109823000D02*
X167005000Y-106541370D01*
X167005000Y-106541370D02*
X167005000Y-105410000D01*
X167005000Y-105923000D02*
X167005000Y-105410000D01*
X167005000Y-105410000D02*
X170815000Y-105410000D01*
X124564206Y-99596016D02*
X124084222Y-100076000D01*
X124084222Y-100076000D02*
X123444000Y-100076000D01*
X123444000Y-100076000D02*
X120650000Y-97282000D01*
X117348000Y-82804000D02*
X110744000Y-76200000D01*
X120650000Y-97282000D02*
X120650000Y-88138000D01*
X76515000Y-72451000D02*
X76515000Y-66730000D01*
X120650000Y-88138000D02*
X117348000Y-84836000D01*
X117348000Y-84836000D02*
X117348000Y-82804000D01*
X110744000Y-76200000D02*
X80264000Y-76200000D01*
X80264000Y-76200000D02*
X76515000Y-72451000D01*
X95504000Y-100076000D02*
X90932000Y-95504000D01*
X90932000Y-95504000D02*
X81280000Y-95504000D01*
X121534767Y-100076000D02*
X95504000Y-100076000D01*
X76515000Y-90739000D02*
X76515000Y-87739178D01*
X125491905Y-101426033D02*
X122884800Y-101426033D01*
X76515000Y-87739178D02*
X76515000Y-85730000D01*
X125943064Y-100974874D02*
X125491905Y-101426033D01*
X122884800Y-101426033D02*
X121534767Y-100076000D01*
X81280000Y-95504000D02*
X76515000Y-90739000D01*
X77520000Y-103210000D02*
X79384000Y-101346000D01*
X88011000Y-100965000D02*
X88392000Y-101346000D01*
X79384000Y-101346000D02*
X79384000Y-101337000D01*
X79384000Y-101337000D02*
X79756000Y-100965000D01*
X121406356Y-100584000D02*
X122698400Y-101876044D01*
X79756000Y-100965000D02*
X88011000Y-100965000D01*
X88392000Y-101346000D02*
X90932000Y-101346000D01*
X90932000Y-101346000D02*
X91694000Y-100584000D01*
X91694000Y-100584000D02*
X121406356Y-100584000D01*
X122698400Y-101876044D02*
X125961132Y-101876044D01*
X125961132Y-101876044D02*
X126402683Y-101434493D01*
X95595000Y-68739178D02*
X95595000Y-66730000D01*
X95595000Y-72227000D02*
X95595000Y-68739178D01*
X114808000Y-74930000D02*
X98298000Y-74930000D01*
X124460000Y-90170000D02*
X124460000Y-84582000D01*
X122485991Y-97517801D02*
X122485991Y-92144009D01*
X124460000Y-84582000D02*
X114808000Y-74930000D01*
X122485991Y-92144009D02*
X124460000Y-90170000D01*
X124104586Y-99136396D02*
X122485991Y-97517801D01*
X98298000Y-74930000D02*
X95595000Y-72227000D01*
X103632000Y-99568000D02*
X95515000Y-91451000D01*
X123071200Y-100976022D02*
X121663178Y-99568000D01*
X95515000Y-91451000D02*
X95515000Y-87739178D01*
X121663178Y-99568000D02*
X103632000Y-99568000D01*
X125022677Y-100976022D02*
X123071200Y-100976022D01*
X125483445Y-100515254D02*
X125022677Y-100976022D01*
X95515000Y-87739178D02*
X95515000Y-85730000D01*
X97674531Y-102135469D02*
X96600000Y-103210000D01*
X121277945Y-101092000D02*
X98718000Y-101092000D01*
X126430361Y-102326055D02*
X122512000Y-102326055D01*
X98718000Y-101092000D02*
X97674531Y-102135469D01*
X126862303Y-101894113D02*
X126430361Y-102326055D01*
X122512000Y-102326055D02*
X121277945Y-101092000D01*
X114675000Y-73654000D02*
X114675000Y-68739178D01*
X125095000Y-90294180D02*
X125095000Y-84074000D01*
X123247989Y-92141191D02*
X125095000Y-90294180D01*
X123247989Y-97007007D02*
X123247989Y-92141191D01*
X124104586Y-97863604D02*
X123247989Y-97007007D01*
X114675000Y-68739178D02*
X114675000Y-66730000D01*
X125095000Y-84074000D02*
X114675000Y-73654000D01*
X114515000Y-87739178D02*
X114515000Y-85730000D01*
X114515000Y-91655000D02*
X114515000Y-87739178D01*
X120199989Y-97339989D02*
X114515000Y-91655000D01*
X123257600Y-100526011D02*
X120199989Y-97468400D01*
X125023825Y-100055635D02*
X124553449Y-100526011D01*
X124553449Y-100526011D02*
X123257600Y-100526011D01*
X120199989Y-97468400D02*
X120199989Y-97339989D01*
X123698000Y-110998000D02*
X117646018Y-110998000D01*
X117646018Y-110998000D02*
X114675000Y-108026982D01*
X114675000Y-108026982D02*
X114675000Y-106739178D01*
X114675000Y-106739178D02*
X114675000Y-104730000D01*
X129540000Y-105156000D02*
X123698000Y-110998000D01*
X129540000Y-103299018D02*
X129540000Y-105156000D01*
X128135095Y-101894113D02*
X129540000Y-103299018D01*
X125914989Y-81982600D02*
X133595000Y-74302589D01*
X133595000Y-74302589D02*
X133595000Y-68739178D01*
X125914989Y-90110601D02*
X125914989Y-81982600D01*
X123698000Y-96537778D02*
X123698000Y-92327590D01*
X123698000Y-92327590D02*
X125914989Y-90110601D01*
X124564206Y-97403984D02*
X123698000Y-96537778D01*
X133595000Y-68739178D02*
X133595000Y-66730000D01*
X127000000Y-88900000D02*
X130170000Y-85730000D01*
X130170000Y-85730000D02*
X133515000Y-85730000D01*
X127000000Y-90424000D02*
X127000000Y-88900000D01*
X125059182Y-92364818D02*
X127000000Y-90424000D01*
X125483445Y-96484746D02*
X125059182Y-96060483D01*
X125059182Y-96060483D02*
X125059182Y-92364818D01*
X129513953Y-100515254D02*
X133675000Y-104676301D01*
X133675000Y-104676301D02*
X133675000Y-104730000D01*
X147099000Y-72230000D02*
X152595000Y-72230000D01*
X146177000Y-73152000D02*
X147099000Y-72230000D01*
X126365000Y-82169000D02*
X135382000Y-73152000D01*
X126365000Y-90297000D02*
X126365000Y-82169000D01*
X124206000Y-92456000D02*
X126365000Y-90297000D01*
X124587102Y-96520102D02*
X124206000Y-96139000D01*
X124206000Y-96139000D02*
X124206000Y-92456000D01*
X124599562Y-96520102D02*
X124587102Y-96520102D01*
X135382000Y-73152000D02*
X146177000Y-73152000D01*
X125023825Y-96944365D02*
X124599562Y-96520102D01*
X125943064Y-96025126D02*
X125518801Y-95600863D01*
X137160000Y-83058000D02*
X138557000Y-81661000D01*
X125518801Y-95600863D02*
X125518801Y-92667199D01*
X125518801Y-92667199D02*
X127508000Y-90678000D01*
X127508000Y-90678000D02*
X132334000Y-90678000D01*
X132334000Y-90678000D02*
X133985000Y-89027000D01*
X133985000Y-89027000D02*
X133985000Y-88138000D01*
X133985000Y-88138000D02*
X137160000Y-84963000D01*
X137160000Y-84963000D02*
X137160000Y-83058000D01*
X138557000Y-81661000D02*
X145471000Y-81661000D01*
X145471000Y-81661000D02*
X153520000Y-89710000D01*
X141478000Y-110744000D02*
X146379343Y-115645343D01*
X146379343Y-115645343D02*
X153157361Y-115645343D01*
X132842000Y-110744000D02*
X141478000Y-110744000D01*
X130556000Y-108458000D02*
X132842000Y-110744000D01*
X130556000Y-107188000D02*
X130556000Y-108458000D01*
X130810000Y-106934000D02*
X130556000Y-107188000D01*
X129054334Y-100974874D02*
X130810000Y-102730540D01*
X130810000Y-102730540D02*
X130810000Y-106934000D01*
X169418000Y-125730000D02*
X171464264Y-123683736D01*
X171464264Y-123683736D02*
X171464264Y-120674945D01*
X155702000Y-125730000D02*
X169418000Y-125730000D01*
X141224000Y-111252000D02*
X155702000Y-125730000D01*
X132588000Y-111252000D02*
X141224000Y-111252000D01*
X130048000Y-108712000D02*
X132588000Y-111252000D01*
X130048000Y-106680000D02*
X130048000Y-108712000D01*
X130302000Y-106426000D02*
X130048000Y-106680000D01*
X130302000Y-103124000D02*
X130302000Y-106426000D01*
X129036756Y-101858756D02*
X130302000Y-103124000D01*
X128594715Y-101434493D02*
X129018978Y-101858756D01*
X129018978Y-101858756D02*
X129036756Y-101858756D01*
D32*
G36*
X146188482Y-60724391D02*
X185793525Y-71336531D01*
X186134899Y-71505620D01*
X186340707Y-71741126D01*
X186455554Y-72081405D01*
X186460819Y-72162824D01*
X186460819Y-99611240D01*
X186178000Y-99328420D01*
X186178000Y-94234005D01*
X186178001Y-94234000D01*
X186110633Y-93895326D01*
X186110633Y-93895325D01*
X185918790Y-93608210D01*
X185918787Y-93608208D01*
X185140010Y-92829431D01*
X185522423Y-92671041D01*
X185937389Y-92295134D01*
X186176914Y-91789041D01*
X186055629Y-91567000D01*
X184912000Y-91567000D01*
X184912000Y-91587000D01*
X184658000Y-91587000D01*
X184658000Y-91567000D01*
X184638000Y-91567000D01*
X184638000Y-91313000D01*
X184658000Y-91313000D01*
X184658000Y-90170085D01*
X184912000Y-90170085D01*
X184912000Y-91313000D01*
X186055629Y-91313000D01*
X186176914Y-91090959D01*
X185937389Y-90584866D01*
X185522423Y-90208959D01*
X185134039Y-90048096D01*
X184912000Y-90170085D01*
X184658000Y-90170085D01*
X184435961Y-90048096D01*
X184146000Y-90168194D01*
X184146000Y-86995000D01*
X184078633Y-86656325D01*
X183886790Y-86369210D01*
X183886787Y-86369208D01*
X183638000Y-86120421D01*
X183638000Y-85151445D01*
X183733110Y-85216431D01*
X183985000Y-85267440D01*
X185585000Y-85267440D01*
X185820317Y-85223162D01*
X186036441Y-85084090D01*
X186181431Y-84871890D01*
X186232440Y-84620000D01*
X186232440Y-83020000D01*
X186188162Y-82784683D01*
X186049090Y-82568559D01*
X185836890Y-82423569D01*
X185585000Y-82372560D01*
X185545000Y-82372560D01*
X185545000Y-79308667D01*
X185827811Y-79119698D01*
X186138880Y-78654151D01*
X186248113Y-78105000D01*
X186138880Y-77555849D01*
X185827811Y-77090302D01*
X185362264Y-76779233D01*
X184813113Y-76670000D01*
X184756887Y-76670000D01*
X184479898Y-76725096D01*
X183417401Y-75662599D01*
X183170839Y-75497852D01*
X182880000Y-75440000D01*
X173990000Y-75440000D01*
X173699161Y-75497852D01*
X173452599Y-75662599D01*
X171420599Y-77694599D01*
X171255852Y-77941161D01*
X171198000Y-78232000D01*
X171198000Y-87442198D01*
X169780981Y-88859217D01*
X169676054Y-88331715D01*
X169354147Y-87849946D01*
X169024974Y-87630000D01*
X169354147Y-87410054D01*
X169676054Y-86928285D01*
X169789093Y-86360000D01*
X169676054Y-85791715D01*
X169354147Y-85309946D01*
X169013447Y-85082298D01*
X169156358Y-85015183D01*
X169546645Y-84586924D01*
X169716476Y-84176890D01*
X169595155Y-83947000D01*
X168402000Y-83947000D01*
X168402000Y-83967000D01*
X168148000Y-83967000D01*
X168148000Y-83947000D01*
X166954845Y-83947000D01*
X166833524Y-84176890D01*
X167003355Y-84586924D01*
X167393642Y-85015183D01*
X167536553Y-85082298D01*
X167195853Y-85309946D01*
X166873946Y-85791715D01*
X166760907Y-86360000D01*
X166873946Y-86928285D01*
X167195853Y-87410054D01*
X167525026Y-87630000D01*
X167195853Y-87849946D01*
X166873946Y-88331715D01*
X166760907Y-88900000D01*
X166873946Y-89468285D01*
X167195853Y-89950054D01*
X167525026Y-90170000D01*
X167195853Y-90389946D01*
X166873946Y-90871715D01*
X166760907Y-91440000D01*
X166873946Y-92008285D01*
X167195853Y-92490054D01*
X167531013Y-92714000D01*
X164274505Y-92714000D01*
X164274500Y-92713999D01*
X163935825Y-92781367D01*
X163648710Y-92973210D01*
X163648708Y-92973213D01*
X162522313Y-94099607D01*
X162340424Y-93659402D01*
X161922797Y-93241045D01*
X161497703Y-93064530D01*
X161776789Y-92601964D01*
X161887076Y-91873103D01*
X161710045Y-91157518D01*
X161305229Y-90427211D01*
X159913058Y-91198904D01*
X160132223Y-90951221D01*
X160202126Y-90748258D01*
X161182087Y-90205057D01*
X160777271Y-89474750D01*
X160352623Y-89036615D01*
X160285760Y-88699067D01*
X159876705Y-88085817D01*
X159264107Y-87675786D01*
X159083389Y-87615774D01*
X158783524Y-87711724D01*
X158717813Y-88675604D01*
X158666282Y-88688960D01*
X158466627Y-88932400D01*
X158448007Y-88898808D01*
X158530112Y-87694448D01*
X158246043Y-87558690D01*
X158058852Y-87593620D01*
X157396274Y-87916718D01*
X156907777Y-88468779D01*
X156667728Y-89165757D01*
X156648003Y-89455085D01*
X157616493Y-89521110D01*
X157468956Y-89765642D01*
X156630727Y-89708497D01*
X156611003Y-89997826D01*
X156754240Y-90720933D01*
X157163295Y-91334183D01*
X157694680Y-91689855D01*
X157884771Y-92032789D01*
X158512670Y-91684739D01*
X158509888Y-91725552D01*
X158753192Y-91841828D01*
X158007913Y-92254943D01*
X158412729Y-92985250D01*
X158925767Y-93514583D01*
X159602320Y-93807292D01*
X159757714Y-93809721D01*
X159594353Y-94203138D01*
X159593837Y-94794268D01*
X159819576Y-95340598D01*
X160237203Y-95758955D01*
X160679364Y-95942556D01*
X159806919Y-96815001D01*
X157281433Y-96815001D01*
X157487209Y-96729976D01*
X158227377Y-95991099D01*
X158628447Y-95025216D01*
X158629360Y-93979373D01*
X158229976Y-93012791D01*
X157491099Y-92272623D01*
X156525216Y-91871553D01*
X155479373Y-91870640D01*
X154512791Y-92270024D01*
X153772623Y-93008901D01*
X153371553Y-93974784D01*
X153370640Y-95020627D01*
X153770024Y-95987209D01*
X154508901Y-96727377D01*
X154719923Y-96815001D01*
X143760000Y-96815001D01*
X143760000Y-94115005D01*
X143760001Y-94115000D01*
X143692633Y-93776326D01*
X143692633Y-93776325D01*
X143500790Y-93489210D01*
X143500787Y-93489208D01*
X141460790Y-91449210D01*
X141444013Y-91438000D01*
X141173675Y-91257367D01*
X141117484Y-91246190D01*
X140835000Y-91189999D01*
X140834995Y-91190000D01*
X140832191Y-91190000D01*
X140799090Y-91138559D01*
X140586890Y-90993569D01*
X140335000Y-90942560D01*
X139065000Y-90942560D01*
X138829683Y-90986838D01*
X138613559Y-91125910D01*
X138569768Y-91190000D01*
X138447255Y-91190000D01*
X139147377Y-90491099D01*
X139548447Y-89525216D01*
X139549360Y-88479373D01*
X139149976Y-87512791D01*
X138411099Y-86772623D01*
X137445216Y-86371553D01*
X136826789Y-86371013D01*
X137697401Y-85500401D01*
X137779097Y-85378134D01*
X138083295Y-85834183D01*
X138614680Y-86189855D01*
X138804771Y-86532789D01*
X139432670Y-86184739D01*
X139429888Y-86225552D01*
X139673192Y-86341828D01*
X138927913Y-86754943D01*
X139332729Y-87485250D01*
X139845767Y-88014583D01*
X140522320Y-88307292D01*
X140677714Y-88309721D01*
X140514353Y-88703138D01*
X140513837Y-89294268D01*
X140739576Y-89840598D01*
X141157203Y-90258955D01*
X141703138Y-90485647D01*
X142294268Y-90486163D01*
X142840598Y-90260424D01*
X143258955Y-89842797D01*
X143485647Y-89296862D01*
X143486163Y-88705732D01*
X143260424Y-88159402D01*
X142842797Y-87741045D01*
X142417703Y-87564530D01*
X142696789Y-87101964D01*
X142807076Y-86373103D01*
X142630045Y-85657518D01*
X142225229Y-84927211D01*
X140833058Y-85698904D01*
X141052223Y-85451221D01*
X141122126Y-85248258D01*
X142102087Y-84705057D01*
X141697271Y-83974750D01*
X141272623Y-83536615D01*
X141205760Y-83199067D01*
X140796705Y-82585817D01*
X140550464Y-82421000D01*
X145156198Y-82421000D01*
X151688130Y-88952932D01*
X151654649Y-89212496D01*
X151378467Y-89538158D01*
X150515812Y-91091234D01*
X150290976Y-91791516D01*
X150351242Y-92524533D01*
X150606742Y-93021683D01*
X150079402Y-93239576D01*
X149661045Y-93657203D01*
X149434353Y-94203138D01*
X149433837Y-94794268D01*
X149659576Y-95340598D01*
X150077203Y-95758955D01*
X150623138Y-95985647D01*
X151214268Y-95986163D01*
X151760598Y-95760424D01*
X152178955Y-95342797D01*
X152405647Y-94796862D01*
X152406163Y-94205732D01*
X152260658Y-93853582D01*
X152681667Y-93818968D01*
X153335825Y-93482777D01*
X153811532Y-92921842D01*
X154542862Y-91605197D01*
X154963091Y-91280992D01*
X155329167Y-90643078D01*
X155423258Y-89913631D01*
X155378012Y-89249948D01*
X155185793Y-88540020D01*
X154736528Y-87957691D01*
X154098613Y-87591615D01*
X153369166Y-87497524D01*
X152659238Y-87689743D01*
X152611429Y-87726627D01*
X146008401Y-81123599D01*
X145761839Y-80958852D01*
X145471000Y-80901000D01*
X138557000Y-80901000D01*
X138266160Y-80958852D01*
X138019599Y-81123599D01*
X136622599Y-82520599D01*
X136457852Y-82767161D01*
X136400000Y-83058000D01*
X136400000Y-84648198D01*
X136300118Y-84748080D01*
X136343258Y-84413631D01*
X136298012Y-83749948D01*
X136105793Y-83040020D01*
X135656528Y-82457691D01*
X135018613Y-82091615D01*
X134289166Y-81997524D01*
X133579238Y-82189743D01*
X132996909Y-82639008D01*
X132630833Y-83276923D01*
X132574649Y-83712496D01*
X132298467Y-84038158D01*
X131780876Y-84970000D01*
X130170000Y-84970000D01*
X129879161Y-85027852D01*
X129632599Y-85192599D01*
X127125000Y-87700198D01*
X127125000Y-82483802D01*
X129178802Y-80430000D01*
X166777560Y-80430000D01*
X166777560Y-82130000D01*
X166821838Y-82365317D01*
X166960910Y-82581441D01*
X167173110Y-82726431D01*
X167281107Y-82748301D01*
X167003355Y-83053076D01*
X166833524Y-83463110D01*
X166954845Y-83693000D01*
X168148000Y-83693000D01*
X168148000Y-83673000D01*
X168402000Y-83673000D01*
X168402000Y-83693000D01*
X169595155Y-83693000D01*
X169716476Y-83463110D01*
X169546645Y-83053076D01*
X169270499Y-82750063D01*
X169360317Y-82733162D01*
X169576441Y-82594090D01*
X169721431Y-82381890D01*
X169772440Y-82130000D01*
X169772440Y-80430000D01*
X169728162Y-80194683D01*
X169589090Y-79978559D01*
X169376890Y-79833569D01*
X169125000Y-79782560D01*
X167425000Y-79782560D01*
X167189683Y-79826838D01*
X166973559Y-79965910D01*
X166828569Y-80178110D01*
X166777560Y-80430000D01*
X129178802Y-80430000D01*
X135696802Y-73912000D01*
X146177000Y-73912000D01*
X146467839Y-73854148D01*
X146714401Y-73689401D01*
X147413802Y-72990000D01*
X150307295Y-72990000D01*
X150351242Y-73524533D01*
X150606742Y-74021683D01*
X150079402Y-74239576D01*
X149661045Y-74657203D01*
X149434353Y-75203138D01*
X149433837Y-75794268D01*
X149659576Y-76340598D01*
X150077203Y-76758955D01*
X150623138Y-76985647D01*
X151214268Y-76986163D01*
X151760598Y-76760424D01*
X152178955Y-76342797D01*
X152312731Y-76020627D01*
X153370640Y-76020627D01*
X153770024Y-76987209D01*
X154508901Y-77727377D01*
X155474784Y-78128447D01*
X156520627Y-78129360D01*
X157487209Y-77729976D01*
X158227377Y-76991099D01*
X158628447Y-76025216D01*
X158629360Y-74979373D01*
X158229976Y-74012791D01*
X157491099Y-73272623D01*
X156525216Y-72871553D01*
X155479373Y-72870640D01*
X154512791Y-73270024D01*
X153772623Y-74008901D01*
X153371553Y-74974784D01*
X153370640Y-76020627D01*
X152312731Y-76020627D01*
X152405647Y-75796862D01*
X152406163Y-75205732D01*
X152260658Y-74853582D01*
X152681667Y-74818968D01*
X153335825Y-74482777D01*
X153811532Y-73921842D01*
X154542862Y-72605197D01*
X154963091Y-72280992D01*
X155329167Y-71643078D01*
X155412397Y-70997826D01*
X156611003Y-70997826D01*
X156754240Y-71720933D01*
X157163295Y-72334183D01*
X157694680Y-72689855D01*
X157884771Y-73032789D01*
X158512670Y-72684739D01*
X158509888Y-72725552D01*
X158753192Y-72841828D01*
X158007913Y-73254943D01*
X158412729Y-73985250D01*
X158925767Y-74514583D01*
X159602320Y-74807292D01*
X159757714Y-74809721D01*
X159594353Y-75203138D01*
X159593837Y-75794268D01*
X159819576Y-76340598D01*
X160237203Y-76758955D01*
X160783138Y-76985647D01*
X161374268Y-76986163D01*
X161920598Y-76760424D01*
X162338955Y-76342797D01*
X162565647Y-75796862D01*
X162566163Y-75205732D01*
X162340424Y-74659402D01*
X161922797Y-74241045D01*
X161497703Y-74064530D01*
X161776789Y-73601964D01*
X161823737Y-73291694D01*
X182460819Y-73291694D01*
X182589082Y-73936516D01*
X182954344Y-74483169D01*
X183500997Y-74848431D01*
X184145819Y-74976694D01*
X184790641Y-74848431D01*
X185337294Y-74483169D01*
X185702556Y-73936516D01*
X185830819Y-73291694D01*
X185702556Y-72646872D01*
X185337294Y-72100219D01*
X184790641Y-71734957D01*
X184145819Y-71606694D01*
X183500997Y-71734957D01*
X182954344Y-72100219D01*
X182589082Y-72646872D01*
X182460819Y-73291694D01*
X161823737Y-73291694D01*
X161887076Y-72873103D01*
X161710045Y-72157518D01*
X161305229Y-71427211D01*
X159913058Y-72198904D01*
X160132223Y-71951221D01*
X160202126Y-71748258D01*
X161182087Y-71205057D01*
X160777271Y-70474750D01*
X160352623Y-70036615D01*
X160285760Y-69699067D01*
X159975137Y-69233384D01*
X167315001Y-69233384D01*
X167443264Y-69878206D01*
X167808526Y-70424859D01*
X168355179Y-70790121D01*
X169000001Y-70918384D01*
X169644823Y-70790121D01*
X170191476Y-70424859D01*
X170556738Y-69878206D01*
X170685001Y-69233384D01*
X170556738Y-68588562D01*
X170191476Y-68041909D01*
X169644823Y-67676647D01*
X169000001Y-67548384D01*
X168355179Y-67676647D01*
X167808526Y-68041909D01*
X167443264Y-68588562D01*
X167315001Y-69233384D01*
X159975137Y-69233384D01*
X159876705Y-69085817D01*
X159264107Y-68675786D01*
X159083389Y-68615774D01*
X158783524Y-68711724D01*
X158717813Y-69675604D01*
X158666282Y-69688960D01*
X158466627Y-69932400D01*
X158448007Y-69898808D01*
X158530112Y-68694448D01*
X158246043Y-68558690D01*
X158058852Y-68593620D01*
X157396274Y-68916718D01*
X156907777Y-69468779D01*
X156667728Y-70165757D01*
X156648003Y-70455085D01*
X157616493Y-70521110D01*
X157468956Y-70765642D01*
X156630727Y-70708497D01*
X156611003Y-70997826D01*
X155412397Y-70997826D01*
X155423258Y-70913631D01*
X155378012Y-70249948D01*
X155185793Y-69540020D01*
X154736528Y-68957691D01*
X154098613Y-68591615D01*
X153369166Y-68497524D01*
X152659238Y-68689743D01*
X152076909Y-69139008D01*
X151710833Y-69776923D01*
X151654649Y-70212496D01*
X151378467Y-70538158D01*
X150860876Y-71470000D01*
X147099000Y-71470000D01*
X146808161Y-71527852D01*
X146561599Y-71692599D01*
X145862198Y-72392000D01*
X138095081Y-72392000D01*
X138487209Y-72229976D01*
X139227377Y-71491099D01*
X139628447Y-70525216D01*
X139629360Y-69479373D01*
X139229976Y-68512791D01*
X138491099Y-67772623D01*
X137525216Y-67371553D01*
X136479373Y-67370640D01*
X135512791Y-67770024D01*
X134772623Y-68508901D01*
X134371553Y-69474784D01*
X134370640Y-70520627D01*
X134770024Y-71487209D01*
X135508901Y-72227377D01*
X135905357Y-72392000D01*
X135382000Y-72392000D01*
X135091161Y-72449852D01*
X134844599Y-72614599D01*
X134355000Y-73104198D01*
X134355000Y-68960167D01*
X134811532Y-68421842D01*
X135542862Y-67105197D01*
X135963091Y-66780992D01*
X136329167Y-66143078D01*
X136412397Y-65497826D01*
X137611003Y-65497826D01*
X137754240Y-66220933D01*
X138163295Y-66834183D01*
X138694680Y-67189855D01*
X138884771Y-67532789D01*
X139512670Y-67184739D01*
X139509888Y-67225552D01*
X139753192Y-67341828D01*
X139007913Y-67754943D01*
X139412729Y-68485250D01*
X139925767Y-69014583D01*
X140602320Y-69307292D01*
X140757714Y-69309721D01*
X140594353Y-69703138D01*
X140593837Y-70294268D01*
X140819576Y-70840598D01*
X141237203Y-71258955D01*
X141783138Y-71485647D01*
X142374268Y-71486163D01*
X142920598Y-71260424D01*
X143338955Y-70842797D01*
X143565647Y-70296862D01*
X143566163Y-69705732D01*
X143340424Y-69159402D01*
X142922797Y-68741045D01*
X142497703Y-68564530D01*
X142776789Y-68101964D01*
X142887076Y-67373103D01*
X142710045Y-66657518D01*
X142305229Y-65927211D01*
X140913058Y-66698904D01*
X141132223Y-66451221D01*
X141202126Y-66248258D01*
X142182087Y-65705057D01*
X141777271Y-64974750D01*
X141352623Y-64536615D01*
X141329164Y-64418184D01*
X145315000Y-64418184D01*
X145519383Y-65445689D01*
X146101418Y-66316766D01*
X146972495Y-66898801D01*
X148000000Y-67103184D01*
X149027505Y-66898801D01*
X149898582Y-66316766D01*
X150480617Y-65445689D01*
X150685000Y-64418184D01*
X150480617Y-63390679D01*
X149898582Y-62519602D01*
X149027505Y-61937567D01*
X148000000Y-61733184D01*
X146972495Y-61937567D01*
X146101418Y-62519602D01*
X145519383Y-63390679D01*
X145315000Y-64418184D01*
X141329164Y-64418184D01*
X141285760Y-64199067D01*
X140876705Y-63585817D01*
X140264107Y-63175786D01*
X140083389Y-63115774D01*
X139783524Y-63211724D01*
X139717813Y-64175604D01*
X139666282Y-64188960D01*
X139466627Y-64432400D01*
X139448007Y-64398808D01*
X139530112Y-63194448D01*
X139246043Y-63058690D01*
X139058852Y-63093620D01*
X138396274Y-63416718D01*
X137907777Y-63968779D01*
X137667728Y-64665757D01*
X137648003Y-64955085D01*
X138616493Y-65021110D01*
X138468956Y-65265642D01*
X137630727Y-65208497D01*
X137611003Y-65497826D01*
X136412397Y-65497826D01*
X136423258Y-65413631D01*
X136378012Y-64749948D01*
X136185793Y-64040020D01*
X135736528Y-63457691D01*
X135098613Y-63091615D01*
X134369166Y-62997524D01*
X133659238Y-63189743D01*
X133076909Y-63639008D01*
X132710833Y-64276923D01*
X132654649Y-64712496D01*
X132378467Y-65038158D01*
X131515812Y-66591234D01*
X131290976Y-67291516D01*
X131351242Y-68024533D01*
X131606742Y-68521683D01*
X131079402Y-68739576D01*
X130661045Y-69157203D01*
X130434353Y-69703138D01*
X130433837Y-70294268D01*
X130659576Y-70840598D01*
X131077203Y-71258955D01*
X131623138Y-71485647D01*
X132214268Y-71486163D01*
X132760598Y-71260424D01*
X132835000Y-71186152D01*
X132835000Y-73987787D01*
X125377588Y-81445199D01*
X125212841Y-81691761D01*
X125154989Y-81982600D01*
X125154989Y-83059187D01*
X115435000Y-73339198D01*
X115435000Y-70520627D01*
X115450640Y-70520627D01*
X115850024Y-71487209D01*
X116588901Y-72227377D01*
X117554784Y-72628447D01*
X118600627Y-72629360D01*
X119567209Y-72229976D01*
X120307377Y-71491099D01*
X120708447Y-70525216D01*
X120709360Y-69479373D01*
X120309976Y-68512791D01*
X119571099Y-67772623D01*
X118605216Y-67371553D01*
X117559373Y-67370640D01*
X116592791Y-67770024D01*
X115852623Y-68508901D01*
X115451553Y-69474784D01*
X115450640Y-70520627D01*
X115435000Y-70520627D01*
X115435000Y-68960167D01*
X115891532Y-68421842D01*
X116622862Y-67105197D01*
X117043091Y-66780992D01*
X117409167Y-66143078D01*
X117492397Y-65497826D01*
X118691003Y-65497826D01*
X118834240Y-66220933D01*
X119243295Y-66834183D01*
X119774680Y-67189855D01*
X119964771Y-67532789D01*
X120592670Y-67184739D01*
X120589888Y-67225552D01*
X120833192Y-67341828D01*
X120087913Y-67754943D01*
X120492729Y-68485250D01*
X121005767Y-69014583D01*
X121682320Y-69307292D01*
X121837714Y-69309721D01*
X121674353Y-69703138D01*
X121673837Y-70294268D01*
X121899576Y-70840598D01*
X122317203Y-71258955D01*
X122863138Y-71485647D01*
X123454268Y-71486163D01*
X124000598Y-71260424D01*
X124418955Y-70842797D01*
X124645647Y-70296862D01*
X124646163Y-69705732D01*
X124420424Y-69159402D01*
X124002797Y-68741045D01*
X123577703Y-68564530D01*
X123856789Y-68101964D01*
X123967076Y-67373103D01*
X123790045Y-66657518D01*
X123385229Y-65927211D01*
X121993058Y-66698904D01*
X122212223Y-66451221D01*
X122282126Y-66248258D01*
X123262087Y-65705057D01*
X122857271Y-64974750D01*
X122432623Y-64536615D01*
X122365760Y-64199067D01*
X121956705Y-63585817D01*
X121344107Y-63175786D01*
X121163389Y-63115774D01*
X120863524Y-63211724D01*
X120797813Y-64175604D01*
X120746282Y-64188960D01*
X120546627Y-64432400D01*
X120528007Y-64398808D01*
X120610112Y-63194448D01*
X120326043Y-63058690D01*
X120138852Y-63093620D01*
X119476274Y-63416718D01*
X118987777Y-63968779D01*
X118747728Y-64665757D01*
X118728003Y-64955085D01*
X119696493Y-65021110D01*
X119548956Y-65265642D01*
X118710727Y-65208497D01*
X118691003Y-65497826D01*
X117492397Y-65497826D01*
X117503258Y-65413631D01*
X117458012Y-64749948D01*
X117265793Y-64040020D01*
X116816528Y-63457691D01*
X116178613Y-63091615D01*
X115449166Y-62997524D01*
X114739238Y-63189743D01*
X114156909Y-63639008D01*
X113790833Y-64276923D01*
X113734649Y-64712496D01*
X113458467Y-65038158D01*
X112595812Y-66591234D01*
X112370976Y-67291516D01*
X112431242Y-68024533D01*
X112686742Y-68521683D01*
X112159402Y-68739576D01*
X111741045Y-69157203D01*
X111514353Y-69703138D01*
X111513837Y-70294268D01*
X111739576Y-70840598D01*
X112157203Y-71258955D01*
X112703138Y-71485647D01*
X113294268Y-71486163D01*
X113840598Y-71260424D01*
X113915000Y-71186152D01*
X113915000Y-73654000D01*
X113972852Y-73944839D01*
X114123299Y-74170000D01*
X98612802Y-74170000D01*
X96355000Y-71912198D01*
X96355000Y-70520627D01*
X96370640Y-70520627D01*
X96770024Y-71487209D01*
X97508901Y-72227377D01*
X98474784Y-72628447D01*
X99520627Y-72629360D01*
X100487209Y-72229976D01*
X101227377Y-71491099D01*
X101628447Y-70525216D01*
X101629360Y-69479373D01*
X101229976Y-68512791D01*
X100491099Y-67772623D01*
X99525216Y-67371553D01*
X98479373Y-67370640D01*
X97512791Y-67770024D01*
X96772623Y-68508901D01*
X96371553Y-69474784D01*
X96370640Y-70520627D01*
X96355000Y-70520627D01*
X96355000Y-68960167D01*
X96811532Y-68421842D01*
X97542862Y-67105197D01*
X97963091Y-66780992D01*
X98329167Y-66143078D01*
X98412397Y-65497826D01*
X99611003Y-65497826D01*
X99754240Y-66220933D01*
X100163295Y-66834183D01*
X100694680Y-67189855D01*
X100884771Y-67532789D01*
X101512670Y-67184739D01*
X101509888Y-67225552D01*
X101753192Y-67341828D01*
X101007913Y-67754943D01*
X101412729Y-68485250D01*
X101925767Y-69014583D01*
X102602320Y-69307292D01*
X102757714Y-69309721D01*
X102594353Y-69703138D01*
X102593837Y-70294268D01*
X102819576Y-70840598D01*
X103237203Y-71258955D01*
X103783138Y-71485647D01*
X104374268Y-71486163D01*
X104920598Y-71260424D01*
X105338955Y-70842797D01*
X105565647Y-70296862D01*
X105566163Y-69705732D01*
X105340424Y-69159402D01*
X104922797Y-68741045D01*
X104497703Y-68564530D01*
X104776789Y-68101964D01*
X104887076Y-67373103D01*
X104710045Y-66657518D01*
X104305229Y-65927211D01*
X102913058Y-66698904D01*
X103132223Y-66451221D01*
X103202126Y-66248258D01*
X104182087Y-65705057D01*
X103777271Y-64974750D01*
X103352623Y-64536615D01*
X103285760Y-64199067D01*
X102876705Y-63585817D01*
X102264107Y-63175786D01*
X102083389Y-63115774D01*
X101783524Y-63211724D01*
X101717813Y-64175604D01*
X101666282Y-64188960D01*
X101466627Y-64432400D01*
X101448007Y-64398808D01*
X101530112Y-63194448D01*
X101246043Y-63058690D01*
X101058852Y-63093620D01*
X100396274Y-63416718D01*
X99907777Y-63968779D01*
X99667728Y-64665757D01*
X99648003Y-64955085D01*
X100616493Y-65021110D01*
X100468956Y-65265642D01*
X99630727Y-65208497D01*
X99611003Y-65497826D01*
X98412397Y-65497826D01*
X98423258Y-65413631D01*
X98378012Y-64749948D01*
X98185793Y-64040020D01*
X97736528Y-63457691D01*
X97098613Y-63091615D01*
X96369166Y-62997524D01*
X95659238Y-63189743D01*
X95076909Y-63639008D01*
X94710833Y-64276923D01*
X94654649Y-64712496D01*
X94378467Y-65038158D01*
X93515812Y-66591234D01*
X93290976Y-67291516D01*
X93351242Y-68024533D01*
X93606742Y-68521683D01*
X93079402Y-68739576D01*
X92661045Y-69157203D01*
X92434353Y-69703138D01*
X92433837Y-70294268D01*
X92659576Y-70840598D01*
X93077203Y-71258955D01*
X93623138Y-71485647D01*
X94214268Y-71486163D01*
X94760598Y-71260424D01*
X94835000Y-71186152D01*
X94835000Y-72227000D01*
X94892852Y-72517839D01*
X95057599Y-72764401D01*
X97733198Y-75440000D01*
X80578802Y-75440000D01*
X77275000Y-72136198D01*
X77275000Y-70520627D01*
X77290640Y-70520627D01*
X77690024Y-71487209D01*
X78428901Y-72227377D01*
X79394784Y-72628447D01*
X80440627Y-72629360D01*
X81407209Y-72229976D01*
X82147377Y-71491099D01*
X82548447Y-70525216D01*
X82549360Y-69479373D01*
X82149976Y-68512791D01*
X81411099Y-67772623D01*
X80445216Y-67371553D01*
X79399373Y-67370640D01*
X78432791Y-67770024D01*
X77692623Y-68508901D01*
X77291553Y-69474784D01*
X77290640Y-70520627D01*
X77275000Y-70520627D01*
X77275000Y-68960167D01*
X77731532Y-68421842D01*
X78462862Y-67105197D01*
X78883091Y-66780992D01*
X79249167Y-66143078D01*
X79332397Y-65497826D01*
X80531003Y-65497826D01*
X80674240Y-66220933D01*
X81083295Y-66834183D01*
X81614680Y-67189855D01*
X81804771Y-67532789D01*
X82432670Y-67184739D01*
X82429888Y-67225552D01*
X82673192Y-67341828D01*
X81927913Y-67754943D01*
X82332729Y-68485250D01*
X82845767Y-69014583D01*
X83522320Y-69307292D01*
X83677714Y-69309721D01*
X83514353Y-69703138D01*
X83513837Y-70294268D01*
X83739576Y-70840598D01*
X84157203Y-71258955D01*
X84703138Y-71485647D01*
X85294268Y-71486163D01*
X85840598Y-71260424D01*
X86258955Y-70842797D01*
X86485647Y-70296862D01*
X86486163Y-69705732D01*
X86260424Y-69159402D01*
X85842797Y-68741045D01*
X85417703Y-68564530D01*
X85696789Y-68101964D01*
X85807076Y-67373103D01*
X85630045Y-66657518D01*
X85225229Y-65927211D01*
X83833058Y-66698904D01*
X84052223Y-66451221D01*
X84122126Y-66248258D01*
X85102087Y-65705057D01*
X84697271Y-64974750D01*
X84272623Y-64536615D01*
X84205760Y-64199067D01*
X83796705Y-63585817D01*
X83184107Y-63175786D01*
X83003389Y-63115774D01*
X82703524Y-63211724D01*
X82637813Y-64175604D01*
X82586282Y-64188960D01*
X82386627Y-64432400D01*
X82368007Y-64398808D01*
X82450112Y-63194448D01*
X82166043Y-63058690D01*
X81978852Y-63093620D01*
X81316274Y-63416718D01*
X80827777Y-63968779D01*
X80587728Y-64665757D01*
X80568003Y-64955085D01*
X81536493Y-65021110D01*
X81388956Y-65265642D01*
X80550727Y-65208497D01*
X80531003Y-65497826D01*
X79332397Y-65497826D01*
X79343258Y-65413631D01*
X79298012Y-64749948D01*
X79105793Y-64040020D01*
X78656528Y-63457691D01*
X78018613Y-63091615D01*
X77289166Y-62997524D01*
X76579238Y-63189743D01*
X75996909Y-63639008D01*
X75630833Y-64276923D01*
X75574649Y-64712496D01*
X75298467Y-65038158D01*
X74435812Y-66591234D01*
X74210976Y-67291516D01*
X74271242Y-68024533D01*
X74526742Y-68521683D01*
X73999402Y-68739576D01*
X73581045Y-69157203D01*
X73354353Y-69703138D01*
X73353837Y-70294268D01*
X73579576Y-70840598D01*
X73997203Y-71258955D01*
X74543138Y-71485647D01*
X75134268Y-71486163D01*
X75680598Y-71260424D01*
X75755000Y-71186152D01*
X75755000Y-72451000D01*
X75812852Y-72741839D01*
X75977599Y-72988401D01*
X79726599Y-76737401D01*
X79973161Y-76902148D01*
X80264000Y-76960000D01*
X88771034Y-76960000D01*
X88472495Y-77019383D01*
X87601418Y-77601418D01*
X87019383Y-78472495D01*
X86815000Y-79500000D01*
X87019383Y-80527505D01*
X87601418Y-81398582D01*
X88472495Y-81980617D01*
X89500000Y-82185000D01*
X90527505Y-81980617D01*
X91398582Y-81398582D01*
X91980617Y-80527505D01*
X92185000Y-79500000D01*
X91980617Y-78472495D01*
X91398582Y-77601418D01*
X90527505Y-77019383D01*
X90228966Y-76960000D01*
X110429198Y-76960000D01*
X115493017Y-82023819D01*
X115289166Y-81997524D01*
X114579238Y-82189743D01*
X113996909Y-82639008D01*
X113630833Y-83276923D01*
X113574649Y-83712496D01*
X113298467Y-84038158D01*
X112435812Y-85591234D01*
X112210976Y-86291516D01*
X112271242Y-87024533D01*
X112526742Y-87521683D01*
X111999402Y-87739576D01*
X111581045Y-88157203D01*
X111354353Y-88703138D01*
X111353837Y-89294268D01*
X111579576Y-89840598D01*
X111997203Y-90258955D01*
X112543138Y-90485647D01*
X113134268Y-90486163D01*
X113680598Y-90260424D01*
X113755000Y-90186152D01*
X113755000Y-91655000D01*
X113812852Y-91945839D01*
X113977599Y-92192401D01*
X119486271Y-97701073D01*
X119497841Y-97759239D01*
X119662588Y-98005801D01*
X120464787Y-98808000D01*
X103946802Y-98808000D01*
X96275000Y-91136198D01*
X96275000Y-89520627D01*
X96290640Y-89520627D01*
X96690024Y-90487209D01*
X97428901Y-91227377D01*
X98394784Y-91628447D01*
X99440627Y-91629360D01*
X100407209Y-91229976D01*
X101147377Y-90491099D01*
X101548447Y-89525216D01*
X101549360Y-88479373D01*
X101149976Y-87512791D01*
X100411099Y-86772623D01*
X99445216Y-86371553D01*
X98399373Y-86370640D01*
X97432791Y-86770024D01*
X96692623Y-87508901D01*
X96291553Y-88474784D01*
X96290640Y-89520627D01*
X96275000Y-89520627D01*
X96275000Y-87960167D01*
X96731532Y-87421842D01*
X97462862Y-86105197D01*
X97883091Y-85780992D01*
X98249167Y-85143078D01*
X98332397Y-84497826D01*
X99531003Y-84497826D01*
X99674240Y-85220933D01*
X100083295Y-85834183D01*
X100614680Y-86189855D01*
X100804771Y-86532789D01*
X101432670Y-86184739D01*
X101429888Y-86225552D01*
X101673192Y-86341828D01*
X100927913Y-86754943D01*
X101332729Y-87485250D01*
X101845767Y-88014583D01*
X102522320Y-88307292D01*
X102677714Y-88309721D01*
X102514353Y-88703138D01*
X102513837Y-89294268D01*
X102739576Y-89840598D01*
X103157203Y-90258955D01*
X103703138Y-90485647D01*
X104294268Y-90486163D01*
X104840598Y-90260424D01*
X105258955Y-89842797D01*
X105485647Y-89296862D01*
X105486163Y-88705732D01*
X105260424Y-88159402D01*
X104842797Y-87741045D01*
X104417703Y-87564530D01*
X104696789Y-87101964D01*
X104807076Y-86373103D01*
X104630045Y-85657518D01*
X104225229Y-84927211D01*
X102833058Y-85698904D01*
X103052223Y-85451221D01*
X103122126Y-85248258D01*
X104102087Y-84705057D01*
X103697271Y-83974750D01*
X103272623Y-83536615D01*
X103205760Y-83199067D01*
X102796705Y-82585817D01*
X102184107Y-82175786D01*
X102003389Y-82115774D01*
X101703524Y-82211724D01*
X101637813Y-83175604D01*
X101586282Y-83188960D01*
X101386627Y-83432400D01*
X101368007Y-83398808D01*
X101450112Y-82194448D01*
X101166043Y-82058690D01*
X100978852Y-82093620D01*
X100316274Y-82416718D01*
X99827777Y-82968779D01*
X99587728Y-83665757D01*
X99568003Y-83955085D01*
X100536493Y-84021110D01*
X100388956Y-84265642D01*
X99550727Y-84208497D01*
X99531003Y-84497826D01*
X98332397Y-84497826D01*
X98343258Y-84413631D01*
X98298012Y-83749948D01*
X98105793Y-83040020D01*
X97656528Y-82457691D01*
X97018613Y-82091615D01*
X96289166Y-81997524D01*
X95579238Y-82189743D01*
X94996909Y-82639008D01*
X94630833Y-83276923D01*
X94574649Y-83712496D01*
X94298467Y-84038158D01*
X93435812Y-85591234D01*
X93210976Y-86291516D01*
X93271242Y-87024533D01*
X93526742Y-87521683D01*
X92999402Y-87739576D01*
X92581045Y-88157203D01*
X92354353Y-88703138D01*
X92353837Y-89294268D01*
X92579576Y-89840598D01*
X92997203Y-90258955D01*
X93543138Y-90485647D01*
X94134268Y-90486163D01*
X94680598Y-90260424D01*
X94755000Y-90186152D01*
X94755000Y-91451000D01*
X94812852Y-91741839D01*
X94977599Y-91988401D01*
X102305198Y-99316000D01*
X95818802Y-99316000D01*
X91469401Y-94966599D01*
X91222839Y-94801852D01*
X90932000Y-94744000D01*
X81594802Y-94744000D01*
X77275000Y-90424198D01*
X77275000Y-89520627D01*
X77290640Y-89520627D01*
X77690024Y-90487209D01*
X78428901Y-91227377D01*
X79394784Y-91628447D01*
X80440627Y-91629360D01*
X81407209Y-91229976D01*
X82147377Y-90491099D01*
X82548447Y-89525216D01*
X82549360Y-88479373D01*
X82149976Y-87512791D01*
X81411099Y-86772623D01*
X80445216Y-86371553D01*
X79399373Y-86370640D01*
X78432791Y-86770024D01*
X77692623Y-87508901D01*
X77291553Y-88474784D01*
X77290640Y-89520627D01*
X77275000Y-89520627D01*
X77275000Y-87960167D01*
X77731532Y-87421842D01*
X78462862Y-86105197D01*
X78883091Y-85780992D01*
X79249167Y-85143078D01*
X79332397Y-84497826D01*
X80531003Y-84497826D01*
X80674240Y-85220933D01*
X81083295Y-85834183D01*
X81614680Y-86189855D01*
X81804771Y-86532789D01*
X82432670Y-86184739D01*
X82429888Y-86225552D01*
X82673192Y-86341828D01*
X81927913Y-86754943D01*
X82332729Y-87485250D01*
X82845767Y-88014583D01*
X83522320Y-88307292D01*
X83677714Y-88309721D01*
X83514353Y-88703138D01*
X83513837Y-89294268D01*
X83739576Y-89840598D01*
X84157203Y-90258955D01*
X84703138Y-90485647D01*
X85294268Y-90486163D01*
X85840598Y-90260424D01*
X86258955Y-89842797D01*
X86485647Y-89296862D01*
X86486163Y-88705732D01*
X86260424Y-88159402D01*
X85842797Y-87741045D01*
X85417703Y-87564530D01*
X85696789Y-87101964D01*
X85807076Y-86373103D01*
X85630045Y-85657518D01*
X85225229Y-84927211D01*
X83833058Y-85698904D01*
X84052223Y-85451221D01*
X84122126Y-85248258D01*
X85102087Y-84705057D01*
X84697271Y-83974750D01*
X84272623Y-83536615D01*
X84205760Y-83199067D01*
X83796705Y-82585817D01*
X83184107Y-82175786D01*
X83003389Y-82115774D01*
X82703524Y-82211724D01*
X82637813Y-83175604D01*
X82586282Y-83188960D01*
X82386627Y-83432400D01*
X82368007Y-83398808D01*
X82450112Y-82194448D01*
X82166043Y-82058690D01*
X81978852Y-82093620D01*
X81316274Y-82416718D01*
X80827777Y-82968779D01*
X80587728Y-83665757D01*
X80568003Y-83955085D01*
X81536493Y-84021110D01*
X81388956Y-84265642D01*
X80550727Y-84208497D01*
X80531003Y-84497826D01*
X79332397Y-84497826D01*
X79343258Y-84413631D01*
X79298012Y-83749948D01*
X79105793Y-83040020D01*
X78656528Y-82457691D01*
X78018613Y-82091615D01*
X77289166Y-81997524D01*
X76579238Y-82189743D01*
X75996909Y-82639008D01*
X75630833Y-83276923D01*
X75574649Y-83712496D01*
X75298467Y-84038158D01*
X74435812Y-85591234D01*
X74210976Y-86291516D01*
X74271242Y-87024533D01*
X74526742Y-87521683D01*
X73999402Y-87739576D01*
X73581045Y-88157203D01*
X73354353Y-88703138D01*
X73353837Y-89294268D01*
X73579576Y-89840598D01*
X73997203Y-90258955D01*
X74543138Y-90485647D01*
X75134268Y-90486163D01*
X75680598Y-90260424D01*
X75755000Y-90186152D01*
X75755000Y-90739000D01*
X75812852Y-91029839D01*
X75977599Y-91276401D01*
X80742599Y-96041401D01*
X80989161Y-96206148D01*
X81280000Y-96264000D01*
X88106401Y-96264000D01*
X87601418Y-96601419D01*
X87019383Y-97472496D01*
X86815000Y-98500001D01*
X87019383Y-99527506D01*
X87472070Y-100205000D01*
X79756000Y-100205000D01*
X79548730Y-100246229D01*
X79465160Y-100262852D01*
X79218599Y-100427599D01*
X78846599Y-100799599D01*
X78828476Y-100826722D01*
X78394045Y-101261153D01*
X78098613Y-101091615D01*
X77369166Y-100997524D01*
X76659238Y-101189743D01*
X76076909Y-101639008D01*
X75710833Y-102276923D01*
X75654649Y-102712496D01*
X75378467Y-103038158D01*
X74515812Y-104591234D01*
X74290976Y-105291516D01*
X74351242Y-106024533D01*
X74606742Y-106521683D01*
X74079402Y-106739576D01*
X73661045Y-107157203D01*
X73434353Y-107703138D01*
X73433837Y-108294268D01*
X73659576Y-108840598D01*
X74077203Y-109258955D01*
X74623138Y-109485647D01*
X75214268Y-109486163D01*
X75760598Y-109260424D01*
X76178955Y-108842797D01*
X76312731Y-108520627D01*
X77370640Y-108520627D01*
X77770024Y-109487209D01*
X78508901Y-110227377D01*
X79474784Y-110628447D01*
X80520627Y-110629360D01*
X81487209Y-110229976D01*
X82227377Y-109491099D01*
X82628447Y-108525216D01*
X82629360Y-107479373D01*
X82229976Y-106512791D01*
X81491099Y-105772623D01*
X80525216Y-105371553D01*
X79479373Y-105370640D01*
X78512791Y-105770024D01*
X77772623Y-106508901D01*
X77371553Y-107474784D01*
X77370640Y-108520627D01*
X76312731Y-108520627D01*
X76405647Y-108296862D01*
X76406163Y-107705732D01*
X76260658Y-107353582D01*
X76681667Y-107318968D01*
X77335825Y-106982777D01*
X77811532Y-106421842D01*
X78542862Y-105105197D01*
X78963091Y-104780992D01*
X79329167Y-104143078D01*
X79423258Y-103413631D01*
X79378012Y-102749948D01*
X79309157Y-102495645D01*
X79921401Y-101883401D01*
X79939524Y-101856278D01*
X80070802Y-101725000D01*
X81123487Y-101725000D01*
X80907777Y-101968779D01*
X80667728Y-102665757D01*
X80648003Y-102955085D01*
X81616493Y-103021110D01*
X81468956Y-103265642D01*
X80630727Y-103208497D01*
X80611003Y-103497826D01*
X80754240Y-104220933D01*
X81163295Y-104834183D01*
X81694680Y-105189855D01*
X81884771Y-105532789D01*
X82512670Y-105184739D01*
X82509888Y-105225552D01*
X82753192Y-105341828D01*
X82007913Y-105754943D01*
X82412729Y-106485250D01*
X82925767Y-107014583D01*
X83602320Y-107307292D01*
X83757714Y-107309721D01*
X83594353Y-107703138D01*
X83593837Y-108294268D01*
X83819576Y-108840598D01*
X84237203Y-109258955D01*
X84783138Y-109485647D01*
X85374268Y-109486163D01*
X85920598Y-109260424D01*
X86338955Y-108842797D01*
X86565647Y-108296862D01*
X86566163Y-107705732D01*
X86340424Y-107159402D01*
X85922797Y-106741045D01*
X85497703Y-106564530D01*
X85776789Y-106101964D01*
X85887076Y-105373103D01*
X85710045Y-104657518D01*
X85305229Y-103927211D01*
X83913058Y-104698904D01*
X84132223Y-104451221D01*
X84202126Y-104248258D01*
X85182087Y-103705057D01*
X84777271Y-102974750D01*
X84352623Y-102536615D01*
X84285760Y-102199067D01*
X83969544Y-101725000D01*
X87696198Y-101725000D01*
X87854599Y-101883401D01*
X88101160Y-102048148D01*
X88392000Y-102106000D01*
X90932000Y-102106000D01*
X91222839Y-102048148D01*
X91469401Y-101883401D01*
X92008802Y-101344000D01*
X95539293Y-101344000D01*
X95156909Y-101639008D01*
X94790833Y-102276923D01*
X94734649Y-102712496D01*
X94458467Y-103038158D01*
X93595812Y-104591234D01*
X93370976Y-105291516D01*
X93431242Y-106024533D01*
X93686742Y-106521683D01*
X93159402Y-106739576D01*
X92741045Y-107157203D01*
X92514353Y-107703138D01*
X92513837Y-108294268D01*
X92739576Y-108840598D01*
X93157203Y-109258955D01*
X93703138Y-109485647D01*
X94294268Y-109486163D01*
X94840598Y-109260424D01*
X95258955Y-108842797D01*
X95392731Y-108520627D01*
X96450640Y-108520627D01*
X96850024Y-109487209D01*
X97588901Y-110227377D01*
X98554784Y-110628447D01*
X99600627Y-110629360D01*
X100567209Y-110229976D01*
X101307377Y-109491099D01*
X101708447Y-108525216D01*
X101709360Y-107479373D01*
X101309976Y-106512791D01*
X100571099Y-105772623D01*
X99605216Y-105371553D01*
X98559373Y-105370640D01*
X97592791Y-105770024D01*
X96852623Y-106508901D01*
X96451553Y-107474784D01*
X96450640Y-108520627D01*
X95392731Y-108520627D01*
X95485647Y-108296862D01*
X95486163Y-107705732D01*
X95340658Y-107353582D01*
X95761667Y-107318968D01*
X96415825Y-106982777D01*
X96891532Y-106421842D01*
X97622862Y-105105197D01*
X98043091Y-104780992D01*
X98409167Y-104143078D01*
X98503258Y-103413631D01*
X98458012Y-102749948D01*
X98389157Y-102495645D01*
X99032802Y-101852000D01*
X100091110Y-101852000D01*
X99987777Y-101968779D01*
X99747728Y-102665757D01*
X99728003Y-102955085D01*
X100696493Y-103021110D01*
X100548956Y-103265642D01*
X99710727Y-103208497D01*
X99691003Y-103497826D01*
X99834240Y-104220933D01*
X100243295Y-104834183D01*
X100774680Y-105189855D01*
X100964771Y-105532789D01*
X101592670Y-105184739D01*
X101589888Y-105225552D01*
X101833192Y-105341828D01*
X101087913Y-105754943D01*
X101492729Y-106485250D01*
X102005767Y-107014583D01*
X102682320Y-107307292D01*
X102837714Y-107309721D01*
X102674353Y-107703138D01*
X102673837Y-108294268D01*
X102899576Y-108840598D01*
X103317203Y-109258955D01*
X103863138Y-109485647D01*
X104454268Y-109486163D01*
X105000598Y-109260424D01*
X105418955Y-108842797D01*
X105645647Y-108296862D01*
X105646163Y-107705732D01*
X105420424Y-107159402D01*
X105002797Y-106741045D01*
X104577703Y-106564530D01*
X104856789Y-106101964D01*
X104967076Y-105373103D01*
X104790045Y-104657518D01*
X104385229Y-103927211D01*
X102993058Y-104698904D01*
X103212223Y-104451221D01*
X103282126Y-104248258D01*
X104262087Y-103705057D01*
X103857271Y-102974750D01*
X103432623Y-102536615D01*
X103365760Y-102199067D01*
X103134257Y-101852000D01*
X114034681Y-101852000D01*
X113790833Y-102276923D01*
X113734649Y-102712496D01*
X113458467Y-103038158D01*
X112595812Y-104591234D01*
X112370976Y-105291516D01*
X112431242Y-106024533D01*
X112686742Y-106521683D01*
X112159402Y-106739576D01*
X111741045Y-107157203D01*
X111514353Y-107703138D01*
X111513837Y-108294268D01*
X111739576Y-108840598D01*
X112157203Y-109258955D01*
X112703138Y-109485647D01*
X113294268Y-109486163D01*
X113840598Y-109260424D01*
X114258955Y-108842797D01*
X114305036Y-108731820D01*
X117108617Y-111535401D01*
X117355179Y-111700148D01*
X117646018Y-111758000D01*
X123698000Y-111758000D01*
X123988839Y-111700148D01*
X124235401Y-111535401D01*
X129336965Y-106433837D01*
X129288000Y-106680000D01*
X129288000Y-108712000D01*
X129345852Y-109002839D01*
X129510599Y-109249401D01*
X132050599Y-111789401D01*
X132297160Y-111954148D01*
X132345414Y-111963746D01*
X132588000Y-112012000D01*
X140909198Y-112012000D01*
X155164599Y-126267401D01*
X155411161Y-126432148D01*
X155702000Y-126490000D01*
X169418000Y-126490000D01*
X169708839Y-126432148D01*
X169955401Y-126267401D01*
X171277797Y-124945005D01*
X171277543Y-125235428D01*
X171676927Y-126202010D01*
X172415804Y-126942178D01*
X173381687Y-127343248D01*
X174427530Y-127344161D01*
X175394112Y-126944777D01*
X176134280Y-126205900D01*
X176535350Y-125240017D01*
X176536263Y-124194174D01*
X176136879Y-123227592D01*
X175398002Y-122487424D01*
X174432119Y-122086354D01*
X173386276Y-122085441D01*
X172419694Y-122484825D01*
X172224264Y-122679914D01*
X172224264Y-122600430D01*
X173248649Y-121541499D01*
X173738464Y-121337107D01*
X173815452Y-121259714D01*
X175613537Y-121259714D01*
X175849933Y-121957940D01*
X176271157Y-122439025D01*
X176366013Y-122819473D01*
X177062599Y-122645795D01*
X177049349Y-122684496D01*
X177254268Y-122859782D01*
X176427462Y-123065928D01*
X176629466Y-123876125D01*
X176988022Y-124520206D01*
X177565763Y-124978045D01*
X177719982Y-125021963D01*
X177554851Y-125186805D01*
X177328159Y-125732740D01*
X177327643Y-126323870D01*
X177553382Y-126870200D01*
X177971009Y-127288557D01*
X178516944Y-127515249D01*
X179108074Y-127515765D01*
X179654404Y-127290026D01*
X180072761Y-126872399D01*
X180299453Y-126326464D01*
X180299969Y-125735334D01*
X180074230Y-125189004D01*
X179656603Y-124770647D01*
X179595090Y-124745105D01*
X179978101Y-124376582D01*
X180273273Y-123701101D01*
X180287481Y-122964080D01*
X180085477Y-122153883D01*
X178541015Y-122538960D01*
X178816816Y-122356442D01*
X178936868Y-122178487D01*
X180024028Y-121907428D01*
X179822024Y-121097231D01*
X179525242Y-120564116D01*
X179548021Y-120220766D01*
X179311625Y-119522540D01*
X178826024Y-118967929D01*
X178666996Y-118863189D01*
X178352515Y-118878259D01*
X178039573Y-119792289D01*
X177986341Y-119791852D01*
X177730484Y-119975322D01*
X177721192Y-119938054D01*
X178112209Y-118795984D01*
X177872956Y-118591329D01*
X177683104Y-118576620D01*
X176959479Y-118717221D01*
X176344742Y-119124038D01*
X175932482Y-119735138D01*
X175838546Y-120009503D01*
X176756947Y-120323942D01*
X176551148Y-120521956D01*
X175756271Y-120249809D01*
X175662335Y-120524173D01*
X175613537Y-121259714D01*
X173815452Y-121259714D01*
X174257172Y-120815677D01*
X174536852Y-120135438D01*
X174664922Y-119482660D01*
X174662996Y-118747172D01*
X174379758Y-118068406D01*
X174289883Y-117979000D01*
X180593995Y-117979000D01*
X180594000Y-117979001D01*
X180876484Y-117922810D01*
X180932675Y-117911633D01*
X181219790Y-117719790D01*
X181219791Y-117719789D01*
X182997787Y-115941792D01*
X182997790Y-115941790D01*
X183189633Y-115654675D01*
X183221480Y-115494571D01*
X183257001Y-115316000D01*
X183257000Y-115315995D01*
X183257000Y-110711189D01*
X183500997Y-110874223D01*
X184145819Y-111002486D01*
X184790641Y-110874223D01*
X185337294Y-110508961D01*
X185702556Y-109962308D01*
X185830819Y-109317486D01*
X185702556Y-108672664D01*
X185337294Y-108126011D01*
X184790641Y-107760749D01*
X184145819Y-107632486D01*
X183500997Y-107760749D01*
X183257000Y-107923783D01*
X183257000Y-107427580D01*
X186460819Y-104223760D01*
X186460819Y-113883763D01*
X186421428Y-114182971D01*
X179608323Y-139609822D01*
X179439235Y-139951194D01*
X179203729Y-140157002D01*
X178907098Y-140257117D01*
X178528337Y-140231960D01*
X145373646Y-131348187D01*
X157060752Y-131348187D01*
X157278757Y-131875800D01*
X157682077Y-132279824D01*
X158209309Y-132498750D01*
X158780187Y-132499248D01*
X159307800Y-132281243D01*
X159411627Y-132177597D01*
X159341228Y-132531516D01*
X159545611Y-133559021D01*
X160127646Y-134430098D01*
X160998723Y-135012133D01*
X162026228Y-135216516D01*
X163053733Y-135012133D01*
X163924810Y-134430098D01*
X164506845Y-133559021D01*
X164711228Y-132531516D01*
X164506845Y-131504011D01*
X163924810Y-130632934D01*
X163053733Y-130050899D01*
X162026228Y-129846516D01*
X160998723Y-130050899D01*
X160127646Y-130632934D01*
X159931120Y-130927057D01*
X159931248Y-130779813D01*
X159713243Y-130252200D01*
X159309923Y-129848176D01*
X158782691Y-129629250D01*
X158211813Y-129628752D01*
X157684200Y-129846757D01*
X157280176Y-130250077D01*
X157061250Y-130777309D01*
X157060752Y-131348187D01*
X145373646Y-131348187D01*
X143885054Y-130949320D01*
X143542849Y-130780563D01*
X143336631Y-130545417D01*
X143236098Y-130249255D01*
X143261052Y-129868523D01*
X143307653Y-129694602D01*
X148476004Y-129694602D01*
X148659088Y-129869223D01*
X149209930Y-129768846D01*
X149680429Y-129465312D01*
X149936332Y-129131796D01*
X149875968Y-128885750D01*
X148771997Y-128589942D01*
X148476004Y-129694602D01*
X143307653Y-129694602D01*
X143651515Y-128411294D01*
X147247380Y-128411294D01*
X147302241Y-128828078D01*
X147557938Y-129326196D01*
X147984792Y-129688546D01*
X148230658Y-129628862D01*
X148526651Y-128524202D01*
X147856355Y-128344596D01*
X148837737Y-128344596D01*
X149941708Y-128640405D01*
X150117008Y-128457504D01*
X150062147Y-128040720D01*
X149806450Y-127542602D01*
X149379596Y-127180252D01*
X149133730Y-127239936D01*
X148837737Y-128344596D01*
X147856355Y-128344596D01*
X147422680Y-128228393D01*
X147247380Y-128411294D01*
X143651515Y-128411294D01*
X143832191Y-127737002D01*
X147428056Y-127737002D01*
X147488420Y-127983048D01*
X148592391Y-128278856D01*
X148888384Y-127174196D01*
X148705300Y-126999575D01*
X148154458Y-127099952D01*
X147683959Y-127403486D01*
X147428056Y-127737002D01*
X143832191Y-127737002D01*
X145887759Y-120065520D01*
X145890714Y-120020430D01*
X145905240Y-119977639D01*
X145956351Y-119589410D01*
X145949049Y-119478006D01*
X145949049Y-119366363D01*
X145834868Y-118792338D01*
X145781984Y-118664666D01*
X145732587Y-118545410D01*
X145407428Y-118058774D01*
X145283131Y-117934478D01*
X145218437Y-117869783D01*
X144731802Y-117544624D01*
X144608337Y-117493484D01*
X144484873Y-117442343D01*
X143910848Y-117328162D01*
X143843381Y-117328162D01*
X143777211Y-117315000D01*
X71565463Y-117315000D01*
X71191956Y-117240027D01*
X70932208Y-117065813D01*
X70758730Y-116805200D01*
X70685000Y-116432837D01*
X70685000Y-61567467D01*
X70759437Y-61193250D01*
X70933197Y-60933198D01*
X71193250Y-60759437D01*
X71567467Y-60685000D01*
X145889274Y-60685000D01*
X146188482Y-60724391D01*
X146188482Y-60724391D01*
G37*
X146188482Y-60724391D02*
X185793525Y-71336531D01*
X186134899Y-71505620D01*
X186340707Y-71741126D01*
X186455554Y-72081405D01*
X186460819Y-72162824D01*
X186460819Y-99611240D01*
X186178000Y-99328420D01*
X186178000Y-94234005D01*
X186178001Y-94234000D01*
X186110633Y-93895326D01*
X186110633Y-93895325D01*
X185918790Y-93608210D01*
X185918787Y-93608208D01*
X185140010Y-92829431D01*
X185522423Y-92671041D01*
X185937389Y-92295134D01*
X186176914Y-91789041D01*
X186055629Y-91567000D01*
X184912000Y-91567000D01*
X184912000Y-91587000D01*
X184658000Y-91587000D01*
X184658000Y-91567000D01*
X184638000Y-91567000D01*
X184638000Y-91313000D01*
X184658000Y-91313000D01*
X184658000Y-90170085D01*
X184912000Y-90170085D01*
X184912000Y-91313000D01*
X186055629Y-91313000D01*
X186176914Y-91090959D01*
X185937389Y-90584866D01*
X185522423Y-90208959D01*
X185134039Y-90048096D01*
X184912000Y-90170085D01*
X184658000Y-90170085D01*
X184435961Y-90048096D01*
X184146000Y-90168194D01*
X184146000Y-86995000D01*
X184078633Y-86656325D01*
X183886790Y-86369210D01*
X183886787Y-86369208D01*
X183638000Y-86120421D01*
X183638000Y-85151445D01*
X183733110Y-85216431D01*
X183985000Y-85267440D01*
X185585000Y-85267440D01*
X185820317Y-85223162D01*
X186036441Y-85084090D01*
X186181431Y-84871890D01*
X186232440Y-84620000D01*
X186232440Y-83020000D01*
X186188162Y-82784683D01*
X186049090Y-82568559D01*
X185836890Y-82423569D01*
X185585000Y-82372560D01*
X185545000Y-82372560D01*
X185545000Y-79308667D01*
X185827811Y-79119698D01*
X186138880Y-78654151D01*
X186248113Y-78105000D01*
X186138880Y-77555849D01*
X185827811Y-77090302D01*
X185362264Y-76779233D01*
X184813113Y-76670000D01*
X184756887Y-76670000D01*
X184479898Y-76725096D01*
X183417401Y-75662599D01*
X183170839Y-75497852D01*
X182880000Y-75440000D01*
X173990000Y-75440000D01*
X173699161Y-75497852D01*
X173452599Y-75662599D01*
X171420599Y-77694599D01*
X171255852Y-77941161D01*
X171198000Y-78232000D01*
X171198000Y-87442198D01*
X169780981Y-88859217D01*
X169676054Y-88331715D01*
X169354147Y-87849946D01*
X169024974Y-87630000D01*
X169354147Y-87410054D01*
X169676054Y-86928285D01*
X169789093Y-86360000D01*
X169676054Y-85791715D01*
X169354147Y-85309946D01*
X169013447Y-85082298D01*
X169156358Y-85015183D01*
X169546645Y-84586924D01*
X169716476Y-84176890D01*
X169595155Y-83947000D01*
X168402000Y-83947000D01*
X168402000Y-83967000D01*
X168148000Y-83967000D01*
X168148000Y-83947000D01*
X166954845Y-83947000D01*
X166833524Y-84176890D01*
X167003355Y-84586924D01*
X167393642Y-85015183D01*
X167536553Y-85082298D01*
X167195853Y-85309946D01*
X166873946Y-85791715D01*
X166760907Y-86360000D01*
X166873946Y-86928285D01*
X167195853Y-87410054D01*
X167525026Y-87630000D01*
X167195853Y-87849946D01*
X166873946Y-88331715D01*
X166760907Y-88900000D01*
X166873946Y-89468285D01*
X167195853Y-89950054D01*
X167525026Y-90170000D01*
X167195853Y-90389946D01*
X166873946Y-90871715D01*
X166760907Y-91440000D01*
X166873946Y-92008285D01*
X167195853Y-92490054D01*
X167531013Y-92714000D01*
X164274505Y-92714000D01*
X164274500Y-92713999D01*
X163935825Y-92781367D01*
X163648710Y-92973210D01*
X163648708Y-92973213D01*
X162522313Y-94099607D01*
X162340424Y-93659402D01*
X161922797Y-93241045D01*
X161497703Y-93064530D01*
X161776789Y-92601964D01*
X161887076Y-91873103D01*
X161710045Y-91157518D01*
X161305229Y-90427211D01*
X159913058Y-91198904D01*
X160132223Y-90951221D01*
X160202126Y-90748258D01*
X161182087Y-90205057D01*
X160777271Y-89474750D01*
X160352623Y-89036615D01*
X160285760Y-88699067D01*
X159876705Y-88085817D01*
X159264107Y-87675786D01*
X159083389Y-87615774D01*
X158783524Y-87711724D01*
X158717813Y-88675604D01*
X158666282Y-88688960D01*
X158466627Y-88932400D01*
X158448007Y-88898808D01*
X158530112Y-87694448D01*
X158246043Y-87558690D01*
X158058852Y-87593620D01*
X157396274Y-87916718D01*
X156907777Y-88468779D01*
X156667728Y-89165757D01*
X156648003Y-89455085D01*
X157616493Y-89521110D01*
X157468956Y-89765642D01*
X156630727Y-89708497D01*
X156611003Y-89997826D01*
X156754240Y-90720933D01*
X157163295Y-91334183D01*
X157694680Y-91689855D01*
X157884771Y-92032789D01*
X158512670Y-91684739D01*
X158509888Y-91725552D01*
X158753192Y-91841828D01*
X158007913Y-92254943D01*
X158412729Y-92985250D01*
X158925767Y-93514583D01*
X159602320Y-93807292D01*
X159757714Y-93809721D01*
X159594353Y-94203138D01*
X159593837Y-94794268D01*
X159819576Y-95340598D01*
X160237203Y-95758955D01*
X160679364Y-95942556D01*
X159806919Y-96815001D01*
X157281433Y-96815001D01*
X157487209Y-96729976D01*
X158227377Y-95991099D01*
X158628447Y-95025216D01*
X158629360Y-93979373D01*
X158229976Y-93012791D01*
X157491099Y-92272623D01*
X156525216Y-91871553D01*
X155479373Y-91870640D01*
X154512791Y-92270024D01*
X153772623Y-93008901D01*
X153371553Y-93974784D01*
X153370640Y-95020627D01*
X153770024Y-95987209D01*
X154508901Y-96727377D01*
X154719923Y-96815001D01*
X143760000Y-96815001D01*
X143760000Y-94115005D01*
X143760001Y-94115000D01*
X143692633Y-93776326D01*
X143692633Y-93776325D01*
X143500790Y-93489210D01*
X143500787Y-93489208D01*
X141460790Y-91449210D01*
X141444013Y-91438000D01*
X141173675Y-91257367D01*
X141117484Y-91246190D01*
X140835000Y-91189999D01*
X140834995Y-91190000D01*
X140832191Y-91190000D01*
X140799090Y-91138559D01*
X140586890Y-90993569D01*
X140335000Y-90942560D01*
X139065000Y-90942560D01*
X138829683Y-90986838D01*
X138613559Y-91125910D01*
X138569768Y-91190000D01*
X138447255Y-91190000D01*
X139147377Y-90491099D01*
X139548447Y-89525216D01*
X139549360Y-88479373D01*
X139149976Y-87512791D01*
X138411099Y-86772623D01*
X137445216Y-86371553D01*
X136826789Y-86371013D01*
X137697401Y-85500401D01*
X137779097Y-85378134D01*
X138083295Y-85834183D01*
X138614680Y-86189855D01*
X138804771Y-86532789D01*
X139432670Y-86184739D01*
X139429888Y-86225552D01*
X139673192Y-86341828D01*
X138927913Y-86754943D01*
X139332729Y-87485250D01*
X139845767Y-88014583D01*
X140522320Y-88307292D01*
X140677714Y-88309721D01*
X140514353Y-88703138D01*
X140513837Y-89294268D01*
X140739576Y-89840598D01*
X141157203Y-90258955D01*
X141703138Y-90485647D01*
X142294268Y-90486163D01*
X142840598Y-90260424D01*
X143258955Y-89842797D01*
X143485647Y-89296862D01*
X143486163Y-88705732D01*
X143260424Y-88159402D01*
X142842797Y-87741045D01*
X142417703Y-87564530D01*
X142696789Y-87101964D01*
X142807076Y-86373103D01*
X142630045Y-85657518D01*
X142225229Y-84927211D01*
X140833058Y-85698904D01*
X141052223Y-85451221D01*
X141122126Y-85248258D01*
X142102087Y-84705057D01*
X141697271Y-83974750D01*
X141272623Y-83536615D01*
X141205760Y-83199067D01*
X140796705Y-82585817D01*
X140550464Y-82421000D01*
X145156198Y-82421000D01*
X151688130Y-88952932D01*
X151654649Y-89212496D01*
X151378467Y-89538158D01*
X150515812Y-91091234D01*
X150290976Y-91791516D01*
X150351242Y-92524533D01*
X150606742Y-93021683D01*
X150079402Y-93239576D01*
X149661045Y-93657203D01*
X149434353Y-94203138D01*
X149433837Y-94794268D01*
X149659576Y-95340598D01*
X150077203Y-95758955D01*
X150623138Y-95985647D01*
X151214268Y-95986163D01*
X151760598Y-95760424D01*
X152178955Y-95342797D01*
X152405647Y-94796862D01*
X152406163Y-94205732D01*
X152260658Y-93853582D01*
X152681667Y-93818968D01*
X153335825Y-93482777D01*
X153811532Y-92921842D01*
X154542862Y-91605197D01*
X154963091Y-91280992D01*
X155329167Y-90643078D01*
X155423258Y-89913631D01*
X155378012Y-89249948D01*
X155185793Y-88540020D01*
X154736528Y-87957691D01*
X154098613Y-87591615D01*
X153369166Y-87497524D01*
X152659238Y-87689743D01*
X152611429Y-87726627D01*
X146008401Y-81123599D01*
X145761839Y-80958852D01*
X145471000Y-80901000D01*
X138557000Y-80901000D01*
X138266160Y-80958852D01*
X138019599Y-81123599D01*
X136622599Y-82520599D01*
X136457852Y-82767161D01*
X136400000Y-83058000D01*
X136400000Y-84648198D01*
X136300118Y-84748080D01*
X136343258Y-84413631D01*
X136298012Y-83749948D01*
X136105793Y-83040020D01*
X135656528Y-82457691D01*
X135018613Y-82091615D01*
X134289166Y-81997524D01*
X133579238Y-82189743D01*
X132996909Y-82639008D01*
X132630833Y-83276923D01*
X132574649Y-83712496D01*
X132298467Y-84038158D01*
X131780876Y-84970000D01*
X130170000Y-84970000D01*
X129879161Y-85027852D01*
X129632599Y-85192599D01*
X127125000Y-87700198D01*
X127125000Y-82483802D01*
X129178802Y-80430000D01*
X166777560Y-80430000D01*
X166777560Y-82130000D01*
X166821838Y-82365317D01*
X166960910Y-82581441D01*
X167173110Y-82726431D01*
X167281107Y-82748301D01*
X167003355Y-83053076D01*
X166833524Y-83463110D01*
X166954845Y-83693000D01*
X168148000Y-83693000D01*
X168148000Y-83673000D01*
X168402000Y-83673000D01*
X168402000Y-83693000D01*
X169595155Y-83693000D01*
X169716476Y-83463110D01*
X169546645Y-83053076D01*
X169270499Y-82750063D01*
X169360317Y-82733162D01*
X169576441Y-82594090D01*
X169721431Y-82381890D01*
X169772440Y-82130000D01*
X169772440Y-80430000D01*
X169728162Y-80194683D01*
X169589090Y-79978559D01*
X169376890Y-79833569D01*
X169125000Y-79782560D01*
X167425000Y-79782560D01*
X167189683Y-79826838D01*
X166973559Y-79965910D01*
X166828569Y-80178110D01*
X166777560Y-80430000D01*
X129178802Y-80430000D01*
X135696802Y-73912000D01*
X146177000Y-73912000D01*
X146467839Y-73854148D01*
X146714401Y-73689401D01*
X147413802Y-72990000D01*
X150307295Y-72990000D01*
X150351242Y-73524533D01*
X150606742Y-74021683D01*
X150079402Y-74239576D01*
X149661045Y-74657203D01*
X149434353Y-75203138D01*
X149433837Y-75794268D01*
X149659576Y-76340598D01*
X150077203Y-76758955D01*
X150623138Y-76985647D01*
X151214268Y-76986163D01*
X151760598Y-76760424D01*
X152178955Y-76342797D01*
X152312731Y-76020627D01*
X153370640Y-76020627D01*
X153770024Y-76987209D01*
X154508901Y-77727377D01*
X155474784Y-78128447D01*
X156520627Y-78129360D01*
X157487209Y-77729976D01*
X158227377Y-76991099D01*
X158628447Y-76025216D01*
X158629360Y-74979373D01*
X158229976Y-74012791D01*
X157491099Y-73272623D01*
X156525216Y-72871553D01*
X155479373Y-72870640D01*
X154512791Y-73270024D01*
X153772623Y-74008901D01*
X153371553Y-74974784D01*
X153370640Y-76020627D01*
X152312731Y-76020627D01*
X152405647Y-75796862D01*
X152406163Y-75205732D01*
X152260658Y-74853582D01*
X152681667Y-74818968D01*
X153335825Y-74482777D01*
X153811532Y-73921842D01*
X154542862Y-72605197D01*
X154963091Y-72280992D01*
X155329167Y-71643078D01*
X155412397Y-70997826D01*
X156611003Y-70997826D01*
X156754240Y-71720933D01*
X157163295Y-72334183D01*
X157694680Y-72689855D01*
X157884771Y-73032789D01*
X158512670Y-72684739D01*
X158509888Y-72725552D01*
X158753192Y-72841828D01*
X158007913Y-73254943D01*
X158412729Y-73985250D01*
X158925767Y-74514583D01*
X159602320Y-74807292D01*
X159757714Y-74809721D01*
X159594353Y-75203138D01*
X159593837Y-75794268D01*
X159819576Y-76340598D01*
X160237203Y-76758955D01*
X160783138Y-76985647D01*
X161374268Y-76986163D01*
X161920598Y-76760424D01*
X162338955Y-76342797D01*
X162565647Y-75796862D01*
X162566163Y-75205732D01*
X162340424Y-74659402D01*
X161922797Y-74241045D01*
X161497703Y-74064530D01*
X161776789Y-73601964D01*
X161823737Y-73291694D01*
X182460819Y-73291694D01*
X182589082Y-73936516D01*
X182954344Y-74483169D01*
X183500997Y-74848431D01*
X184145819Y-74976694D01*
X184790641Y-74848431D01*
X185337294Y-74483169D01*
X185702556Y-73936516D01*
X185830819Y-73291694D01*
X185702556Y-72646872D01*
X185337294Y-72100219D01*
X184790641Y-71734957D01*
X184145819Y-71606694D01*
X183500997Y-71734957D01*
X182954344Y-72100219D01*
X182589082Y-72646872D01*
X182460819Y-73291694D01*
X161823737Y-73291694D01*
X161887076Y-72873103D01*
X161710045Y-72157518D01*
X161305229Y-71427211D01*
X159913058Y-72198904D01*
X160132223Y-71951221D01*
X160202126Y-71748258D01*
X161182087Y-71205057D01*
X160777271Y-70474750D01*
X160352623Y-70036615D01*
X160285760Y-69699067D01*
X159975137Y-69233384D01*
X167315001Y-69233384D01*
X167443264Y-69878206D01*
X167808526Y-70424859D01*
X168355179Y-70790121D01*
X169000001Y-70918384D01*
X169644823Y-70790121D01*
X170191476Y-70424859D01*
X170556738Y-69878206D01*
X170685001Y-69233384D01*
X170556738Y-68588562D01*
X170191476Y-68041909D01*
X169644823Y-67676647D01*
X169000001Y-67548384D01*
X168355179Y-67676647D01*
X167808526Y-68041909D01*
X167443264Y-68588562D01*
X167315001Y-69233384D01*
X159975137Y-69233384D01*
X159876705Y-69085817D01*
X159264107Y-68675786D01*
X159083389Y-68615774D01*
X158783524Y-68711724D01*
X158717813Y-69675604D01*
X158666282Y-69688960D01*
X158466627Y-69932400D01*
X158448007Y-69898808D01*
X158530112Y-68694448D01*
X158246043Y-68558690D01*
X158058852Y-68593620D01*
X157396274Y-68916718D01*
X156907777Y-69468779D01*
X156667728Y-70165757D01*
X156648003Y-70455085D01*
X157616493Y-70521110D01*
X157468956Y-70765642D01*
X156630727Y-70708497D01*
X156611003Y-70997826D01*
X155412397Y-70997826D01*
X155423258Y-70913631D01*
X155378012Y-70249948D01*
X155185793Y-69540020D01*
X154736528Y-68957691D01*
X154098613Y-68591615D01*
X153369166Y-68497524D01*
X152659238Y-68689743D01*
X152076909Y-69139008D01*
X151710833Y-69776923D01*
X151654649Y-70212496D01*
X151378467Y-70538158D01*
X150860876Y-71470000D01*
X147099000Y-71470000D01*
X146808161Y-71527852D01*
X146561599Y-71692599D01*
X145862198Y-72392000D01*
X138095081Y-72392000D01*
X138487209Y-72229976D01*
X139227377Y-71491099D01*
X139628447Y-70525216D01*
X139629360Y-69479373D01*
X139229976Y-68512791D01*
X138491099Y-67772623D01*
X137525216Y-67371553D01*
X136479373Y-67370640D01*
X135512791Y-67770024D01*
X134772623Y-68508901D01*
X134371553Y-69474784D01*
X134370640Y-70520627D01*
X134770024Y-71487209D01*
X135508901Y-72227377D01*
X135905357Y-72392000D01*
X135382000Y-72392000D01*
X135091161Y-72449852D01*
X134844599Y-72614599D01*
X134355000Y-73104198D01*
X134355000Y-68960167D01*
X134811532Y-68421842D01*
X135542862Y-67105197D01*
X135963091Y-66780992D01*
X136329167Y-66143078D01*
X136412397Y-65497826D01*
X137611003Y-65497826D01*
X137754240Y-66220933D01*
X138163295Y-66834183D01*
X138694680Y-67189855D01*
X138884771Y-67532789D01*
X139512670Y-67184739D01*
X139509888Y-67225552D01*
X139753192Y-67341828D01*
X139007913Y-67754943D01*
X139412729Y-68485250D01*
X139925767Y-69014583D01*
X140602320Y-69307292D01*
X140757714Y-69309721D01*
X140594353Y-69703138D01*
X140593837Y-70294268D01*
X140819576Y-70840598D01*
X141237203Y-71258955D01*
X141783138Y-71485647D01*
X142374268Y-71486163D01*
X142920598Y-71260424D01*
X143338955Y-70842797D01*
X143565647Y-70296862D01*
X143566163Y-69705732D01*
X143340424Y-69159402D01*
X142922797Y-68741045D01*
X142497703Y-68564530D01*
X142776789Y-68101964D01*
X142887076Y-67373103D01*
X142710045Y-66657518D01*
X142305229Y-65927211D01*
X140913058Y-66698904D01*
X141132223Y-66451221D01*
X141202126Y-66248258D01*
X142182087Y-65705057D01*
X141777271Y-64974750D01*
X141352623Y-64536615D01*
X141329164Y-64418184D01*
X145315000Y-64418184D01*
X145519383Y-65445689D01*
X146101418Y-66316766D01*
X146972495Y-66898801D01*
X148000000Y-67103184D01*
X149027505Y-66898801D01*
X149898582Y-66316766D01*
X150480617Y-65445689D01*
X150685000Y-64418184D01*
X150480617Y-63390679D01*
X149898582Y-62519602D01*
X149027505Y-61937567D01*
X148000000Y-61733184D01*
X146972495Y-61937567D01*
X146101418Y-62519602D01*
X145519383Y-63390679D01*
X145315000Y-64418184D01*
X141329164Y-64418184D01*
X141285760Y-64199067D01*
X140876705Y-63585817D01*
X140264107Y-63175786D01*
X140083389Y-63115774D01*
X139783524Y-63211724D01*
X139717813Y-64175604D01*
X139666282Y-64188960D01*
X139466627Y-64432400D01*
X139448007Y-64398808D01*
X139530112Y-63194448D01*
X139246043Y-63058690D01*
X139058852Y-63093620D01*
X138396274Y-63416718D01*
X137907777Y-63968779D01*
X137667728Y-64665757D01*
X137648003Y-64955085D01*
X138616493Y-65021110D01*
X138468956Y-65265642D01*
X137630727Y-65208497D01*
X137611003Y-65497826D01*
X136412397Y-65497826D01*
X136423258Y-65413631D01*
X136378012Y-64749948D01*
X136185793Y-64040020D01*
X135736528Y-63457691D01*
X135098613Y-63091615D01*
X134369166Y-62997524D01*
X133659238Y-63189743D01*
X133076909Y-63639008D01*
X132710833Y-64276923D01*
X132654649Y-64712496D01*
X132378467Y-65038158D01*
X131515812Y-66591234D01*
X131290976Y-67291516D01*
X131351242Y-68024533D01*
X131606742Y-68521683D01*
X131079402Y-68739576D01*
X130661045Y-69157203D01*
X130434353Y-69703138D01*
X130433837Y-70294268D01*
X130659576Y-70840598D01*
X131077203Y-71258955D01*
X131623138Y-71485647D01*
X132214268Y-71486163D01*
X132760598Y-71260424D01*
X132835000Y-71186152D01*
X132835000Y-73987787D01*
X125377588Y-81445199D01*
X125212841Y-81691761D01*
X125154989Y-81982600D01*
X125154989Y-83059187D01*
X115435000Y-73339198D01*
X115435000Y-70520627D01*
X115450640Y-70520627D01*
X115850024Y-71487209D01*
X116588901Y-72227377D01*
X117554784Y-72628447D01*
X118600627Y-72629360D01*
X119567209Y-72229976D01*
X120307377Y-71491099D01*
X120708447Y-70525216D01*
X120709360Y-69479373D01*
X120309976Y-68512791D01*
X119571099Y-67772623D01*
X118605216Y-67371553D01*
X117559373Y-67370640D01*
X116592791Y-67770024D01*
X115852623Y-68508901D01*
X115451553Y-69474784D01*
X115450640Y-70520627D01*
X115435000Y-70520627D01*
X115435000Y-68960167D01*
X115891532Y-68421842D01*
X116622862Y-67105197D01*
X117043091Y-66780992D01*
X117409167Y-66143078D01*
X117492397Y-65497826D01*
X118691003Y-65497826D01*
X118834240Y-66220933D01*
X119243295Y-66834183D01*
X119774680Y-67189855D01*
X119964771Y-67532789D01*
X120592670Y-67184739D01*
X120589888Y-67225552D01*
X120833192Y-67341828D01*
X120087913Y-67754943D01*
X120492729Y-68485250D01*
X121005767Y-69014583D01*
X121682320Y-69307292D01*
X121837714Y-69309721D01*
X121674353Y-69703138D01*
X121673837Y-70294268D01*
X121899576Y-70840598D01*
X122317203Y-71258955D01*
X122863138Y-71485647D01*
X123454268Y-71486163D01*
X124000598Y-71260424D01*
X124418955Y-70842797D01*
X124645647Y-70296862D01*
X124646163Y-69705732D01*
X124420424Y-69159402D01*
X124002797Y-68741045D01*
X123577703Y-68564530D01*
X123856789Y-68101964D01*
X123967076Y-67373103D01*
X123790045Y-66657518D01*
X123385229Y-65927211D01*
X121993058Y-66698904D01*
X122212223Y-66451221D01*
X122282126Y-66248258D01*
X123262087Y-65705057D01*
X122857271Y-64974750D01*
X122432623Y-64536615D01*
X122365760Y-64199067D01*
X121956705Y-63585817D01*
X121344107Y-63175786D01*
X121163389Y-63115774D01*
X120863524Y-63211724D01*
X120797813Y-64175604D01*
X120746282Y-64188960D01*
X120546627Y-64432400D01*
X120528007Y-64398808D01*
X120610112Y-63194448D01*
X120326043Y-63058690D01*
X120138852Y-63093620D01*
X119476274Y-63416718D01*
X118987777Y-63968779D01*
X118747728Y-64665757D01*
X118728003Y-64955085D01*
X119696493Y-65021110D01*
X119548956Y-65265642D01*
X118710727Y-65208497D01*
X118691003Y-65497826D01*
X117492397Y-65497826D01*
X117503258Y-65413631D01*
X117458012Y-64749948D01*
X117265793Y-64040020D01*
X116816528Y-63457691D01*
X116178613Y-63091615D01*
X115449166Y-62997524D01*
X114739238Y-63189743D01*
X114156909Y-63639008D01*
X113790833Y-64276923D01*
X113734649Y-64712496D01*
X113458467Y-65038158D01*
X112595812Y-66591234D01*
X112370976Y-67291516D01*
X112431242Y-68024533D01*
X112686742Y-68521683D01*
X112159402Y-68739576D01*
X111741045Y-69157203D01*
X111514353Y-69703138D01*
X111513837Y-70294268D01*
X111739576Y-70840598D01*
X112157203Y-71258955D01*
X112703138Y-71485647D01*
X113294268Y-71486163D01*
X113840598Y-71260424D01*
X113915000Y-71186152D01*
X113915000Y-73654000D01*
X113972852Y-73944839D01*
X114123299Y-74170000D01*
X98612802Y-74170000D01*
X96355000Y-71912198D01*
X96355000Y-70520627D01*
X96370640Y-70520627D01*
X96770024Y-71487209D01*
X97508901Y-72227377D01*
X98474784Y-72628447D01*
X99520627Y-72629360D01*
X100487209Y-72229976D01*
X101227377Y-71491099D01*
X101628447Y-70525216D01*
X101629360Y-69479373D01*
X101229976Y-68512791D01*
X100491099Y-67772623D01*
X99525216Y-67371553D01*
X98479373Y-67370640D01*
X97512791Y-67770024D01*
X96772623Y-68508901D01*
X96371553Y-69474784D01*
X96370640Y-70520627D01*
X96355000Y-70520627D01*
X96355000Y-68960167D01*
X96811532Y-68421842D01*
X97542862Y-67105197D01*
X97963091Y-66780992D01*
X98329167Y-66143078D01*
X98412397Y-65497826D01*
X99611003Y-65497826D01*
X99754240Y-66220933D01*
X100163295Y-66834183D01*
X100694680Y-67189855D01*
X100884771Y-67532789D01*
X101512670Y-67184739D01*
X101509888Y-67225552D01*
X101753192Y-67341828D01*
X101007913Y-67754943D01*
X101412729Y-68485250D01*
X101925767Y-69014583D01*
X102602320Y-69307292D01*
X102757714Y-69309721D01*
X102594353Y-69703138D01*
X102593837Y-70294268D01*
X102819576Y-70840598D01*
X103237203Y-71258955D01*
X103783138Y-71485647D01*
X104374268Y-71486163D01*
X104920598Y-71260424D01*
X105338955Y-70842797D01*
X105565647Y-70296862D01*
X105566163Y-69705732D01*
X105340424Y-69159402D01*
X104922797Y-68741045D01*
X104497703Y-68564530D01*
X104776789Y-68101964D01*
X104887076Y-67373103D01*
X104710045Y-66657518D01*
X104305229Y-65927211D01*
X102913058Y-66698904D01*
X103132223Y-66451221D01*
X103202126Y-66248258D01*
X104182087Y-65705057D01*
X103777271Y-64974750D01*
X103352623Y-64536615D01*
X103285760Y-64199067D01*
X102876705Y-63585817D01*
X102264107Y-63175786D01*
X102083389Y-63115774D01*
X101783524Y-63211724D01*
X101717813Y-64175604D01*
X101666282Y-64188960D01*
X101466627Y-64432400D01*
X101448007Y-64398808D01*
X101530112Y-63194448D01*
X101246043Y-63058690D01*
X101058852Y-63093620D01*
X100396274Y-63416718D01*
X99907777Y-63968779D01*
X99667728Y-64665757D01*
X99648003Y-64955085D01*
X100616493Y-65021110D01*
X100468956Y-65265642D01*
X99630727Y-65208497D01*
X99611003Y-65497826D01*
X98412397Y-65497826D01*
X98423258Y-65413631D01*
X98378012Y-64749948D01*
X98185793Y-64040020D01*
X97736528Y-63457691D01*
X97098613Y-63091615D01*
X96369166Y-62997524D01*
X95659238Y-63189743D01*
X95076909Y-63639008D01*
X94710833Y-64276923D01*
X94654649Y-64712496D01*
X94378467Y-65038158D01*
X93515812Y-66591234D01*
X93290976Y-67291516D01*
X93351242Y-68024533D01*
X93606742Y-68521683D01*
X93079402Y-68739576D01*
X92661045Y-69157203D01*
X92434353Y-69703138D01*
X92433837Y-70294268D01*
X92659576Y-70840598D01*
X93077203Y-71258955D01*
X93623138Y-71485647D01*
X94214268Y-71486163D01*
X94760598Y-71260424D01*
X94835000Y-71186152D01*
X94835000Y-72227000D01*
X94892852Y-72517839D01*
X95057599Y-72764401D01*
X97733198Y-75440000D01*
X80578802Y-75440000D01*
X77275000Y-72136198D01*
X77275000Y-70520627D01*
X77290640Y-70520627D01*
X77690024Y-71487209D01*
X78428901Y-72227377D01*
X79394784Y-72628447D01*
X80440627Y-72629360D01*
X81407209Y-72229976D01*
X82147377Y-71491099D01*
X82548447Y-70525216D01*
X82549360Y-69479373D01*
X82149976Y-68512791D01*
X81411099Y-67772623D01*
X80445216Y-67371553D01*
X79399373Y-67370640D01*
X78432791Y-67770024D01*
X77692623Y-68508901D01*
X77291553Y-69474784D01*
X77290640Y-70520627D01*
X77275000Y-70520627D01*
X77275000Y-68960167D01*
X77731532Y-68421842D01*
X78462862Y-67105197D01*
X78883091Y-66780992D01*
X79249167Y-66143078D01*
X79332397Y-65497826D01*
X80531003Y-65497826D01*
X80674240Y-66220933D01*
X81083295Y-66834183D01*
X81614680Y-67189855D01*
X81804771Y-67532789D01*
X82432670Y-67184739D01*
X82429888Y-67225552D01*
X82673192Y-67341828D01*
X81927913Y-67754943D01*
X82332729Y-68485250D01*
X82845767Y-69014583D01*
X83522320Y-69307292D01*
X83677714Y-69309721D01*
X83514353Y-69703138D01*
X83513837Y-70294268D01*
X83739576Y-70840598D01*
X84157203Y-71258955D01*
X84703138Y-71485647D01*
X85294268Y-71486163D01*
X85840598Y-71260424D01*
X86258955Y-70842797D01*
X86485647Y-70296862D01*
X86486163Y-69705732D01*
X86260424Y-69159402D01*
X85842797Y-68741045D01*
X85417703Y-68564530D01*
X85696789Y-68101964D01*
X85807076Y-67373103D01*
X85630045Y-66657518D01*
X85225229Y-65927211D01*
X83833058Y-66698904D01*
X84052223Y-66451221D01*
X84122126Y-66248258D01*
X85102087Y-65705057D01*
X84697271Y-64974750D01*
X84272623Y-64536615D01*
X84205760Y-64199067D01*
X83796705Y-63585817D01*
X83184107Y-63175786D01*
X83003389Y-63115774D01*
X82703524Y-63211724D01*
X82637813Y-64175604D01*
X82586282Y-64188960D01*
X82386627Y-64432400D01*
X82368007Y-64398808D01*
X82450112Y-63194448D01*
X82166043Y-63058690D01*
X81978852Y-63093620D01*
X81316274Y-63416718D01*
X80827777Y-63968779D01*
X80587728Y-64665757D01*
X80568003Y-64955085D01*
X81536493Y-65021110D01*
X81388956Y-65265642D01*
X80550727Y-65208497D01*
X80531003Y-65497826D01*
X79332397Y-65497826D01*
X79343258Y-65413631D01*
X79298012Y-64749948D01*
X79105793Y-64040020D01*
X78656528Y-63457691D01*
X78018613Y-63091615D01*
X77289166Y-62997524D01*
X76579238Y-63189743D01*
X75996909Y-63639008D01*
X75630833Y-64276923D01*
X75574649Y-64712496D01*
X75298467Y-65038158D01*
X74435812Y-66591234D01*
X74210976Y-67291516D01*
X74271242Y-68024533D01*
X74526742Y-68521683D01*
X73999402Y-68739576D01*
X73581045Y-69157203D01*
X73354353Y-69703138D01*
X73353837Y-70294268D01*
X73579576Y-70840598D01*
X73997203Y-71258955D01*
X74543138Y-71485647D01*
X75134268Y-71486163D01*
X75680598Y-71260424D01*
X75755000Y-71186152D01*
X75755000Y-72451000D01*
X75812852Y-72741839D01*
X75977599Y-72988401D01*
X79726599Y-76737401D01*
X79973161Y-76902148D01*
X80264000Y-76960000D01*
X88771034Y-76960000D01*
X88472495Y-77019383D01*
X87601418Y-77601418D01*
X87019383Y-78472495D01*
X86815000Y-79500000D01*
X87019383Y-80527505D01*
X87601418Y-81398582D01*
X88472495Y-81980617D01*
X89500000Y-82185000D01*
X90527505Y-81980617D01*
X91398582Y-81398582D01*
X91980617Y-80527505D01*
X92185000Y-79500000D01*
X91980617Y-78472495D01*
X91398582Y-77601418D01*
X90527505Y-77019383D01*
X90228966Y-76960000D01*
X110429198Y-76960000D01*
X115493017Y-82023819D01*
X115289166Y-81997524D01*
X114579238Y-82189743D01*
X113996909Y-82639008D01*
X113630833Y-83276923D01*
X113574649Y-83712496D01*
X113298467Y-84038158D01*
X112435812Y-85591234D01*
X112210976Y-86291516D01*
X112271242Y-87024533D01*
X112526742Y-87521683D01*
X111999402Y-87739576D01*
X111581045Y-88157203D01*
X111354353Y-88703138D01*
X111353837Y-89294268D01*
X111579576Y-89840598D01*
X111997203Y-90258955D01*
X112543138Y-90485647D01*
X113134268Y-90486163D01*
X113680598Y-90260424D01*
X113755000Y-90186152D01*
X113755000Y-91655000D01*
X113812852Y-91945839D01*
X113977599Y-92192401D01*
X119486271Y-97701073D01*
X119497841Y-97759239D01*
X119662588Y-98005801D01*
X120464787Y-98808000D01*
X103946802Y-98808000D01*
X96275000Y-91136198D01*
X96275000Y-89520627D01*
X96290640Y-89520627D01*
X96690024Y-90487209D01*
X97428901Y-91227377D01*
X98394784Y-91628447D01*
X99440627Y-91629360D01*
X100407209Y-91229976D01*
X101147377Y-90491099D01*
X101548447Y-89525216D01*
X101549360Y-88479373D01*
X101149976Y-87512791D01*
X100411099Y-86772623D01*
X99445216Y-86371553D01*
X98399373Y-86370640D01*
X97432791Y-86770024D01*
X96692623Y-87508901D01*
X96291553Y-88474784D01*
X96290640Y-89520627D01*
X96275000Y-89520627D01*
X96275000Y-87960167D01*
X96731532Y-87421842D01*
X97462862Y-86105197D01*
X97883091Y-85780992D01*
X98249167Y-85143078D01*
X98332397Y-84497826D01*
X99531003Y-84497826D01*
X99674240Y-85220933D01*
X100083295Y-85834183D01*
X100614680Y-86189855D01*
X100804771Y-86532789D01*
X101432670Y-86184739D01*
X101429888Y-86225552D01*
X101673192Y-86341828D01*
X100927913Y-86754943D01*
X101332729Y-87485250D01*
X101845767Y-88014583D01*
X102522320Y-88307292D01*
X102677714Y-88309721D01*
X102514353Y-88703138D01*
X102513837Y-89294268D01*
X102739576Y-89840598D01*
X103157203Y-90258955D01*
X103703138Y-90485647D01*
X104294268Y-90486163D01*
X104840598Y-90260424D01*
X105258955Y-89842797D01*
X105485647Y-89296862D01*
X105486163Y-88705732D01*
X105260424Y-88159402D01*
X104842797Y-87741045D01*
X104417703Y-87564530D01*
X104696789Y-87101964D01*
X104807076Y-86373103D01*
X104630045Y-85657518D01*
X104225229Y-84927211D01*
X102833058Y-85698904D01*
X103052223Y-85451221D01*
X103122126Y-85248258D01*
X104102087Y-84705057D01*
X103697271Y-83974750D01*
X103272623Y-83536615D01*
X103205760Y-83199067D01*
X102796705Y-82585817D01*
X102184107Y-82175786D01*
X102003389Y-82115774D01*
X101703524Y-82211724D01*
X101637813Y-83175604D01*
X101586282Y-83188960D01*
X101386627Y-83432400D01*
X101368007Y-83398808D01*
X101450112Y-82194448D01*
X101166043Y-82058690D01*
X100978852Y-82093620D01*
X100316274Y-82416718D01*
X99827777Y-82968779D01*
X99587728Y-83665757D01*
X99568003Y-83955085D01*
X100536493Y-84021110D01*
X100388956Y-84265642D01*
X99550727Y-84208497D01*
X99531003Y-84497826D01*
X98332397Y-84497826D01*
X98343258Y-84413631D01*
X98298012Y-83749948D01*
X98105793Y-83040020D01*
X97656528Y-82457691D01*
X97018613Y-82091615D01*
X96289166Y-81997524D01*
X95579238Y-82189743D01*
X94996909Y-82639008D01*
X94630833Y-83276923D01*
X94574649Y-83712496D01*
X94298467Y-84038158D01*
X93435812Y-85591234D01*
X93210976Y-86291516D01*
X93271242Y-87024533D01*
X93526742Y-87521683D01*
X92999402Y-87739576D01*
X92581045Y-88157203D01*
X92354353Y-88703138D01*
X92353837Y-89294268D01*
X92579576Y-89840598D01*
X92997203Y-90258955D01*
X93543138Y-90485647D01*
X94134268Y-90486163D01*
X94680598Y-90260424D01*
X94755000Y-90186152D01*
X94755000Y-91451000D01*
X94812852Y-91741839D01*
X94977599Y-91988401D01*
X102305198Y-99316000D01*
X95818802Y-99316000D01*
X91469401Y-94966599D01*
X91222839Y-94801852D01*
X90932000Y-94744000D01*
X81594802Y-94744000D01*
X77275000Y-90424198D01*
X77275000Y-89520627D01*
X77290640Y-89520627D01*
X77690024Y-90487209D01*
X78428901Y-91227377D01*
X79394784Y-91628447D01*
X80440627Y-91629360D01*
X81407209Y-91229976D01*
X82147377Y-90491099D01*
X82548447Y-89525216D01*
X82549360Y-88479373D01*
X82149976Y-87512791D01*
X81411099Y-86772623D01*
X80445216Y-86371553D01*
X79399373Y-86370640D01*
X78432791Y-86770024D01*
X77692623Y-87508901D01*
X77291553Y-88474784D01*
X77290640Y-89520627D01*
X77275000Y-89520627D01*
X77275000Y-87960167D01*
X77731532Y-87421842D01*
X78462862Y-86105197D01*
X78883091Y-85780992D01*
X79249167Y-85143078D01*
X79332397Y-84497826D01*
X80531003Y-84497826D01*
X80674240Y-85220933D01*
X81083295Y-85834183D01*
X81614680Y-86189855D01*
X81804771Y-86532789D01*
X82432670Y-86184739D01*
X82429888Y-86225552D01*
X82673192Y-86341828D01*
X81927913Y-86754943D01*
X82332729Y-87485250D01*
X82845767Y-88014583D01*
X83522320Y-88307292D01*
X83677714Y-88309721D01*
X83514353Y-88703138D01*
X83513837Y-89294268D01*
X83739576Y-89840598D01*
X84157203Y-90258955D01*
X84703138Y-90485647D01*
X85294268Y-90486163D01*
X85840598Y-90260424D01*
X86258955Y-89842797D01*
X86485647Y-89296862D01*
X86486163Y-88705732D01*
X86260424Y-88159402D01*
X85842797Y-87741045D01*
X85417703Y-87564530D01*
X85696789Y-87101964D01*
X85807076Y-86373103D01*
X85630045Y-85657518D01*
X85225229Y-84927211D01*
X83833058Y-85698904D01*
X84052223Y-85451221D01*
X84122126Y-85248258D01*
X85102087Y-84705057D01*
X84697271Y-83974750D01*
X84272623Y-83536615D01*
X84205760Y-83199067D01*
X83796705Y-82585817D01*
X83184107Y-82175786D01*
X83003389Y-82115774D01*
X82703524Y-82211724D01*
X82637813Y-83175604D01*
X82586282Y-83188960D01*
X82386627Y-83432400D01*
X82368007Y-83398808D01*
X82450112Y-82194448D01*
X82166043Y-82058690D01*
X81978852Y-82093620D01*
X81316274Y-82416718D01*
X80827777Y-82968779D01*
X80587728Y-83665757D01*
X80568003Y-83955085D01*
X81536493Y-84021110D01*
X81388956Y-84265642D01*
X80550727Y-84208497D01*
X80531003Y-84497826D01*
X79332397Y-84497826D01*
X79343258Y-84413631D01*
X79298012Y-83749948D01*
X79105793Y-83040020D01*
X78656528Y-82457691D01*
X78018613Y-82091615D01*
X77289166Y-81997524D01*
X76579238Y-82189743D01*
X75996909Y-82639008D01*
X75630833Y-83276923D01*
X75574649Y-83712496D01*
X75298467Y-84038158D01*
X74435812Y-85591234D01*
X74210976Y-86291516D01*
X74271242Y-87024533D01*
X74526742Y-87521683D01*
X73999402Y-87739576D01*
X73581045Y-88157203D01*
X73354353Y-88703138D01*
X73353837Y-89294268D01*
X73579576Y-89840598D01*
X73997203Y-90258955D01*
X74543138Y-90485647D01*
X75134268Y-90486163D01*
X75680598Y-90260424D01*
X75755000Y-90186152D01*
X75755000Y-90739000D01*
X75812852Y-91029839D01*
X75977599Y-91276401D01*
X80742599Y-96041401D01*
X80989161Y-96206148D01*
X81280000Y-96264000D01*
X88106401Y-96264000D01*
X87601418Y-96601419D01*
X87019383Y-97472496D01*
X86815000Y-98500001D01*
X87019383Y-99527506D01*
X87472070Y-100205000D01*
X79756000Y-100205000D01*
X79548730Y-100246229D01*
X79465160Y-100262852D01*
X79218599Y-100427599D01*
X78846599Y-100799599D01*
X78828476Y-100826722D01*
X78394045Y-101261153D01*
X78098613Y-101091615D01*
X77369166Y-100997524D01*
X76659238Y-101189743D01*
X76076909Y-101639008D01*
X75710833Y-102276923D01*
X75654649Y-102712496D01*
X75378467Y-103038158D01*
X74515812Y-104591234D01*
X74290976Y-105291516D01*
X74351242Y-106024533D01*
X74606742Y-106521683D01*
X74079402Y-106739576D01*
X73661045Y-107157203D01*
X73434353Y-107703138D01*
X73433837Y-108294268D01*
X73659576Y-108840598D01*
X74077203Y-109258955D01*
X74623138Y-109485647D01*
X75214268Y-109486163D01*
X75760598Y-109260424D01*
X76178955Y-108842797D01*
X76312731Y-108520627D01*
X77370640Y-108520627D01*
X77770024Y-109487209D01*
X78508901Y-110227377D01*
X79474784Y-110628447D01*
X80520627Y-110629360D01*
X81487209Y-110229976D01*
X82227377Y-109491099D01*
X82628447Y-108525216D01*
X82629360Y-107479373D01*
X82229976Y-106512791D01*
X81491099Y-105772623D01*
X80525216Y-105371553D01*
X79479373Y-105370640D01*
X78512791Y-105770024D01*
X77772623Y-106508901D01*
X77371553Y-107474784D01*
X77370640Y-108520627D01*
X76312731Y-108520627D01*
X76405647Y-108296862D01*
X76406163Y-107705732D01*
X76260658Y-107353582D01*
X76681667Y-107318968D01*
X77335825Y-106982777D01*
X77811532Y-106421842D01*
X78542862Y-105105197D01*
X78963091Y-104780992D01*
X79329167Y-104143078D01*
X79423258Y-103413631D01*
X79378012Y-102749948D01*
X79309157Y-102495645D01*
X79921401Y-101883401D01*
X79939524Y-101856278D01*
X80070802Y-101725000D01*
X81123487Y-101725000D01*
X80907777Y-101968779D01*
X80667728Y-102665757D01*
X80648003Y-102955085D01*
X81616493Y-103021110D01*
X81468956Y-103265642D01*
X80630727Y-103208497D01*
X80611003Y-103497826D01*
X80754240Y-104220933D01*
X81163295Y-104834183D01*
X81694680Y-105189855D01*
X81884771Y-105532789D01*
X82512670Y-105184739D01*
X82509888Y-105225552D01*
X82753192Y-105341828D01*
X82007913Y-105754943D01*
X82412729Y-106485250D01*
X82925767Y-107014583D01*
X83602320Y-107307292D01*
X83757714Y-107309721D01*
X83594353Y-107703138D01*
X83593837Y-108294268D01*
X83819576Y-108840598D01*
X84237203Y-109258955D01*
X84783138Y-109485647D01*
X85374268Y-109486163D01*
X85920598Y-109260424D01*
X86338955Y-108842797D01*
X86565647Y-108296862D01*
X86566163Y-107705732D01*
X86340424Y-107159402D01*
X85922797Y-106741045D01*
X85497703Y-106564530D01*
X85776789Y-106101964D01*
X85887076Y-105373103D01*
X85710045Y-104657518D01*
X85305229Y-103927211D01*
X83913058Y-104698904D01*
X84132223Y-104451221D01*
X84202126Y-104248258D01*
X85182087Y-103705057D01*
X84777271Y-102974750D01*
X84352623Y-102536615D01*
X84285760Y-102199067D01*
X83969544Y-101725000D01*
X87696198Y-101725000D01*
X87854599Y-101883401D01*
X88101160Y-102048148D01*
X88392000Y-102106000D01*
X90932000Y-102106000D01*
X91222839Y-102048148D01*
X91469401Y-101883401D01*
X92008802Y-101344000D01*
X95539293Y-101344000D01*
X95156909Y-101639008D01*
X94790833Y-102276923D01*
X94734649Y-102712496D01*
X94458467Y-103038158D01*
X93595812Y-104591234D01*
X93370976Y-105291516D01*
X93431242Y-106024533D01*
X93686742Y-106521683D01*
X93159402Y-106739576D01*
X92741045Y-107157203D01*
X92514353Y-107703138D01*
X92513837Y-108294268D01*
X92739576Y-108840598D01*
X93157203Y-109258955D01*
X93703138Y-109485647D01*
X94294268Y-109486163D01*
X94840598Y-109260424D01*
X95258955Y-108842797D01*
X95392731Y-108520627D01*
X96450640Y-108520627D01*
X96850024Y-109487209D01*
X97588901Y-110227377D01*
X98554784Y-110628447D01*
X99600627Y-110629360D01*
X100567209Y-110229976D01*
X101307377Y-109491099D01*
X101708447Y-108525216D01*
X101709360Y-107479373D01*
X101309976Y-106512791D01*
X100571099Y-105772623D01*
X99605216Y-105371553D01*
X98559373Y-105370640D01*
X97592791Y-105770024D01*
X96852623Y-106508901D01*
X96451553Y-107474784D01*
X96450640Y-108520627D01*
X95392731Y-108520627D01*
X95485647Y-108296862D01*
X95486163Y-107705732D01*
X95340658Y-107353582D01*
X95761667Y-107318968D01*
X96415825Y-106982777D01*
X96891532Y-106421842D01*
X97622862Y-105105197D01*
X98043091Y-104780992D01*
X98409167Y-104143078D01*
X98503258Y-103413631D01*
X98458012Y-102749948D01*
X98389157Y-102495645D01*
X99032802Y-101852000D01*
X100091110Y-101852000D01*
X99987777Y-101968779D01*
X99747728Y-102665757D01*
X99728003Y-102955085D01*
X100696493Y-103021110D01*
X100548956Y-103265642D01*
X99710727Y-103208497D01*
X99691003Y-103497826D01*
X99834240Y-104220933D01*
X100243295Y-104834183D01*
X100774680Y-105189855D01*
X100964771Y-105532789D01*
X101592670Y-105184739D01*
X101589888Y-105225552D01*
X101833192Y-105341828D01*
X101087913Y-105754943D01*
X101492729Y-106485250D01*
X102005767Y-107014583D01*
X102682320Y-107307292D01*
X102837714Y-107309721D01*
X102674353Y-107703138D01*
X102673837Y-108294268D01*
X102899576Y-108840598D01*
X103317203Y-109258955D01*
X103863138Y-109485647D01*
X104454268Y-109486163D01*
X105000598Y-109260424D01*
X105418955Y-108842797D01*
X105645647Y-108296862D01*
X105646163Y-107705732D01*
X105420424Y-107159402D01*
X105002797Y-106741045D01*
X104577703Y-106564530D01*
X104856789Y-106101964D01*
X104967076Y-105373103D01*
X104790045Y-104657518D01*
X104385229Y-103927211D01*
X102993058Y-104698904D01*
X103212223Y-104451221D01*
X103282126Y-104248258D01*
X104262087Y-103705057D01*
X103857271Y-102974750D01*
X103432623Y-102536615D01*
X103365760Y-102199067D01*
X103134257Y-101852000D01*
X114034681Y-101852000D01*
X113790833Y-102276923D01*
X113734649Y-102712496D01*
X113458467Y-103038158D01*
X112595812Y-104591234D01*
X112370976Y-105291516D01*
X112431242Y-106024533D01*
X112686742Y-106521683D01*
X112159402Y-106739576D01*
X111741045Y-107157203D01*
X111514353Y-107703138D01*
X111513837Y-108294268D01*
X111739576Y-108840598D01*
X112157203Y-109258955D01*
X112703138Y-109485647D01*
X113294268Y-109486163D01*
X113840598Y-109260424D01*
X114258955Y-108842797D01*
X114305036Y-108731820D01*
X117108617Y-111535401D01*
X117355179Y-111700148D01*
X117646018Y-111758000D01*
X123698000Y-111758000D01*
X123988839Y-111700148D01*
X124235401Y-111535401D01*
X129336965Y-106433837D01*
X129288000Y-106680000D01*
X129288000Y-108712000D01*
X129345852Y-109002839D01*
X129510599Y-109249401D01*
X132050599Y-111789401D01*
X132297160Y-111954148D01*
X132345414Y-111963746D01*
X132588000Y-112012000D01*
X140909198Y-112012000D01*
X155164599Y-126267401D01*
X155411161Y-126432148D01*
X155702000Y-126490000D01*
X169418000Y-126490000D01*
X169708839Y-126432148D01*
X169955401Y-126267401D01*
X171277797Y-124945005D01*
X171277543Y-125235428D01*
X171676927Y-126202010D01*
X172415804Y-126942178D01*
X173381687Y-127343248D01*
X174427530Y-127344161D01*
X175394112Y-126944777D01*
X176134280Y-126205900D01*
X176535350Y-125240017D01*
X176536263Y-124194174D01*
X176136879Y-123227592D01*
X175398002Y-122487424D01*
X174432119Y-122086354D01*
X173386276Y-122085441D01*
X172419694Y-122484825D01*
X172224264Y-122679914D01*
X172224264Y-122600430D01*
X173248649Y-121541499D01*
X173738464Y-121337107D01*
X173815452Y-121259714D01*
X175613537Y-121259714D01*
X175849933Y-121957940D01*
X176271157Y-122439025D01*
X176366013Y-122819473D01*
X177062599Y-122645795D01*
X177049349Y-122684496D01*
X177254268Y-122859782D01*
X176427462Y-123065928D01*
X176629466Y-123876125D01*
X176988022Y-124520206D01*
X177565763Y-124978045D01*
X177719982Y-125021963D01*
X177554851Y-125186805D01*
X177328159Y-125732740D01*
X177327643Y-126323870D01*
X177553382Y-126870200D01*
X177971009Y-127288557D01*
X178516944Y-127515249D01*
X179108074Y-127515765D01*
X179654404Y-127290026D01*
X180072761Y-126872399D01*
X180299453Y-126326464D01*
X180299969Y-125735334D01*
X180074230Y-125189004D01*
X179656603Y-124770647D01*
X179595090Y-124745105D01*
X179978101Y-124376582D01*
X180273273Y-123701101D01*
X180287481Y-122964080D01*
X180085477Y-122153883D01*
X178541015Y-122538960D01*
X178816816Y-122356442D01*
X178936868Y-122178487D01*
X180024028Y-121907428D01*
X179822024Y-121097231D01*
X179525242Y-120564116D01*
X179548021Y-120220766D01*
X179311625Y-119522540D01*
X178826024Y-118967929D01*
X178666996Y-118863189D01*
X178352515Y-118878259D01*
X178039573Y-119792289D01*
X177986341Y-119791852D01*
X177730484Y-119975322D01*
X177721192Y-119938054D01*
X178112209Y-118795984D01*
X177872956Y-118591329D01*
X177683104Y-118576620D01*
X176959479Y-118717221D01*
X176344742Y-119124038D01*
X175932482Y-119735138D01*
X175838546Y-120009503D01*
X176756947Y-120323942D01*
X176551148Y-120521956D01*
X175756271Y-120249809D01*
X175662335Y-120524173D01*
X175613537Y-121259714D01*
X173815452Y-121259714D01*
X174257172Y-120815677D01*
X174536852Y-120135438D01*
X174664922Y-119482660D01*
X174662996Y-118747172D01*
X174379758Y-118068406D01*
X174289883Y-117979000D01*
X180593995Y-117979000D01*
X180594000Y-117979001D01*
X180876484Y-117922810D01*
X180932675Y-117911633D01*
X181219790Y-117719790D01*
X181219791Y-117719789D01*
X182997787Y-115941792D01*
X182997790Y-115941790D01*
X183189633Y-115654675D01*
X183221480Y-115494571D01*
X183257001Y-115316000D01*
X183257000Y-115315995D01*
X183257000Y-110711189D01*
X183500997Y-110874223D01*
X184145819Y-111002486D01*
X184790641Y-110874223D01*
X185337294Y-110508961D01*
X185702556Y-109962308D01*
X185830819Y-109317486D01*
X185702556Y-108672664D01*
X185337294Y-108126011D01*
X184790641Y-107760749D01*
X184145819Y-107632486D01*
X183500997Y-107760749D01*
X183257000Y-107923783D01*
X183257000Y-107427580D01*
X186460819Y-104223760D01*
X186460819Y-113883763D01*
X186421428Y-114182971D01*
X179608323Y-139609822D01*
X179439235Y-139951194D01*
X179203729Y-140157002D01*
X178907098Y-140257117D01*
X178528337Y-140231960D01*
X145373646Y-131348187D01*
X157060752Y-131348187D01*
X157278757Y-131875800D01*
X157682077Y-132279824D01*
X158209309Y-132498750D01*
X158780187Y-132499248D01*
X159307800Y-132281243D01*
X159411627Y-132177597D01*
X159341228Y-132531516D01*
X159545611Y-133559021D01*
X160127646Y-134430098D01*
X160998723Y-135012133D01*
X162026228Y-135216516D01*
X163053733Y-135012133D01*
X163924810Y-134430098D01*
X164506845Y-133559021D01*
X164711228Y-132531516D01*
X164506845Y-131504011D01*
X163924810Y-130632934D01*
X163053733Y-130050899D01*
X162026228Y-129846516D01*
X160998723Y-130050899D01*
X160127646Y-130632934D01*
X159931120Y-130927057D01*
X159931248Y-130779813D01*
X159713243Y-130252200D01*
X159309923Y-129848176D01*
X158782691Y-129629250D01*
X158211813Y-129628752D01*
X157684200Y-129846757D01*
X157280176Y-130250077D01*
X157061250Y-130777309D01*
X157060752Y-131348187D01*
X145373646Y-131348187D01*
X143885054Y-130949320D01*
X143542849Y-130780563D01*
X143336631Y-130545417D01*
X143236098Y-130249255D01*
X143261052Y-129868523D01*
X143307653Y-129694602D01*
X148476004Y-129694602D01*
X148659088Y-129869223D01*
X149209930Y-129768846D01*
X149680429Y-129465312D01*
X149936332Y-129131796D01*
X149875968Y-128885750D01*
X148771997Y-128589942D01*
X148476004Y-129694602D01*
X143307653Y-129694602D01*
X143651515Y-128411294D01*
X147247380Y-128411294D01*
X147302241Y-128828078D01*
X147557938Y-129326196D01*
X147984792Y-129688546D01*
X148230658Y-129628862D01*
X148526651Y-128524202D01*
X147856355Y-128344596D01*
X148837737Y-128344596D01*
X149941708Y-128640405D01*
X150117008Y-128457504D01*
X150062147Y-128040720D01*
X149806450Y-127542602D01*
X149379596Y-127180252D01*
X149133730Y-127239936D01*
X148837737Y-128344596D01*
X147856355Y-128344596D01*
X147422680Y-128228393D01*
X147247380Y-128411294D01*
X143651515Y-128411294D01*
X143832191Y-127737002D01*
X147428056Y-127737002D01*
X147488420Y-127983048D01*
X148592391Y-128278856D01*
X148888384Y-127174196D01*
X148705300Y-126999575D01*
X148154458Y-127099952D01*
X147683959Y-127403486D01*
X147428056Y-127737002D01*
X143832191Y-127737002D01*
X145887759Y-120065520D01*
X145890714Y-120020430D01*
X145905240Y-119977639D01*
X145956351Y-119589410D01*
X145949049Y-119478006D01*
X145949049Y-119366363D01*
X145834868Y-118792338D01*
X145781984Y-118664666D01*
X145732587Y-118545410D01*
X145407428Y-118058774D01*
X145283131Y-117934478D01*
X145218437Y-117869783D01*
X144731802Y-117544624D01*
X144608337Y-117493484D01*
X144484873Y-117442343D01*
X143910848Y-117328162D01*
X143843381Y-117328162D01*
X143777211Y-117315000D01*
X71565463Y-117315000D01*
X71191956Y-117240027D01*
X70932208Y-117065813D01*
X70758730Y-116805200D01*
X70685000Y-116432837D01*
X70685000Y-61567467D01*
X70759437Y-61193250D01*
X70933197Y-60933198D01*
X71193250Y-60759437D01*
X71567467Y-60685000D01*
X145889274Y-60685000D01*
X146188482Y-60724391D01*
G36*
X179660910Y-92741441D02*
X179873110Y-92886431D01*
X180090000Y-92930352D01*
X180090000Y-93090995D01*
X180089999Y-93091000D01*
X180124444Y-93264162D01*
X180157367Y-93429675D01*
X180310865Y-93659402D01*
X180349210Y-93716790D01*
X181615000Y-94982579D01*
X181615000Y-98260021D01*
X181373211Y-98421580D01*
X181152969Y-98751194D01*
X181075631Y-99140000D01*
X181152969Y-99528806D01*
X181373211Y-99858420D01*
X181615000Y-100019979D01*
X181615000Y-103260021D01*
X181373211Y-103421580D01*
X181152969Y-103751194D01*
X181075631Y-104140000D01*
X181152969Y-104528806D01*
X181373211Y-104858420D01*
X181395864Y-104873556D01*
X180603210Y-105666210D01*
X180411367Y-105953325D01*
X180404616Y-105987264D01*
X180343999Y-106292000D01*
X180344000Y-106292005D01*
X180344000Y-113298421D01*
X178830420Y-114812000D01*
X177150579Y-114812000D01*
X176780000Y-114441420D01*
X176780000Y-114118714D01*
X176981441Y-113989090D01*
X177126431Y-113776890D01*
X177165000Y-113586431D01*
X177165000Y-113651310D01*
X177261673Y-113884699D01*
X177440302Y-114063327D01*
X177673691Y-114160000D01*
X178149250Y-114160000D01*
X178308000Y-114001250D01*
X178308000Y-113167000D01*
X178562000Y-113167000D01*
X178562000Y-114001250D01*
X178720750Y-114160000D01*
X179196309Y-114160000D01*
X179429698Y-114063327D01*
X179608327Y-113884699D01*
X179705000Y-113651310D01*
X179705000Y-113325750D01*
X179546250Y-113167000D01*
X178562000Y-113167000D01*
X178308000Y-113167000D01*
X178288000Y-113167000D01*
X178288000Y-112913000D01*
X178308000Y-112913000D01*
X178308000Y-112893000D01*
X178562000Y-112893000D01*
X178562000Y-112913000D01*
X179546250Y-112913000D01*
X179705000Y-112754250D01*
X179705000Y-112428690D01*
X179688371Y-112388545D01*
X179717440Y-112245000D01*
X179717440Y-111275000D01*
X179673162Y-111039683D01*
X179534090Y-110823559D01*
X179321890Y-110678569D01*
X179195000Y-110652873D01*
X179195000Y-109857954D01*
X179485054Y-109664147D01*
X179806961Y-109182378D01*
X179920000Y-108614093D01*
X179920000Y-108555907D01*
X179806961Y-107987622D01*
X179485054Y-107505853D01*
X179003285Y-107183946D01*
X178435000Y-107070907D01*
X178099934Y-107137556D01*
X178100162Y-106875833D01*
X177958117Y-106532057D01*
X177925000Y-106498882D01*
X177925000Y-105424000D01*
X177883169Y-105213702D01*
X177867148Y-105133160D01*
X177702401Y-104886599D01*
X176916564Y-104100762D01*
X176847031Y-103751194D01*
X176762573Y-103624794D01*
X177294089Y-103625257D01*
X177840086Y-103399656D01*
X178258188Y-102982283D01*
X178484742Y-102436681D01*
X178485257Y-101845911D01*
X178400246Y-101640169D01*
X178484742Y-101436681D01*
X178485257Y-100845911D01*
X178259656Y-100299914D01*
X177842283Y-99881812D01*
X177296681Y-99655258D01*
X176762849Y-99654793D01*
X176847031Y-99528806D01*
X176924369Y-99140000D01*
X176847031Y-98751194D01*
X176626789Y-98421580D01*
X176297175Y-98201338D01*
X176260000Y-98193943D01*
X176260000Y-97776000D01*
X176202148Y-97485161D01*
X176037401Y-97238599D01*
X175115904Y-96317102D01*
X175171000Y-96040113D01*
X175171000Y-95983887D01*
X175857000Y-95983887D01*
X175857000Y-96040113D01*
X175966233Y-96589264D01*
X176277302Y-97054811D01*
X176742849Y-97365880D01*
X177292000Y-97475113D01*
X177615886Y-97410688D01*
X178525213Y-98320015D01*
X178373211Y-98421580D01*
X178152969Y-98751194D01*
X178075631Y-99140000D01*
X178152969Y-99528806D01*
X178373211Y-99858420D01*
X178702825Y-100078662D01*
X178740000Y-100086057D01*
X178740000Y-103193943D01*
X178702825Y-103201338D01*
X178373211Y-103421580D01*
X178152969Y-103751194D01*
X178075631Y-104140000D01*
X178152969Y-104528806D01*
X178373211Y-104858420D01*
X178702825Y-105078662D01*
X179091631Y-105156000D01*
X179908369Y-105156000D01*
X180297175Y-105078662D01*
X180626789Y-104858420D01*
X180847031Y-104528806D01*
X180924369Y-104140000D01*
X180847031Y-103751194D01*
X180626789Y-103421580D01*
X180297175Y-103201338D01*
X180260000Y-103193943D01*
X180260000Y-100086057D01*
X180297175Y-100078662D01*
X180626789Y-99858420D01*
X180847031Y-99528806D01*
X180924369Y-99140000D01*
X180847031Y-98751194D01*
X180626789Y-98421580D01*
X180297175Y-98201338D01*
X180254603Y-98192870D01*
X180202148Y-97929161D01*
X180037401Y-97682599D01*
X178671904Y-96317102D01*
X178727000Y-96040113D01*
X178727000Y-95983887D01*
X178617767Y-95434736D01*
X178306698Y-94969189D01*
X177841151Y-94658120D01*
X177292000Y-94548887D01*
X176742849Y-94658120D01*
X176277302Y-94969189D01*
X175966233Y-95434736D01*
X175857000Y-95983887D01*
X175171000Y-95983887D01*
X175061767Y-95434736D01*
X174750698Y-94969189D01*
X174285151Y-94658120D01*
X173736000Y-94548887D01*
X173186849Y-94658120D01*
X172721302Y-94969189D01*
X172410233Y-95434736D01*
X172301000Y-95983887D01*
X172301000Y-96040113D01*
X172410233Y-96589264D01*
X172721302Y-97054811D01*
X173186849Y-97365880D01*
X173736000Y-97475113D01*
X174059886Y-97410688D01*
X174740000Y-98090802D01*
X174740000Y-98193943D01*
X174702825Y-98201338D01*
X174373211Y-98421580D01*
X174152969Y-98751194D01*
X174075631Y-99140000D01*
X174127000Y-99398250D01*
X174127000Y-100013000D01*
X174147000Y-100013000D01*
X174147000Y-100267000D01*
X174127000Y-100267000D01*
X174127000Y-101156000D01*
X174508000Y-101156000D01*
X174740000Y-101078936D01*
X174740000Y-102201064D01*
X174508000Y-102124000D01*
X174127000Y-102124000D01*
X174127000Y-103013000D01*
X174147000Y-103013000D01*
X174147000Y-103267000D01*
X174127000Y-103267000D01*
X174127000Y-103881750D01*
X174075631Y-104140000D01*
X174152969Y-104528806D01*
X174359018Y-104837180D01*
X174087599Y-105108599D01*
X173922852Y-105355161D01*
X173865000Y-105646000D01*
X173865000Y-105740889D01*
X173631327Y-105506808D01*
X173287799Y-105364162D01*
X172915833Y-105363838D01*
X172572057Y-105505883D01*
X172308808Y-105768673D01*
X172166162Y-106112201D01*
X172166121Y-106159077D01*
X171547599Y-106777599D01*
X171382852Y-107024161D01*
X171370241Y-107087560D01*
X169965000Y-107087560D01*
X169729683Y-107131838D01*
X169513559Y-107270910D01*
X169368569Y-107483110D01*
X169317560Y-107735000D01*
X169317560Y-109435000D01*
X169361838Y-109670317D01*
X169500910Y-109886441D01*
X169713110Y-110031431D01*
X169965000Y-110082440D01*
X170055000Y-110082440D01*
X170055000Y-110651080D01*
X169944683Y-110671838D01*
X169728559Y-110810910D01*
X169583569Y-111023110D01*
X169532560Y-111275000D01*
X169532560Y-112245000D01*
X169562796Y-112405690D01*
X169532560Y-112555000D01*
X169532560Y-113525000D01*
X169576838Y-113760317D01*
X169715910Y-113976441D01*
X169928110Y-114121431D01*
X170180000Y-114172440D01*
X171450000Y-114172440D01*
X171685317Y-114128162D01*
X171901441Y-113989090D01*
X172046431Y-113776890D01*
X172063267Y-113693754D01*
X172099729Y-113669390D01*
X172116838Y-113760317D01*
X172255910Y-113976441D01*
X172468110Y-114121431D01*
X172720000Y-114172440D01*
X173990000Y-114172440D01*
X174225317Y-114128162D01*
X174441441Y-113989090D01*
X174586431Y-113776890D01*
X174603267Y-113693754D01*
X174639729Y-113669390D01*
X174656838Y-113760317D01*
X174795910Y-113976441D01*
X175008110Y-114121431D01*
X175010000Y-114121814D01*
X175010000Y-114501178D01*
X174960162Y-114621201D01*
X174959838Y-114993167D01*
X175101883Y-115336943D01*
X175364673Y-115600192D01*
X175485986Y-115650566D01*
X176044421Y-116209000D01*
X170506210Y-116209000D01*
X170506205Y-116208999D01*
X170223721Y-116265190D01*
X170167530Y-116276367D01*
X169880415Y-116468210D01*
X169880413Y-116468213D01*
X164942088Y-121406538D01*
X163892152Y-121125208D01*
X163772275Y-121116103D01*
X163576999Y-120920826D01*
X163576999Y-112581801D01*
X164816599Y-113821401D01*
X165063160Y-113986148D01*
X165354000Y-114044000D01*
X165573009Y-114044000D01*
X165620638Y-114184315D01*
X166066984Y-114693288D01*
X166674131Y-114992709D01*
X167349644Y-115036993D01*
X167990684Y-114819397D01*
X168499657Y-114373051D01*
X168799078Y-113765904D01*
X168816674Y-113700238D01*
X168860958Y-113024724D01*
X168643362Y-112383685D01*
X168197016Y-111874711D01*
X167589869Y-111575291D01*
X166914356Y-111531007D01*
X166684797Y-111608929D01*
X166689440Y-111586000D01*
X166689440Y-111213362D01*
X167542401Y-110360401D01*
X167707148Y-110113839D01*
X167765000Y-109823000D01*
X167765000Y-106648646D01*
X167816800Y-106627243D01*
X168220824Y-106223923D01*
X168243215Y-106170000D01*
X169611333Y-106170000D01*
X169800302Y-106452811D01*
X170265849Y-106763880D01*
X170815000Y-106873113D01*
X171364151Y-106763880D01*
X171829698Y-106452811D01*
X172140767Y-105987264D01*
X172250000Y-105438113D01*
X172250000Y-105381887D01*
X172140767Y-104832736D01*
X171829698Y-104367189D01*
X171364151Y-104056120D01*
X170815000Y-103946887D01*
X170265849Y-104056120D01*
X169800302Y-104367189D01*
X169611333Y-104650000D01*
X168243646Y-104650000D01*
X168222243Y-104598200D01*
X167818923Y-104194176D01*
X167291691Y-103975250D01*
X166720813Y-103974752D01*
X166193200Y-104192757D01*
X165789176Y-104596077D01*
X165570250Y-105123309D01*
X165569752Y-105694187D01*
X165787757Y-106221800D01*
X166191077Y-106625824D01*
X166245000Y-106648215D01*
X166245000Y-108282766D01*
X166168309Y-108251000D01*
X165877750Y-108251000D01*
X165719000Y-108409750D01*
X165719000Y-109159000D01*
X165739000Y-109159000D01*
X165739000Y-109413000D01*
X165719000Y-109413000D01*
X165719000Y-109433000D01*
X165465000Y-109433000D01*
X165465000Y-109413000D01*
X164665750Y-109413000D01*
X164579738Y-109499012D01*
X164506090Y-109384559D01*
X164293890Y-109239569D01*
X164042000Y-109188560D01*
X164013362Y-109188560D01*
X163584492Y-108759690D01*
X164507000Y-108759690D01*
X164507000Y-109000250D01*
X164665750Y-109159000D01*
X165465000Y-109159000D01*
X165465000Y-108409750D01*
X165306250Y-108251000D01*
X165015691Y-108251000D01*
X164782302Y-108347673D01*
X164603673Y-108526301D01*
X164507000Y-108759690D01*
X163584492Y-108759690D01*
X162925222Y-108100420D01*
X163527506Y-107980618D01*
X164398583Y-107398583D01*
X164980618Y-106527506D01*
X165185001Y-105500001D01*
X164980618Y-104472496D01*
X164398583Y-103601419D01*
X164131751Y-103423127D01*
X172643247Y-103423127D01*
X172810777Y-103768618D01*
X173112861Y-104030061D01*
X173492000Y-104156000D01*
X173873000Y-104156000D01*
X173873000Y-103267000D01*
X172771210Y-103267000D01*
X172643247Y-103423127D01*
X164131751Y-103423127D01*
X163527506Y-103019384D01*
X162710507Y-102856873D01*
X172643247Y-102856873D01*
X172771210Y-103013000D01*
X173873000Y-103013000D01*
X173873000Y-102124000D01*
X173492000Y-102124000D01*
X173112861Y-102249939D01*
X172810777Y-102511382D01*
X172643247Y-102856873D01*
X162710507Y-102856873D01*
X162500001Y-102815001D01*
X161647440Y-102984586D01*
X161647440Y-102000000D01*
X161603162Y-101764683D01*
X161464090Y-101548559D01*
X161251890Y-101403569D01*
X161000000Y-101352560D01*
X156647440Y-101352560D01*
X156647440Y-100423127D01*
X172643247Y-100423127D01*
X172810777Y-100768618D01*
X173112861Y-101030061D01*
X173492000Y-101156000D01*
X173873000Y-101156000D01*
X173873000Y-100267000D01*
X172771210Y-100267000D01*
X172643247Y-100423127D01*
X156647440Y-100423127D01*
X156647440Y-99856873D01*
X172643247Y-99856873D01*
X172771210Y-100013000D01*
X173873000Y-100013000D01*
X173873000Y-99124000D01*
X173492000Y-99124000D01*
X173112861Y-99249939D01*
X172810777Y-99511382D01*
X172643247Y-99856873D01*
X156647440Y-99856873D01*
X156647440Y-99000000D01*
X156603162Y-98764683D01*
X156487540Y-98585001D01*
X160173494Y-98585001D01*
X160173499Y-98585002D01*
X160506543Y-98518754D01*
X160512174Y-98517634D01*
X160799289Y-98325791D01*
X163757287Y-95367792D01*
X163757290Y-95367790D01*
X164641079Y-94484000D01*
X165805343Y-94484000D01*
X165679233Y-94672736D01*
X165570000Y-95221887D01*
X165570000Y-95278113D01*
X165679233Y-95827264D01*
X165990302Y-96292811D01*
X166455849Y-96603880D01*
X167005000Y-96713113D01*
X167554151Y-96603880D01*
X168019698Y-96292811D01*
X168043128Y-96257745D01*
X169986861Y-96257745D01*
X170060995Y-96503864D01*
X170598223Y-96696965D01*
X171168454Y-96669778D01*
X171569005Y-96503864D01*
X171643139Y-96257745D01*
X170815000Y-95429605D01*
X169986861Y-96257745D01*
X168043128Y-96257745D01*
X168330767Y-95827264D01*
X168440000Y-95278113D01*
X168440000Y-95221887D01*
X168330767Y-94672736D01*
X168204657Y-94484000D01*
X169600958Y-94484000D01*
X169561136Y-94495995D01*
X169368035Y-95033223D01*
X169395222Y-95603454D01*
X169561136Y-96004005D01*
X169807255Y-96078139D01*
X170635395Y-95250000D01*
X170621252Y-95235858D01*
X170800858Y-95056252D01*
X170815000Y-95070395D01*
X170829142Y-95056252D01*
X171008748Y-95235858D01*
X170994605Y-95250000D01*
X171822745Y-96078139D01*
X172068864Y-96004005D01*
X172261965Y-95466777D01*
X172234778Y-94896546D01*
X172068864Y-94495995D01*
X172029042Y-94484000D01*
X177465995Y-94484000D01*
X177466000Y-94484001D01*
X177778392Y-94421861D01*
X177804675Y-94416633D01*
X178091790Y-94224790D01*
X179627327Y-92689252D01*
X179660910Y-92741441D01*
X179660910Y-92741441D01*
G37*
X179660910Y-92741441D02*
X179873110Y-92886431D01*
X180090000Y-92930352D01*
X180090000Y-93090995D01*
X180089999Y-93091000D01*
X180124444Y-93264162D01*
X180157367Y-93429675D01*
X180310865Y-93659402D01*
X180349210Y-93716790D01*
X181615000Y-94982579D01*
X181615000Y-98260021D01*
X181373211Y-98421580D01*
X181152969Y-98751194D01*
X181075631Y-99140000D01*
X181152969Y-99528806D01*
X181373211Y-99858420D01*
X181615000Y-100019979D01*
X181615000Y-103260021D01*
X181373211Y-103421580D01*
X181152969Y-103751194D01*
X181075631Y-104140000D01*
X181152969Y-104528806D01*
X181373211Y-104858420D01*
X181395864Y-104873556D01*
X180603210Y-105666210D01*
X180411367Y-105953325D01*
X180404616Y-105987264D01*
X180343999Y-106292000D01*
X180344000Y-106292005D01*
X180344000Y-113298421D01*
X178830420Y-114812000D01*
X177150579Y-114812000D01*
X176780000Y-114441420D01*
X176780000Y-114118714D01*
X176981441Y-113989090D01*
X177126431Y-113776890D01*
X177165000Y-113586431D01*
X177165000Y-113651310D01*
X177261673Y-113884699D01*
X177440302Y-114063327D01*
X177673691Y-114160000D01*
X178149250Y-114160000D01*
X178308000Y-114001250D01*
X178308000Y-113167000D01*
X178562000Y-113167000D01*
X178562000Y-114001250D01*
X178720750Y-114160000D01*
X179196309Y-114160000D01*
X179429698Y-114063327D01*
X179608327Y-113884699D01*
X179705000Y-113651310D01*
X179705000Y-113325750D01*
X179546250Y-113167000D01*
X178562000Y-113167000D01*
X178308000Y-113167000D01*
X178288000Y-113167000D01*
X178288000Y-112913000D01*
X178308000Y-112913000D01*
X178308000Y-112893000D01*
X178562000Y-112893000D01*
X178562000Y-112913000D01*
X179546250Y-112913000D01*
X179705000Y-112754250D01*
X179705000Y-112428690D01*
X179688371Y-112388545D01*
X179717440Y-112245000D01*
X179717440Y-111275000D01*
X179673162Y-111039683D01*
X179534090Y-110823559D01*
X179321890Y-110678569D01*
X179195000Y-110652873D01*
X179195000Y-109857954D01*
X179485054Y-109664147D01*
X179806961Y-109182378D01*
X179920000Y-108614093D01*
X179920000Y-108555907D01*
X179806961Y-107987622D01*
X179485054Y-107505853D01*
X179003285Y-107183946D01*
X178435000Y-107070907D01*
X178099934Y-107137556D01*
X178100162Y-106875833D01*
X177958117Y-106532057D01*
X177925000Y-106498882D01*
X177925000Y-105424000D01*
X177883169Y-105213702D01*
X177867148Y-105133160D01*
X177702401Y-104886599D01*
X176916564Y-104100762D01*
X176847031Y-103751194D01*
X176762573Y-103624794D01*
X177294089Y-103625257D01*
X177840086Y-103399656D01*
X178258188Y-102982283D01*
X178484742Y-102436681D01*
X178485257Y-101845911D01*
X178400246Y-101640169D01*
X178484742Y-101436681D01*
X178485257Y-100845911D01*
X178259656Y-100299914D01*
X177842283Y-99881812D01*
X177296681Y-99655258D01*
X176762849Y-99654793D01*
X176847031Y-99528806D01*
X176924369Y-99140000D01*
X176847031Y-98751194D01*
X176626789Y-98421580D01*
X176297175Y-98201338D01*
X176260000Y-98193943D01*
X176260000Y-97776000D01*
X176202148Y-97485161D01*
X176037401Y-97238599D01*
X175115904Y-96317102D01*
X175171000Y-96040113D01*
X175171000Y-95983887D01*
X175857000Y-95983887D01*
X175857000Y-96040113D01*
X175966233Y-96589264D01*
X176277302Y-97054811D01*
X176742849Y-97365880D01*
X177292000Y-97475113D01*
X177615886Y-97410688D01*
X178525213Y-98320015D01*
X178373211Y-98421580D01*
X178152969Y-98751194D01*
X178075631Y-99140000D01*
X178152969Y-99528806D01*
X178373211Y-99858420D01*
X178702825Y-100078662D01*
X178740000Y-100086057D01*
X178740000Y-103193943D01*
X178702825Y-103201338D01*
X178373211Y-103421580D01*
X178152969Y-103751194D01*
X178075631Y-104140000D01*
X178152969Y-104528806D01*
X178373211Y-104858420D01*
X178702825Y-105078662D01*
X179091631Y-105156000D01*
X179908369Y-105156000D01*
X180297175Y-105078662D01*
X180626789Y-104858420D01*
X180847031Y-104528806D01*
X180924369Y-104140000D01*
X180847031Y-103751194D01*
X180626789Y-103421580D01*
X180297175Y-103201338D01*
X180260000Y-103193943D01*
X180260000Y-100086057D01*
X180297175Y-100078662D01*
X180626789Y-99858420D01*
X180847031Y-99528806D01*
X180924369Y-99140000D01*
X180847031Y-98751194D01*
X180626789Y-98421580D01*
X180297175Y-98201338D01*
X180254603Y-98192870D01*
X180202148Y-97929161D01*
X180037401Y-97682599D01*
X178671904Y-96317102D01*
X178727000Y-96040113D01*
X178727000Y-95983887D01*
X178617767Y-95434736D01*
X178306698Y-94969189D01*
X177841151Y-94658120D01*
X177292000Y-94548887D01*
X176742849Y-94658120D01*
X176277302Y-94969189D01*
X175966233Y-95434736D01*
X175857000Y-95983887D01*
X175171000Y-95983887D01*
X175061767Y-95434736D01*
X174750698Y-94969189D01*
X174285151Y-94658120D01*
X173736000Y-94548887D01*
X173186849Y-94658120D01*
X172721302Y-94969189D01*
X172410233Y-95434736D01*
X172301000Y-95983887D01*
X172301000Y-96040113D01*
X172410233Y-96589264D01*
X172721302Y-97054811D01*
X173186849Y-97365880D01*
X173736000Y-97475113D01*
X174059886Y-97410688D01*
X174740000Y-98090802D01*
X174740000Y-98193943D01*
X174702825Y-98201338D01*
X174373211Y-98421580D01*
X174152969Y-98751194D01*
X174075631Y-99140000D01*
X174127000Y-99398250D01*
X174127000Y-100013000D01*
X174147000Y-100013000D01*
X174147000Y-100267000D01*
X174127000Y-100267000D01*
X174127000Y-101156000D01*
X174508000Y-101156000D01*
X174740000Y-101078936D01*
X174740000Y-102201064D01*
X174508000Y-102124000D01*
X174127000Y-102124000D01*
X174127000Y-103013000D01*
X174147000Y-103013000D01*
X174147000Y-103267000D01*
X174127000Y-103267000D01*
X174127000Y-103881750D01*
X174075631Y-104140000D01*
X174152969Y-104528806D01*
X174359018Y-104837180D01*
X174087599Y-105108599D01*
X173922852Y-105355161D01*
X173865000Y-105646000D01*
X173865000Y-105740889D01*
X173631327Y-105506808D01*
X173287799Y-105364162D01*
X172915833Y-105363838D01*
X172572057Y-105505883D01*
X172308808Y-105768673D01*
X172166162Y-106112201D01*
X172166121Y-106159077D01*
X171547599Y-106777599D01*
X171382852Y-107024161D01*
X171370241Y-107087560D01*
X169965000Y-107087560D01*
X169729683Y-107131838D01*
X169513559Y-107270910D01*
X169368569Y-107483110D01*
X169317560Y-107735000D01*
X169317560Y-109435000D01*
X169361838Y-109670317D01*
X169500910Y-109886441D01*
X169713110Y-110031431D01*
X169965000Y-110082440D01*
X170055000Y-110082440D01*
X170055000Y-110651080D01*
X169944683Y-110671838D01*
X169728559Y-110810910D01*
X169583569Y-111023110D01*
X169532560Y-111275000D01*
X169532560Y-112245000D01*
X169562796Y-112405690D01*
X169532560Y-112555000D01*
X169532560Y-113525000D01*
X169576838Y-113760317D01*
X169715910Y-113976441D01*
X169928110Y-114121431D01*
X170180000Y-114172440D01*
X171450000Y-114172440D01*
X171685317Y-114128162D01*
X171901441Y-113989090D01*
X172046431Y-113776890D01*
X172063267Y-113693754D01*
X172099729Y-113669390D01*
X172116838Y-113760317D01*
X172255910Y-113976441D01*
X172468110Y-114121431D01*
X172720000Y-114172440D01*
X173990000Y-114172440D01*
X174225317Y-114128162D01*
X174441441Y-113989090D01*
X174586431Y-113776890D01*
X174603267Y-113693754D01*
X174639729Y-113669390D01*
X174656838Y-113760317D01*
X174795910Y-113976441D01*
X175008110Y-114121431D01*
X175010000Y-114121814D01*
X175010000Y-114501178D01*
X174960162Y-114621201D01*
X174959838Y-114993167D01*
X175101883Y-115336943D01*
X175364673Y-115600192D01*
X175485986Y-115650566D01*
X176044421Y-116209000D01*
X170506210Y-116209000D01*
X170506205Y-116208999D01*
X170223721Y-116265190D01*
X170167530Y-116276367D01*
X169880415Y-116468210D01*
X169880413Y-116468213D01*
X164942088Y-121406538D01*
X163892152Y-121125208D01*
X163772275Y-121116103D01*
X163576999Y-120920826D01*
X163576999Y-112581801D01*
X164816599Y-113821401D01*
X165063160Y-113986148D01*
X165354000Y-114044000D01*
X165573009Y-114044000D01*
X165620638Y-114184315D01*
X166066984Y-114693288D01*
X166674131Y-114992709D01*
X167349644Y-115036993D01*
X167990684Y-114819397D01*
X168499657Y-114373051D01*
X168799078Y-113765904D01*
X168816674Y-113700238D01*
X168860958Y-113024724D01*
X168643362Y-112383685D01*
X168197016Y-111874711D01*
X167589869Y-111575291D01*
X166914356Y-111531007D01*
X166684797Y-111608929D01*
X166689440Y-111586000D01*
X166689440Y-111213362D01*
X167542401Y-110360401D01*
X167707148Y-110113839D01*
X167765000Y-109823000D01*
X167765000Y-106648646D01*
X167816800Y-106627243D01*
X168220824Y-106223923D01*
X168243215Y-106170000D01*
X169611333Y-106170000D01*
X169800302Y-106452811D01*
X170265849Y-106763880D01*
X170815000Y-106873113D01*
X171364151Y-106763880D01*
X171829698Y-106452811D01*
X172140767Y-105987264D01*
X172250000Y-105438113D01*
X172250000Y-105381887D01*
X172140767Y-104832736D01*
X171829698Y-104367189D01*
X171364151Y-104056120D01*
X170815000Y-103946887D01*
X170265849Y-104056120D01*
X169800302Y-104367189D01*
X169611333Y-104650000D01*
X168243646Y-104650000D01*
X168222243Y-104598200D01*
X167818923Y-104194176D01*
X167291691Y-103975250D01*
X166720813Y-103974752D01*
X166193200Y-104192757D01*
X165789176Y-104596077D01*
X165570250Y-105123309D01*
X165569752Y-105694187D01*
X165787757Y-106221800D01*
X166191077Y-106625824D01*
X166245000Y-106648215D01*
X166245000Y-108282766D01*
X166168309Y-108251000D01*
X165877750Y-108251000D01*
X165719000Y-108409750D01*
X165719000Y-109159000D01*
X165739000Y-109159000D01*
X165739000Y-109413000D01*
X165719000Y-109413000D01*
X165719000Y-109433000D01*
X165465000Y-109433000D01*
X165465000Y-109413000D01*
X164665750Y-109413000D01*
X164579738Y-109499012D01*
X164506090Y-109384559D01*
X164293890Y-109239569D01*
X164042000Y-109188560D01*
X164013362Y-109188560D01*
X163584492Y-108759690D01*
X164507000Y-108759690D01*
X164507000Y-109000250D01*
X164665750Y-109159000D01*
X165465000Y-109159000D01*
X165465000Y-108409750D01*
X165306250Y-108251000D01*
X165015691Y-108251000D01*
X164782302Y-108347673D01*
X164603673Y-108526301D01*
X164507000Y-108759690D01*
X163584492Y-108759690D01*
X162925222Y-108100420D01*
X163527506Y-107980618D01*
X164398583Y-107398583D01*
X164980618Y-106527506D01*
X165185001Y-105500001D01*
X164980618Y-104472496D01*
X164398583Y-103601419D01*
X164131751Y-103423127D01*
X172643247Y-103423127D01*
X172810777Y-103768618D01*
X173112861Y-104030061D01*
X173492000Y-104156000D01*
X173873000Y-104156000D01*
X173873000Y-103267000D01*
X172771210Y-103267000D01*
X172643247Y-103423127D01*
X164131751Y-103423127D01*
X163527506Y-103019384D01*
X162710507Y-102856873D01*
X172643247Y-102856873D01*
X172771210Y-103013000D01*
X173873000Y-103013000D01*
X173873000Y-102124000D01*
X173492000Y-102124000D01*
X173112861Y-102249939D01*
X172810777Y-102511382D01*
X172643247Y-102856873D01*
X162710507Y-102856873D01*
X162500001Y-102815001D01*
X161647440Y-102984586D01*
X161647440Y-102000000D01*
X161603162Y-101764683D01*
X161464090Y-101548559D01*
X161251890Y-101403569D01*
X161000000Y-101352560D01*
X156647440Y-101352560D01*
X156647440Y-100423127D01*
X172643247Y-100423127D01*
X172810777Y-100768618D01*
X173112861Y-101030061D01*
X173492000Y-101156000D01*
X173873000Y-101156000D01*
X173873000Y-100267000D01*
X172771210Y-100267000D01*
X172643247Y-100423127D01*
X156647440Y-100423127D01*
X156647440Y-99856873D01*
X172643247Y-99856873D01*
X172771210Y-100013000D01*
X173873000Y-100013000D01*
X173873000Y-99124000D01*
X173492000Y-99124000D01*
X173112861Y-99249939D01*
X172810777Y-99511382D01*
X172643247Y-99856873D01*
X156647440Y-99856873D01*
X156647440Y-99000000D01*
X156603162Y-98764683D01*
X156487540Y-98585001D01*
X160173494Y-98585001D01*
X160173499Y-98585002D01*
X160506543Y-98518754D01*
X160512174Y-98517634D01*
X160799289Y-98325791D01*
X163757287Y-95367792D01*
X163757290Y-95367790D01*
X164641079Y-94484000D01*
X165805343Y-94484000D01*
X165679233Y-94672736D01*
X165570000Y-95221887D01*
X165570000Y-95278113D01*
X165679233Y-95827264D01*
X165990302Y-96292811D01*
X166455849Y-96603880D01*
X167005000Y-96713113D01*
X167554151Y-96603880D01*
X168019698Y-96292811D01*
X168043128Y-96257745D01*
X169986861Y-96257745D01*
X170060995Y-96503864D01*
X170598223Y-96696965D01*
X171168454Y-96669778D01*
X171569005Y-96503864D01*
X171643139Y-96257745D01*
X170815000Y-95429605D01*
X169986861Y-96257745D01*
X168043128Y-96257745D01*
X168330767Y-95827264D01*
X168440000Y-95278113D01*
X168440000Y-95221887D01*
X168330767Y-94672736D01*
X168204657Y-94484000D01*
X169600958Y-94484000D01*
X169561136Y-94495995D01*
X169368035Y-95033223D01*
X169395222Y-95603454D01*
X169561136Y-96004005D01*
X169807255Y-96078139D01*
X170635395Y-95250000D01*
X170621252Y-95235858D01*
X170800858Y-95056252D01*
X170815000Y-95070395D01*
X170829142Y-95056252D01*
X171008748Y-95235858D01*
X170994605Y-95250000D01*
X171822745Y-96078139D01*
X172068864Y-96004005D01*
X172261965Y-95466777D01*
X172234778Y-94896546D01*
X172068864Y-94495995D01*
X172029042Y-94484000D01*
X177465995Y-94484000D01*
X177466000Y-94484001D01*
X177778392Y-94421861D01*
X177804675Y-94416633D01*
X178091790Y-94224790D01*
X179627327Y-92689252D01*
X179660910Y-92741441D01*
G36*
X141990000Y-94481579D02*
X141990000Y-96815001D01*
X140299999Y-96815001D01*
X139961324Y-96882368D01*
X139687749Y-97065164D01*
X139215813Y-97064752D01*
X138688200Y-97282757D01*
X138355377Y-97615000D01*
X136597096Y-97615000D01*
X136258421Y-97682367D01*
X135971306Y-97874210D01*
X135971304Y-97874213D01*
X135855105Y-97990412D01*
X135753864Y-97745995D01*
X135507745Y-97671861D01*
X134679605Y-98500000D01*
X134693748Y-98514143D01*
X134514143Y-98693748D01*
X134500000Y-98679605D01*
X133671861Y-99507745D01*
X133745995Y-99753864D01*
X134000259Y-99845257D01*
X133765516Y-100080000D01*
X131571208Y-100080000D01*
X131573360Y-100078573D01*
X131834989Y-99816944D01*
X131970074Y-99619241D01*
X132024558Y-99368079D01*
X131977034Y-99115508D01*
X131834989Y-98901326D01*
X131433663Y-98500000D01*
X131764663Y-98169000D01*
X131859928Y-98169000D01*
X131921883Y-98318943D01*
X132184673Y-98582192D01*
X132528201Y-98724838D01*
X132900167Y-98725162D01*
X133070745Y-98654681D01*
X133080222Y-98853454D01*
X133246136Y-99254005D01*
X133492255Y-99328139D01*
X134320395Y-98500000D01*
X134306252Y-98485858D01*
X134485858Y-98306252D01*
X134500000Y-98320395D01*
X135328139Y-97492255D01*
X135277704Y-97324814D01*
X135299159Y-97339150D01*
X135589998Y-97397002D01*
X136534998Y-97397002D01*
X136825837Y-97339150D01*
X137072399Y-97174403D01*
X138656888Y-95589914D01*
X138705302Y-95638327D01*
X138938691Y-95735000D01*
X139414250Y-95735000D01*
X139573000Y-95576250D01*
X139573000Y-94742000D01*
X139827000Y-94742000D01*
X139827000Y-95576250D01*
X139985750Y-95735000D01*
X140461309Y-95735000D01*
X140694698Y-95638327D01*
X140873327Y-95459699D01*
X140970000Y-95226310D01*
X140970000Y-94900750D01*
X140811250Y-94742000D01*
X139827000Y-94742000D01*
X139573000Y-94742000D01*
X139553000Y-94742000D01*
X139553000Y-94488000D01*
X139573000Y-94488000D01*
X139573000Y-94477440D01*
X139827000Y-94477440D01*
X139827000Y-94488000D01*
X140811250Y-94488000D01*
X140970000Y-94329250D01*
X140970000Y-94003690D01*
X140954732Y-93966829D01*
X140982440Y-93830000D01*
X140982440Y-93474020D01*
X141990000Y-94481579D01*
X141990000Y-94481579D01*
G37*
X141990000Y-94481579D02*
X141990000Y-96815001D01*
X140299999Y-96815001D01*
X139961324Y-96882368D01*
X139687749Y-97065164D01*
X139215813Y-97064752D01*
X138688200Y-97282757D01*
X138355377Y-97615000D01*
X136597096Y-97615000D01*
X136258421Y-97682367D01*
X135971306Y-97874210D01*
X135971304Y-97874213D01*
X135855105Y-97990412D01*
X135753864Y-97745995D01*
X135507745Y-97671861D01*
X134679605Y-98500000D01*
X134693748Y-98514143D01*
X134514143Y-98693748D01*
X134500000Y-98679605D01*
X133671861Y-99507745D01*
X133745995Y-99753864D01*
X134000259Y-99845257D01*
X133765516Y-100080000D01*
X131571208Y-100080000D01*
X131573360Y-100078573D01*
X131834989Y-99816944D01*
X131970074Y-99619241D01*
X132024558Y-99368079D01*
X131977034Y-99115508D01*
X131834989Y-98901326D01*
X131433663Y-98500000D01*
X131764663Y-98169000D01*
X131859928Y-98169000D01*
X131921883Y-98318943D01*
X132184673Y-98582192D01*
X132528201Y-98724838D01*
X132900167Y-98725162D01*
X133070745Y-98654681D01*
X133080222Y-98853454D01*
X133246136Y-99254005D01*
X133492255Y-99328139D01*
X134320395Y-98500000D01*
X134306252Y-98485858D01*
X134485858Y-98306252D01*
X134500000Y-98320395D01*
X135328139Y-97492255D01*
X135277704Y-97324814D01*
X135299159Y-97339150D01*
X135589998Y-97397002D01*
X136534998Y-97397002D01*
X136825837Y-97339150D01*
X137072399Y-97174403D01*
X138656888Y-95589914D01*
X138705302Y-95638327D01*
X138938691Y-95735000D01*
X139414250Y-95735000D01*
X139573000Y-95576250D01*
X139573000Y-94742000D01*
X139827000Y-94742000D01*
X139827000Y-95576250D01*
X139985750Y-95735000D01*
X140461309Y-95735000D01*
X140694698Y-95638327D01*
X140873327Y-95459699D01*
X140970000Y-95226310D01*
X140970000Y-94900750D01*
X140811250Y-94742000D01*
X139827000Y-94742000D01*
X139573000Y-94742000D01*
X139553000Y-94742000D01*
X139553000Y-94488000D01*
X139573000Y-94488000D01*
X139573000Y-94477440D01*
X139827000Y-94477440D01*
X139827000Y-94488000D01*
X140811250Y-94488000D01*
X140970000Y-94329250D01*
X140970000Y-94003690D01*
X140954732Y-93966829D01*
X140982440Y-93830000D01*
X140982440Y-93474020D01*
X141990000Y-94481579D01*
G36*
X132080000Y-94329250D02*
X132238750Y-94488000D01*
X133223000Y-94488000D01*
X133223000Y-94477440D01*
X133477000Y-94477440D01*
X133477000Y-94488000D01*
X133497000Y-94488000D01*
X133497000Y-94742000D01*
X133477000Y-94742000D01*
X133477000Y-94762000D01*
X133223000Y-94762000D01*
X133223000Y-94742000D01*
X132238750Y-94742000D01*
X132139887Y-94840863D01*
X130394161Y-94840863D01*
X131130024Y-94105000D01*
X132080000Y-94105000D01*
X132080000Y-94329250D01*
X132080000Y-94329250D01*
G37*
X132080000Y-94329250D02*
X132238750Y-94488000D01*
X133223000Y-94488000D01*
X133223000Y-94477440D01*
X133477000Y-94477440D01*
X133477000Y-94488000D01*
X133497000Y-94488000D01*
X133497000Y-94742000D01*
X133477000Y-94742000D01*
X133477000Y-94762000D01*
X133223000Y-94762000D01*
X133223000Y-94742000D01*
X132238750Y-94742000D01*
X132139887Y-94840863D01*
X130394161Y-94840863D01*
X131130024Y-94105000D01*
X132080000Y-94105000D01*
X132080000Y-94329250D01*
G36*
X136652000Y-94488000D02*
X136672000Y-94488000D01*
X136672000Y-94742000D01*
X136652000Y-94742000D01*
X136652000Y-94762000D01*
X136398000Y-94762000D01*
X136398000Y-94742000D01*
X136378000Y-94742000D01*
X136378000Y-94488000D01*
X136398000Y-94488000D01*
X136398000Y-94477440D01*
X136652000Y-94477440D01*
X136652000Y-94488000D01*
X136652000Y-94488000D01*
G37*
X136652000Y-94488000D02*
X136672000Y-94488000D01*
X136672000Y-94742000D01*
X136652000Y-94742000D01*
X136652000Y-94762000D01*
X136398000Y-94762000D01*
X136398000Y-94742000D01*
X136378000Y-94742000D01*
X136378000Y-94488000D01*
X136398000Y-94488000D01*
X136398000Y-94477440D01*
X136652000Y-94477440D01*
X136652000Y-94488000D01*
M02*
